G04 #@! TF.GenerationSoftware,KiCad,Pcbnew,(5.1.2)-2*
G04 #@! TF.CreationDate,2019-07-01T23:58:17+07:00*
G04 #@! TF.ProjectId,weather,77656174-6865-4722-9e6b-696361645f70,rev?*
G04 #@! TF.SameCoordinates,Original*
G04 #@! TF.FileFunction,Copper,L2,Bot*
G04 #@! TF.FilePolarity,Positive*
%FSLAX46Y46*%
G04 Gerber Fmt 4.6, Leading zero omitted, Abs format (unit mm)*
G04 Created by KiCad (PCBNEW (5.1.2)-2) date 2019-07-01 23:58:17*
%MOMM*%
%LPD*%
G04 APERTURE LIST*
%ADD10C,0.100000*%
%ADD11C,0.150000*%
%ADD12C,0.300000*%
%ADD13C,0.400000*%
%ADD14O,1.700000X1.700000*%
%ADD15R,1.700000X1.700000*%
%ADD16O,1.600000X1.600000*%
%ADD17C,1.600000*%
%ADD18C,0.800000*%
%ADD19C,0.600000*%
G04 APERTURE END LIST*
D10*
D11*
X177002200Y-166007200D02*
X177002200Y-198007200D01*
X285002200Y-198007200D01*
X285002200Y-166007200D01*
X177002200Y-166007200D01*
D10*
D11*
X10000000Y-10000000D02*
X10000000Y-200007200D01*
X287002200Y-200007200D01*
X287002200Y-10000000D01*
X10000000Y-10000000D01*
D10*
D11*
X12000000Y-12000000D02*
X12000000Y-198007200D01*
X285002200Y-198007200D01*
X285002200Y-12000000D01*
X12000000Y-12000000D01*
D10*
D11*
X60000000Y-12000000D02*
X60000000Y-10000000D01*
D10*
D11*
X110000000Y-12000000D02*
X110000000Y-10000000D01*
D10*
D11*
X160000000Y-12000000D02*
X160000000Y-10000000D01*
D10*
D11*
X210000000Y-12000000D02*
X210000000Y-10000000D01*
D10*
D11*
X260000000Y-12000000D02*
X260000000Y-10000000D01*
D10*
D11*
X36065476Y-11588095D02*
X35322619Y-11588095D01*
X35694047Y-11588095D02*
X35694047Y-10288095D01*
X35570238Y-10473809D01*
X35446428Y-10597619D01*
X35322619Y-10659523D01*
D10*
D11*
X85322619Y-10411904D02*
X85384523Y-10350000D01*
X85508333Y-10288095D01*
X85817857Y-10288095D01*
X85941666Y-10350000D01*
X86003571Y-10411904D01*
X86065476Y-10535714D01*
X86065476Y-10659523D01*
X86003571Y-10845238D01*
X85260714Y-11588095D01*
X86065476Y-11588095D01*
D10*
D11*
X135260714Y-10288095D02*
X136065476Y-10288095D01*
X135632142Y-10783333D01*
X135817857Y-10783333D01*
X135941666Y-10845238D01*
X136003571Y-10907142D01*
X136065476Y-11030952D01*
X136065476Y-11340476D01*
X136003571Y-11464285D01*
X135941666Y-11526190D01*
X135817857Y-11588095D01*
X135446428Y-11588095D01*
X135322619Y-11526190D01*
X135260714Y-11464285D01*
D10*
D11*
X185941666Y-10721428D02*
X185941666Y-11588095D01*
X185632142Y-10226190D02*
X185322619Y-11154761D01*
X186127380Y-11154761D01*
D10*
D11*
X236003571Y-10288095D02*
X235384523Y-10288095D01*
X235322619Y-10907142D01*
X235384523Y-10845238D01*
X235508333Y-10783333D01*
X235817857Y-10783333D01*
X235941666Y-10845238D01*
X236003571Y-10907142D01*
X236065476Y-11030952D01*
X236065476Y-11340476D01*
X236003571Y-11464285D01*
X235941666Y-11526190D01*
X235817857Y-11588095D01*
X235508333Y-11588095D01*
X235384523Y-11526190D01*
X235322619Y-11464285D01*
D10*
D11*
X285941666Y-10288095D02*
X285694047Y-10288095D01*
X285570238Y-10350000D01*
X285508333Y-10411904D01*
X285384523Y-10597619D01*
X285322619Y-10845238D01*
X285322619Y-11340476D01*
X285384523Y-11464285D01*
X285446428Y-11526190D01*
X285570238Y-11588095D01*
X285817857Y-11588095D01*
X285941666Y-11526190D01*
X286003571Y-11464285D01*
X286065476Y-11340476D01*
X286065476Y-11030952D01*
X286003571Y-10907142D01*
X285941666Y-10845238D01*
X285817857Y-10783333D01*
X285570238Y-10783333D01*
X285446428Y-10845238D01*
X285384523Y-10907142D01*
X285322619Y-11030952D01*
D10*
D11*
X60000000Y-198007200D02*
X60000000Y-200007200D01*
D10*
D11*
X110000000Y-198007200D02*
X110000000Y-200007200D01*
D10*
D11*
X160000000Y-198007200D02*
X160000000Y-200007200D01*
D10*
D11*
X210000000Y-198007200D02*
X210000000Y-200007200D01*
D10*
D11*
X260000000Y-198007200D02*
X260000000Y-200007200D01*
D10*
D11*
X36065476Y-199595295D02*
X35322619Y-199595295D01*
X35694047Y-199595295D02*
X35694047Y-198295295D01*
X35570238Y-198481009D01*
X35446428Y-198604819D01*
X35322619Y-198666723D01*
D10*
D11*
X85322619Y-198419104D02*
X85384523Y-198357200D01*
X85508333Y-198295295D01*
X85817857Y-198295295D01*
X85941666Y-198357200D01*
X86003571Y-198419104D01*
X86065476Y-198542914D01*
X86065476Y-198666723D01*
X86003571Y-198852438D01*
X85260714Y-199595295D01*
X86065476Y-199595295D01*
D10*
D11*
X135260714Y-198295295D02*
X136065476Y-198295295D01*
X135632142Y-198790533D01*
X135817857Y-198790533D01*
X135941666Y-198852438D01*
X136003571Y-198914342D01*
X136065476Y-199038152D01*
X136065476Y-199347676D01*
X136003571Y-199471485D01*
X135941666Y-199533390D01*
X135817857Y-199595295D01*
X135446428Y-199595295D01*
X135322619Y-199533390D01*
X135260714Y-199471485D01*
D10*
D11*
X185941666Y-198728628D02*
X185941666Y-199595295D01*
X185632142Y-198233390D02*
X185322619Y-199161961D01*
X186127380Y-199161961D01*
D10*
D11*
X236003571Y-198295295D02*
X235384523Y-198295295D01*
X235322619Y-198914342D01*
X235384523Y-198852438D01*
X235508333Y-198790533D01*
X235817857Y-198790533D01*
X235941666Y-198852438D01*
X236003571Y-198914342D01*
X236065476Y-199038152D01*
X236065476Y-199347676D01*
X236003571Y-199471485D01*
X235941666Y-199533390D01*
X235817857Y-199595295D01*
X235508333Y-199595295D01*
X235384523Y-199533390D01*
X235322619Y-199471485D01*
D10*
D11*
X285941666Y-198295295D02*
X285694047Y-198295295D01*
X285570238Y-198357200D01*
X285508333Y-198419104D01*
X285384523Y-198604819D01*
X285322619Y-198852438D01*
X285322619Y-199347676D01*
X285384523Y-199471485D01*
X285446428Y-199533390D01*
X285570238Y-199595295D01*
X285817857Y-199595295D01*
X285941666Y-199533390D01*
X286003571Y-199471485D01*
X286065476Y-199347676D01*
X286065476Y-199038152D01*
X286003571Y-198914342D01*
X285941666Y-198852438D01*
X285817857Y-198790533D01*
X285570238Y-198790533D01*
X285446428Y-198852438D01*
X285384523Y-198914342D01*
X285322619Y-199038152D01*
D10*
D11*
X10000000Y-60000000D02*
X12000000Y-60000000D01*
D10*
D11*
X10000000Y-110000000D02*
X12000000Y-110000000D01*
D10*
D11*
X10000000Y-160000000D02*
X12000000Y-160000000D01*
D10*
D11*
X10690476Y-35216666D02*
X11309523Y-35216666D01*
X10566666Y-35588095D02*
X11000000Y-34288095D01*
X11433333Y-35588095D01*
D10*
D11*
X11092857Y-84907142D02*
X11278571Y-84969047D01*
X11340476Y-85030952D01*
X11402380Y-85154761D01*
X11402380Y-85340476D01*
X11340476Y-85464285D01*
X11278571Y-85526190D01*
X11154761Y-85588095D01*
X10659523Y-85588095D01*
X10659523Y-84288095D01*
X11092857Y-84288095D01*
X11216666Y-84350000D01*
X11278571Y-84411904D01*
X11340476Y-84535714D01*
X11340476Y-84659523D01*
X11278571Y-84783333D01*
X11216666Y-84845238D01*
X11092857Y-84907142D01*
X10659523Y-84907142D01*
D10*
D11*
X11402380Y-135464285D02*
X11340476Y-135526190D01*
X11154761Y-135588095D01*
X11030952Y-135588095D01*
X10845238Y-135526190D01*
X10721428Y-135402380D01*
X10659523Y-135278571D01*
X10597619Y-135030952D01*
X10597619Y-134845238D01*
X10659523Y-134597619D01*
X10721428Y-134473809D01*
X10845238Y-134350000D01*
X11030952Y-134288095D01*
X11154761Y-134288095D01*
X11340476Y-134350000D01*
X11402380Y-134411904D01*
D10*
D11*
X10659523Y-185588095D02*
X10659523Y-184288095D01*
X10969047Y-184288095D01*
X11154761Y-184350000D01*
X11278571Y-184473809D01*
X11340476Y-184597619D01*
X11402380Y-184845238D01*
X11402380Y-185030952D01*
X11340476Y-185278571D01*
X11278571Y-185402380D01*
X11154761Y-185526190D01*
X10969047Y-185588095D01*
X10659523Y-185588095D01*
D10*
D11*
X287002200Y-60000000D02*
X285002200Y-60000000D01*
D10*
D11*
X287002200Y-110000000D02*
X285002200Y-110000000D01*
D10*
D11*
X287002200Y-160000000D02*
X285002200Y-160000000D01*
D10*
D11*
X285692676Y-35216666D02*
X286311723Y-35216666D01*
X285568866Y-35588095D02*
X286002200Y-34288095D01*
X286435533Y-35588095D01*
D10*
D11*
X286095057Y-84907142D02*
X286280771Y-84969047D01*
X286342676Y-85030952D01*
X286404580Y-85154761D01*
X286404580Y-85340476D01*
X286342676Y-85464285D01*
X286280771Y-85526190D01*
X286156961Y-85588095D01*
X285661723Y-85588095D01*
X285661723Y-84288095D01*
X286095057Y-84288095D01*
X286218866Y-84350000D01*
X286280771Y-84411904D01*
X286342676Y-84535714D01*
X286342676Y-84659523D01*
X286280771Y-84783333D01*
X286218866Y-84845238D01*
X286095057Y-84907142D01*
X285661723Y-84907142D01*
D10*
D11*
X286404580Y-135464285D02*
X286342676Y-135526190D01*
X286156961Y-135588095D01*
X286033152Y-135588095D01*
X285847438Y-135526190D01*
X285723628Y-135402380D01*
X285661723Y-135278571D01*
X285599819Y-135030952D01*
X285599819Y-134845238D01*
X285661723Y-134597619D01*
X285723628Y-134473809D01*
X285847438Y-134350000D01*
X286033152Y-134288095D01*
X286156961Y-134288095D01*
X286342676Y-134350000D01*
X286404580Y-134411904D01*
D10*
D11*
X285661723Y-185588095D02*
X285661723Y-184288095D01*
X285971247Y-184288095D01*
X286156961Y-184350000D01*
X286280771Y-184473809D01*
X286342676Y-184597619D01*
X286404580Y-184845238D01*
X286404580Y-185030952D01*
X286342676Y-185278571D01*
X286280771Y-185402380D01*
X286156961Y-185526190D01*
X285971247Y-185588095D01*
X285661723Y-185588095D01*
D10*
D11*
X200434342Y-193785771D02*
X200434342Y-192285771D01*
X200791485Y-192285771D01*
X201005771Y-192357200D01*
X201148628Y-192500057D01*
X201220057Y-192642914D01*
X201291485Y-192928628D01*
X201291485Y-193142914D01*
X201220057Y-193428628D01*
X201148628Y-193571485D01*
X201005771Y-193714342D01*
X200791485Y-193785771D01*
X200434342Y-193785771D01*
X202577200Y-193785771D02*
X202577200Y-193000057D01*
X202505771Y-192857200D01*
X202362914Y-192785771D01*
X202077200Y-192785771D01*
X201934342Y-192857200D01*
X202577200Y-193714342D02*
X202434342Y-193785771D01*
X202077200Y-193785771D01*
X201934342Y-193714342D01*
X201862914Y-193571485D01*
X201862914Y-193428628D01*
X201934342Y-193285771D01*
X202077200Y-193214342D01*
X202434342Y-193214342D01*
X202577200Y-193142914D01*
X203077200Y-192785771D02*
X203648628Y-192785771D01*
X203291485Y-192285771D02*
X203291485Y-193571485D01*
X203362914Y-193714342D01*
X203505771Y-193785771D01*
X203648628Y-193785771D01*
X204720057Y-193714342D02*
X204577200Y-193785771D01*
X204291485Y-193785771D01*
X204148628Y-193714342D01*
X204077200Y-193571485D01*
X204077200Y-193000057D01*
X204148628Y-192857200D01*
X204291485Y-192785771D01*
X204577200Y-192785771D01*
X204720057Y-192857200D01*
X204791485Y-193000057D01*
X204791485Y-193142914D01*
X204077200Y-193285771D01*
X205434342Y-193642914D02*
X205505771Y-193714342D01*
X205434342Y-193785771D01*
X205362914Y-193714342D01*
X205434342Y-193642914D01*
X205434342Y-193785771D01*
X205434342Y-192857200D02*
X205505771Y-192928628D01*
X205434342Y-193000057D01*
X205362914Y-192928628D01*
X205434342Y-192857200D01*
X205434342Y-193000057D01*
D10*
D11*
X177002200Y-194507200D02*
X285002200Y-194507200D01*
D10*
D11*
X178434342Y-196585771D02*
X178434342Y-195085771D01*
X179291485Y-196585771D02*
X178648628Y-195728628D01*
X179291485Y-195085771D02*
X178434342Y-195942914D01*
X179934342Y-196585771D02*
X179934342Y-195585771D01*
X179934342Y-195085771D02*
X179862914Y-195157200D01*
X179934342Y-195228628D01*
X180005771Y-195157200D01*
X179934342Y-195085771D01*
X179934342Y-195228628D01*
X181505771Y-196442914D02*
X181434342Y-196514342D01*
X181220057Y-196585771D01*
X181077200Y-196585771D01*
X180862914Y-196514342D01*
X180720057Y-196371485D01*
X180648628Y-196228628D01*
X180577200Y-195942914D01*
X180577200Y-195728628D01*
X180648628Y-195442914D01*
X180720057Y-195300057D01*
X180862914Y-195157200D01*
X181077200Y-195085771D01*
X181220057Y-195085771D01*
X181434342Y-195157200D01*
X181505771Y-195228628D01*
X182791485Y-196585771D02*
X182791485Y-195800057D01*
X182720057Y-195657200D01*
X182577200Y-195585771D01*
X182291485Y-195585771D01*
X182148628Y-195657200D01*
X182791485Y-196514342D02*
X182648628Y-196585771D01*
X182291485Y-196585771D01*
X182148628Y-196514342D01*
X182077200Y-196371485D01*
X182077200Y-196228628D01*
X182148628Y-196085771D01*
X182291485Y-196014342D01*
X182648628Y-196014342D01*
X182791485Y-195942914D01*
X184148628Y-196585771D02*
X184148628Y-195085771D01*
X184148628Y-196514342D02*
X184005771Y-196585771D01*
X183720057Y-196585771D01*
X183577200Y-196514342D01*
X183505771Y-196442914D01*
X183434342Y-196300057D01*
X183434342Y-195871485D01*
X183505771Y-195728628D01*
X183577200Y-195657200D01*
X183720057Y-195585771D01*
X184005771Y-195585771D01*
X184148628Y-195657200D01*
X186005771Y-195800057D02*
X186505771Y-195800057D01*
X186720057Y-196585771D02*
X186005771Y-196585771D01*
X186005771Y-195085771D01*
X186720057Y-195085771D01*
X187362914Y-196442914D02*
X187434342Y-196514342D01*
X187362914Y-196585771D01*
X187291485Y-196514342D01*
X187362914Y-196442914D01*
X187362914Y-196585771D01*
X188077200Y-196585771D02*
X188077200Y-195085771D01*
X188434342Y-195085771D01*
X188648628Y-195157200D01*
X188791485Y-195300057D01*
X188862914Y-195442914D01*
X188934342Y-195728628D01*
X188934342Y-195942914D01*
X188862914Y-196228628D01*
X188791485Y-196371485D01*
X188648628Y-196514342D01*
X188434342Y-196585771D01*
X188077200Y-196585771D01*
X189577200Y-196442914D02*
X189648628Y-196514342D01*
X189577200Y-196585771D01*
X189505771Y-196514342D01*
X189577200Y-196442914D01*
X189577200Y-196585771D01*
X190220057Y-196157200D02*
X190934342Y-196157200D01*
X190077200Y-196585771D02*
X190577200Y-195085771D01*
X191077200Y-196585771D01*
X191577200Y-196442914D02*
X191648628Y-196514342D01*
X191577200Y-196585771D01*
X191505771Y-196514342D01*
X191577200Y-196442914D01*
X191577200Y-196585771D01*
X194577200Y-196585771D02*
X194577200Y-195085771D01*
X194720057Y-196014342D02*
X195148628Y-196585771D01*
X195148628Y-195585771D02*
X194577200Y-196157200D01*
X195791485Y-196585771D02*
X195791485Y-195585771D01*
X195791485Y-195085771D02*
X195720057Y-195157200D01*
X195791485Y-195228628D01*
X195862914Y-195157200D01*
X195791485Y-195085771D01*
X195791485Y-195228628D01*
X197148628Y-196514342D02*
X197005771Y-196585771D01*
X196720057Y-196585771D01*
X196577200Y-196514342D01*
X196505771Y-196442914D01*
X196434342Y-196300057D01*
X196434342Y-195871485D01*
X196505771Y-195728628D01*
X196577200Y-195657200D01*
X196720057Y-195585771D01*
X197005771Y-195585771D01*
X197148628Y-195657200D01*
X198434342Y-196585771D02*
X198434342Y-195800057D01*
X198362914Y-195657200D01*
X198220057Y-195585771D01*
X197934342Y-195585771D01*
X197791485Y-195657200D01*
X198434342Y-196514342D02*
X198291485Y-196585771D01*
X197934342Y-196585771D01*
X197791485Y-196514342D01*
X197720057Y-196371485D01*
X197720057Y-196228628D01*
X197791485Y-196085771D01*
X197934342Y-196014342D01*
X198291485Y-196014342D01*
X198434342Y-195942914D01*
X199791485Y-196585771D02*
X199791485Y-195085771D01*
X199791485Y-196514342D02*
X199648628Y-196585771D01*
X199362914Y-196585771D01*
X199220057Y-196514342D01*
X199148628Y-196442914D01*
X199077200Y-196300057D01*
X199077200Y-195871485D01*
X199148628Y-195728628D01*
X199220057Y-195657200D01*
X199362914Y-195585771D01*
X199648628Y-195585771D01*
X199791485Y-195657200D01*
X202077200Y-197157200D02*
X202005771Y-197085771D01*
X201862914Y-196871485D01*
X201791485Y-196728628D01*
X201720057Y-196514342D01*
X201648628Y-196157200D01*
X201648628Y-195871485D01*
X201720057Y-195514342D01*
X201791485Y-195300057D01*
X201862914Y-195157200D01*
X202005771Y-194942914D01*
X202077200Y-194871485D01*
X203362914Y-195085771D02*
X202648628Y-195085771D01*
X202577200Y-195800057D01*
X202648628Y-195728628D01*
X202791485Y-195657200D01*
X203148628Y-195657200D01*
X203291485Y-195728628D01*
X203362914Y-195800057D01*
X203434342Y-195942914D01*
X203434342Y-196300057D01*
X203362914Y-196442914D01*
X203291485Y-196514342D01*
X203148628Y-196585771D01*
X202791485Y-196585771D01*
X202648628Y-196514342D01*
X202577200Y-196442914D01*
X204077200Y-196442914D02*
X204148628Y-196514342D01*
X204077200Y-196585771D01*
X204005771Y-196514342D01*
X204077200Y-196442914D01*
X204077200Y-196585771D01*
X205577200Y-196585771D02*
X204720057Y-196585771D01*
X205148628Y-196585771D02*
X205148628Y-195085771D01*
X205005771Y-195300057D01*
X204862914Y-195442914D01*
X204720057Y-195514342D01*
X206220057Y-196442914D02*
X206291485Y-196514342D01*
X206220057Y-196585771D01*
X206148628Y-196514342D01*
X206220057Y-196442914D01*
X206220057Y-196585771D01*
X206862914Y-195228628D02*
X206934342Y-195157200D01*
X207077200Y-195085771D01*
X207434342Y-195085771D01*
X207577200Y-195157200D01*
X207648628Y-195228628D01*
X207720057Y-195371485D01*
X207720057Y-195514342D01*
X207648628Y-195728628D01*
X206791485Y-196585771D01*
X207720057Y-196585771D01*
X208220057Y-197157200D02*
X208291485Y-197085771D01*
X208434342Y-196871485D01*
X208505771Y-196728628D01*
X208577200Y-196514342D01*
X208648628Y-196157200D01*
X208648628Y-195871485D01*
X208577200Y-195514342D01*
X208505771Y-195300057D01*
X208434342Y-195157200D01*
X208291485Y-194942914D01*
X208220057Y-194871485D01*
X209362914Y-196014342D02*
X210505771Y-196014342D01*
X211148628Y-195228628D02*
X211220057Y-195157200D01*
X211362914Y-195085771D01*
X211720057Y-195085771D01*
X211862914Y-195157200D01*
X211934342Y-195228628D01*
X212005771Y-195371485D01*
X212005771Y-195514342D01*
X211934342Y-195728628D01*
X211077200Y-196585771D01*
X212005771Y-196585771D01*
D10*
D11*
X177002200Y-191507200D02*
X285002200Y-191507200D01*
D10*
D12*
X264411485Y-193785771D02*
X263911485Y-193071485D01*
X263554342Y-193785771D02*
X263554342Y-192285771D01*
X264125771Y-192285771D01*
X264268628Y-192357200D01*
X264340057Y-192428628D01*
X264411485Y-192571485D01*
X264411485Y-192785771D01*
X264340057Y-192928628D01*
X264268628Y-193000057D01*
X264125771Y-193071485D01*
X263554342Y-193071485D01*
X265625771Y-193714342D02*
X265482914Y-193785771D01*
X265197200Y-193785771D01*
X265054342Y-193714342D01*
X264982914Y-193571485D01*
X264982914Y-193000057D01*
X265054342Y-192857200D01*
X265197200Y-192785771D01*
X265482914Y-192785771D01*
X265625771Y-192857200D01*
X265697200Y-193000057D01*
X265697200Y-193142914D01*
X264982914Y-193285771D01*
X266197200Y-192785771D02*
X266554342Y-193785771D01*
X266911485Y-192785771D01*
X267482914Y-193642914D02*
X267554342Y-193714342D01*
X267482914Y-193785771D01*
X267411485Y-193714342D01*
X267482914Y-193642914D01*
X267482914Y-193785771D01*
X267482914Y-192857200D02*
X267554342Y-192928628D01*
X267482914Y-193000057D01*
X267411485Y-192928628D01*
X267482914Y-192857200D01*
X267482914Y-193000057D01*
D10*
D11*
X178362914Y-193714342D02*
X178577200Y-193785771D01*
X178934342Y-193785771D01*
X179077200Y-193714342D01*
X179148628Y-193642914D01*
X179220057Y-193500057D01*
X179220057Y-193357200D01*
X179148628Y-193214342D01*
X179077200Y-193142914D01*
X178934342Y-193071485D01*
X178648628Y-193000057D01*
X178505771Y-192928628D01*
X178434342Y-192857200D01*
X178362914Y-192714342D01*
X178362914Y-192571485D01*
X178434342Y-192428628D01*
X178505771Y-192357200D01*
X178648628Y-192285771D01*
X179005771Y-192285771D01*
X179220057Y-192357200D01*
X179862914Y-193785771D02*
X179862914Y-192785771D01*
X179862914Y-192285771D02*
X179791485Y-192357200D01*
X179862914Y-192428628D01*
X179934342Y-192357200D01*
X179862914Y-192285771D01*
X179862914Y-192428628D01*
X180434342Y-192785771D02*
X181220057Y-192785771D01*
X180434342Y-193785771D01*
X181220057Y-193785771D01*
X182362914Y-193714342D02*
X182220057Y-193785771D01*
X181934342Y-193785771D01*
X181791485Y-193714342D01*
X181720057Y-193571485D01*
X181720057Y-193000057D01*
X181791485Y-192857200D01*
X181934342Y-192785771D01*
X182220057Y-192785771D01*
X182362914Y-192857200D01*
X182434342Y-193000057D01*
X182434342Y-193142914D01*
X181720057Y-193285771D01*
X183077200Y-193642914D02*
X183148628Y-193714342D01*
X183077200Y-193785771D01*
X183005771Y-193714342D01*
X183077200Y-193642914D01*
X183077200Y-193785771D01*
X183077200Y-192857200D02*
X183148628Y-192928628D01*
X183077200Y-193000057D01*
X183005771Y-192928628D01*
X183077200Y-192857200D01*
X183077200Y-193000057D01*
X184862914Y-193357200D02*
X185577200Y-193357200D01*
X184720057Y-193785771D02*
X185220057Y-192285771D01*
X185720057Y-193785771D01*
X186862914Y-192785771D02*
X186862914Y-193785771D01*
X186505771Y-192214342D02*
X186148628Y-193285771D01*
X187077200Y-193285771D01*
D10*
D11*
X263434342Y-196585771D02*
X263434342Y-195085771D01*
X264791485Y-196585771D02*
X264791485Y-195085771D01*
X264791485Y-196514342D02*
X264648628Y-196585771D01*
X264362914Y-196585771D01*
X264220057Y-196514342D01*
X264148628Y-196442914D01*
X264077200Y-196300057D01*
X264077200Y-195871485D01*
X264148628Y-195728628D01*
X264220057Y-195657200D01*
X264362914Y-195585771D01*
X264648628Y-195585771D01*
X264791485Y-195657200D01*
X265505771Y-196442914D02*
X265577200Y-196514342D01*
X265505771Y-196585771D01*
X265434342Y-196514342D01*
X265505771Y-196442914D01*
X265505771Y-196585771D01*
X265505771Y-195657200D02*
X265577200Y-195728628D01*
X265505771Y-195800057D01*
X265434342Y-195728628D01*
X265505771Y-195657200D01*
X265505771Y-195800057D01*
X268148628Y-196585771D02*
X267291485Y-196585771D01*
X267720057Y-196585771D02*
X267720057Y-195085771D01*
X267577200Y-195300057D01*
X267434342Y-195442914D01*
X267291485Y-195514342D01*
X269862914Y-195014342D02*
X268577200Y-196942914D01*
X271148628Y-196585771D02*
X270291485Y-196585771D01*
X270720057Y-196585771D02*
X270720057Y-195085771D01*
X270577200Y-195300057D01*
X270434342Y-195442914D01*
X270291485Y-195514342D01*
D10*
D11*
X177002200Y-187507200D02*
X285002200Y-187507200D01*
D10*
D13*
X178714580Y-188211961D02*
X179857438Y-188211961D01*
X179036009Y-190211961D02*
X179286009Y-188211961D01*
X180274104Y-190211961D02*
X180440771Y-188878628D01*
X180524104Y-188211961D02*
X180416961Y-188307200D01*
X180500295Y-188402438D01*
X180607438Y-188307200D01*
X180524104Y-188211961D01*
X180500295Y-188402438D01*
X181107438Y-188878628D02*
X181869342Y-188878628D01*
X181476485Y-188211961D02*
X181262200Y-189926247D01*
X181333628Y-190116723D01*
X181512200Y-190211961D01*
X181702676Y-190211961D01*
X182655057Y-190211961D02*
X182476485Y-190116723D01*
X182405057Y-189926247D01*
X182619342Y-188211961D01*
X184190771Y-190116723D02*
X183988390Y-190211961D01*
X183607438Y-190211961D01*
X183428866Y-190116723D01*
X183357438Y-189926247D01*
X183452676Y-189164342D01*
X183571723Y-188973866D01*
X183774104Y-188878628D01*
X184155057Y-188878628D01*
X184333628Y-188973866D01*
X184405057Y-189164342D01*
X184381247Y-189354819D01*
X183405057Y-189545295D01*
X185155057Y-190021485D02*
X185238390Y-190116723D01*
X185131247Y-190211961D01*
X185047914Y-190116723D01*
X185155057Y-190021485D01*
X185131247Y-190211961D01*
X185286009Y-188973866D02*
X185369342Y-189069104D01*
X185262200Y-189164342D01*
X185178866Y-189069104D01*
X185286009Y-188973866D01*
X185262200Y-189164342D01*
D10*
D11*
X178934342Y-185600057D02*
X178434342Y-185600057D01*
X178434342Y-186385771D02*
X178434342Y-184885771D01*
X179148628Y-184885771D01*
X179720057Y-186385771D02*
X179720057Y-185385771D01*
X179720057Y-184885771D02*
X179648628Y-184957200D01*
X179720057Y-185028628D01*
X179791485Y-184957200D01*
X179720057Y-184885771D01*
X179720057Y-185028628D01*
X180648628Y-186385771D02*
X180505771Y-186314342D01*
X180434342Y-186171485D01*
X180434342Y-184885771D01*
X181791485Y-186314342D02*
X181648628Y-186385771D01*
X181362914Y-186385771D01*
X181220057Y-186314342D01*
X181148628Y-186171485D01*
X181148628Y-185600057D01*
X181220057Y-185457200D01*
X181362914Y-185385771D01*
X181648628Y-185385771D01*
X181791485Y-185457200D01*
X181862914Y-185600057D01*
X181862914Y-185742914D01*
X181148628Y-185885771D01*
X182505771Y-186242914D02*
X182577200Y-186314342D01*
X182505771Y-186385771D01*
X182434342Y-186314342D01*
X182505771Y-186242914D01*
X182505771Y-186385771D01*
X182505771Y-185457200D02*
X182577200Y-185528628D01*
X182505771Y-185600057D01*
X182434342Y-185528628D01*
X182505771Y-185457200D01*
X182505771Y-185600057D01*
X184220057Y-185385771D02*
X184505771Y-186385771D01*
X184791485Y-185671485D01*
X185077200Y-186385771D01*
X185362914Y-185385771D01*
X186505771Y-186314342D02*
X186362914Y-186385771D01*
X186077200Y-186385771D01*
X185934342Y-186314342D01*
X185862914Y-186171485D01*
X185862914Y-185600057D01*
X185934342Y-185457200D01*
X186077200Y-185385771D01*
X186362914Y-185385771D01*
X186505771Y-185457200D01*
X186577200Y-185600057D01*
X186577200Y-185742914D01*
X185862914Y-185885771D01*
X187862914Y-186385771D02*
X187862914Y-185600057D01*
X187791485Y-185457200D01*
X187648628Y-185385771D01*
X187362914Y-185385771D01*
X187220057Y-185457200D01*
X187862914Y-186314342D02*
X187720057Y-186385771D01*
X187362914Y-186385771D01*
X187220057Y-186314342D01*
X187148628Y-186171485D01*
X187148628Y-186028628D01*
X187220057Y-185885771D01*
X187362914Y-185814342D01*
X187720057Y-185814342D01*
X187862914Y-185742914D01*
X188362914Y-185385771D02*
X188934342Y-185385771D01*
X188577200Y-184885771D02*
X188577200Y-186171485D01*
X188648628Y-186314342D01*
X188791485Y-186385771D01*
X188934342Y-186385771D01*
X189434342Y-186385771D02*
X189434342Y-184885771D01*
X190077200Y-186385771D02*
X190077200Y-185600057D01*
X190005771Y-185457200D01*
X189862914Y-185385771D01*
X189648628Y-185385771D01*
X189505771Y-185457200D01*
X189434342Y-185528628D01*
X191362914Y-186314342D02*
X191220057Y-186385771D01*
X190934342Y-186385771D01*
X190791485Y-186314342D01*
X190720057Y-186171485D01*
X190720057Y-185600057D01*
X190791485Y-185457200D01*
X190934342Y-185385771D01*
X191220057Y-185385771D01*
X191362914Y-185457200D01*
X191434342Y-185600057D01*
X191434342Y-185742914D01*
X190720057Y-185885771D01*
X192077200Y-186385771D02*
X192077200Y-185385771D01*
X192077200Y-185671485D02*
X192148628Y-185528628D01*
X192220057Y-185457200D01*
X192362914Y-185385771D01*
X192505771Y-185385771D01*
X193005771Y-186242914D02*
X193077200Y-186314342D01*
X193005771Y-186385771D01*
X192934342Y-186314342D01*
X193005771Y-186242914D01*
X193005771Y-186385771D01*
X193720057Y-186385771D02*
X193720057Y-184885771D01*
X193862914Y-185814342D02*
X194291485Y-186385771D01*
X194291485Y-185385771D02*
X193720057Y-185957200D01*
X194934342Y-186385771D02*
X194934342Y-185385771D01*
X194934342Y-184885771D02*
X194862914Y-184957200D01*
X194934342Y-185028628D01*
X195005771Y-184957200D01*
X194934342Y-184885771D01*
X194934342Y-185028628D01*
X196291485Y-186314342D02*
X196148628Y-186385771D01*
X195862914Y-186385771D01*
X195720057Y-186314342D01*
X195648628Y-186242914D01*
X195577200Y-186100057D01*
X195577200Y-185671485D01*
X195648628Y-185528628D01*
X195720057Y-185457200D01*
X195862914Y-185385771D01*
X196148628Y-185385771D01*
X196291485Y-185457200D01*
X197577200Y-186385771D02*
X197577200Y-185600057D01*
X197505771Y-185457200D01*
X197362914Y-185385771D01*
X197077200Y-185385771D01*
X196934342Y-185457200D01*
X197577200Y-186314342D02*
X197434342Y-186385771D01*
X197077200Y-186385771D01*
X196934342Y-186314342D01*
X196862914Y-186171485D01*
X196862914Y-186028628D01*
X196934342Y-185885771D01*
X197077200Y-185814342D01*
X197434342Y-185814342D01*
X197577200Y-185742914D01*
X198934342Y-186385771D02*
X198934342Y-184885771D01*
X198934342Y-186314342D02*
X198791485Y-186385771D01*
X198505771Y-186385771D01*
X198362914Y-186314342D01*
X198291485Y-186242914D01*
X198220057Y-186100057D01*
X198220057Y-185671485D01*
X198291485Y-185528628D01*
X198362914Y-185457200D01*
X198505771Y-185385771D01*
X198791485Y-185385771D01*
X198934342Y-185457200D01*
X199291485Y-186528628D02*
X200434342Y-186528628D01*
X200791485Y-185385771D02*
X200791485Y-186885771D01*
X200791485Y-185457200D02*
X200934342Y-185385771D01*
X201220057Y-185385771D01*
X201362914Y-185457200D01*
X201434342Y-185528628D01*
X201505771Y-185671485D01*
X201505771Y-186100057D01*
X201434342Y-186242914D01*
X201362914Y-186314342D01*
X201220057Y-186385771D01*
X200934342Y-186385771D01*
X200791485Y-186314342D01*
X202791485Y-186314342D02*
X202648628Y-186385771D01*
X202362914Y-186385771D01*
X202220057Y-186314342D01*
X202148628Y-186242914D01*
X202077200Y-186100057D01*
X202077200Y-185671485D01*
X202148628Y-185528628D01*
X202220057Y-185457200D01*
X202362914Y-185385771D01*
X202648628Y-185385771D01*
X202791485Y-185457200D01*
X203434342Y-186385771D02*
X203434342Y-184885771D01*
X203434342Y-185457200D02*
X203577200Y-185385771D01*
X203862914Y-185385771D01*
X204005771Y-185457200D01*
X204077200Y-185528628D01*
X204148628Y-185671485D01*
X204148628Y-186100057D01*
X204077200Y-186242914D01*
X204005771Y-186314342D01*
X203862914Y-186385771D01*
X203577200Y-186385771D01*
X203434342Y-186314342D01*
D10*
D11*
X177002200Y-181507200D02*
X285002200Y-181507200D01*
D10*
D11*
X178362914Y-183614342D02*
X178577200Y-183685771D01*
X178934342Y-183685771D01*
X179077200Y-183614342D01*
X179148628Y-183542914D01*
X179220057Y-183400057D01*
X179220057Y-183257200D01*
X179148628Y-183114342D01*
X179077200Y-183042914D01*
X178934342Y-182971485D01*
X178648628Y-182900057D01*
X178505771Y-182828628D01*
X178434342Y-182757200D01*
X178362914Y-182614342D01*
X178362914Y-182471485D01*
X178434342Y-182328628D01*
X178505771Y-182257200D01*
X178648628Y-182185771D01*
X179005771Y-182185771D01*
X179220057Y-182257200D01*
X179862914Y-183685771D02*
X179862914Y-182185771D01*
X180505771Y-183685771D02*
X180505771Y-182900057D01*
X180434342Y-182757200D01*
X180291485Y-182685771D01*
X180077200Y-182685771D01*
X179934342Y-182757200D01*
X179862914Y-182828628D01*
X181791485Y-183614342D02*
X181648628Y-183685771D01*
X181362914Y-183685771D01*
X181220057Y-183614342D01*
X181148628Y-183471485D01*
X181148628Y-182900057D01*
X181220057Y-182757200D01*
X181362914Y-182685771D01*
X181648628Y-182685771D01*
X181791485Y-182757200D01*
X181862914Y-182900057D01*
X181862914Y-183042914D01*
X181148628Y-183185771D01*
X183077200Y-183614342D02*
X182934342Y-183685771D01*
X182648628Y-183685771D01*
X182505771Y-183614342D01*
X182434342Y-183471485D01*
X182434342Y-182900057D01*
X182505771Y-182757200D01*
X182648628Y-182685771D01*
X182934342Y-182685771D01*
X183077200Y-182757200D01*
X183148628Y-182900057D01*
X183148628Y-183042914D01*
X182434342Y-183185771D01*
X183577200Y-182685771D02*
X184148628Y-182685771D01*
X183791485Y-182185771D02*
X183791485Y-183471485D01*
X183862914Y-183614342D01*
X184005771Y-183685771D01*
X184148628Y-183685771D01*
X184648628Y-183542914D02*
X184720057Y-183614342D01*
X184648628Y-183685771D01*
X184577200Y-183614342D01*
X184648628Y-183542914D01*
X184648628Y-183685771D01*
X184648628Y-182757200D02*
X184720057Y-182828628D01*
X184648628Y-182900057D01*
X184577200Y-182828628D01*
X184648628Y-182757200D01*
X184648628Y-182900057D01*
D10*
D11*
X197002200Y-191507200D02*
X197002200Y-194507200D01*
D10*
D11*
X261002200Y-191507200D02*
X261002200Y-198007200D01*
D14*
X157734000Y-85852000D03*
X157734000Y-83312000D03*
X157734000Y-80772000D03*
D15*
X157734000Y-78232000D03*
D14*
X142396952Y-107492000D03*
X142396952Y-110032000D03*
X142396952Y-112572000D03*
X142396952Y-115112000D03*
X142396952Y-117652000D03*
D15*
X142396952Y-120192000D03*
D16*
X90678000Y-79756000D03*
D17*
X90678000Y-69596000D03*
D16*
X90678000Y-92202000D03*
D17*
X90678000Y-84582000D03*
X90932000Y-120396000D03*
D16*
X90932000Y-110236000D03*
X110236000Y-63500000D03*
D17*
X100076000Y-63500000D03*
D14*
X128106000Y-90668000D03*
X128106000Y-80508000D03*
X128106000Y-95748000D03*
X128106000Y-98288000D03*
X128106000Y-83048000D03*
X128106000Y-113528000D03*
X128106000Y-110988000D03*
X128106000Y-103368000D03*
X128106000Y-108448000D03*
X128106000Y-105908000D03*
X128106000Y-100828000D03*
X128046000Y-93228000D03*
X128106000Y-88128000D03*
X128106000Y-85588000D03*
D15*
X128106000Y-77968000D03*
D14*
X100046000Y-113548000D03*
X100046000Y-111008000D03*
X100046000Y-108468000D03*
X100046000Y-105928000D03*
X100046000Y-103388000D03*
X100046000Y-100848000D03*
X100046000Y-98308000D03*
X100046000Y-95768000D03*
X100046000Y-93228000D03*
X100046000Y-90688000D03*
X100046000Y-88148000D03*
X100046000Y-85608000D03*
X100046000Y-83068000D03*
X100046000Y-80528000D03*
D15*
X100046000Y-77988000D03*
D14*
X147320000Y-93218000D03*
X144780000Y-93218000D03*
D15*
X142240000Y-93218000D03*
D14*
X90932000Y-104902000D03*
X90932000Y-102362000D03*
D15*
X90932000Y-99822000D03*
X118110000Y-63500000D03*
D14*
X120650000Y-63500000D03*
X123190000Y-63500000D03*
D18*
X118110000Y-63500000D02*
X118872000Y-62738000D01*
X124714000Y-87276000D02*
X128106000Y-90668000D01*
X120142000Y-61468000D02*
X124206000Y-61468000D01*
X118110000Y-63500000D02*
X120142000Y-61468000D01*
X124206000Y-61468000D02*
X125476000Y-62738000D01*
X125476000Y-62738000D02*
X125476000Y-73914000D01*
X125476000Y-73914000D02*
X124714000Y-74676000D01*
X124714000Y-74676000D02*
X124714000Y-87276000D01*
X110236000Y-63500000D02*
X118110000Y-63500000D01*
D19*
X128370000Y-80772000D02*
X128106000Y-80508000D01*
X157734000Y-80772000D02*
X128370000Y-80772000D01*
X133604000Y-78232000D02*
X157734000Y-78232000D01*
X130048000Y-74676000D02*
X133604000Y-78232000D01*
X126746000Y-74676000D02*
X130048000Y-74676000D01*
X125984000Y-75438000D02*
X126746000Y-74676000D01*
X128106000Y-83048000D02*
X125984000Y-80926000D01*
X125984000Y-80926000D02*
X125984000Y-75438000D01*
D18*
X89800630Y-110236000D02*
X88646000Y-109081370D01*
X90932000Y-110236000D02*
X89800630Y-110236000D01*
X89282000Y-99822000D02*
X90932000Y-99822000D01*
X88646000Y-100458000D02*
X89282000Y-99822000D01*
X88646000Y-109081370D02*
X88646000Y-100458000D01*
X92582000Y-99822000D02*
X97028000Y-95376000D01*
X90932000Y-99822000D02*
X92582000Y-99822000D01*
X97028000Y-86086000D02*
X100046000Y-83068000D01*
X97028000Y-95376000D02*
X97028000Y-86086000D01*
D19*
X128112952Y-98288000D02*
X128106000Y-98288000D01*
X142396952Y-112572000D02*
X128112952Y-98288000D01*
X128112952Y-100828000D02*
X128106000Y-100828000D01*
X142396952Y-115112000D02*
X128112952Y-100828000D01*
X142396952Y-117652000D02*
X143052000Y-117652000D01*
X127508000Y-122174000D02*
X125984000Y-120650000D01*
X143510000Y-122174000D02*
X127508000Y-122174000D01*
X144272000Y-121412000D02*
X143510000Y-122174000D01*
X143052000Y-117652000D02*
X144272000Y-118872000D01*
X144272000Y-118872000D02*
X144272000Y-121412000D01*
X125984000Y-97870000D02*
X128106000Y-95748000D01*
X125984000Y-120650000D02*
X125984000Y-97870000D01*
X140946952Y-120192000D02*
X140208000Y-119453048D01*
X142396952Y-120192000D02*
X140946952Y-120192000D01*
X140208000Y-115470000D02*
X128106000Y-103368000D01*
X140208000Y-119453048D02*
X140208000Y-115470000D01*
X98596000Y-77988000D02*
X100046000Y-77988000D01*
X97938630Y-77988000D02*
X98596000Y-77988000D01*
X90678000Y-70727370D02*
X97938630Y-77988000D01*
X90678000Y-69596000D02*
X90678000Y-70727370D01*
X89546630Y-84582000D02*
X88646000Y-83681370D01*
X90678000Y-84582000D02*
X89546630Y-84582000D01*
X88646000Y-71628000D02*
X90678000Y-69596000D01*
X88646000Y-83681370D02*
X88646000Y-71628000D01*
X144780000Y-94420081D02*
X143696081Y-95504000D01*
X144780000Y-93218000D02*
X144780000Y-94420081D01*
X128955999Y-88977999D02*
X128106000Y-88128000D01*
X135482000Y-95504000D02*
X128955999Y-88977999D01*
X143696081Y-95504000D02*
X135482000Y-95504000D01*
D18*
X156531919Y-83312000D02*
X157734000Y-83312000D01*
X150496000Y-83312000D02*
X156531919Y-83312000D01*
X142240000Y-91568000D02*
X150496000Y-83312000D01*
X142240000Y-93218000D02*
X142240000Y-91568000D01*
X87376000Y-88900000D02*
X90678000Y-92202000D01*
X87376000Y-69342000D02*
X87376000Y-88900000D01*
X100076000Y-63500000D02*
X93218000Y-63500000D01*
X93218000Y-63500000D02*
X87376000Y-69342000D01*
X124968000Y-60198000D02*
X101854000Y-60198000D01*
X127000000Y-62230000D02*
X124968000Y-60198000D01*
X127000000Y-71374000D02*
X127000000Y-62230000D01*
X128270000Y-72644000D02*
X127000000Y-71374000D01*
X100076000Y-61976000D02*
X100076000Y-63500000D01*
X130302000Y-72644000D02*
X128270000Y-72644000D01*
X101854000Y-60198000D02*
X100076000Y-61976000D01*
X157734000Y-83312000D02*
X158936081Y-83312000D01*
X158936081Y-83312000D02*
X160020000Y-82228081D01*
X160020000Y-82228081D02*
X160020000Y-77737998D01*
X160020000Y-77737998D02*
X158242000Y-75959998D01*
X158242000Y-75959998D02*
X133617998Y-75959998D01*
X133617998Y-75959998D02*
X130302000Y-72644000D01*
X91731999Y-121195999D02*
X90932000Y-120396000D01*
X92178001Y-121642001D02*
X91731999Y-121195999D01*
X92710000Y-122174000D02*
X91731999Y-121195999D01*
X142396952Y-110032000D02*
X145796000Y-113431048D01*
X145796000Y-113431048D02*
X145796000Y-121920000D01*
X145796000Y-121920000D02*
X144018000Y-123698000D01*
X94234000Y-123698000D02*
X92710000Y-122174000D01*
X144018000Y-123698000D02*
X94234000Y-123698000D01*
D12*
G36*
X187227001Y-130839000D02*
G01*
X85063497Y-130839000D01*
X85072991Y-128047606D01*
X85372000Y-128047606D01*
X85372000Y-128492394D01*
X85458774Y-128928634D01*
X85628987Y-129339564D01*
X85876097Y-129709391D01*
X86190609Y-130023903D01*
X86560436Y-130271013D01*
X86971366Y-130441226D01*
X87407606Y-130528000D01*
X87852394Y-130528000D01*
X88288634Y-130441226D01*
X88699564Y-130271013D01*
X89069391Y-130023903D01*
X89383903Y-129709391D01*
X89631013Y-129339564D01*
X89801226Y-128928634D01*
X89888000Y-128492394D01*
X89888000Y-128047606D01*
X182400000Y-128047606D01*
X182400000Y-128492394D01*
X182486774Y-128928634D01*
X182656987Y-129339564D01*
X182904097Y-129709391D01*
X183218609Y-130023903D01*
X183588436Y-130271013D01*
X183999366Y-130441226D01*
X184435606Y-130528000D01*
X184880394Y-130528000D01*
X185316634Y-130441226D01*
X185727564Y-130271013D01*
X186097391Y-130023903D01*
X186411903Y-129709391D01*
X186659013Y-129339564D01*
X186829226Y-128928634D01*
X186916000Y-128492394D01*
X186916000Y-128047606D01*
X186829226Y-127611366D01*
X186659013Y-127200436D01*
X186411903Y-126830609D01*
X186097391Y-126516097D01*
X185727564Y-126268987D01*
X185316634Y-126098774D01*
X184880394Y-126012000D01*
X184435606Y-126012000D01*
X183999366Y-126098774D01*
X183588436Y-126268987D01*
X183218609Y-126516097D01*
X182904097Y-126830609D01*
X182656987Y-127200436D01*
X182486774Y-127611366D01*
X182400000Y-128047606D01*
X89888000Y-128047606D01*
X89801226Y-127611366D01*
X89631013Y-127200436D01*
X89383903Y-126830609D01*
X89069391Y-126516097D01*
X88699564Y-126268987D01*
X88288634Y-126098774D01*
X87852394Y-126012000D01*
X87407606Y-126012000D01*
X86971366Y-126098774D01*
X86560436Y-126268987D01*
X86190609Y-126516097D01*
X85876097Y-126830609D01*
X85628987Y-127200436D01*
X85458774Y-127611366D01*
X85372000Y-128047606D01*
X85072991Y-128047606D01*
X85099505Y-120252399D01*
X89474000Y-120252399D01*
X89474000Y-120539601D01*
X89530030Y-120821283D01*
X89639937Y-121086622D01*
X89799497Y-121325421D01*
X90002579Y-121528503D01*
X90241378Y-121688063D01*
X90506717Y-121797970D01*
X90788399Y-121854000D01*
X90893762Y-121854000D01*
X91020630Y-121980868D01*
X91020635Y-121980872D01*
X91998631Y-122958869D01*
X91998636Y-122958873D01*
X93449128Y-124409366D01*
X93482261Y-124449739D01*
X93643363Y-124581951D01*
X93827162Y-124680194D01*
X94026596Y-124740691D01*
X94182027Y-124756000D01*
X94182029Y-124756000D01*
X94233999Y-124761119D01*
X94285969Y-124756000D01*
X143966027Y-124756000D01*
X144018000Y-124761119D01*
X144225404Y-124740691D01*
X144225407Y-124740690D01*
X144424838Y-124680194D01*
X144608637Y-124581951D01*
X144769739Y-124449739D01*
X144802876Y-124409361D01*
X146507366Y-122704872D01*
X146547739Y-122671739D01*
X146679951Y-122510637D01*
X146778194Y-122326838D01*
X146785923Y-122301359D01*
X146838691Y-122127405D01*
X146859119Y-121920000D01*
X146854000Y-121868027D01*
X146854000Y-113483021D01*
X146859119Y-113431048D01*
X146838691Y-113223643D01*
X146778194Y-113024210D01*
X146679951Y-112840411D01*
X146547739Y-112679309D01*
X146507366Y-112646176D01*
X143910539Y-110049350D01*
X143912248Y-110032000D01*
X143883132Y-109736380D01*
X143796903Y-109452121D01*
X143656875Y-109190147D01*
X143468428Y-108960524D01*
X143238805Y-108772077D01*
X143209160Y-108756231D01*
X143271680Y-108720383D01*
X143494518Y-108526129D01*
X143675177Y-108292134D01*
X143806715Y-108027390D01*
X143866571Y-107830061D01*
X143736421Y-107596000D01*
X142500952Y-107596000D01*
X142500952Y-107616000D01*
X142292952Y-107616000D01*
X142292952Y-107596000D01*
X141057483Y-107596000D01*
X140927333Y-107830061D01*
X140987189Y-108027390D01*
X141118727Y-108292134D01*
X141299386Y-108526129D01*
X141522224Y-108720383D01*
X141584744Y-108756231D01*
X141555099Y-108772077D01*
X141325476Y-108960524D01*
X141137029Y-109190147D01*
X140997001Y-109452121D01*
X140912023Y-109732255D01*
X138333707Y-107153939D01*
X140927333Y-107153939D01*
X141057483Y-107388000D01*
X142292952Y-107388000D01*
X142292952Y-106152087D01*
X142500952Y-106152087D01*
X142500952Y-107388000D01*
X143736421Y-107388000D01*
X143866571Y-107153939D01*
X143806715Y-106956610D01*
X143675177Y-106691866D01*
X143494518Y-106457871D01*
X143271680Y-106263617D01*
X143015227Y-106116569D01*
X142735014Y-106022378D01*
X142500952Y-106152087D01*
X142292952Y-106152087D01*
X142058890Y-106022378D01*
X141778677Y-106116569D01*
X141522224Y-106263617D01*
X141299386Y-106457871D01*
X141118727Y-106691866D01*
X140987189Y-106956610D01*
X140927333Y-107153939D01*
X138333707Y-107153939D01*
X129607531Y-98427763D01*
X129621296Y-98288000D01*
X129592180Y-97992380D01*
X129505951Y-97708121D01*
X129365923Y-97446147D01*
X129177476Y-97216524D01*
X128947853Y-97028077D01*
X128929000Y-97018000D01*
X128947853Y-97007923D01*
X129177476Y-96819476D01*
X129365923Y-96589853D01*
X129505951Y-96327879D01*
X129592180Y-96043620D01*
X129621296Y-95748000D01*
X129592180Y-95452380D01*
X129505951Y-95168121D01*
X129365923Y-94906147D01*
X129177476Y-94676524D01*
X128947853Y-94488077D01*
X128905207Y-94465282D01*
X128920728Y-94456383D01*
X129143566Y-94262129D01*
X129324225Y-94028134D01*
X129455763Y-93763390D01*
X129515619Y-93566061D01*
X129385469Y-93332000D01*
X128150000Y-93332000D01*
X128150000Y-93352000D01*
X127942000Y-93352000D01*
X127942000Y-93332000D01*
X126706531Y-93332000D01*
X126576381Y-93566061D01*
X126636237Y-93763390D01*
X126767775Y-94028134D01*
X126948434Y-94262129D01*
X127171272Y-94456383D01*
X127248682Y-94500769D01*
X127034524Y-94676524D01*
X126846077Y-94906147D01*
X126706049Y-95168121D01*
X126619820Y-95452380D01*
X126590704Y-95748000D01*
X126605093Y-95894091D01*
X125339869Y-97159315D01*
X125303315Y-97189314D01*
X125273316Y-97225868D01*
X125183599Y-97335189D01*
X125094642Y-97501616D01*
X125039862Y-97682199D01*
X125021365Y-97870000D01*
X125026001Y-97917070D01*
X125026000Y-120602941D01*
X125021365Y-120650000D01*
X125039862Y-120837801D01*
X125051810Y-120877189D01*
X125094641Y-121018383D01*
X125183598Y-121184811D01*
X125303314Y-121330686D01*
X125339873Y-121360689D01*
X126619184Y-122640000D01*
X94672238Y-122640000D01*
X93494873Y-121462636D01*
X93494869Y-121462631D01*
X92516872Y-120484635D01*
X92516868Y-120484630D01*
X92390000Y-120357762D01*
X92390000Y-120252399D01*
X92333970Y-119970717D01*
X92224063Y-119705378D01*
X92064503Y-119466579D01*
X91861421Y-119263497D01*
X91622622Y-119103937D01*
X91357283Y-118994030D01*
X91075601Y-118938000D01*
X90788399Y-118938000D01*
X90506717Y-118994030D01*
X90241378Y-119103937D01*
X90002579Y-119263497D01*
X89799497Y-119466579D01*
X89639937Y-119705378D01*
X89530030Y-119970717D01*
X89474000Y-120252399D01*
X85099505Y-120252399D01*
X85122309Y-113548000D01*
X98530704Y-113548000D01*
X98559820Y-113843620D01*
X98646049Y-114127879D01*
X98786077Y-114389853D01*
X98974524Y-114619476D01*
X99204147Y-114807923D01*
X99466121Y-114947951D01*
X99750380Y-115034180D01*
X99971922Y-115056000D01*
X100120078Y-115056000D01*
X100341620Y-115034180D01*
X100625879Y-114947951D01*
X100887853Y-114807923D01*
X101117476Y-114619476D01*
X101305923Y-114389853D01*
X101445951Y-114127879D01*
X101532180Y-113843620D01*
X101561296Y-113548000D01*
X101532180Y-113252380D01*
X101445951Y-112968121D01*
X101305923Y-112706147D01*
X101117476Y-112476524D01*
X100887853Y-112288077D01*
X100858208Y-112272231D01*
X100920728Y-112236383D01*
X101143566Y-112042129D01*
X101324225Y-111808134D01*
X101455763Y-111543390D01*
X101515619Y-111346061D01*
X101385469Y-111112000D01*
X100150000Y-111112000D01*
X100150000Y-111132000D01*
X99942000Y-111132000D01*
X99942000Y-111112000D01*
X98706531Y-111112000D01*
X98576381Y-111346061D01*
X98636237Y-111543390D01*
X98767775Y-111808134D01*
X98948434Y-112042129D01*
X99171272Y-112236383D01*
X99233792Y-112272231D01*
X99204147Y-112288077D01*
X98974524Y-112476524D01*
X98786077Y-112706147D01*
X98646049Y-112968121D01*
X98559820Y-113252380D01*
X98530704Y-113548000D01*
X85122309Y-113548000D01*
X85166833Y-100458000D01*
X87582881Y-100458000D01*
X87588001Y-100509983D01*
X87588000Y-109029397D01*
X87582881Y-109081370D01*
X87603309Y-109288774D01*
X87609703Y-109309853D01*
X87663806Y-109488207D01*
X87762049Y-109672007D01*
X87894261Y-109833109D01*
X87934639Y-109866246D01*
X89015758Y-110947366D01*
X89048891Y-110987739D01*
X89209993Y-111119951D01*
X89393792Y-111218194D01*
X89593226Y-111278691D01*
X89748657Y-111294000D01*
X89748659Y-111294000D01*
X89800629Y-111299119D01*
X89852600Y-111294000D01*
X89922918Y-111294000D01*
X90118060Y-111454148D01*
X90371348Y-111589533D01*
X90646182Y-111672903D01*
X90860381Y-111694000D01*
X91003619Y-111694000D01*
X91217818Y-111672903D01*
X91492652Y-111589533D01*
X91745940Y-111454148D01*
X91967950Y-111271950D01*
X92150148Y-111049940D01*
X92285533Y-110796652D01*
X92368903Y-110521818D01*
X92397054Y-110236000D01*
X92368903Y-109950182D01*
X92285533Y-109675348D01*
X92150148Y-109422060D01*
X91967950Y-109200050D01*
X91745940Y-109017852D01*
X91492652Y-108882467D01*
X91217818Y-108799097D01*
X91003619Y-108778000D01*
X90860381Y-108778000D01*
X90646182Y-108799097D01*
X90371348Y-108882467D01*
X90118060Y-109017852D01*
X90096452Y-109035585D01*
X89704000Y-108643133D01*
X89704000Y-105782751D01*
X89860524Y-105973476D01*
X90090147Y-106161923D01*
X90352121Y-106301951D01*
X90636380Y-106388180D01*
X90857922Y-106410000D01*
X91006078Y-106410000D01*
X91227620Y-106388180D01*
X91511879Y-106301951D01*
X91773853Y-106161923D01*
X92003476Y-105973476D01*
X92191923Y-105743853D01*
X92331951Y-105481879D01*
X92418180Y-105197620D01*
X92447296Y-104902000D01*
X92418180Y-104606380D01*
X92331951Y-104322121D01*
X92191923Y-104060147D01*
X92003476Y-103830524D01*
X91773853Y-103642077D01*
X91744208Y-103626231D01*
X91806728Y-103590383D01*
X92029566Y-103396129D01*
X92035842Y-103388000D01*
X98530704Y-103388000D01*
X98559820Y-103683620D01*
X98646049Y-103967879D01*
X98786077Y-104229853D01*
X98974524Y-104459476D01*
X99204147Y-104647923D01*
X99223000Y-104658000D01*
X99204147Y-104668077D01*
X98974524Y-104856524D01*
X98786077Y-105086147D01*
X98646049Y-105348121D01*
X98559820Y-105632380D01*
X98530704Y-105928000D01*
X98559820Y-106223620D01*
X98646049Y-106507879D01*
X98786077Y-106769853D01*
X98974524Y-106999476D01*
X99204147Y-107187923D01*
X99223000Y-107198000D01*
X99204147Y-107208077D01*
X98974524Y-107396524D01*
X98786077Y-107626147D01*
X98646049Y-107888121D01*
X98559820Y-108172380D01*
X98530704Y-108468000D01*
X98559820Y-108763620D01*
X98646049Y-109047879D01*
X98786077Y-109309853D01*
X98974524Y-109539476D01*
X99204147Y-109727923D01*
X99233792Y-109743769D01*
X99171272Y-109779617D01*
X98948434Y-109973871D01*
X98767775Y-110207866D01*
X98636237Y-110472610D01*
X98576381Y-110669939D01*
X98706531Y-110904000D01*
X99942000Y-110904000D01*
X99942000Y-110884000D01*
X100150000Y-110884000D01*
X100150000Y-110904000D01*
X101385469Y-110904000D01*
X101515619Y-110669939D01*
X101455763Y-110472610D01*
X101324225Y-110207866D01*
X101143566Y-109973871D01*
X100920728Y-109779617D01*
X100858208Y-109743769D01*
X100887853Y-109727923D01*
X101117476Y-109539476D01*
X101305923Y-109309853D01*
X101445951Y-109047879D01*
X101532180Y-108763620D01*
X101561296Y-108468000D01*
X101532180Y-108172380D01*
X101445951Y-107888121D01*
X101305923Y-107626147D01*
X101117476Y-107396524D01*
X100887853Y-107208077D01*
X100869000Y-107198000D01*
X100887853Y-107187923D01*
X101117476Y-106999476D01*
X101305923Y-106769853D01*
X101445951Y-106507879D01*
X101532180Y-106223620D01*
X101561296Y-105928000D01*
X101532180Y-105632380D01*
X101445951Y-105348121D01*
X101305923Y-105086147D01*
X101117476Y-104856524D01*
X100887853Y-104668077D01*
X100869000Y-104658000D01*
X100887853Y-104647923D01*
X101117476Y-104459476D01*
X101305923Y-104229853D01*
X101445951Y-103967879D01*
X101532180Y-103683620D01*
X101561296Y-103388000D01*
X101532180Y-103092380D01*
X101445951Y-102808121D01*
X101305923Y-102546147D01*
X101117476Y-102316524D01*
X100887853Y-102128077D01*
X100858208Y-102112231D01*
X100920728Y-102076383D01*
X101143566Y-101882129D01*
X101324225Y-101648134D01*
X101455763Y-101383390D01*
X101515619Y-101186061D01*
X101385469Y-100952000D01*
X100150000Y-100952000D01*
X100150000Y-100972000D01*
X99942000Y-100972000D01*
X99942000Y-100952000D01*
X98706531Y-100952000D01*
X98576381Y-101186061D01*
X98636237Y-101383390D01*
X98767775Y-101648134D01*
X98948434Y-101882129D01*
X99171272Y-102076383D01*
X99233792Y-102112231D01*
X99204147Y-102128077D01*
X98974524Y-102316524D01*
X98786077Y-102546147D01*
X98646049Y-102808121D01*
X98559820Y-103092380D01*
X98530704Y-103388000D01*
X92035842Y-103388000D01*
X92210225Y-103162134D01*
X92341763Y-102897390D01*
X92401619Y-102700061D01*
X92271469Y-102466000D01*
X91036000Y-102466000D01*
X91036000Y-102486000D01*
X90828000Y-102486000D01*
X90828000Y-102466000D01*
X90808000Y-102466000D01*
X90808000Y-102258000D01*
X90828000Y-102258000D01*
X90828000Y-102238000D01*
X91036000Y-102238000D01*
X91036000Y-102258000D01*
X92271469Y-102258000D01*
X92401619Y-102023939D01*
X92341763Y-101826610D01*
X92210225Y-101561866D01*
X92029566Y-101327871D01*
X91992664Y-101295703D01*
X92035024Y-101282853D01*
X92149334Y-101221754D01*
X92249527Y-101139527D01*
X92331754Y-101039334D01*
X92392853Y-100925024D01*
X92406511Y-100880000D01*
X92530027Y-100880000D01*
X92582000Y-100885119D01*
X92789404Y-100864691D01*
X92988838Y-100804194D01*
X93172637Y-100705951D01*
X93333739Y-100573739D01*
X93366877Y-100533360D01*
X97739366Y-96160872D01*
X97779739Y-96127739D01*
X97911951Y-95966637D01*
X98010194Y-95782838D01*
X98070691Y-95583404D01*
X98086000Y-95427973D01*
X98086000Y-95427971D01*
X98091119Y-95376001D01*
X98086000Y-95324031D01*
X98086000Y-86524237D01*
X98593986Y-86016251D01*
X98646049Y-86187879D01*
X98786077Y-86449853D01*
X98974524Y-86679476D01*
X99204147Y-86867923D01*
X99223000Y-86878000D01*
X99204147Y-86888077D01*
X98974524Y-87076524D01*
X98786077Y-87306147D01*
X98646049Y-87568121D01*
X98559820Y-87852380D01*
X98530704Y-88148000D01*
X98559820Y-88443620D01*
X98646049Y-88727879D01*
X98786077Y-88989853D01*
X98974524Y-89219476D01*
X99204147Y-89407923D01*
X99223000Y-89418000D01*
X99204147Y-89428077D01*
X98974524Y-89616524D01*
X98786077Y-89846147D01*
X98646049Y-90108121D01*
X98559820Y-90392380D01*
X98530704Y-90688000D01*
X98559820Y-90983620D01*
X98646049Y-91267879D01*
X98786077Y-91529853D01*
X98974524Y-91759476D01*
X99204147Y-91947923D01*
X99223000Y-91958000D01*
X99204147Y-91968077D01*
X98974524Y-92156524D01*
X98786077Y-92386147D01*
X98646049Y-92648121D01*
X98559820Y-92932380D01*
X98530704Y-93228000D01*
X98559820Y-93523620D01*
X98646049Y-93807879D01*
X98786077Y-94069853D01*
X98974524Y-94299476D01*
X99204147Y-94487923D01*
X99223000Y-94498000D01*
X99204147Y-94508077D01*
X98974524Y-94696524D01*
X98786077Y-94926147D01*
X98646049Y-95188121D01*
X98559820Y-95472380D01*
X98530704Y-95768000D01*
X98559820Y-96063620D01*
X98646049Y-96347879D01*
X98786077Y-96609853D01*
X98974524Y-96839476D01*
X99204147Y-97027923D01*
X99223000Y-97038000D01*
X99204147Y-97048077D01*
X98974524Y-97236524D01*
X98786077Y-97466147D01*
X98646049Y-97728121D01*
X98559820Y-98012380D01*
X98530704Y-98308000D01*
X98559820Y-98603620D01*
X98646049Y-98887879D01*
X98786077Y-99149853D01*
X98974524Y-99379476D01*
X99204147Y-99567923D01*
X99233792Y-99583769D01*
X99171272Y-99619617D01*
X98948434Y-99813871D01*
X98767775Y-100047866D01*
X98636237Y-100312610D01*
X98576381Y-100509939D01*
X98706531Y-100744000D01*
X99942000Y-100744000D01*
X99942000Y-100724000D01*
X100150000Y-100724000D01*
X100150000Y-100744000D01*
X101385469Y-100744000D01*
X101515619Y-100509939D01*
X101455763Y-100312610D01*
X101324225Y-100047866D01*
X101143566Y-99813871D01*
X100920728Y-99619617D01*
X100858208Y-99583769D01*
X100887853Y-99567923D01*
X101117476Y-99379476D01*
X101305923Y-99149853D01*
X101445951Y-98887879D01*
X101532180Y-98603620D01*
X101561296Y-98308000D01*
X101532180Y-98012380D01*
X101445951Y-97728121D01*
X101305923Y-97466147D01*
X101117476Y-97236524D01*
X100887853Y-97048077D01*
X100869000Y-97038000D01*
X100887853Y-97027923D01*
X101117476Y-96839476D01*
X101305923Y-96609853D01*
X101445951Y-96347879D01*
X101532180Y-96063620D01*
X101561296Y-95768000D01*
X101532180Y-95472380D01*
X101445951Y-95188121D01*
X101305923Y-94926147D01*
X101117476Y-94696524D01*
X100887853Y-94508077D01*
X100869000Y-94498000D01*
X100887853Y-94487923D01*
X101117476Y-94299476D01*
X101305923Y-94069853D01*
X101445951Y-93807879D01*
X101532180Y-93523620D01*
X101561296Y-93228000D01*
X101532180Y-92932380D01*
X101445951Y-92648121D01*
X101305923Y-92386147D01*
X101117476Y-92156524D01*
X100887853Y-91968077D01*
X100869000Y-91958000D01*
X100887853Y-91947923D01*
X101117476Y-91759476D01*
X101305923Y-91529853D01*
X101445951Y-91267879D01*
X101532180Y-90983620D01*
X101561296Y-90688000D01*
X101532180Y-90392380D01*
X101445951Y-90108121D01*
X101305923Y-89846147D01*
X101117476Y-89616524D01*
X100887853Y-89428077D01*
X100869000Y-89418000D01*
X100887853Y-89407923D01*
X101117476Y-89219476D01*
X101305923Y-88989853D01*
X101445951Y-88727879D01*
X101532180Y-88443620D01*
X101561296Y-88148000D01*
X101532180Y-87852380D01*
X101445951Y-87568121D01*
X101305923Y-87306147D01*
X101117476Y-87076524D01*
X100887853Y-86888077D01*
X100869000Y-86878000D01*
X100887853Y-86867923D01*
X101117476Y-86679476D01*
X101305923Y-86449853D01*
X101445951Y-86187879D01*
X101532180Y-85903620D01*
X101561296Y-85608000D01*
X101532180Y-85312380D01*
X101445951Y-85028121D01*
X101305923Y-84766147D01*
X101117476Y-84536524D01*
X100887853Y-84348077D01*
X100869000Y-84338000D01*
X100887853Y-84327923D01*
X101117476Y-84139476D01*
X101305923Y-83909853D01*
X101445951Y-83647879D01*
X101532180Y-83363620D01*
X101561296Y-83068000D01*
X101532180Y-82772380D01*
X101445951Y-82488121D01*
X101305923Y-82226147D01*
X101117476Y-81996524D01*
X100887853Y-81808077D01*
X100858208Y-81792231D01*
X100920728Y-81756383D01*
X101143566Y-81562129D01*
X101324225Y-81328134D01*
X101455763Y-81063390D01*
X101515619Y-80866061D01*
X101385469Y-80632000D01*
X100150000Y-80632000D01*
X100150000Y-80652000D01*
X99942000Y-80652000D01*
X99942000Y-80632000D01*
X98706531Y-80632000D01*
X98576381Y-80866061D01*
X98636237Y-81063390D01*
X98767775Y-81328134D01*
X98948434Y-81562129D01*
X99171272Y-81756383D01*
X99233792Y-81792231D01*
X99204147Y-81808077D01*
X98974524Y-81996524D01*
X98786077Y-82226147D01*
X98646049Y-82488121D01*
X98559820Y-82772380D01*
X98530704Y-83068000D01*
X98532413Y-83085349D01*
X96316635Y-85301128D01*
X96276262Y-85334261D01*
X96243131Y-85374632D01*
X96144050Y-85495363D01*
X96045807Y-85679162D01*
X95985309Y-85878596D01*
X95964881Y-86086000D01*
X95970001Y-86137983D01*
X95970000Y-94937762D01*
X92318837Y-98588926D01*
X92249527Y-98504473D01*
X92149334Y-98422246D01*
X92035024Y-98361147D01*
X91910990Y-98323521D01*
X91782000Y-98310817D01*
X90082000Y-98310817D01*
X89953010Y-98323521D01*
X89828976Y-98361147D01*
X89714666Y-98422246D01*
X89614473Y-98504473D01*
X89532246Y-98604666D01*
X89471147Y-98718976D01*
X89457489Y-98764000D01*
X89333973Y-98764000D01*
X89282000Y-98758881D01*
X89074595Y-98779309D01*
X88875161Y-98839806D01*
X88822641Y-98867879D01*
X88691363Y-98938049D01*
X88530261Y-99070261D01*
X88497123Y-99110640D01*
X87934635Y-99673128D01*
X87894262Y-99706261D01*
X87804202Y-99816000D01*
X87762050Y-99867363D01*
X87663807Y-100051162D01*
X87603309Y-100250596D01*
X87582881Y-100458000D01*
X85166833Y-100458000D01*
X85272670Y-69342000D01*
X86312881Y-69342000D01*
X86318000Y-69393973D01*
X86318001Y-88848017D01*
X86312881Y-88900000D01*
X86333309Y-89107404D01*
X86388107Y-89288049D01*
X86393807Y-89306838D01*
X86492050Y-89490637D01*
X86624262Y-89651739D01*
X86664635Y-89684872D01*
X89216353Y-92236591D01*
X89241097Y-92487818D01*
X89324467Y-92762652D01*
X89459852Y-93015940D01*
X89642050Y-93237950D01*
X89864060Y-93420148D01*
X90117348Y-93555533D01*
X90392182Y-93638903D01*
X90606381Y-93660000D01*
X90749619Y-93660000D01*
X90963818Y-93638903D01*
X91238652Y-93555533D01*
X91491940Y-93420148D01*
X91713950Y-93237950D01*
X91896148Y-93015940D01*
X92031533Y-92762652D01*
X92114903Y-92487818D01*
X92143054Y-92202000D01*
X92114903Y-91916182D01*
X92031533Y-91641348D01*
X91896148Y-91388060D01*
X91713950Y-91166050D01*
X91491940Y-90983852D01*
X91238652Y-90848467D01*
X90963818Y-90765097D01*
X90749619Y-90744000D01*
X90716238Y-90744000D01*
X88434000Y-88461763D01*
X88434000Y-84824186D01*
X88835941Y-85226127D01*
X88865944Y-85262686D01*
X89011819Y-85382402D01*
X89178246Y-85471359D01*
X89257377Y-85495363D01*
X89358828Y-85526138D01*
X89546629Y-85544635D01*
X89575834Y-85541758D01*
X89748579Y-85714503D01*
X89987378Y-85874063D01*
X90252717Y-85983970D01*
X90534399Y-86040000D01*
X90821601Y-86040000D01*
X91103283Y-85983970D01*
X91368622Y-85874063D01*
X91607421Y-85714503D01*
X91810503Y-85511421D01*
X91970063Y-85272622D01*
X92079970Y-85007283D01*
X92136000Y-84725601D01*
X92136000Y-84438399D01*
X92079970Y-84156717D01*
X91970063Y-83891378D01*
X91810503Y-83652579D01*
X91607421Y-83449497D01*
X91368622Y-83289937D01*
X91103283Y-83180030D01*
X90821601Y-83124000D01*
X90534399Y-83124000D01*
X90252717Y-83180030D01*
X89987378Y-83289937D01*
X89760786Y-83441340D01*
X89604000Y-83284554D01*
X89604000Y-80732003D01*
X89680678Y-80819544D01*
X89907328Y-80993676D01*
X90163595Y-81120245D01*
X90347780Y-81176112D01*
X90574000Y-81045312D01*
X90574000Y-79860000D01*
X90782000Y-79860000D01*
X90782000Y-81045312D01*
X91008220Y-81176112D01*
X91192405Y-81120245D01*
X91448672Y-80993676D01*
X91675322Y-80819544D01*
X91863646Y-80604540D01*
X92006406Y-80356927D01*
X92098116Y-80086221D01*
X91967790Y-79860000D01*
X90782000Y-79860000D01*
X90574000Y-79860000D01*
X90554000Y-79860000D01*
X90554000Y-79652000D01*
X90574000Y-79652000D01*
X90574000Y-78466688D01*
X90782000Y-78466688D01*
X90782000Y-79652000D01*
X91967790Y-79652000D01*
X92098116Y-79425779D01*
X92006406Y-79155073D01*
X91863646Y-78907460D01*
X91675322Y-78692456D01*
X91448672Y-78518324D01*
X91192405Y-78391755D01*
X91008220Y-78335888D01*
X90782000Y-78466688D01*
X90574000Y-78466688D01*
X90347780Y-78335888D01*
X90163595Y-78391755D01*
X89907328Y-78518324D01*
X89680678Y-78692456D01*
X89604000Y-78779997D01*
X89604000Y-72024816D01*
X90112315Y-71516501D01*
X97227941Y-78632127D01*
X97257944Y-78668686D01*
X97403819Y-78788402D01*
X97570246Y-78877359D01*
X97750829Y-78932138D01*
X97891571Y-78946000D01*
X97891572Y-78946000D01*
X97938629Y-78950635D01*
X97985686Y-78946000D01*
X98545454Y-78946000D01*
X98547521Y-78966990D01*
X98585147Y-79091024D01*
X98646246Y-79205334D01*
X98728473Y-79305527D01*
X98828666Y-79387754D01*
X98942976Y-79448853D01*
X98985336Y-79461703D01*
X98948434Y-79493871D01*
X98767775Y-79727866D01*
X98636237Y-79992610D01*
X98576381Y-80189939D01*
X98706531Y-80424000D01*
X99942000Y-80424000D01*
X99942000Y-80404000D01*
X100150000Y-80404000D01*
X100150000Y-80424000D01*
X101385469Y-80424000D01*
X101515619Y-80189939D01*
X101455763Y-79992610D01*
X101324225Y-79727866D01*
X101143566Y-79493871D01*
X101106664Y-79461703D01*
X101149024Y-79448853D01*
X101263334Y-79387754D01*
X101363527Y-79305527D01*
X101445754Y-79205334D01*
X101506853Y-79091024D01*
X101544479Y-78966990D01*
X101557183Y-78838000D01*
X101557183Y-77138000D01*
X101544479Y-77009010D01*
X101506853Y-76884976D01*
X101445754Y-76770666D01*
X101363527Y-76670473D01*
X101263334Y-76588246D01*
X101149024Y-76527147D01*
X101024990Y-76489521D01*
X100896000Y-76476817D01*
X99196000Y-76476817D01*
X99067010Y-76489521D01*
X98942976Y-76527147D01*
X98828666Y-76588246D01*
X98728473Y-76670473D01*
X98646246Y-76770666D01*
X98585147Y-76884976D01*
X98547521Y-77009010D01*
X98545454Y-77030000D01*
X98335446Y-77030000D01*
X91818660Y-70513214D01*
X91970063Y-70286622D01*
X92079970Y-70021283D01*
X92136000Y-69739601D01*
X92136000Y-69452399D01*
X92079970Y-69170717D01*
X91970063Y-68905378D01*
X91810503Y-68666579D01*
X91607421Y-68463497D01*
X91368622Y-68303937D01*
X91103283Y-68194030D01*
X90821601Y-68138000D01*
X90534399Y-68138000D01*
X90252717Y-68194030D01*
X89987378Y-68303937D01*
X89755092Y-68459145D01*
X93656238Y-64558000D01*
X99072076Y-64558000D01*
X99146579Y-64632503D01*
X99385378Y-64792063D01*
X99650717Y-64901970D01*
X99932399Y-64958000D01*
X100219601Y-64958000D01*
X100501283Y-64901970D01*
X100766622Y-64792063D01*
X101005421Y-64632503D01*
X101208503Y-64429421D01*
X101368063Y-64190622D01*
X101477970Y-63925283D01*
X101534000Y-63643601D01*
X101534000Y-63356399D01*
X101477970Y-63074717D01*
X101368063Y-62809378D01*
X101208503Y-62570579D01*
X101134000Y-62496076D01*
X101134000Y-62414237D01*
X102292238Y-61256000D01*
X118857762Y-61256000D01*
X118124945Y-61988817D01*
X117260000Y-61988817D01*
X117131010Y-62001521D01*
X117006976Y-62039147D01*
X116892666Y-62100246D01*
X116792473Y-62182473D01*
X116710246Y-62282666D01*
X116649147Y-62396976D01*
X116635489Y-62442000D01*
X111245082Y-62442000D01*
X111049940Y-62281852D01*
X110796652Y-62146467D01*
X110521818Y-62063097D01*
X110307619Y-62042000D01*
X110164381Y-62042000D01*
X109950182Y-62063097D01*
X109675348Y-62146467D01*
X109422060Y-62281852D01*
X109200050Y-62464050D01*
X109017852Y-62686060D01*
X108882467Y-62939348D01*
X108799097Y-63214182D01*
X108770946Y-63500000D01*
X108799097Y-63785818D01*
X108882467Y-64060652D01*
X109017852Y-64313940D01*
X109200050Y-64535950D01*
X109422060Y-64718148D01*
X109675348Y-64853533D01*
X109950182Y-64936903D01*
X110164381Y-64958000D01*
X110307619Y-64958000D01*
X110521818Y-64936903D01*
X110796652Y-64853533D01*
X111049940Y-64718148D01*
X111245082Y-64558000D01*
X116635489Y-64558000D01*
X116649147Y-64603024D01*
X116710246Y-64717334D01*
X116792473Y-64817527D01*
X116892666Y-64899754D01*
X117006976Y-64960853D01*
X117131010Y-64998479D01*
X117260000Y-65011183D01*
X118960000Y-65011183D01*
X119088990Y-64998479D01*
X119213024Y-64960853D01*
X119327334Y-64899754D01*
X119427527Y-64817527D01*
X119509754Y-64717334D01*
X119570853Y-64603024D01*
X119583703Y-64560664D01*
X119615871Y-64597566D01*
X119849866Y-64778225D01*
X120114610Y-64909763D01*
X120311939Y-64969619D01*
X120546000Y-64839469D01*
X120546000Y-63604000D01*
X120526000Y-63604000D01*
X120526000Y-63396000D01*
X120546000Y-63396000D01*
X120546000Y-63376000D01*
X120754000Y-63376000D01*
X120754000Y-63396000D01*
X120774000Y-63396000D01*
X120774000Y-63604000D01*
X120754000Y-63604000D01*
X120754000Y-64839469D01*
X120988061Y-64969619D01*
X121185390Y-64909763D01*
X121450134Y-64778225D01*
X121684129Y-64597566D01*
X121878383Y-64374728D01*
X121914231Y-64312208D01*
X121930077Y-64341853D01*
X122118524Y-64571476D01*
X122348147Y-64759923D01*
X122610121Y-64899951D01*
X122894380Y-64986180D01*
X123115922Y-65008000D01*
X123264078Y-65008000D01*
X123485620Y-64986180D01*
X123769879Y-64899951D01*
X124031853Y-64759923D01*
X124261476Y-64571476D01*
X124418000Y-64380751D01*
X124418001Y-73475761D01*
X124002639Y-73891124D01*
X123962261Y-73924261D01*
X123830049Y-74085363D01*
X123731806Y-74269163D01*
X123720142Y-74307615D01*
X123671309Y-74468596D01*
X123650881Y-74676000D01*
X123656000Y-74727973D01*
X123656001Y-87224017D01*
X123650881Y-87276000D01*
X123671309Y-87483404D01*
X123731807Y-87682838D01*
X123830050Y-87866637D01*
X123962262Y-88027739D01*
X124002635Y-88060872D01*
X126592413Y-90650651D01*
X126590704Y-90668000D01*
X126619820Y-90963620D01*
X126706049Y-91247879D01*
X126846077Y-91509853D01*
X127034524Y-91739476D01*
X127264147Y-91927923D01*
X127280791Y-91936820D01*
X127171272Y-91999617D01*
X126948434Y-92193871D01*
X126767775Y-92427866D01*
X126636237Y-92692610D01*
X126576381Y-92889939D01*
X126706531Y-93124000D01*
X127942000Y-93124000D01*
X127942000Y-93104000D01*
X128150000Y-93104000D01*
X128150000Y-93124000D01*
X129385469Y-93124000D01*
X129515619Y-92889939D01*
X129455763Y-92692610D01*
X129324225Y-92427866D01*
X129143566Y-92193871D01*
X128920728Y-91999617D01*
X128869103Y-91970016D01*
X128947853Y-91927923D01*
X129177476Y-91739476D01*
X129365923Y-91509853D01*
X129505951Y-91247879D01*
X129590929Y-90967745D01*
X134771311Y-96148127D01*
X134801314Y-96184686D01*
X134947189Y-96304402D01*
X135113616Y-96393359D01*
X135197125Y-96418691D01*
X135294198Y-96448138D01*
X135481999Y-96466635D01*
X135529059Y-96462000D01*
X143649022Y-96462000D01*
X143696081Y-96466635D01*
X143743140Y-96462000D01*
X143883882Y-96448138D01*
X144064465Y-96393359D01*
X144230892Y-96304402D01*
X144376767Y-96184686D01*
X144406770Y-96148127D01*
X145424132Y-95130766D01*
X145460686Y-95100767D01*
X145580402Y-94954892D01*
X145669359Y-94788465D01*
X145721084Y-94617951D01*
X145724138Y-94607883D01*
X145742635Y-94420081D01*
X145738873Y-94381887D01*
X145851476Y-94289476D01*
X146039923Y-94059853D01*
X146055769Y-94030208D01*
X146091617Y-94092728D01*
X146285871Y-94315566D01*
X146519866Y-94496225D01*
X146784610Y-94627763D01*
X146981939Y-94687619D01*
X147216000Y-94557469D01*
X147216000Y-93322000D01*
X147424000Y-93322000D01*
X147424000Y-94557469D01*
X147658061Y-94687619D01*
X147855390Y-94627763D01*
X148120134Y-94496225D01*
X148354129Y-94315566D01*
X148548383Y-94092728D01*
X148695431Y-93836275D01*
X148789622Y-93556062D01*
X148659913Y-93322000D01*
X147424000Y-93322000D01*
X147216000Y-93322000D01*
X147196000Y-93322000D01*
X147196000Y-93114000D01*
X147216000Y-93114000D01*
X147216000Y-91878531D01*
X147424000Y-91878531D01*
X147424000Y-93114000D01*
X148659913Y-93114000D01*
X148789622Y-92879938D01*
X148695431Y-92599725D01*
X148548383Y-92343272D01*
X148354129Y-92120434D01*
X148120134Y-91939775D01*
X147855390Y-91808237D01*
X147658061Y-91748381D01*
X147424000Y-91878531D01*
X147216000Y-91878531D01*
X146981939Y-91748381D01*
X146784610Y-91808237D01*
X146519866Y-91939775D01*
X146285871Y-92120434D01*
X146091617Y-92343272D01*
X146055769Y-92405792D01*
X146039923Y-92376147D01*
X145851476Y-92146524D01*
X145621853Y-91958077D01*
X145359879Y-91818049D01*
X145075620Y-91731820D01*
X144854078Y-91710000D01*
X144705922Y-91710000D01*
X144484380Y-91731820D01*
X144200121Y-91818049D01*
X143938147Y-91958077D01*
X143710045Y-92145276D01*
X143700853Y-92114976D01*
X143639754Y-92000666D01*
X143557527Y-91900473D01*
X143473074Y-91831163D01*
X149114176Y-86190061D01*
X156264381Y-86190061D01*
X156324237Y-86387390D01*
X156455775Y-86652134D01*
X156636434Y-86886129D01*
X156859272Y-87080383D01*
X157115725Y-87227431D01*
X157395938Y-87321622D01*
X157630000Y-87191913D01*
X157630000Y-85956000D01*
X157838000Y-85956000D01*
X157838000Y-87191913D01*
X158072062Y-87321622D01*
X158352275Y-87227431D01*
X158608728Y-87080383D01*
X158831566Y-86886129D01*
X159012225Y-86652134D01*
X159143763Y-86387390D01*
X159203619Y-86190061D01*
X159073469Y-85956000D01*
X157838000Y-85956000D01*
X157630000Y-85956000D01*
X156394531Y-85956000D01*
X156264381Y-86190061D01*
X149114176Y-86190061D01*
X150934238Y-84370000D01*
X156651465Y-84370000D01*
X156662524Y-84383476D01*
X156892147Y-84571923D01*
X156921792Y-84587769D01*
X156859272Y-84623617D01*
X156636434Y-84817871D01*
X156455775Y-85051866D01*
X156324237Y-85316610D01*
X156264381Y-85513939D01*
X156394531Y-85748000D01*
X157630000Y-85748000D01*
X157630000Y-85728000D01*
X157838000Y-85728000D01*
X157838000Y-85748000D01*
X159073469Y-85748000D01*
X159203619Y-85513939D01*
X159143763Y-85316610D01*
X159012225Y-85051866D01*
X158831566Y-84817871D01*
X158608728Y-84623617D01*
X158546208Y-84587769D01*
X158575853Y-84571923D01*
X158805476Y-84383476D01*
X158816535Y-84370000D01*
X158884108Y-84370000D01*
X158936081Y-84375119D01*
X159143485Y-84354691D01*
X159342919Y-84294194D01*
X159526718Y-84195951D01*
X159687820Y-84063739D01*
X159720957Y-84023361D01*
X160731366Y-83012953D01*
X160771739Y-82979820D01*
X160903951Y-82818718D01*
X161002194Y-82634919D01*
X161062691Y-82435485D01*
X161078000Y-82280054D01*
X161078000Y-82280053D01*
X161083119Y-82228081D01*
X161078000Y-82176108D01*
X161078000Y-77789971D01*
X161083119Y-77737998D01*
X161062691Y-77530593D01*
X161002194Y-77331160D01*
X160989448Y-77307314D01*
X160903951Y-77147361D01*
X160771739Y-76986259D01*
X160731366Y-76953126D01*
X159026876Y-75248637D01*
X158993739Y-75208259D01*
X158832637Y-75076047D01*
X158648838Y-74977804D01*
X158449404Y-74917307D01*
X158293973Y-74901998D01*
X158242000Y-74896879D01*
X158190027Y-74901998D01*
X134056236Y-74901998D01*
X131086877Y-71932640D01*
X131053739Y-71892261D01*
X130892637Y-71760049D01*
X130708838Y-71661806D01*
X130509404Y-71601309D01*
X130353973Y-71586000D01*
X130302000Y-71580881D01*
X130250027Y-71586000D01*
X128708238Y-71586000D01*
X128058000Y-70935763D01*
X128058000Y-62281973D01*
X128063119Y-62230000D01*
X128042691Y-62022595D01*
X128012791Y-61924027D01*
X127982194Y-61823162D01*
X127883951Y-61639363D01*
X127751739Y-61478261D01*
X127711366Y-61445128D01*
X126495844Y-60229606D01*
X182146000Y-60229606D01*
X182146000Y-60674394D01*
X182232774Y-61110634D01*
X182402987Y-61521564D01*
X182650097Y-61891391D01*
X182964609Y-62205903D01*
X183334436Y-62453013D01*
X183745366Y-62623226D01*
X184181606Y-62710000D01*
X184626394Y-62710000D01*
X185062634Y-62623226D01*
X185473564Y-62453013D01*
X185843391Y-62205903D01*
X186157903Y-61891391D01*
X186405013Y-61521564D01*
X186575226Y-61110634D01*
X186662000Y-60674394D01*
X186662000Y-60229606D01*
X186575226Y-59793366D01*
X186405013Y-59382436D01*
X186157903Y-59012609D01*
X185843391Y-58698097D01*
X185473564Y-58450987D01*
X185062634Y-58280774D01*
X184626394Y-58194000D01*
X184181606Y-58194000D01*
X183745366Y-58280774D01*
X183334436Y-58450987D01*
X182964609Y-58698097D01*
X182650097Y-59012609D01*
X182402987Y-59382436D01*
X182232774Y-59793366D01*
X182146000Y-60229606D01*
X126495844Y-60229606D01*
X125752877Y-59486639D01*
X125719739Y-59446261D01*
X125558637Y-59314049D01*
X125374838Y-59215806D01*
X125175404Y-59155309D01*
X125019973Y-59140000D01*
X124968000Y-59134881D01*
X124916027Y-59140000D01*
X101905973Y-59140000D01*
X101854000Y-59134881D01*
X101646595Y-59155309D01*
X101447162Y-59215806D01*
X101263363Y-59314049D01*
X101102261Y-59446261D01*
X101069128Y-59486634D01*
X99364639Y-61191124D01*
X99324261Y-61224261D01*
X99192049Y-61385363D01*
X99093806Y-61569163D01*
X99061578Y-61675405D01*
X99033309Y-61768596D01*
X99012881Y-61976000D01*
X99018000Y-62027973D01*
X99018000Y-62442000D01*
X93269973Y-62442000D01*
X93218000Y-62436881D01*
X93010595Y-62457309D01*
X92834617Y-62510691D01*
X92811162Y-62517806D01*
X92627363Y-62616049D01*
X92466261Y-62748261D01*
X92433130Y-62788632D01*
X86664640Y-68557123D01*
X86624261Y-68590261D01*
X86492049Y-68751363D01*
X86393806Y-68935163D01*
X86355577Y-69061189D01*
X86333309Y-69134596D01*
X86312881Y-69342000D01*
X85272670Y-69342000D01*
X85302801Y-60483606D01*
X86388000Y-60483606D01*
X86388000Y-60928394D01*
X86474774Y-61364634D01*
X86644987Y-61775564D01*
X86892097Y-62145391D01*
X87206609Y-62459903D01*
X87576436Y-62707013D01*
X87987366Y-62877226D01*
X88423606Y-62964000D01*
X88868394Y-62964000D01*
X89304634Y-62877226D01*
X89715564Y-62707013D01*
X90085391Y-62459903D01*
X90399903Y-62145391D01*
X90647013Y-61775564D01*
X90817226Y-61364634D01*
X90904000Y-60928394D01*
X90904000Y-60483606D01*
X90817226Y-60047366D01*
X90647013Y-59636436D01*
X90399903Y-59266609D01*
X90085391Y-58952097D01*
X89715564Y-58704987D01*
X89304634Y-58534774D01*
X88868394Y-58448000D01*
X88423606Y-58448000D01*
X87987366Y-58534774D01*
X87576436Y-58704987D01*
X87206609Y-58952097D01*
X86892097Y-59266609D01*
X86644987Y-59636436D01*
X86474774Y-60047366D01*
X86388000Y-60483606D01*
X85302801Y-60483606D01*
X85312511Y-57629000D01*
X187227000Y-57629000D01*
X187227001Y-130839000D01*
X187227001Y-130839000D01*
G37*
X187227001Y-130839000D02*
X85063497Y-130839000D01*
X85072991Y-128047606D01*
X85372000Y-128047606D01*
X85372000Y-128492394D01*
X85458774Y-128928634D01*
X85628987Y-129339564D01*
X85876097Y-129709391D01*
X86190609Y-130023903D01*
X86560436Y-130271013D01*
X86971366Y-130441226D01*
X87407606Y-130528000D01*
X87852394Y-130528000D01*
X88288634Y-130441226D01*
X88699564Y-130271013D01*
X89069391Y-130023903D01*
X89383903Y-129709391D01*
X89631013Y-129339564D01*
X89801226Y-128928634D01*
X89888000Y-128492394D01*
X89888000Y-128047606D01*
X182400000Y-128047606D01*
X182400000Y-128492394D01*
X182486774Y-128928634D01*
X182656987Y-129339564D01*
X182904097Y-129709391D01*
X183218609Y-130023903D01*
X183588436Y-130271013D01*
X183999366Y-130441226D01*
X184435606Y-130528000D01*
X184880394Y-130528000D01*
X185316634Y-130441226D01*
X185727564Y-130271013D01*
X186097391Y-130023903D01*
X186411903Y-129709391D01*
X186659013Y-129339564D01*
X186829226Y-128928634D01*
X186916000Y-128492394D01*
X186916000Y-128047606D01*
X186829226Y-127611366D01*
X186659013Y-127200436D01*
X186411903Y-126830609D01*
X186097391Y-126516097D01*
X185727564Y-126268987D01*
X185316634Y-126098774D01*
X184880394Y-126012000D01*
X184435606Y-126012000D01*
X183999366Y-126098774D01*
X183588436Y-126268987D01*
X183218609Y-126516097D01*
X182904097Y-126830609D01*
X182656987Y-127200436D01*
X182486774Y-127611366D01*
X182400000Y-128047606D01*
X89888000Y-128047606D01*
X89801226Y-127611366D01*
X89631013Y-127200436D01*
X89383903Y-126830609D01*
X89069391Y-126516097D01*
X88699564Y-126268987D01*
X88288634Y-126098774D01*
X87852394Y-126012000D01*
X87407606Y-126012000D01*
X86971366Y-126098774D01*
X86560436Y-126268987D01*
X86190609Y-126516097D01*
X85876097Y-126830609D01*
X85628987Y-127200436D01*
X85458774Y-127611366D01*
X85372000Y-128047606D01*
X85072991Y-128047606D01*
X85099505Y-120252399D01*
X89474000Y-120252399D01*
X89474000Y-120539601D01*
X89530030Y-120821283D01*
X89639937Y-121086622D01*
X89799497Y-121325421D01*
X90002579Y-121528503D01*
X90241378Y-121688063D01*
X90506717Y-121797970D01*
X90788399Y-121854000D01*
X90893762Y-121854000D01*
X91020630Y-121980868D01*
X91020635Y-121980872D01*
X91998631Y-122958869D01*
X91998636Y-122958873D01*
X93449128Y-124409366D01*
X93482261Y-124449739D01*
X93643363Y-124581951D01*
X93827162Y-124680194D01*
X94026596Y-124740691D01*
X94182027Y-124756000D01*
X94182029Y-124756000D01*
X94233999Y-124761119D01*
X94285969Y-124756000D01*
X143966027Y-124756000D01*
X144018000Y-124761119D01*
X144225404Y-124740691D01*
X144225407Y-124740690D01*
X144424838Y-124680194D01*
X144608637Y-124581951D01*
X144769739Y-124449739D01*
X144802876Y-124409361D01*
X146507366Y-122704872D01*
X146547739Y-122671739D01*
X146679951Y-122510637D01*
X146778194Y-122326838D01*
X146785923Y-122301359D01*
X146838691Y-122127405D01*
X146859119Y-121920000D01*
X146854000Y-121868027D01*
X146854000Y-113483021D01*
X146859119Y-113431048D01*
X146838691Y-113223643D01*
X146778194Y-113024210D01*
X146679951Y-112840411D01*
X146547739Y-112679309D01*
X146507366Y-112646176D01*
X143910539Y-110049350D01*
X143912248Y-110032000D01*
X143883132Y-109736380D01*
X143796903Y-109452121D01*
X143656875Y-109190147D01*
X143468428Y-108960524D01*
X143238805Y-108772077D01*
X143209160Y-108756231D01*
X143271680Y-108720383D01*
X143494518Y-108526129D01*
X143675177Y-108292134D01*
X143806715Y-108027390D01*
X143866571Y-107830061D01*
X143736421Y-107596000D01*
X142500952Y-107596000D01*
X142500952Y-107616000D01*
X142292952Y-107616000D01*
X142292952Y-107596000D01*
X141057483Y-107596000D01*
X140927333Y-107830061D01*
X140987189Y-108027390D01*
X141118727Y-108292134D01*
X141299386Y-108526129D01*
X141522224Y-108720383D01*
X141584744Y-108756231D01*
X141555099Y-108772077D01*
X141325476Y-108960524D01*
X141137029Y-109190147D01*
X140997001Y-109452121D01*
X140912023Y-109732255D01*
X138333707Y-107153939D01*
X140927333Y-107153939D01*
X141057483Y-107388000D01*
X142292952Y-107388000D01*
X142292952Y-106152087D01*
X142500952Y-106152087D01*
X142500952Y-107388000D01*
X143736421Y-107388000D01*
X143866571Y-107153939D01*
X143806715Y-106956610D01*
X143675177Y-106691866D01*
X143494518Y-106457871D01*
X143271680Y-106263617D01*
X143015227Y-106116569D01*
X142735014Y-106022378D01*
X142500952Y-106152087D01*
X142292952Y-106152087D01*
X142058890Y-106022378D01*
X141778677Y-106116569D01*
X141522224Y-106263617D01*
X141299386Y-106457871D01*
X141118727Y-106691866D01*
X140987189Y-106956610D01*
X140927333Y-107153939D01*
X138333707Y-107153939D01*
X129607531Y-98427763D01*
X129621296Y-98288000D01*
X129592180Y-97992380D01*
X129505951Y-97708121D01*
X129365923Y-97446147D01*
X129177476Y-97216524D01*
X128947853Y-97028077D01*
X128929000Y-97018000D01*
X128947853Y-97007923D01*
X129177476Y-96819476D01*
X129365923Y-96589853D01*
X129505951Y-96327879D01*
X129592180Y-96043620D01*
X129621296Y-95748000D01*
X129592180Y-95452380D01*
X129505951Y-95168121D01*
X129365923Y-94906147D01*
X129177476Y-94676524D01*
X128947853Y-94488077D01*
X128905207Y-94465282D01*
X128920728Y-94456383D01*
X129143566Y-94262129D01*
X129324225Y-94028134D01*
X129455763Y-93763390D01*
X129515619Y-93566061D01*
X129385469Y-93332000D01*
X128150000Y-93332000D01*
X128150000Y-93352000D01*
X127942000Y-93352000D01*
X127942000Y-93332000D01*
X126706531Y-93332000D01*
X126576381Y-93566061D01*
X126636237Y-93763390D01*
X126767775Y-94028134D01*
X126948434Y-94262129D01*
X127171272Y-94456383D01*
X127248682Y-94500769D01*
X127034524Y-94676524D01*
X126846077Y-94906147D01*
X126706049Y-95168121D01*
X126619820Y-95452380D01*
X126590704Y-95748000D01*
X126605093Y-95894091D01*
X125339869Y-97159315D01*
X125303315Y-97189314D01*
X125273316Y-97225868D01*
X125183599Y-97335189D01*
X125094642Y-97501616D01*
X125039862Y-97682199D01*
X125021365Y-97870000D01*
X125026001Y-97917070D01*
X125026000Y-120602941D01*
X125021365Y-120650000D01*
X125039862Y-120837801D01*
X125051810Y-120877189D01*
X125094641Y-121018383D01*
X125183598Y-121184811D01*
X125303314Y-121330686D01*
X125339873Y-121360689D01*
X126619184Y-122640000D01*
X94672238Y-122640000D01*
X93494873Y-121462636D01*
X93494869Y-121462631D01*
X92516872Y-120484635D01*
X92516868Y-120484630D01*
X92390000Y-120357762D01*
X92390000Y-120252399D01*
X92333970Y-119970717D01*
X92224063Y-119705378D01*
X92064503Y-119466579D01*
X91861421Y-119263497D01*
X91622622Y-119103937D01*
X91357283Y-118994030D01*
X91075601Y-118938000D01*
X90788399Y-118938000D01*
X90506717Y-118994030D01*
X90241378Y-119103937D01*
X90002579Y-119263497D01*
X89799497Y-119466579D01*
X89639937Y-119705378D01*
X89530030Y-119970717D01*
X89474000Y-120252399D01*
X85099505Y-120252399D01*
X85122309Y-113548000D01*
X98530704Y-113548000D01*
X98559820Y-113843620D01*
X98646049Y-114127879D01*
X98786077Y-114389853D01*
X98974524Y-114619476D01*
X99204147Y-114807923D01*
X99466121Y-114947951D01*
X99750380Y-115034180D01*
X99971922Y-115056000D01*
X100120078Y-115056000D01*
X100341620Y-115034180D01*
X100625879Y-114947951D01*
X100887853Y-114807923D01*
X101117476Y-114619476D01*
X101305923Y-114389853D01*
X101445951Y-114127879D01*
X101532180Y-113843620D01*
X101561296Y-113548000D01*
X101532180Y-113252380D01*
X101445951Y-112968121D01*
X101305923Y-112706147D01*
X101117476Y-112476524D01*
X100887853Y-112288077D01*
X100858208Y-112272231D01*
X100920728Y-112236383D01*
X101143566Y-112042129D01*
X101324225Y-111808134D01*
X101455763Y-111543390D01*
X101515619Y-111346061D01*
X101385469Y-111112000D01*
X100150000Y-111112000D01*
X100150000Y-111132000D01*
X99942000Y-111132000D01*
X99942000Y-111112000D01*
X98706531Y-111112000D01*
X98576381Y-111346061D01*
X98636237Y-111543390D01*
X98767775Y-111808134D01*
X98948434Y-112042129D01*
X99171272Y-112236383D01*
X99233792Y-112272231D01*
X99204147Y-112288077D01*
X98974524Y-112476524D01*
X98786077Y-112706147D01*
X98646049Y-112968121D01*
X98559820Y-113252380D01*
X98530704Y-113548000D01*
X85122309Y-113548000D01*
X85166833Y-100458000D01*
X87582881Y-100458000D01*
X87588001Y-100509983D01*
X87588000Y-109029397D01*
X87582881Y-109081370D01*
X87603309Y-109288774D01*
X87609703Y-109309853D01*
X87663806Y-109488207D01*
X87762049Y-109672007D01*
X87894261Y-109833109D01*
X87934639Y-109866246D01*
X89015758Y-110947366D01*
X89048891Y-110987739D01*
X89209993Y-111119951D01*
X89393792Y-111218194D01*
X89593226Y-111278691D01*
X89748657Y-111294000D01*
X89748659Y-111294000D01*
X89800629Y-111299119D01*
X89852600Y-111294000D01*
X89922918Y-111294000D01*
X90118060Y-111454148D01*
X90371348Y-111589533D01*
X90646182Y-111672903D01*
X90860381Y-111694000D01*
X91003619Y-111694000D01*
X91217818Y-111672903D01*
X91492652Y-111589533D01*
X91745940Y-111454148D01*
X91967950Y-111271950D01*
X92150148Y-111049940D01*
X92285533Y-110796652D01*
X92368903Y-110521818D01*
X92397054Y-110236000D01*
X92368903Y-109950182D01*
X92285533Y-109675348D01*
X92150148Y-109422060D01*
X91967950Y-109200050D01*
X91745940Y-109017852D01*
X91492652Y-108882467D01*
X91217818Y-108799097D01*
X91003619Y-108778000D01*
X90860381Y-108778000D01*
X90646182Y-108799097D01*
X90371348Y-108882467D01*
X90118060Y-109017852D01*
X90096452Y-109035585D01*
X89704000Y-108643133D01*
X89704000Y-105782751D01*
X89860524Y-105973476D01*
X90090147Y-106161923D01*
X90352121Y-106301951D01*
X90636380Y-106388180D01*
X90857922Y-106410000D01*
X91006078Y-106410000D01*
X91227620Y-106388180D01*
X91511879Y-106301951D01*
X91773853Y-106161923D01*
X92003476Y-105973476D01*
X92191923Y-105743853D01*
X92331951Y-105481879D01*
X92418180Y-105197620D01*
X92447296Y-104902000D01*
X92418180Y-104606380D01*
X92331951Y-104322121D01*
X92191923Y-104060147D01*
X92003476Y-103830524D01*
X91773853Y-103642077D01*
X91744208Y-103626231D01*
X91806728Y-103590383D01*
X92029566Y-103396129D01*
X92035842Y-103388000D01*
X98530704Y-103388000D01*
X98559820Y-103683620D01*
X98646049Y-103967879D01*
X98786077Y-104229853D01*
X98974524Y-104459476D01*
X99204147Y-104647923D01*
X99223000Y-104658000D01*
X99204147Y-104668077D01*
X98974524Y-104856524D01*
X98786077Y-105086147D01*
X98646049Y-105348121D01*
X98559820Y-105632380D01*
X98530704Y-105928000D01*
X98559820Y-106223620D01*
X98646049Y-106507879D01*
X98786077Y-106769853D01*
X98974524Y-106999476D01*
X99204147Y-107187923D01*
X99223000Y-107198000D01*
X99204147Y-107208077D01*
X98974524Y-107396524D01*
X98786077Y-107626147D01*
X98646049Y-107888121D01*
X98559820Y-108172380D01*
X98530704Y-108468000D01*
X98559820Y-108763620D01*
X98646049Y-109047879D01*
X98786077Y-109309853D01*
X98974524Y-109539476D01*
X99204147Y-109727923D01*
X99233792Y-109743769D01*
X99171272Y-109779617D01*
X98948434Y-109973871D01*
X98767775Y-110207866D01*
X98636237Y-110472610D01*
X98576381Y-110669939D01*
X98706531Y-110904000D01*
X99942000Y-110904000D01*
X99942000Y-110884000D01*
X100150000Y-110884000D01*
X100150000Y-110904000D01*
X101385469Y-110904000D01*
X101515619Y-110669939D01*
X101455763Y-110472610D01*
X101324225Y-110207866D01*
X101143566Y-109973871D01*
X100920728Y-109779617D01*
X100858208Y-109743769D01*
X100887853Y-109727923D01*
X101117476Y-109539476D01*
X101305923Y-109309853D01*
X101445951Y-109047879D01*
X101532180Y-108763620D01*
X101561296Y-108468000D01*
X101532180Y-108172380D01*
X101445951Y-107888121D01*
X101305923Y-107626147D01*
X101117476Y-107396524D01*
X100887853Y-107208077D01*
X100869000Y-107198000D01*
X100887853Y-107187923D01*
X101117476Y-106999476D01*
X101305923Y-106769853D01*
X101445951Y-106507879D01*
X101532180Y-106223620D01*
X101561296Y-105928000D01*
X101532180Y-105632380D01*
X101445951Y-105348121D01*
X101305923Y-105086147D01*
X101117476Y-104856524D01*
X100887853Y-104668077D01*
X100869000Y-104658000D01*
X100887853Y-104647923D01*
X101117476Y-104459476D01*
X101305923Y-104229853D01*
X101445951Y-103967879D01*
X101532180Y-103683620D01*
X101561296Y-103388000D01*
X101532180Y-103092380D01*
X101445951Y-102808121D01*
X101305923Y-102546147D01*
X101117476Y-102316524D01*
X100887853Y-102128077D01*
X100858208Y-102112231D01*
X100920728Y-102076383D01*
X101143566Y-101882129D01*
X101324225Y-101648134D01*
X101455763Y-101383390D01*
X101515619Y-101186061D01*
X101385469Y-100952000D01*
X100150000Y-100952000D01*
X100150000Y-100972000D01*
X99942000Y-100972000D01*
X99942000Y-100952000D01*
X98706531Y-100952000D01*
X98576381Y-101186061D01*
X98636237Y-101383390D01*
X98767775Y-101648134D01*
X98948434Y-101882129D01*
X99171272Y-102076383D01*
X99233792Y-102112231D01*
X99204147Y-102128077D01*
X98974524Y-102316524D01*
X98786077Y-102546147D01*
X98646049Y-102808121D01*
X98559820Y-103092380D01*
X98530704Y-103388000D01*
X92035842Y-103388000D01*
X92210225Y-103162134D01*
X92341763Y-102897390D01*
X92401619Y-102700061D01*
X92271469Y-102466000D01*
X91036000Y-102466000D01*
X91036000Y-102486000D01*
X90828000Y-102486000D01*
X90828000Y-102466000D01*
X90808000Y-102466000D01*
X90808000Y-102258000D01*
X90828000Y-102258000D01*
X90828000Y-102238000D01*
X91036000Y-102238000D01*
X91036000Y-102258000D01*
X92271469Y-102258000D01*
X92401619Y-102023939D01*
X92341763Y-101826610D01*
X92210225Y-101561866D01*
X92029566Y-101327871D01*
X91992664Y-101295703D01*
X92035024Y-101282853D01*
X92149334Y-101221754D01*
X92249527Y-101139527D01*
X92331754Y-101039334D01*
X92392853Y-100925024D01*
X92406511Y-100880000D01*
X92530027Y-100880000D01*
X92582000Y-100885119D01*
X92789404Y-100864691D01*
X92988838Y-100804194D01*
X93172637Y-100705951D01*
X93333739Y-100573739D01*
X93366877Y-100533360D01*
X97739366Y-96160872D01*
X97779739Y-96127739D01*
X97911951Y-95966637D01*
X98010194Y-95782838D01*
X98070691Y-95583404D01*
X98086000Y-95427973D01*
X98086000Y-95427971D01*
X98091119Y-95376001D01*
X98086000Y-95324031D01*
X98086000Y-86524237D01*
X98593986Y-86016251D01*
X98646049Y-86187879D01*
X98786077Y-86449853D01*
X98974524Y-86679476D01*
X99204147Y-86867923D01*
X99223000Y-86878000D01*
X99204147Y-86888077D01*
X98974524Y-87076524D01*
X98786077Y-87306147D01*
X98646049Y-87568121D01*
X98559820Y-87852380D01*
X98530704Y-88148000D01*
X98559820Y-88443620D01*
X98646049Y-88727879D01*
X98786077Y-88989853D01*
X98974524Y-89219476D01*
X99204147Y-89407923D01*
X99223000Y-89418000D01*
X99204147Y-89428077D01*
X98974524Y-89616524D01*
X98786077Y-89846147D01*
X98646049Y-90108121D01*
X98559820Y-90392380D01*
X98530704Y-90688000D01*
X98559820Y-90983620D01*
X98646049Y-91267879D01*
X98786077Y-91529853D01*
X98974524Y-91759476D01*
X99204147Y-91947923D01*
X99223000Y-91958000D01*
X99204147Y-91968077D01*
X98974524Y-92156524D01*
X98786077Y-92386147D01*
X98646049Y-92648121D01*
X98559820Y-92932380D01*
X98530704Y-93228000D01*
X98559820Y-93523620D01*
X98646049Y-93807879D01*
X98786077Y-94069853D01*
X98974524Y-94299476D01*
X99204147Y-94487923D01*
X99223000Y-94498000D01*
X99204147Y-94508077D01*
X98974524Y-94696524D01*
X98786077Y-94926147D01*
X98646049Y-95188121D01*
X98559820Y-95472380D01*
X98530704Y-95768000D01*
X98559820Y-96063620D01*
X98646049Y-96347879D01*
X98786077Y-96609853D01*
X98974524Y-96839476D01*
X99204147Y-97027923D01*
X99223000Y-97038000D01*
X99204147Y-97048077D01*
X98974524Y-97236524D01*
X98786077Y-97466147D01*
X98646049Y-97728121D01*
X98559820Y-98012380D01*
X98530704Y-98308000D01*
X98559820Y-98603620D01*
X98646049Y-98887879D01*
X98786077Y-99149853D01*
X98974524Y-99379476D01*
X99204147Y-99567923D01*
X99233792Y-99583769D01*
X99171272Y-99619617D01*
X98948434Y-99813871D01*
X98767775Y-100047866D01*
X98636237Y-100312610D01*
X98576381Y-100509939D01*
X98706531Y-100744000D01*
X99942000Y-100744000D01*
X99942000Y-100724000D01*
X100150000Y-100724000D01*
X100150000Y-100744000D01*
X101385469Y-100744000D01*
X101515619Y-100509939D01*
X101455763Y-100312610D01*
X101324225Y-100047866D01*
X101143566Y-99813871D01*
X100920728Y-99619617D01*
X100858208Y-99583769D01*
X100887853Y-99567923D01*
X101117476Y-99379476D01*
X101305923Y-99149853D01*
X101445951Y-98887879D01*
X101532180Y-98603620D01*
X101561296Y-98308000D01*
X101532180Y-98012380D01*
X101445951Y-97728121D01*
X101305923Y-97466147D01*
X101117476Y-97236524D01*
X100887853Y-97048077D01*
X100869000Y-97038000D01*
X100887853Y-97027923D01*
X101117476Y-96839476D01*
X101305923Y-96609853D01*
X101445951Y-96347879D01*
X101532180Y-96063620D01*
X101561296Y-95768000D01*
X101532180Y-95472380D01*
X101445951Y-95188121D01*
X101305923Y-94926147D01*
X101117476Y-94696524D01*
X100887853Y-94508077D01*
X100869000Y-94498000D01*
X100887853Y-94487923D01*
X101117476Y-94299476D01*
X101305923Y-94069853D01*
X101445951Y-93807879D01*
X101532180Y-93523620D01*
X101561296Y-93228000D01*
X101532180Y-92932380D01*
X101445951Y-92648121D01*
X101305923Y-92386147D01*
X101117476Y-92156524D01*
X100887853Y-91968077D01*
X100869000Y-91958000D01*
X100887853Y-91947923D01*
X101117476Y-91759476D01*
X101305923Y-91529853D01*
X101445951Y-91267879D01*
X101532180Y-90983620D01*
X101561296Y-90688000D01*
X101532180Y-90392380D01*
X101445951Y-90108121D01*
X101305923Y-89846147D01*
X101117476Y-89616524D01*
X100887853Y-89428077D01*
X100869000Y-89418000D01*
X100887853Y-89407923D01*
X101117476Y-89219476D01*
X101305923Y-88989853D01*
X101445951Y-88727879D01*
X101532180Y-88443620D01*
X101561296Y-88148000D01*
X101532180Y-87852380D01*
X101445951Y-87568121D01*
X101305923Y-87306147D01*
X101117476Y-87076524D01*
X100887853Y-86888077D01*
X100869000Y-86878000D01*
X100887853Y-86867923D01*
X101117476Y-86679476D01*
X101305923Y-86449853D01*
X101445951Y-86187879D01*
X101532180Y-85903620D01*
X101561296Y-85608000D01*
X101532180Y-85312380D01*
X101445951Y-85028121D01*
X101305923Y-84766147D01*
X101117476Y-84536524D01*
X100887853Y-84348077D01*
X100869000Y-84338000D01*
X100887853Y-84327923D01*
X101117476Y-84139476D01*
X101305923Y-83909853D01*
X101445951Y-83647879D01*
X101532180Y-83363620D01*
X101561296Y-83068000D01*
X101532180Y-82772380D01*
X101445951Y-82488121D01*
X101305923Y-82226147D01*
X101117476Y-81996524D01*
X100887853Y-81808077D01*
X100858208Y-81792231D01*
X100920728Y-81756383D01*
X101143566Y-81562129D01*
X101324225Y-81328134D01*
X101455763Y-81063390D01*
X101515619Y-80866061D01*
X101385469Y-80632000D01*
X100150000Y-80632000D01*
X100150000Y-80652000D01*
X99942000Y-80652000D01*
X99942000Y-80632000D01*
X98706531Y-80632000D01*
X98576381Y-80866061D01*
X98636237Y-81063390D01*
X98767775Y-81328134D01*
X98948434Y-81562129D01*
X99171272Y-81756383D01*
X99233792Y-81792231D01*
X99204147Y-81808077D01*
X98974524Y-81996524D01*
X98786077Y-82226147D01*
X98646049Y-82488121D01*
X98559820Y-82772380D01*
X98530704Y-83068000D01*
X98532413Y-83085349D01*
X96316635Y-85301128D01*
X96276262Y-85334261D01*
X96243131Y-85374632D01*
X96144050Y-85495363D01*
X96045807Y-85679162D01*
X95985309Y-85878596D01*
X95964881Y-86086000D01*
X95970001Y-86137983D01*
X95970000Y-94937762D01*
X92318837Y-98588926D01*
X92249527Y-98504473D01*
X92149334Y-98422246D01*
X92035024Y-98361147D01*
X91910990Y-98323521D01*
X91782000Y-98310817D01*
X90082000Y-98310817D01*
X89953010Y-98323521D01*
X89828976Y-98361147D01*
X89714666Y-98422246D01*
X89614473Y-98504473D01*
X89532246Y-98604666D01*
X89471147Y-98718976D01*
X89457489Y-98764000D01*
X89333973Y-98764000D01*
X89282000Y-98758881D01*
X89074595Y-98779309D01*
X88875161Y-98839806D01*
X88822641Y-98867879D01*
X88691363Y-98938049D01*
X88530261Y-99070261D01*
X88497123Y-99110640D01*
X87934635Y-99673128D01*
X87894262Y-99706261D01*
X87804202Y-99816000D01*
X87762050Y-99867363D01*
X87663807Y-100051162D01*
X87603309Y-100250596D01*
X87582881Y-100458000D01*
X85166833Y-100458000D01*
X85272670Y-69342000D01*
X86312881Y-69342000D01*
X86318000Y-69393973D01*
X86318001Y-88848017D01*
X86312881Y-88900000D01*
X86333309Y-89107404D01*
X86388107Y-89288049D01*
X86393807Y-89306838D01*
X86492050Y-89490637D01*
X86624262Y-89651739D01*
X86664635Y-89684872D01*
X89216353Y-92236591D01*
X89241097Y-92487818D01*
X89324467Y-92762652D01*
X89459852Y-93015940D01*
X89642050Y-93237950D01*
X89864060Y-93420148D01*
X90117348Y-93555533D01*
X90392182Y-93638903D01*
X90606381Y-93660000D01*
X90749619Y-93660000D01*
X90963818Y-93638903D01*
X91238652Y-93555533D01*
X91491940Y-93420148D01*
X91713950Y-93237950D01*
X91896148Y-93015940D01*
X92031533Y-92762652D01*
X92114903Y-92487818D01*
X92143054Y-92202000D01*
X92114903Y-91916182D01*
X92031533Y-91641348D01*
X91896148Y-91388060D01*
X91713950Y-91166050D01*
X91491940Y-90983852D01*
X91238652Y-90848467D01*
X90963818Y-90765097D01*
X90749619Y-90744000D01*
X90716238Y-90744000D01*
X88434000Y-88461763D01*
X88434000Y-84824186D01*
X88835941Y-85226127D01*
X88865944Y-85262686D01*
X89011819Y-85382402D01*
X89178246Y-85471359D01*
X89257377Y-85495363D01*
X89358828Y-85526138D01*
X89546629Y-85544635D01*
X89575834Y-85541758D01*
X89748579Y-85714503D01*
X89987378Y-85874063D01*
X90252717Y-85983970D01*
X90534399Y-86040000D01*
X90821601Y-86040000D01*
X91103283Y-85983970D01*
X91368622Y-85874063D01*
X91607421Y-85714503D01*
X91810503Y-85511421D01*
X91970063Y-85272622D01*
X92079970Y-85007283D01*
X92136000Y-84725601D01*
X92136000Y-84438399D01*
X92079970Y-84156717D01*
X91970063Y-83891378D01*
X91810503Y-83652579D01*
X91607421Y-83449497D01*
X91368622Y-83289937D01*
X91103283Y-83180030D01*
X90821601Y-83124000D01*
X90534399Y-83124000D01*
X90252717Y-83180030D01*
X89987378Y-83289937D01*
X89760786Y-83441340D01*
X89604000Y-83284554D01*
X89604000Y-80732003D01*
X89680678Y-80819544D01*
X89907328Y-80993676D01*
X90163595Y-81120245D01*
X90347780Y-81176112D01*
X90574000Y-81045312D01*
X90574000Y-79860000D01*
X90782000Y-79860000D01*
X90782000Y-81045312D01*
X91008220Y-81176112D01*
X91192405Y-81120245D01*
X91448672Y-80993676D01*
X91675322Y-80819544D01*
X91863646Y-80604540D01*
X92006406Y-80356927D01*
X92098116Y-80086221D01*
X91967790Y-79860000D01*
X90782000Y-79860000D01*
X90574000Y-79860000D01*
X90554000Y-79860000D01*
X90554000Y-79652000D01*
X90574000Y-79652000D01*
X90574000Y-78466688D01*
X90782000Y-78466688D01*
X90782000Y-79652000D01*
X91967790Y-79652000D01*
X92098116Y-79425779D01*
X92006406Y-79155073D01*
X91863646Y-78907460D01*
X91675322Y-78692456D01*
X91448672Y-78518324D01*
X91192405Y-78391755D01*
X91008220Y-78335888D01*
X90782000Y-78466688D01*
X90574000Y-78466688D01*
X90347780Y-78335888D01*
X90163595Y-78391755D01*
X89907328Y-78518324D01*
X89680678Y-78692456D01*
X89604000Y-78779997D01*
X89604000Y-72024816D01*
X90112315Y-71516501D01*
X97227941Y-78632127D01*
X97257944Y-78668686D01*
X97403819Y-78788402D01*
X97570246Y-78877359D01*
X97750829Y-78932138D01*
X97891571Y-78946000D01*
X97891572Y-78946000D01*
X97938629Y-78950635D01*
X97985686Y-78946000D01*
X98545454Y-78946000D01*
X98547521Y-78966990D01*
X98585147Y-79091024D01*
X98646246Y-79205334D01*
X98728473Y-79305527D01*
X98828666Y-79387754D01*
X98942976Y-79448853D01*
X98985336Y-79461703D01*
X98948434Y-79493871D01*
X98767775Y-79727866D01*
X98636237Y-79992610D01*
X98576381Y-80189939D01*
X98706531Y-80424000D01*
X99942000Y-80424000D01*
X99942000Y-80404000D01*
X100150000Y-80404000D01*
X100150000Y-80424000D01*
X101385469Y-80424000D01*
X101515619Y-80189939D01*
X101455763Y-79992610D01*
X101324225Y-79727866D01*
X101143566Y-79493871D01*
X101106664Y-79461703D01*
X101149024Y-79448853D01*
X101263334Y-79387754D01*
X101363527Y-79305527D01*
X101445754Y-79205334D01*
X101506853Y-79091024D01*
X101544479Y-78966990D01*
X101557183Y-78838000D01*
X101557183Y-77138000D01*
X101544479Y-77009010D01*
X101506853Y-76884976D01*
X101445754Y-76770666D01*
X101363527Y-76670473D01*
X101263334Y-76588246D01*
X101149024Y-76527147D01*
X101024990Y-76489521D01*
X100896000Y-76476817D01*
X99196000Y-76476817D01*
X99067010Y-76489521D01*
X98942976Y-76527147D01*
X98828666Y-76588246D01*
X98728473Y-76670473D01*
X98646246Y-76770666D01*
X98585147Y-76884976D01*
X98547521Y-77009010D01*
X98545454Y-77030000D01*
X98335446Y-77030000D01*
X91818660Y-70513214D01*
X91970063Y-70286622D01*
X92079970Y-70021283D01*
X92136000Y-69739601D01*
X92136000Y-69452399D01*
X92079970Y-69170717D01*
X91970063Y-68905378D01*
X91810503Y-68666579D01*
X91607421Y-68463497D01*
X91368622Y-68303937D01*
X91103283Y-68194030D01*
X90821601Y-68138000D01*
X90534399Y-68138000D01*
X90252717Y-68194030D01*
X89987378Y-68303937D01*
X89755092Y-68459145D01*
X93656238Y-64558000D01*
X99072076Y-64558000D01*
X99146579Y-64632503D01*
X99385378Y-64792063D01*
X99650717Y-64901970D01*
X99932399Y-64958000D01*
X100219601Y-64958000D01*
X100501283Y-64901970D01*
X100766622Y-64792063D01*
X101005421Y-64632503D01*
X101208503Y-64429421D01*
X101368063Y-64190622D01*
X101477970Y-63925283D01*
X101534000Y-63643601D01*
X101534000Y-63356399D01*
X101477970Y-63074717D01*
X101368063Y-62809378D01*
X101208503Y-62570579D01*
X101134000Y-62496076D01*
X101134000Y-62414237D01*
X102292238Y-61256000D01*
X118857762Y-61256000D01*
X118124945Y-61988817D01*
X117260000Y-61988817D01*
X117131010Y-62001521D01*
X117006976Y-62039147D01*
X116892666Y-62100246D01*
X116792473Y-62182473D01*
X116710246Y-62282666D01*
X116649147Y-62396976D01*
X116635489Y-62442000D01*
X111245082Y-62442000D01*
X111049940Y-62281852D01*
X110796652Y-62146467D01*
X110521818Y-62063097D01*
X110307619Y-62042000D01*
X110164381Y-62042000D01*
X109950182Y-62063097D01*
X109675348Y-62146467D01*
X109422060Y-62281852D01*
X109200050Y-62464050D01*
X109017852Y-62686060D01*
X108882467Y-62939348D01*
X108799097Y-63214182D01*
X108770946Y-63500000D01*
X108799097Y-63785818D01*
X108882467Y-64060652D01*
X109017852Y-64313940D01*
X109200050Y-64535950D01*
X109422060Y-64718148D01*
X109675348Y-64853533D01*
X109950182Y-64936903D01*
X110164381Y-64958000D01*
X110307619Y-64958000D01*
X110521818Y-64936903D01*
X110796652Y-64853533D01*
X111049940Y-64718148D01*
X111245082Y-64558000D01*
X116635489Y-64558000D01*
X116649147Y-64603024D01*
X116710246Y-64717334D01*
X116792473Y-64817527D01*
X116892666Y-64899754D01*
X117006976Y-64960853D01*
X117131010Y-64998479D01*
X117260000Y-65011183D01*
X118960000Y-65011183D01*
X119088990Y-64998479D01*
X119213024Y-64960853D01*
X119327334Y-64899754D01*
X119427527Y-64817527D01*
X119509754Y-64717334D01*
X119570853Y-64603024D01*
X119583703Y-64560664D01*
X119615871Y-64597566D01*
X119849866Y-64778225D01*
X120114610Y-64909763D01*
X120311939Y-64969619D01*
X120546000Y-64839469D01*
X120546000Y-63604000D01*
X120526000Y-63604000D01*
X120526000Y-63396000D01*
X120546000Y-63396000D01*
X120546000Y-63376000D01*
X120754000Y-63376000D01*
X120754000Y-63396000D01*
X120774000Y-63396000D01*
X120774000Y-63604000D01*
X120754000Y-63604000D01*
X120754000Y-64839469D01*
X120988061Y-64969619D01*
X121185390Y-64909763D01*
X121450134Y-64778225D01*
X121684129Y-64597566D01*
X121878383Y-64374728D01*
X121914231Y-64312208D01*
X121930077Y-64341853D01*
X122118524Y-64571476D01*
X122348147Y-64759923D01*
X122610121Y-64899951D01*
X122894380Y-64986180D01*
X123115922Y-65008000D01*
X123264078Y-65008000D01*
X123485620Y-64986180D01*
X123769879Y-64899951D01*
X124031853Y-64759923D01*
X124261476Y-64571476D01*
X124418000Y-64380751D01*
X124418001Y-73475761D01*
X124002639Y-73891124D01*
X123962261Y-73924261D01*
X123830049Y-74085363D01*
X123731806Y-74269163D01*
X123720142Y-74307615D01*
X123671309Y-74468596D01*
X123650881Y-74676000D01*
X123656000Y-74727973D01*
X123656001Y-87224017D01*
X123650881Y-87276000D01*
X123671309Y-87483404D01*
X123731807Y-87682838D01*
X123830050Y-87866637D01*
X123962262Y-88027739D01*
X124002635Y-88060872D01*
X126592413Y-90650651D01*
X126590704Y-90668000D01*
X126619820Y-90963620D01*
X126706049Y-91247879D01*
X126846077Y-91509853D01*
X127034524Y-91739476D01*
X127264147Y-91927923D01*
X127280791Y-91936820D01*
X127171272Y-91999617D01*
X126948434Y-92193871D01*
X126767775Y-92427866D01*
X126636237Y-92692610D01*
X126576381Y-92889939D01*
X126706531Y-93124000D01*
X127942000Y-93124000D01*
X127942000Y-93104000D01*
X128150000Y-93104000D01*
X128150000Y-93124000D01*
X129385469Y-93124000D01*
X129515619Y-92889939D01*
X129455763Y-92692610D01*
X129324225Y-92427866D01*
X129143566Y-92193871D01*
X128920728Y-91999617D01*
X128869103Y-91970016D01*
X128947853Y-91927923D01*
X129177476Y-91739476D01*
X129365923Y-91509853D01*
X129505951Y-91247879D01*
X129590929Y-90967745D01*
X134771311Y-96148127D01*
X134801314Y-96184686D01*
X134947189Y-96304402D01*
X135113616Y-96393359D01*
X135197125Y-96418691D01*
X135294198Y-96448138D01*
X135481999Y-96466635D01*
X135529059Y-96462000D01*
X143649022Y-96462000D01*
X143696081Y-96466635D01*
X143743140Y-96462000D01*
X143883882Y-96448138D01*
X144064465Y-96393359D01*
X144230892Y-96304402D01*
X144376767Y-96184686D01*
X144406770Y-96148127D01*
X145424132Y-95130766D01*
X145460686Y-95100767D01*
X145580402Y-94954892D01*
X145669359Y-94788465D01*
X145721084Y-94617951D01*
X145724138Y-94607883D01*
X145742635Y-94420081D01*
X145738873Y-94381887D01*
X145851476Y-94289476D01*
X146039923Y-94059853D01*
X146055769Y-94030208D01*
X146091617Y-94092728D01*
X146285871Y-94315566D01*
X146519866Y-94496225D01*
X146784610Y-94627763D01*
X146981939Y-94687619D01*
X147216000Y-94557469D01*
X147216000Y-93322000D01*
X147424000Y-93322000D01*
X147424000Y-94557469D01*
X147658061Y-94687619D01*
X147855390Y-94627763D01*
X148120134Y-94496225D01*
X148354129Y-94315566D01*
X148548383Y-94092728D01*
X148695431Y-93836275D01*
X148789622Y-93556062D01*
X148659913Y-93322000D01*
X147424000Y-93322000D01*
X147216000Y-93322000D01*
X147196000Y-93322000D01*
X147196000Y-93114000D01*
X147216000Y-93114000D01*
X147216000Y-91878531D01*
X147424000Y-91878531D01*
X147424000Y-93114000D01*
X148659913Y-93114000D01*
X148789622Y-92879938D01*
X148695431Y-92599725D01*
X148548383Y-92343272D01*
X148354129Y-92120434D01*
X148120134Y-91939775D01*
X147855390Y-91808237D01*
X147658061Y-91748381D01*
X147424000Y-91878531D01*
X147216000Y-91878531D01*
X146981939Y-91748381D01*
X146784610Y-91808237D01*
X146519866Y-91939775D01*
X146285871Y-92120434D01*
X146091617Y-92343272D01*
X146055769Y-92405792D01*
X146039923Y-92376147D01*
X145851476Y-92146524D01*
X145621853Y-91958077D01*
X145359879Y-91818049D01*
X145075620Y-91731820D01*
X144854078Y-91710000D01*
X144705922Y-91710000D01*
X144484380Y-91731820D01*
X144200121Y-91818049D01*
X143938147Y-91958077D01*
X143710045Y-92145276D01*
X143700853Y-92114976D01*
X143639754Y-92000666D01*
X143557527Y-91900473D01*
X143473074Y-91831163D01*
X149114176Y-86190061D01*
X156264381Y-86190061D01*
X156324237Y-86387390D01*
X156455775Y-86652134D01*
X156636434Y-86886129D01*
X156859272Y-87080383D01*
X157115725Y-87227431D01*
X157395938Y-87321622D01*
X157630000Y-87191913D01*
X157630000Y-85956000D01*
X157838000Y-85956000D01*
X157838000Y-87191913D01*
X158072062Y-87321622D01*
X158352275Y-87227431D01*
X158608728Y-87080383D01*
X158831566Y-86886129D01*
X159012225Y-86652134D01*
X159143763Y-86387390D01*
X159203619Y-86190061D01*
X159073469Y-85956000D01*
X157838000Y-85956000D01*
X157630000Y-85956000D01*
X156394531Y-85956000D01*
X156264381Y-86190061D01*
X149114176Y-86190061D01*
X150934238Y-84370000D01*
X156651465Y-84370000D01*
X156662524Y-84383476D01*
X156892147Y-84571923D01*
X156921792Y-84587769D01*
X156859272Y-84623617D01*
X156636434Y-84817871D01*
X156455775Y-85051866D01*
X156324237Y-85316610D01*
X156264381Y-85513939D01*
X156394531Y-85748000D01*
X157630000Y-85748000D01*
X157630000Y-85728000D01*
X157838000Y-85728000D01*
X157838000Y-85748000D01*
X159073469Y-85748000D01*
X159203619Y-85513939D01*
X159143763Y-85316610D01*
X159012225Y-85051866D01*
X158831566Y-84817871D01*
X158608728Y-84623617D01*
X158546208Y-84587769D01*
X158575853Y-84571923D01*
X158805476Y-84383476D01*
X158816535Y-84370000D01*
X158884108Y-84370000D01*
X158936081Y-84375119D01*
X159143485Y-84354691D01*
X159342919Y-84294194D01*
X159526718Y-84195951D01*
X159687820Y-84063739D01*
X159720957Y-84023361D01*
X160731366Y-83012953D01*
X160771739Y-82979820D01*
X160903951Y-82818718D01*
X161002194Y-82634919D01*
X161062691Y-82435485D01*
X161078000Y-82280054D01*
X161078000Y-82280053D01*
X161083119Y-82228081D01*
X161078000Y-82176108D01*
X161078000Y-77789971D01*
X161083119Y-77737998D01*
X161062691Y-77530593D01*
X161002194Y-77331160D01*
X160989448Y-77307314D01*
X160903951Y-77147361D01*
X160771739Y-76986259D01*
X160731366Y-76953126D01*
X159026876Y-75248637D01*
X158993739Y-75208259D01*
X158832637Y-75076047D01*
X158648838Y-74977804D01*
X158449404Y-74917307D01*
X158293973Y-74901998D01*
X158242000Y-74896879D01*
X158190027Y-74901998D01*
X134056236Y-74901998D01*
X131086877Y-71932640D01*
X131053739Y-71892261D01*
X130892637Y-71760049D01*
X130708838Y-71661806D01*
X130509404Y-71601309D01*
X130353973Y-71586000D01*
X130302000Y-71580881D01*
X130250027Y-71586000D01*
X128708238Y-71586000D01*
X128058000Y-70935763D01*
X128058000Y-62281973D01*
X128063119Y-62230000D01*
X128042691Y-62022595D01*
X128012791Y-61924027D01*
X127982194Y-61823162D01*
X127883951Y-61639363D01*
X127751739Y-61478261D01*
X127711366Y-61445128D01*
X126495844Y-60229606D01*
X182146000Y-60229606D01*
X182146000Y-60674394D01*
X182232774Y-61110634D01*
X182402987Y-61521564D01*
X182650097Y-61891391D01*
X182964609Y-62205903D01*
X183334436Y-62453013D01*
X183745366Y-62623226D01*
X184181606Y-62710000D01*
X184626394Y-62710000D01*
X185062634Y-62623226D01*
X185473564Y-62453013D01*
X185843391Y-62205903D01*
X186157903Y-61891391D01*
X186405013Y-61521564D01*
X186575226Y-61110634D01*
X186662000Y-60674394D01*
X186662000Y-60229606D01*
X186575226Y-59793366D01*
X186405013Y-59382436D01*
X186157903Y-59012609D01*
X185843391Y-58698097D01*
X185473564Y-58450987D01*
X185062634Y-58280774D01*
X184626394Y-58194000D01*
X184181606Y-58194000D01*
X183745366Y-58280774D01*
X183334436Y-58450987D01*
X182964609Y-58698097D01*
X182650097Y-59012609D01*
X182402987Y-59382436D01*
X182232774Y-59793366D01*
X182146000Y-60229606D01*
X126495844Y-60229606D01*
X125752877Y-59486639D01*
X125719739Y-59446261D01*
X125558637Y-59314049D01*
X125374838Y-59215806D01*
X125175404Y-59155309D01*
X125019973Y-59140000D01*
X124968000Y-59134881D01*
X124916027Y-59140000D01*
X101905973Y-59140000D01*
X101854000Y-59134881D01*
X101646595Y-59155309D01*
X101447162Y-59215806D01*
X101263363Y-59314049D01*
X101102261Y-59446261D01*
X101069128Y-59486634D01*
X99364639Y-61191124D01*
X99324261Y-61224261D01*
X99192049Y-61385363D01*
X99093806Y-61569163D01*
X99061578Y-61675405D01*
X99033309Y-61768596D01*
X99012881Y-61976000D01*
X99018000Y-62027973D01*
X99018000Y-62442000D01*
X93269973Y-62442000D01*
X93218000Y-62436881D01*
X93010595Y-62457309D01*
X92834617Y-62510691D01*
X92811162Y-62517806D01*
X92627363Y-62616049D01*
X92466261Y-62748261D01*
X92433130Y-62788632D01*
X86664640Y-68557123D01*
X86624261Y-68590261D01*
X86492049Y-68751363D01*
X86393806Y-68935163D01*
X86355577Y-69061189D01*
X86333309Y-69134596D01*
X86312881Y-69342000D01*
X85272670Y-69342000D01*
X85302801Y-60483606D01*
X86388000Y-60483606D01*
X86388000Y-60928394D01*
X86474774Y-61364634D01*
X86644987Y-61775564D01*
X86892097Y-62145391D01*
X87206609Y-62459903D01*
X87576436Y-62707013D01*
X87987366Y-62877226D01*
X88423606Y-62964000D01*
X88868394Y-62964000D01*
X89304634Y-62877226D01*
X89715564Y-62707013D01*
X90085391Y-62459903D01*
X90399903Y-62145391D01*
X90647013Y-61775564D01*
X90817226Y-61364634D01*
X90904000Y-60928394D01*
X90904000Y-60483606D01*
X90817226Y-60047366D01*
X90647013Y-59636436D01*
X90399903Y-59266609D01*
X90085391Y-58952097D01*
X89715564Y-58704987D01*
X89304634Y-58534774D01*
X88868394Y-58448000D01*
X88423606Y-58448000D01*
X87987366Y-58534774D01*
X87576436Y-58704987D01*
X87206609Y-58952097D01*
X86892097Y-59266609D01*
X86644987Y-59636436D01*
X86474774Y-60047366D01*
X86388000Y-60483606D01*
X85302801Y-60483606D01*
X85312511Y-57629000D01*
X187227000Y-57629000D01*
X187227001Y-130839000D01*
G36*
X139250001Y-115866818D02*
G01*
X139250000Y-119405988D01*
X139245365Y-119453048D01*
X139263862Y-119640849D01*
X139268819Y-119657189D01*
X139318641Y-119821431D01*
X139407598Y-119987859D01*
X139527314Y-120133734D01*
X139563873Y-120163737D01*
X140236267Y-120836132D01*
X140266266Y-120872686D01*
X140412141Y-120992402D01*
X140578568Y-121081359D01*
X140704371Y-121119521D01*
X140759150Y-121136138D01*
X140896372Y-121149653D01*
X140898473Y-121170990D01*
X140912127Y-121216000D01*
X127904816Y-121216000D01*
X126942000Y-120253184D01*
X126942000Y-114486735D01*
X127034524Y-114599476D01*
X127264147Y-114787923D01*
X127526121Y-114927951D01*
X127810380Y-115014180D01*
X128031922Y-115036000D01*
X128180078Y-115036000D01*
X128401620Y-115014180D01*
X128685879Y-114927951D01*
X128947853Y-114787923D01*
X129177476Y-114599476D01*
X129365923Y-114369853D01*
X129505951Y-114107879D01*
X129592180Y-113823620D01*
X129621296Y-113528000D01*
X129592180Y-113232380D01*
X129505951Y-112948121D01*
X129365923Y-112686147D01*
X129177476Y-112456524D01*
X128947853Y-112268077D01*
X128918208Y-112252231D01*
X128980728Y-112216383D01*
X129203566Y-112022129D01*
X129384225Y-111788134D01*
X129515763Y-111523390D01*
X129575619Y-111326061D01*
X129445469Y-111092000D01*
X128210000Y-111092000D01*
X128210000Y-111112000D01*
X128002000Y-111112000D01*
X128002000Y-111092000D01*
X127982000Y-111092000D01*
X127982000Y-110884000D01*
X128002000Y-110884000D01*
X128002000Y-110864000D01*
X128210000Y-110864000D01*
X128210000Y-110884000D01*
X129445469Y-110884000D01*
X129575619Y-110649939D01*
X129515763Y-110452610D01*
X129384225Y-110187866D01*
X129203566Y-109953871D01*
X128980728Y-109759617D01*
X128918208Y-109723769D01*
X128947853Y-109707923D01*
X129177476Y-109519476D01*
X129365923Y-109289853D01*
X129505951Y-109027879D01*
X129592180Y-108743620D01*
X129621296Y-108448000D01*
X129592180Y-108152380D01*
X129505951Y-107868121D01*
X129365923Y-107606147D01*
X129177476Y-107376524D01*
X128947853Y-107188077D01*
X128929000Y-107178000D01*
X128947853Y-107167923D01*
X129177476Y-106979476D01*
X129365923Y-106749853D01*
X129505951Y-106487879D01*
X129590929Y-106207745D01*
X139250001Y-115866818D01*
X139250001Y-115866818D01*
G37*
X139250001Y-115866818D02*
X139250000Y-119405988D01*
X139245365Y-119453048D01*
X139263862Y-119640849D01*
X139268819Y-119657189D01*
X139318641Y-119821431D01*
X139407598Y-119987859D01*
X139527314Y-120133734D01*
X139563873Y-120163737D01*
X140236267Y-120836132D01*
X140266266Y-120872686D01*
X140412141Y-120992402D01*
X140578568Y-121081359D01*
X140704371Y-121119521D01*
X140759150Y-121136138D01*
X140896372Y-121149653D01*
X140898473Y-121170990D01*
X140912127Y-121216000D01*
X127904816Y-121216000D01*
X126942000Y-120253184D01*
X126942000Y-114486735D01*
X127034524Y-114599476D01*
X127264147Y-114787923D01*
X127526121Y-114927951D01*
X127810380Y-115014180D01*
X128031922Y-115036000D01*
X128180078Y-115036000D01*
X128401620Y-115014180D01*
X128685879Y-114927951D01*
X128947853Y-114787923D01*
X129177476Y-114599476D01*
X129365923Y-114369853D01*
X129505951Y-114107879D01*
X129592180Y-113823620D01*
X129621296Y-113528000D01*
X129592180Y-113232380D01*
X129505951Y-112948121D01*
X129365923Y-112686147D01*
X129177476Y-112456524D01*
X128947853Y-112268077D01*
X128918208Y-112252231D01*
X128980728Y-112216383D01*
X129203566Y-112022129D01*
X129384225Y-111788134D01*
X129515763Y-111523390D01*
X129575619Y-111326061D01*
X129445469Y-111092000D01*
X128210000Y-111092000D01*
X128210000Y-111112000D01*
X128002000Y-111112000D01*
X128002000Y-111092000D01*
X127982000Y-111092000D01*
X127982000Y-110884000D01*
X128002000Y-110884000D01*
X128002000Y-110864000D01*
X128210000Y-110864000D01*
X128210000Y-110884000D01*
X129445469Y-110884000D01*
X129575619Y-110649939D01*
X129515763Y-110452610D01*
X129384225Y-110187866D01*
X129203566Y-109953871D01*
X128980728Y-109759617D01*
X128918208Y-109723769D01*
X128947853Y-109707923D01*
X129177476Y-109519476D01*
X129365923Y-109289853D01*
X129505951Y-109027879D01*
X129592180Y-108743620D01*
X129621296Y-108448000D01*
X129592180Y-108152380D01*
X129505951Y-107868121D01*
X129365923Y-107606147D01*
X129177476Y-107376524D01*
X128947853Y-107188077D01*
X128929000Y-107178000D01*
X128947853Y-107167923D01*
X129177476Y-106979476D01*
X129365923Y-106749853D01*
X129505951Y-106487879D01*
X129590929Y-106207745D01*
X139250001Y-115866818D01*
M02*
