G04 #@! TF.GenerationSoftware,KiCad,Pcbnew,(5.1.2)-2*
G04 #@! TF.CreationDate,2019-07-01T23:58:17+07:00*
G04 #@! TF.ProjectId,weather,77656174-6865-4722-9e6b-696361645f70,rev?*
G04 #@! TF.SameCoordinates,Original*
G04 #@! TF.FileFunction,Legend,Top*
G04 #@! TF.FilePolarity,Positive*
%FSLAX46Y46*%
G04 Gerber Fmt 4.6, Leading zero omitted, Abs format (unit mm)*
G04 Created by KiCad (PCBNEW (5.1.2)-2) date 2019-07-01 23:58:17*
%MOMM*%
%LPD*%
G04 APERTURE LIST*
%ADD10C,0.100000*%
%ADD11C,0.150000*%
%ADD12C,0.300000*%
%ADD13C,0.400000*%
%ADD14C,0.500000*%
%ADD15C,0.120000*%
G04 APERTURE END LIST*
D10*
D11*
X177002200Y-166007200D02*
X177002200Y-198007200D01*
X285002200Y-198007200D01*
X285002200Y-166007200D01*
X177002200Y-166007200D01*
D10*
D11*
X10000000Y-10000000D02*
X10000000Y-200007200D01*
X287002200Y-200007200D01*
X287002200Y-10000000D01*
X10000000Y-10000000D01*
D10*
D11*
X12000000Y-12000000D02*
X12000000Y-198007200D01*
X285002200Y-198007200D01*
X285002200Y-12000000D01*
X12000000Y-12000000D01*
D10*
D11*
X60000000Y-12000000D02*
X60000000Y-10000000D01*
D10*
D11*
X110000000Y-12000000D02*
X110000000Y-10000000D01*
D10*
D11*
X160000000Y-12000000D02*
X160000000Y-10000000D01*
D10*
D11*
X210000000Y-12000000D02*
X210000000Y-10000000D01*
D10*
D11*
X260000000Y-12000000D02*
X260000000Y-10000000D01*
D10*
D11*
X36065476Y-11588095D02*
X35322619Y-11588095D01*
X35694047Y-11588095D02*
X35694047Y-10288095D01*
X35570238Y-10473809D01*
X35446428Y-10597619D01*
X35322619Y-10659523D01*
D10*
D11*
X85322619Y-10411904D02*
X85384523Y-10350000D01*
X85508333Y-10288095D01*
X85817857Y-10288095D01*
X85941666Y-10350000D01*
X86003571Y-10411904D01*
X86065476Y-10535714D01*
X86065476Y-10659523D01*
X86003571Y-10845238D01*
X85260714Y-11588095D01*
X86065476Y-11588095D01*
D10*
D11*
X135260714Y-10288095D02*
X136065476Y-10288095D01*
X135632142Y-10783333D01*
X135817857Y-10783333D01*
X135941666Y-10845238D01*
X136003571Y-10907142D01*
X136065476Y-11030952D01*
X136065476Y-11340476D01*
X136003571Y-11464285D01*
X135941666Y-11526190D01*
X135817857Y-11588095D01*
X135446428Y-11588095D01*
X135322619Y-11526190D01*
X135260714Y-11464285D01*
D10*
D11*
X185941666Y-10721428D02*
X185941666Y-11588095D01*
X185632142Y-10226190D02*
X185322619Y-11154761D01*
X186127380Y-11154761D01*
D10*
D11*
X236003571Y-10288095D02*
X235384523Y-10288095D01*
X235322619Y-10907142D01*
X235384523Y-10845238D01*
X235508333Y-10783333D01*
X235817857Y-10783333D01*
X235941666Y-10845238D01*
X236003571Y-10907142D01*
X236065476Y-11030952D01*
X236065476Y-11340476D01*
X236003571Y-11464285D01*
X235941666Y-11526190D01*
X235817857Y-11588095D01*
X235508333Y-11588095D01*
X235384523Y-11526190D01*
X235322619Y-11464285D01*
D10*
D11*
X285941666Y-10288095D02*
X285694047Y-10288095D01*
X285570238Y-10350000D01*
X285508333Y-10411904D01*
X285384523Y-10597619D01*
X285322619Y-10845238D01*
X285322619Y-11340476D01*
X285384523Y-11464285D01*
X285446428Y-11526190D01*
X285570238Y-11588095D01*
X285817857Y-11588095D01*
X285941666Y-11526190D01*
X286003571Y-11464285D01*
X286065476Y-11340476D01*
X286065476Y-11030952D01*
X286003571Y-10907142D01*
X285941666Y-10845238D01*
X285817857Y-10783333D01*
X285570238Y-10783333D01*
X285446428Y-10845238D01*
X285384523Y-10907142D01*
X285322619Y-11030952D01*
D10*
D11*
X60000000Y-198007200D02*
X60000000Y-200007200D01*
D10*
D11*
X110000000Y-198007200D02*
X110000000Y-200007200D01*
D10*
D11*
X160000000Y-198007200D02*
X160000000Y-200007200D01*
D10*
D11*
X210000000Y-198007200D02*
X210000000Y-200007200D01*
D10*
D11*
X260000000Y-198007200D02*
X260000000Y-200007200D01*
D10*
D11*
X36065476Y-199595295D02*
X35322619Y-199595295D01*
X35694047Y-199595295D02*
X35694047Y-198295295D01*
X35570238Y-198481009D01*
X35446428Y-198604819D01*
X35322619Y-198666723D01*
D10*
D11*
X85322619Y-198419104D02*
X85384523Y-198357200D01*
X85508333Y-198295295D01*
X85817857Y-198295295D01*
X85941666Y-198357200D01*
X86003571Y-198419104D01*
X86065476Y-198542914D01*
X86065476Y-198666723D01*
X86003571Y-198852438D01*
X85260714Y-199595295D01*
X86065476Y-199595295D01*
D10*
D11*
X135260714Y-198295295D02*
X136065476Y-198295295D01*
X135632142Y-198790533D01*
X135817857Y-198790533D01*
X135941666Y-198852438D01*
X136003571Y-198914342D01*
X136065476Y-199038152D01*
X136065476Y-199347676D01*
X136003571Y-199471485D01*
X135941666Y-199533390D01*
X135817857Y-199595295D01*
X135446428Y-199595295D01*
X135322619Y-199533390D01*
X135260714Y-199471485D01*
D10*
D11*
X185941666Y-198728628D02*
X185941666Y-199595295D01*
X185632142Y-198233390D02*
X185322619Y-199161961D01*
X186127380Y-199161961D01*
D10*
D11*
X236003571Y-198295295D02*
X235384523Y-198295295D01*
X235322619Y-198914342D01*
X235384523Y-198852438D01*
X235508333Y-198790533D01*
X235817857Y-198790533D01*
X235941666Y-198852438D01*
X236003571Y-198914342D01*
X236065476Y-199038152D01*
X236065476Y-199347676D01*
X236003571Y-199471485D01*
X235941666Y-199533390D01*
X235817857Y-199595295D01*
X235508333Y-199595295D01*
X235384523Y-199533390D01*
X235322619Y-199471485D01*
D10*
D11*
X285941666Y-198295295D02*
X285694047Y-198295295D01*
X285570238Y-198357200D01*
X285508333Y-198419104D01*
X285384523Y-198604819D01*
X285322619Y-198852438D01*
X285322619Y-199347676D01*
X285384523Y-199471485D01*
X285446428Y-199533390D01*
X285570238Y-199595295D01*
X285817857Y-199595295D01*
X285941666Y-199533390D01*
X286003571Y-199471485D01*
X286065476Y-199347676D01*
X286065476Y-199038152D01*
X286003571Y-198914342D01*
X285941666Y-198852438D01*
X285817857Y-198790533D01*
X285570238Y-198790533D01*
X285446428Y-198852438D01*
X285384523Y-198914342D01*
X285322619Y-199038152D01*
D10*
D11*
X10000000Y-60000000D02*
X12000000Y-60000000D01*
D10*
D11*
X10000000Y-110000000D02*
X12000000Y-110000000D01*
D10*
D11*
X10000000Y-160000000D02*
X12000000Y-160000000D01*
D10*
D11*
X10690476Y-35216666D02*
X11309523Y-35216666D01*
X10566666Y-35588095D02*
X11000000Y-34288095D01*
X11433333Y-35588095D01*
D10*
D11*
X11092857Y-84907142D02*
X11278571Y-84969047D01*
X11340476Y-85030952D01*
X11402380Y-85154761D01*
X11402380Y-85340476D01*
X11340476Y-85464285D01*
X11278571Y-85526190D01*
X11154761Y-85588095D01*
X10659523Y-85588095D01*
X10659523Y-84288095D01*
X11092857Y-84288095D01*
X11216666Y-84350000D01*
X11278571Y-84411904D01*
X11340476Y-84535714D01*
X11340476Y-84659523D01*
X11278571Y-84783333D01*
X11216666Y-84845238D01*
X11092857Y-84907142D01*
X10659523Y-84907142D01*
D10*
D11*
X11402380Y-135464285D02*
X11340476Y-135526190D01*
X11154761Y-135588095D01*
X11030952Y-135588095D01*
X10845238Y-135526190D01*
X10721428Y-135402380D01*
X10659523Y-135278571D01*
X10597619Y-135030952D01*
X10597619Y-134845238D01*
X10659523Y-134597619D01*
X10721428Y-134473809D01*
X10845238Y-134350000D01*
X11030952Y-134288095D01*
X11154761Y-134288095D01*
X11340476Y-134350000D01*
X11402380Y-134411904D01*
D10*
D11*
X10659523Y-185588095D02*
X10659523Y-184288095D01*
X10969047Y-184288095D01*
X11154761Y-184350000D01*
X11278571Y-184473809D01*
X11340476Y-184597619D01*
X11402380Y-184845238D01*
X11402380Y-185030952D01*
X11340476Y-185278571D01*
X11278571Y-185402380D01*
X11154761Y-185526190D01*
X10969047Y-185588095D01*
X10659523Y-185588095D01*
D10*
D11*
X287002200Y-60000000D02*
X285002200Y-60000000D01*
D10*
D11*
X287002200Y-110000000D02*
X285002200Y-110000000D01*
D10*
D11*
X287002200Y-160000000D02*
X285002200Y-160000000D01*
D10*
D11*
X285692676Y-35216666D02*
X286311723Y-35216666D01*
X285568866Y-35588095D02*
X286002200Y-34288095D01*
X286435533Y-35588095D01*
D10*
D11*
X286095057Y-84907142D02*
X286280771Y-84969047D01*
X286342676Y-85030952D01*
X286404580Y-85154761D01*
X286404580Y-85340476D01*
X286342676Y-85464285D01*
X286280771Y-85526190D01*
X286156961Y-85588095D01*
X285661723Y-85588095D01*
X285661723Y-84288095D01*
X286095057Y-84288095D01*
X286218866Y-84350000D01*
X286280771Y-84411904D01*
X286342676Y-84535714D01*
X286342676Y-84659523D01*
X286280771Y-84783333D01*
X286218866Y-84845238D01*
X286095057Y-84907142D01*
X285661723Y-84907142D01*
D10*
D11*
X286404580Y-135464285D02*
X286342676Y-135526190D01*
X286156961Y-135588095D01*
X286033152Y-135588095D01*
X285847438Y-135526190D01*
X285723628Y-135402380D01*
X285661723Y-135278571D01*
X285599819Y-135030952D01*
X285599819Y-134845238D01*
X285661723Y-134597619D01*
X285723628Y-134473809D01*
X285847438Y-134350000D01*
X286033152Y-134288095D01*
X286156961Y-134288095D01*
X286342676Y-134350000D01*
X286404580Y-134411904D01*
D10*
D11*
X285661723Y-185588095D02*
X285661723Y-184288095D01*
X285971247Y-184288095D01*
X286156961Y-184350000D01*
X286280771Y-184473809D01*
X286342676Y-184597619D01*
X286404580Y-184845238D01*
X286404580Y-185030952D01*
X286342676Y-185278571D01*
X286280771Y-185402380D01*
X286156961Y-185526190D01*
X285971247Y-185588095D01*
X285661723Y-185588095D01*
D10*
D11*
X200434342Y-193785771D02*
X200434342Y-192285771D01*
X200791485Y-192285771D01*
X201005771Y-192357200D01*
X201148628Y-192500057D01*
X201220057Y-192642914D01*
X201291485Y-192928628D01*
X201291485Y-193142914D01*
X201220057Y-193428628D01*
X201148628Y-193571485D01*
X201005771Y-193714342D01*
X200791485Y-193785771D01*
X200434342Y-193785771D01*
X202577200Y-193785771D02*
X202577200Y-193000057D01*
X202505771Y-192857200D01*
X202362914Y-192785771D01*
X202077200Y-192785771D01*
X201934342Y-192857200D01*
X202577200Y-193714342D02*
X202434342Y-193785771D01*
X202077200Y-193785771D01*
X201934342Y-193714342D01*
X201862914Y-193571485D01*
X201862914Y-193428628D01*
X201934342Y-193285771D01*
X202077200Y-193214342D01*
X202434342Y-193214342D01*
X202577200Y-193142914D01*
X203077200Y-192785771D02*
X203648628Y-192785771D01*
X203291485Y-192285771D02*
X203291485Y-193571485D01*
X203362914Y-193714342D01*
X203505771Y-193785771D01*
X203648628Y-193785771D01*
X204720057Y-193714342D02*
X204577200Y-193785771D01*
X204291485Y-193785771D01*
X204148628Y-193714342D01*
X204077200Y-193571485D01*
X204077200Y-193000057D01*
X204148628Y-192857200D01*
X204291485Y-192785771D01*
X204577200Y-192785771D01*
X204720057Y-192857200D01*
X204791485Y-193000057D01*
X204791485Y-193142914D01*
X204077200Y-193285771D01*
X205434342Y-193642914D02*
X205505771Y-193714342D01*
X205434342Y-193785771D01*
X205362914Y-193714342D01*
X205434342Y-193642914D01*
X205434342Y-193785771D01*
X205434342Y-192857200D02*
X205505771Y-192928628D01*
X205434342Y-193000057D01*
X205362914Y-192928628D01*
X205434342Y-192857200D01*
X205434342Y-193000057D01*
D10*
D11*
X177002200Y-194507200D02*
X285002200Y-194507200D01*
D10*
D11*
X178434342Y-196585771D02*
X178434342Y-195085771D01*
X179291485Y-196585771D02*
X178648628Y-195728628D01*
X179291485Y-195085771D02*
X178434342Y-195942914D01*
X179934342Y-196585771D02*
X179934342Y-195585771D01*
X179934342Y-195085771D02*
X179862914Y-195157200D01*
X179934342Y-195228628D01*
X180005771Y-195157200D01*
X179934342Y-195085771D01*
X179934342Y-195228628D01*
X181505771Y-196442914D02*
X181434342Y-196514342D01*
X181220057Y-196585771D01*
X181077200Y-196585771D01*
X180862914Y-196514342D01*
X180720057Y-196371485D01*
X180648628Y-196228628D01*
X180577200Y-195942914D01*
X180577200Y-195728628D01*
X180648628Y-195442914D01*
X180720057Y-195300057D01*
X180862914Y-195157200D01*
X181077200Y-195085771D01*
X181220057Y-195085771D01*
X181434342Y-195157200D01*
X181505771Y-195228628D01*
X182791485Y-196585771D02*
X182791485Y-195800057D01*
X182720057Y-195657200D01*
X182577200Y-195585771D01*
X182291485Y-195585771D01*
X182148628Y-195657200D01*
X182791485Y-196514342D02*
X182648628Y-196585771D01*
X182291485Y-196585771D01*
X182148628Y-196514342D01*
X182077200Y-196371485D01*
X182077200Y-196228628D01*
X182148628Y-196085771D01*
X182291485Y-196014342D01*
X182648628Y-196014342D01*
X182791485Y-195942914D01*
X184148628Y-196585771D02*
X184148628Y-195085771D01*
X184148628Y-196514342D02*
X184005771Y-196585771D01*
X183720057Y-196585771D01*
X183577200Y-196514342D01*
X183505771Y-196442914D01*
X183434342Y-196300057D01*
X183434342Y-195871485D01*
X183505771Y-195728628D01*
X183577200Y-195657200D01*
X183720057Y-195585771D01*
X184005771Y-195585771D01*
X184148628Y-195657200D01*
X186005771Y-195800057D02*
X186505771Y-195800057D01*
X186720057Y-196585771D02*
X186005771Y-196585771D01*
X186005771Y-195085771D01*
X186720057Y-195085771D01*
X187362914Y-196442914D02*
X187434342Y-196514342D01*
X187362914Y-196585771D01*
X187291485Y-196514342D01*
X187362914Y-196442914D01*
X187362914Y-196585771D01*
X188077200Y-196585771D02*
X188077200Y-195085771D01*
X188434342Y-195085771D01*
X188648628Y-195157200D01*
X188791485Y-195300057D01*
X188862914Y-195442914D01*
X188934342Y-195728628D01*
X188934342Y-195942914D01*
X188862914Y-196228628D01*
X188791485Y-196371485D01*
X188648628Y-196514342D01*
X188434342Y-196585771D01*
X188077200Y-196585771D01*
X189577200Y-196442914D02*
X189648628Y-196514342D01*
X189577200Y-196585771D01*
X189505771Y-196514342D01*
X189577200Y-196442914D01*
X189577200Y-196585771D01*
X190220057Y-196157200D02*
X190934342Y-196157200D01*
X190077200Y-196585771D02*
X190577200Y-195085771D01*
X191077200Y-196585771D01*
X191577200Y-196442914D02*
X191648628Y-196514342D01*
X191577200Y-196585771D01*
X191505771Y-196514342D01*
X191577200Y-196442914D01*
X191577200Y-196585771D01*
X194577200Y-196585771D02*
X194577200Y-195085771D01*
X194720057Y-196014342D02*
X195148628Y-196585771D01*
X195148628Y-195585771D02*
X194577200Y-196157200D01*
X195791485Y-196585771D02*
X195791485Y-195585771D01*
X195791485Y-195085771D02*
X195720057Y-195157200D01*
X195791485Y-195228628D01*
X195862914Y-195157200D01*
X195791485Y-195085771D01*
X195791485Y-195228628D01*
X197148628Y-196514342D02*
X197005771Y-196585771D01*
X196720057Y-196585771D01*
X196577200Y-196514342D01*
X196505771Y-196442914D01*
X196434342Y-196300057D01*
X196434342Y-195871485D01*
X196505771Y-195728628D01*
X196577200Y-195657200D01*
X196720057Y-195585771D01*
X197005771Y-195585771D01*
X197148628Y-195657200D01*
X198434342Y-196585771D02*
X198434342Y-195800057D01*
X198362914Y-195657200D01*
X198220057Y-195585771D01*
X197934342Y-195585771D01*
X197791485Y-195657200D01*
X198434342Y-196514342D02*
X198291485Y-196585771D01*
X197934342Y-196585771D01*
X197791485Y-196514342D01*
X197720057Y-196371485D01*
X197720057Y-196228628D01*
X197791485Y-196085771D01*
X197934342Y-196014342D01*
X198291485Y-196014342D01*
X198434342Y-195942914D01*
X199791485Y-196585771D02*
X199791485Y-195085771D01*
X199791485Y-196514342D02*
X199648628Y-196585771D01*
X199362914Y-196585771D01*
X199220057Y-196514342D01*
X199148628Y-196442914D01*
X199077200Y-196300057D01*
X199077200Y-195871485D01*
X199148628Y-195728628D01*
X199220057Y-195657200D01*
X199362914Y-195585771D01*
X199648628Y-195585771D01*
X199791485Y-195657200D01*
X202077200Y-197157200D02*
X202005771Y-197085771D01*
X201862914Y-196871485D01*
X201791485Y-196728628D01*
X201720057Y-196514342D01*
X201648628Y-196157200D01*
X201648628Y-195871485D01*
X201720057Y-195514342D01*
X201791485Y-195300057D01*
X201862914Y-195157200D01*
X202005771Y-194942914D01*
X202077200Y-194871485D01*
X203362914Y-195085771D02*
X202648628Y-195085771D01*
X202577200Y-195800057D01*
X202648628Y-195728628D01*
X202791485Y-195657200D01*
X203148628Y-195657200D01*
X203291485Y-195728628D01*
X203362914Y-195800057D01*
X203434342Y-195942914D01*
X203434342Y-196300057D01*
X203362914Y-196442914D01*
X203291485Y-196514342D01*
X203148628Y-196585771D01*
X202791485Y-196585771D01*
X202648628Y-196514342D01*
X202577200Y-196442914D01*
X204077200Y-196442914D02*
X204148628Y-196514342D01*
X204077200Y-196585771D01*
X204005771Y-196514342D01*
X204077200Y-196442914D01*
X204077200Y-196585771D01*
X205577200Y-196585771D02*
X204720057Y-196585771D01*
X205148628Y-196585771D02*
X205148628Y-195085771D01*
X205005771Y-195300057D01*
X204862914Y-195442914D01*
X204720057Y-195514342D01*
X206220057Y-196442914D02*
X206291485Y-196514342D01*
X206220057Y-196585771D01*
X206148628Y-196514342D01*
X206220057Y-196442914D01*
X206220057Y-196585771D01*
X206862914Y-195228628D02*
X206934342Y-195157200D01*
X207077200Y-195085771D01*
X207434342Y-195085771D01*
X207577200Y-195157200D01*
X207648628Y-195228628D01*
X207720057Y-195371485D01*
X207720057Y-195514342D01*
X207648628Y-195728628D01*
X206791485Y-196585771D01*
X207720057Y-196585771D01*
X208220057Y-197157200D02*
X208291485Y-197085771D01*
X208434342Y-196871485D01*
X208505771Y-196728628D01*
X208577200Y-196514342D01*
X208648628Y-196157200D01*
X208648628Y-195871485D01*
X208577200Y-195514342D01*
X208505771Y-195300057D01*
X208434342Y-195157200D01*
X208291485Y-194942914D01*
X208220057Y-194871485D01*
X209362914Y-196014342D02*
X210505771Y-196014342D01*
X211148628Y-195228628D02*
X211220057Y-195157200D01*
X211362914Y-195085771D01*
X211720057Y-195085771D01*
X211862914Y-195157200D01*
X211934342Y-195228628D01*
X212005771Y-195371485D01*
X212005771Y-195514342D01*
X211934342Y-195728628D01*
X211077200Y-196585771D01*
X212005771Y-196585771D01*
D10*
D11*
X177002200Y-191507200D02*
X285002200Y-191507200D01*
D10*
D12*
X264411485Y-193785771D02*
X263911485Y-193071485D01*
X263554342Y-193785771D02*
X263554342Y-192285771D01*
X264125771Y-192285771D01*
X264268628Y-192357200D01*
X264340057Y-192428628D01*
X264411485Y-192571485D01*
X264411485Y-192785771D01*
X264340057Y-192928628D01*
X264268628Y-193000057D01*
X264125771Y-193071485D01*
X263554342Y-193071485D01*
X265625771Y-193714342D02*
X265482914Y-193785771D01*
X265197200Y-193785771D01*
X265054342Y-193714342D01*
X264982914Y-193571485D01*
X264982914Y-193000057D01*
X265054342Y-192857200D01*
X265197200Y-192785771D01*
X265482914Y-192785771D01*
X265625771Y-192857200D01*
X265697200Y-193000057D01*
X265697200Y-193142914D01*
X264982914Y-193285771D01*
X266197200Y-192785771D02*
X266554342Y-193785771D01*
X266911485Y-192785771D01*
X267482914Y-193642914D02*
X267554342Y-193714342D01*
X267482914Y-193785771D01*
X267411485Y-193714342D01*
X267482914Y-193642914D01*
X267482914Y-193785771D01*
X267482914Y-192857200D02*
X267554342Y-192928628D01*
X267482914Y-193000057D01*
X267411485Y-192928628D01*
X267482914Y-192857200D01*
X267482914Y-193000057D01*
D10*
D11*
X178362914Y-193714342D02*
X178577200Y-193785771D01*
X178934342Y-193785771D01*
X179077200Y-193714342D01*
X179148628Y-193642914D01*
X179220057Y-193500057D01*
X179220057Y-193357200D01*
X179148628Y-193214342D01*
X179077200Y-193142914D01*
X178934342Y-193071485D01*
X178648628Y-193000057D01*
X178505771Y-192928628D01*
X178434342Y-192857200D01*
X178362914Y-192714342D01*
X178362914Y-192571485D01*
X178434342Y-192428628D01*
X178505771Y-192357200D01*
X178648628Y-192285771D01*
X179005771Y-192285771D01*
X179220057Y-192357200D01*
X179862914Y-193785771D02*
X179862914Y-192785771D01*
X179862914Y-192285771D02*
X179791485Y-192357200D01*
X179862914Y-192428628D01*
X179934342Y-192357200D01*
X179862914Y-192285771D01*
X179862914Y-192428628D01*
X180434342Y-192785771D02*
X181220057Y-192785771D01*
X180434342Y-193785771D01*
X181220057Y-193785771D01*
X182362914Y-193714342D02*
X182220057Y-193785771D01*
X181934342Y-193785771D01*
X181791485Y-193714342D01*
X181720057Y-193571485D01*
X181720057Y-193000057D01*
X181791485Y-192857200D01*
X181934342Y-192785771D01*
X182220057Y-192785771D01*
X182362914Y-192857200D01*
X182434342Y-193000057D01*
X182434342Y-193142914D01*
X181720057Y-193285771D01*
X183077200Y-193642914D02*
X183148628Y-193714342D01*
X183077200Y-193785771D01*
X183005771Y-193714342D01*
X183077200Y-193642914D01*
X183077200Y-193785771D01*
X183077200Y-192857200D02*
X183148628Y-192928628D01*
X183077200Y-193000057D01*
X183005771Y-192928628D01*
X183077200Y-192857200D01*
X183077200Y-193000057D01*
X184862914Y-193357200D02*
X185577200Y-193357200D01*
X184720057Y-193785771D02*
X185220057Y-192285771D01*
X185720057Y-193785771D01*
X186862914Y-192785771D02*
X186862914Y-193785771D01*
X186505771Y-192214342D02*
X186148628Y-193285771D01*
X187077200Y-193285771D01*
D10*
D11*
X263434342Y-196585771D02*
X263434342Y-195085771D01*
X264791485Y-196585771D02*
X264791485Y-195085771D01*
X264791485Y-196514342D02*
X264648628Y-196585771D01*
X264362914Y-196585771D01*
X264220057Y-196514342D01*
X264148628Y-196442914D01*
X264077200Y-196300057D01*
X264077200Y-195871485D01*
X264148628Y-195728628D01*
X264220057Y-195657200D01*
X264362914Y-195585771D01*
X264648628Y-195585771D01*
X264791485Y-195657200D01*
X265505771Y-196442914D02*
X265577200Y-196514342D01*
X265505771Y-196585771D01*
X265434342Y-196514342D01*
X265505771Y-196442914D01*
X265505771Y-196585771D01*
X265505771Y-195657200D02*
X265577200Y-195728628D01*
X265505771Y-195800057D01*
X265434342Y-195728628D01*
X265505771Y-195657200D01*
X265505771Y-195800057D01*
X268148628Y-196585771D02*
X267291485Y-196585771D01*
X267720057Y-196585771D02*
X267720057Y-195085771D01*
X267577200Y-195300057D01*
X267434342Y-195442914D01*
X267291485Y-195514342D01*
X269862914Y-195014342D02*
X268577200Y-196942914D01*
X271148628Y-196585771D02*
X270291485Y-196585771D01*
X270720057Y-196585771D02*
X270720057Y-195085771D01*
X270577200Y-195300057D01*
X270434342Y-195442914D01*
X270291485Y-195514342D01*
D10*
D11*
X177002200Y-187507200D02*
X285002200Y-187507200D01*
D10*
D13*
X178714580Y-188211961D02*
X179857438Y-188211961D01*
X179036009Y-190211961D02*
X179286009Y-188211961D01*
X180274104Y-190211961D02*
X180440771Y-188878628D01*
X180524104Y-188211961D02*
X180416961Y-188307200D01*
X180500295Y-188402438D01*
X180607438Y-188307200D01*
X180524104Y-188211961D01*
X180500295Y-188402438D01*
X181107438Y-188878628D02*
X181869342Y-188878628D01*
X181476485Y-188211961D02*
X181262200Y-189926247D01*
X181333628Y-190116723D01*
X181512200Y-190211961D01*
X181702676Y-190211961D01*
X182655057Y-190211961D02*
X182476485Y-190116723D01*
X182405057Y-189926247D01*
X182619342Y-188211961D01*
X184190771Y-190116723D02*
X183988390Y-190211961D01*
X183607438Y-190211961D01*
X183428866Y-190116723D01*
X183357438Y-189926247D01*
X183452676Y-189164342D01*
X183571723Y-188973866D01*
X183774104Y-188878628D01*
X184155057Y-188878628D01*
X184333628Y-188973866D01*
X184405057Y-189164342D01*
X184381247Y-189354819D01*
X183405057Y-189545295D01*
X185155057Y-190021485D02*
X185238390Y-190116723D01*
X185131247Y-190211961D01*
X185047914Y-190116723D01*
X185155057Y-190021485D01*
X185131247Y-190211961D01*
X185286009Y-188973866D02*
X185369342Y-189069104D01*
X185262200Y-189164342D01*
X185178866Y-189069104D01*
X185286009Y-188973866D01*
X185262200Y-189164342D01*
D10*
D11*
X178934342Y-185600057D02*
X178434342Y-185600057D01*
X178434342Y-186385771D02*
X178434342Y-184885771D01*
X179148628Y-184885771D01*
X179720057Y-186385771D02*
X179720057Y-185385771D01*
X179720057Y-184885771D02*
X179648628Y-184957200D01*
X179720057Y-185028628D01*
X179791485Y-184957200D01*
X179720057Y-184885771D01*
X179720057Y-185028628D01*
X180648628Y-186385771D02*
X180505771Y-186314342D01*
X180434342Y-186171485D01*
X180434342Y-184885771D01*
X181791485Y-186314342D02*
X181648628Y-186385771D01*
X181362914Y-186385771D01*
X181220057Y-186314342D01*
X181148628Y-186171485D01*
X181148628Y-185600057D01*
X181220057Y-185457200D01*
X181362914Y-185385771D01*
X181648628Y-185385771D01*
X181791485Y-185457200D01*
X181862914Y-185600057D01*
X181862914Y-185742914D01*
X181148628Y-185885771D01*
X182505771Y-186242914D02*
X182577200Y-186314342D01*
X182505771Y-186385771D01*
X182434342Y-186314342D01*
X182505771Y-186242914D01*
X182505771Y-186385771D01*
X182505771Y-185457200D02*
X182577200Y-185528628D01*
X182505771Y-185600057D01*
X182434342Y-185528628D01*
X182505771Y-185457200D01*
X182505771Y-185600057D01*
X184220057Y-185385771D02*
X184505771Y-186385771D01*
X184791485Y-185671485D01*
X185077200Y-186385771D01*
X185362914Y-185385771D01*
X186505771Y-186314342D02*
X186362914Y-186385771D01*
X186077200Y-186385771D01*
X185934342Y-186314342D01*
X185862914Y-186171485D01*
X185862914Y-185600057D01*
X185934342Y-185457200D01*
X186077200Y-185385771D01*
X186362914Y-185385771D01*
X186505771Y-185457200D01*
X186577200Y-185600057D01*
X186577200Y-185742914D01*
X185862914Y-185885771D01*
X187862914Y-186385771D02*
X187862914Y-185600057D01*
X187791485Y-185457200D01*
X187648628Y-185385771D01*
X187362914Y-185385771D01*
X187220057Y-185457200D01*
X187862914Y-186314342D02*
X187720057Y-186385771D01*
X187362914Y-186385771D01*
X187220057Y-186314342D01*
X187148628Y-186171485D01*
X187148628Y-186028628D01*
X187220057Y-185885771D01*
X187362914Y-185814342D01*
X187720057Y-185814342D01*
X187862914Y-185742914D01*
X188362914Y-185385771D02*
X188934342Y-185385771D01*
X188577200Y-184885771D02*
X188577200Y-186171485D01*
X188648628Y-186314342D01*
X188791485Y-186385771D01*
X188934342Y-186385771D01*
X189434342Y-186385771D02*
X189434342Y-184885771D01*
X190077200Y-186385771D02*
X190077200Y-185600057D01*
X190005771Y-185457200D01*
X189862914Y-185385771D01*
X189648628Y-185385771D01*
X189505771Y-185457200D01*
X189434342Y-185528628D01*
X191362914Y-186314342D02*
X191220057Y-186385771D01*
X190934342Y-186385771D01*
X190791485Y-186314342D01*
X190720057Y-186171485D01*
X190720057Y-185600057D01*
X190791485Y-185457200D01*
X190934342Y-185385771D01*
X191220057Y-185385771D01*
X191362914Y-185457200D01*
X191434342Y-185600057D01*
X191434342Y-185742914D01*
X190720057Y-185885771D01*
X192077200Y-186385771D02*
X192077200Y-185385771D01*
X192077200Y-185671485D02*
X192148628Y-185528628D01*
X192220057Y-185457200D01*
X192362914Y-185385771D01*
X192505771Y-185385771D01*
X193005771Y-186242914D02*
X193077200Y-186314342D01*
X193005771Y-186385771D01*
X192934342Y-186314342D01*
X193005771Y-186242914D01*
X193005771Y-186385771D01*
X193720057Y-186385771D02*
X193720057Y-184885771D01*
X193862914Y-185814342D02*
X194291485Y-186385771D01*
X194291485Y-185385771D02*
X193720057Y-185957200D01*
X194934342Y-186385771D02*
X194934342Y-185385771D01*
X194934342Y-184885771D02*
X194862914Y-184957200D01*
X194934342Y-185028628D01*
X195005771Y-184957200D01*
X194934342Y-184885771D01*
X194934342Y-185028628D01*
X196291485Y-186314342D02*
X196148628Y-186385771D01*
X195862914Y-186385771D01*
X195720057Y-186314342D01*
X195648628Y-186242914D01*
X195577200Y-186100057D01*
X195577200Y-185671485D01*
X195648628Y-185528628D01*
X195720057Y-185457200D01*
X195862914Y-185385771D01*
X196148628Y-185385771D01*
X196291485Y-185457200D01*
X197577200Y-186385771D02*
X197577200Y-185600057D01*
X197505771Y-185457200D01*
X197362914Y-185385771D01*
X197077200Y-185385771D01*
X196934342Y-185457200D01*
X197577200Y-186314342D02*
X197434342Y-186385771D01*
X197077200Y-186385771D01*
X196934342Y-186314342D01*
X196862914Y-186171485D01*
X196862914Y-186028628D01*
X196934342Y-185885771D01*
X197077200Y-185814342D01*
X197434342Y-185814342D01*
X197577200Y-185742914D01*
X198934342Y-186385771D02*
X198934342Y-184885771D01*
X198934342Y-186314342D02*
X198791485Y-186385771D01*
X198505771Y-186385771D01*
X198362914Y-186314342D01*
X198291485Y-186242914D01*
X198220057Y-186100057D01*
X198220057Y-185671485D01*
X198291485Y-185528628D01*
X198362914Y-185457200D01*
X198505771Y-185385771D01*
X198791485Y-185385771D01*
X198934342Y-185457200D01*
X199291485Y-186528628D02*
X200434342Y-186528628D01*
X200791485Y-185385771D02*
X200791485Y-186885771D01*
X200791485Y-185457200D02*
X200934342Y-185385771D01*
X201220057Y-185385771D01*
X201362914Y-185457200D01*
X201434342Y-185528628D01*
X201505771Y-185671485D01*
X201505771Y-186100057D01*
X201434342Y-186242914D01*
X201362914Y-186314342D01*
X201220057Y-186385771D01*
X200934342Y-186385771D01*
X200791485Y-186314342D01*
X202791485Y-186314342D02*
X202648628Y-186385771D01*
X202362914Y-186385771D01*
X202220057Y-186314342D01*
X202148628Y-186242914D01*
X202077200Y-186100057D01*
X202077200Y-185671485D01*
X202148628Y-185528628D01*
X202220057Y-185457200D01*
X202362914Y-185385771D01*
X202648628Y-185385771D01*
X202791485Y-185457200D01*
X203434342Y-186385771D02*
X203434342Y-184885771D01*
X203434342Y-185457200D02*
X203577200Y-185385771D01*
X203862914Y-185385771D01*
X204005771Y-185457200D01*
X204077200Y-185528628D01*
X204148628Y-185671485D01*
X204148628Y-186100057D01*
X204077200Y-186242914D01*
X204005771Y-186314342D01*
X203862914Y-186385771D01*
X203577200Y-186385771D01*
X203434342Y-186314342D01*
D10*
D11*
X177002200Y-181507200D02*
X285002200Y-181507200D01*
D10*
D11*
X178362914Y-183614342D02*
X178577200Y-183685771D01*
X178934342Y-183685771D01*
X179077200Y-183614342D01*
X179148628Y-183542914D01*
X179220057Y-183400057D01*
X179220057Y-183257200D01*
X179148628Y-183114342D01*
X179077200Y-183042914D01*
X178934342Y-182971485D01*
X178648628Y-182900057D01*
X178505771Y-182828628D01*
X178434342Y-182757200D01*
X178362914Y-182614342D01*
X178362914Y-182471485D01*
X178434342Y-182328628D01*
X178505771Y-182257200D01*
X178648628Y-182185771D01*
X179005771Y-182185771D01*
X179220057Y-182257200D01*
X179862914Y-183685771D02*
X179862914Y-182185771D01*
X180505771Y-183685771D02*
X180505771Y-182900057D01*
X180434342Y-182757200D01*
X180291485Y-182685771D01*
X180077200Y-182685771D01*
X179934342Y-182757200D01*
X179862914Y-182828628D01*
X181791485Y-183614342D02*
X181648628Y-183685771D01*
X181362914Y-183685771D01*
X181220057Y-183614342D01*
X181148628Y-183471485D01*
X181148628Y-182900057D01*
X181220057Y-182757200D01*
X181362914Y-182685771D01*
X181648628Y-182685771D01*
X181791485Y-182757200D01*
X181862914Y-182900057D01*
X181862914Y-183042914D01*
X181148628Y-183185771D01*
X183077200Y-183614342D02*
X182934342Y-183685771D01*
X182648628Y-183685771D01*
X182505771Y-183614342D01*
X182434342Y-183471485D01*
X182434342Y-182900057D01*
X182505771Y-182757200D01*
X182648628Y-182685771D01*
X182934342Y-182685771D01*
X183077200Y-182757200D01*
X183148628Y-182900057D01*
X183148628Y-183042914D01*
X182434342Y-183185771D01*
X183577200Y-182685771D02*
X184148628Y-182685771D01*
X183791485Y-182185771D02*
X183791485Y-183471485D01*
X183862914Y-183614342D01*
X184005771Y-183685771D01*
X184148628Y-183685771D01*
X184648628Y-183542914D02*
X184720057Y-183614342D01*
X184648628Y-183685771D01*
X184577200Y-183614342D01*
X184648628Y-183542914D01*
X184648628Y-183685771D01*
X184648628Y-182757200D02*
X184720057Y-182828628D01*
X184648628Y-182900057D01*
X184577200Y-182828628D01*
X184648628Y-182757200D01*
X184648628Y-182900057D01*
D10*
D11*
X197002200Y-191507200D02*
X197002200Y-194507200D01*
D10*
D11*
X261002200Y-191507200D02*
X261002200Y-198007200D01*
D14*
X135638380Y-61134761D02*
X136114571Y-63134761D01*
X136495523Y-61706190D01*
X136876476Y-63134761D01*
X137352666Y-61134761D01*
X138876476Y-63039523D02*
X138686000Y-63134761D01*
X138305047Y-63134761D01*
X138114571Y-63039523D01*
X138019333Y-62849047D01*
X138019333Y-62087142D01*
X138114571Y-61896666D01*
X138305047Y-61801428D01*
X138686000Y-61801428D01*
X138876476Y-61896666D01*
X138971714Y-62087142D01*
X138971714Y-62277619D01*
X138019333Y-62468095D01*
X140686000Y-63134761D02*
X140686000Y-62087142D01*
X140590761Y-61896666D01*
X140400285Y-61801428D01*
X140019333Y-61801428D01*
X139828857Y-61896666D01*
X140686000Y-63039523D02*
X140495523Y-63134761D01*
X140019333Y-63134761D01*
X139828857Y-63039523D01*
X139733619Y-62849047D01*
X139733619Y-62658571D01*
X139828857Y-62468095D01*
X140019333Y-62372857D01*
X140495523Y-62372857D01*
X140686000Y-62277619D01*
X141352666Y-61801428D02*
X142114571Y-61801428D01*
X141638380Y-61134761D02*
X141638380Y-62849047D01*
X141733619Y-63039523D01*
X141924095Y-63134761D01*
X142114571Y-63134761D01*
X142781238Y-63134761D02*
X142781238Y-61134761D01*
X143638380Y-63134761D02*
X143638380Y-62087142D01*
X143543142Y-61896666D01*
X143352666Y-61801428D01*
X143066952Y-61801428D01*
X142876476Y-61896666D01*
X142781238Y-61991904D01*
X145352666Y-63039523D02*
X145162190Y-63134761D01*
X144781238Y-63134761D01*
X144590761Y-63039523D01*
X144495523Y-62849047D01*
X144495523Y-62087142D01*
X144590761Y-61896666D01*
X144781238Y-61801428D01*
X145162190Y-61801428D01*
X145352666Y-61896666D01*
X145447904Y-62087142D01*
X145447904Y-62277619D01*
X144495523Y-62468095D01*
X146305047Y-63134761D02*
X146305047Y-61801428D01*
X146305047Y-62182380D02*
X146400285Y-61991904D01*
X146495523Y-61896666D01*
X146686000Y-61801428D01*
X146876476Y-61801428D01*
X148971714Y-63039523D02*
X149257428Y-63134761D01*
X149733619Y-63134761D01*
X149924095Y-63039523D01*
X150019333Y-62944285D01*
X150114571Y-62753809D01*
X150114571Y-62563333D01*
X150019333Y-62372857D01*
X149924095Y-62277619D01*
X149733619Y-62182380D01*
X149352666Y-62087142D01*
X149162190Y-61991904D01*
X149066952Y-61896666D01*
X148971714Y-61706190D01*
X148971714Y-61515714D01*
X149066952Y-61325238D01*
X149162190Y-61230000D01*
X149352666Y-61134761D01*
X149828857Y-61134761D01*
X150114571Y-61230000D01*
X150686000Y-61801428D02*
X151447904Y-61801428D01*
X150971714Y-61134761D02*
X150971714Y-62849047D01*
X151066952Y-63039523D01*
X151257428Y-63134761D01*
X151447904Y-63134761D01*
X152971714Y-63134761D02*
X152971714Y-62087142D01*
X152876476Y-61896666D01*
X152686000Y-61801428D01*
X152305047Y-61801428D01*
X152114571Y-61896666D01*
X152971714Y-63039523D02*
X152781238Y-63134761D01*
X152305047Y-63134761D01*
X152114571Y-63039523D01*
X152019333Y-62849047D01*
X152019333Y-62658571D01*
X152114571Y-62468095D01*
X152305047Y-62372857D01*
X152781238Y-62372857D01*
X152971714Y-62277619D01*
X153638380Y-61801428D02*
X154400285Y-61801428D01*
X153924095Y-61134761D02*
X153924095Y-62849047D01*
X154019333Y-63039523D01*
X154209809Y-63134761D01*
X154400285Y-63134761D01*
X155066952Y-63134761D02*
X155066952Y-61801428D01*
X155066952Y-61134761D02*
X154971714Y-61230000D01*
X155066952Y-61325238D01*
X155162190Y-61230000D01*
X155066952Y-61134761D01*
X155066952Y-61325238D01*
X156305047Y-63134761D02*
X156114571Y-63039523D01*
X156019333Y-62944285D01*
X155924095Y-62753809D01*
X155924095Y-62182380D01*
X156019333Y-61991904D01*
X156114571Y-61896666D01*
X156305047Y-61801428D01*
X156590761Y-61801428D01*
X156781238Y-61896666D01*
X156876476Y-61991904D01*
X156971714Y-62182380D01*
X156971714Y-62753809D01*
X156876476Y-62944285D01*
X156781238Y-63039523D01*
X156590761Y-63134761D01*
X156305047Y-63134761D01*
X157828857Y-61801428D02*
X157828857Y-63134761D01*
X157828857Y-61991904D02*
X157924095Y-61896666D01*
X158114571Y-61801428D01*
X158400285Y-61801428D01*
X158590761Y-61896666D01*
X158686000Y-62087142D01*
X158686000Y-63134761D01*
X161162190Y-62087142D02*
X161828857Y-62087142D01*
X162114571Y-63134761D02*
X161162190Y-63134761D01*
X161162190Y-61134761D01*
X162114571Y-61134761D01*
X162876476Y-63039523D02*
X163162190Y-63134761D01*
X163638380Y-63134761D01*
X163828857Y-63039523D01*
X163924095Y-62944285D01*
X164019333Y-62753809D01*
X164019333Y-62563333D01*
X163924095Y-62372857D01*
X163828857Y-62277619D01*
X163638380Y-62182380D01*
X163257428Y-62087142D01*
X163066952Y-61991904D01*
X162971714Y-61896666D01*
X162876476Y-61706190D01*
X162876476Y-61515714D01*
X162971714Y-61325238D01*
X163066952Y-61230000D01*
X163257428Y-61134761D01*
X163733619Y-61134761D01*
X164019333Y-61230000D01*
X164876476Y-63134761D02*
X164876476Y-61134761D01*
X165638380Y-61134761D01*
X165828857Y-61230000D01*
X165924095Y-61325238D01*
X166019333Y-61515714D01*
X166019333Y-61801428D01*
X165924095Y-61991904D01*
X165828857Y-62087142D01*
X165638380Y-62182380D01*
X164876476Y-62182380D01*
X167162190Y-61991904D02*
X166971714Y-61896666D01*
X166876476Y-61801428D01*
X166781238Y-61610952D01*
X166781238Y-61515714D01*
X166876476Y-61325238D01*
X166971714Y-61230000D01*
X167162190Y-61134761D01*
X167543142Y-61134761D01*
X167733619Y-61230000D01*
X167828857Y-61325238D01*
X167924095Y-61515714D01*
X167924095Y-61610952D01*
X167828857Y-61801428D01*
X167733619Y-61896666D01*
X167543142Y-61991904D01*
X167162190Y-61991904D01*
X166971714Y-62087142D01*
X166876476Y-62182380D01*
X166781238Y-62372857D01*
X166781238Y-62753809D01*
X166876476Y-62944285D01*
X166971714Y-63039523D01*
X167162190Y-63134761D01*
X167543142Y-63134761D01*
X167733619Y-63039523D01*
X167828857Y-62944285D01*
X167924095Y-62753809D01*
X167924095Y-62372857D01*
X167828857Y-62182380D01*
X167733619Y-62087142D01*
X167543142Y-61991904D01*
X168686000Y-61325238D02*
X168781238Y-61230000D01*
X168971714Y-61134761D01*
X169447904Y-61134761D01*
X169638380Y-61230000D01*
X169733619Y-61325238D01*
X169828857Y-61515714D01*
X169828857Y-61706190D01*
X169733619Y-61991904D01*
X168590761Y-63134761D01*
X169828857Y-63134761D01*
X171543142Y-61134761D02*
X171162190Y-61134761D01*
X170971714Y-61230000D01*
X170876476Y-61325238D01*
X170686000Y-61610952D01*
X170590761Y-61991904D01*
X170590761Y-62753809D01*
X170686000Y-62944285D01*
X170781238Y-63039523D01*
X170971714Y-63134761D01*
X171352666Y-63134761D01*
X171543142Y-63039523D01*
X171638380Y-62944285D01*
X171733619Y-62753809D01*
X171733619Y-62277619D01*
X171638380Y-62087142D01*
X171543142Y-61991904D01*
X171352666Y-61896666D01*
X170971714Y-61896666D01*
X170781238Y-61991904D01*
X170686000Y-62087142D01*
X170590761Y-62277619D01*
X173447904Y-61134761D02*
X173066952Y-61134761D01*
X172876476Y-61230000D01*
X172781238Y-61325238D01*
X172590761Y-61610952D01*
X172495523Y-61991904D01*
X172495523Y-62753809D01*
X172590761Y-62944285D01*
X172686000Y-63039523D01*
X172876476Y-63134761D01*
X173257428Y-63134761D01*
X173447904Y-63039523D01*
X173543142Y-62944285D01*
X173638380Y-62753809D01*
X173638380Y-62277619D01*
X173543142Y-62087142D01*
X173447904Y-61991904D01*
X173257428Y-61896666D01*
X172876476Y-61896666D01*
X172686000Y-61991904D01*
X172590761Y-62087142D01*
X172495523Y-62277619D01*
D11*
X180594000Y-96012000D02*
X180594000Y-68072000D01*
X161544000Y-96012000D02*
X161544000Y-68072000D01*
X156464000Y-96012000D02*
X184404000Y-96012000D01*
X184404000Y-68072000D02*
X184404000Y-96012000D01*
X156464000Y-68072000D02*
X184404000Y-68072000D01*
X156464000Y-96012000D02*
X156464000Y-68072000D01*
D15*
X157734000Y-76902000D02*
X159064000Y-76902000D01*
X159064000Y-76902000D02*
X159064000Y-78232000D01*
X159064000Y-79502000D02*
X159064000Y-87182000D01*
X156404000Y-87182000D02*
X159064000Y-87182000D01*
X156404000Y-79502000D02*
X156404000Y-87182000D01*
X156404000Y-79502000D02*
X159064000Y-79502000D01*
D11*
X181396952Y-101692000D02*
X139396952Y-101692000D01*
X181396952Y-125692000D02*
X181396952Y-101692000D01*
X139396952Y-125692000D02*
X181396952Y-125692000D01*
X139396952Y-101692000D02*
X139396952Y-125692000D01*
D15*
X142396952Y-121522000D02*
X143726952Y-121522000D01*
X143726952Y-121522000D02*
X143726952Y-120192000D01*
X143726952Y-118922000D02*
X143726952Y-106162000D01*
X141066952Y-106162000D02*
X143726952Y-106162000D01*
X141066952Y-118922000D02*
X141066952Y-106162000D01*
X141066952Y-118922000D02*
X143726952Y-118922000D01*
X90678000Y-78716000D02*
X90678000Y-77946000D01*
X90678000Y-70636000D02*
X90678000Y-71406000D01*
X92048000Y-77946000D02*
X92048000Y-71406000D01*
X89308000Y-77946000D02*
X92048000Y-77946000D01*
X89308000Y-71406000D02*
X89308000Y-77946000D01*
X92048000Y-71406000D02*
X89308000Y-71406000D01*
X89308000Y-91662000D02*
X89638000Y-91662000D01*
X89308000Y-85122000D02*
X89308000Y-91662000D01*
X89638000Y-85122000D02*
X89308000Y-85122000D01*
X92048000Y-91662000D02*
X91718000Y-91662000D01*
X92048000Y-85122000D02*
X92048000Y-91662000D01*
X91718000Y-85122000D02*
X92048000Y-85122000D01*
X89562000Y-118586000D02*
X92302000Y-118586000D01*
X92302000Y-118586000D02*
X92302000Y-112046000D01*
X92302000Y-112046000D02*
X89562000Y-112046000D01*
X89562000Y-112046000D02*
X89562000Y-118586000D01*
X90932000Y-119356000D02*
X90932000Y-118586000D01*
X90932000Y-111276000D02*
X90932000Y-112046000D01*
X109196000Y-63500000D02*
X108426000Y-63500000D01*
X101116000Y-63500000D02*
X101886000Y-63500000D01*
X108426000Y-62130000D02*
X101886000Y-62130000D01*
X108426000Y-64870000D02*
X108426000Y-62130000D01*
X101886000Y-64870000D02*
X108426000Y-64870000D01*
X101886000Y-62130000D02*
X101886000Y-64870000D01*
D11*
X129846000Y-125318000D02*
X98246000Y-125318000D01*
X129846000Y-115318000D02*
X129846000Y-125318000D01*
X98246000Y-115318000D02*
X98246000Y-125318000D01*
X129846000Y-66218000D02*
X129846000Y-76218000D01*
X98246000Y-66218000D02*
X129846000Y-66218000D01*
X98246000Y-76218000D02*
X98246000Y-66218000D01*
X103296000Y-76438000D02*
X103306000Y-75838000D01*
D15*
X129436000Y-79238000D02*
X129436000Y-114858000D01*
X126776000Y-79238000D02*
X129436000Y-79238000D01*
X126776000Y-79238000D02*
X126776000Y-114858000D01*
X126776000Y-114858000D02*
X129436000Y-114858000D01*
X128106000Y-76638000D02*
X129436000Y-76638000D01*
X129436000Y-76638000D02*
X129436000Y-77968000D01*
X100046000Y-76658000D02*
X101376000Y-76658000D01*
X101376000Y-76658000D02*
X101376000Y-77988000D01*
X101376000Y-79258000D02*
X101376000Y-114878000D01*
X98716000Y-114878000D02*
X101376000Y-114878000D01*
X98716000Y-79258000D02*
X98716000Y-114878000D01*
X98716000Y-79258000D02*
X101376000Y-79258000D01*
D11*
X138780000Y-67978000D02*
X138780000Y-95978000D01*
X151780000Y-67978000D02*
X138780000Y-67978000D01*
X151780000Y-95978000D02*
X151780000Y-67978000D01*
X151780000Y-95978000D02*
X138780000Y-95978000D01*
D15*
X140910000Y-93218000D02*
X140910000Y-91888000D01*
X140910000Y-91888000D02*
X142240000Y-91888000D01*
X143510000Y-91888000D02*
X148650000Y-91888000D01*
X148650000Y-94548000D02*
X148650000Y-91888000D01*
X143510000Y-94548000D02*
X148650000Y-94548000D01*
X143510000Y-94548000D02*
X143510000Y-91888000D01*
X90932000Y-98492000D02*
X92262000Y-98492000D01*
X92262000Y-98492000D02*
X92262000Y-99822000D01*
X92262000Y-101092000D02*
X92262000Y-106232000D01*
X89602000Y-106232000D02*
X92262000Y-106232000D01*
X89602000Y-101092000D02*
X89602000Y-106232000D01*
X89602000Y-101092000D02*
X92262000Y-101092000D01*
X119380000Y-64830000D02*
X119380000Y-62170000D01*
X119380000Y-64830000D02*
X124520000Y-64830000D01*
X124520000Y-64830000D02*
X124520000Y-62170000D01*
X119380000Y-62170000D02*
X124520000Y-62170000D01*
X116780000Y-62170000D02*
X118110000Y-62170000D01*
X116780000Y-63500000D02*
X116780000Y-62170000D01*
D11*
X182316380Y-71826285D02*
X181316380Y-71826285D01*
X181316380Y-71588190D01*
X181364000Y-71445333D01*
X181459238Y-71350095D01*
X181554476Y-71302476D01*
X181744952Y-71254857D01*
X181887809Y-71254857D01*
X182078285Y-71302476D01*
X182173523Y-71350095D01*
X182268761Y-71445333D01*
X182316380Y-71588190D01*
X182316380Y-71826285D01*
X182268761Y-70873904D02*
X182316380Y-70731047D01*
X182316380Y-70492952D01*
X182268761Y-70397714D01*
X182221142Y-70350095D01*
X182125904Y-70302476D01*
X182030666Y-70302476D01*
X181935428Y-70350095D01*
X181887809Y-70397714D01*
X181840190Y-70492952D01*
X181792571Y-70683428D01*
X181744952Y-70778666D01*
X181697333Y-70826285D01*
X181602095Y-70873904D01*
X181506857Y-70873904D01*
X181411619Y-70826285D01*
X181364000Y-70778666D01*
X181316380Y-70683428D01*
X181316380Y-70445333D01*
X181364000Y-70302476D01*
X182316380Y-69350095D02*
X182316380Y-69921523D01*
X182316380Y-69635809D02*
X181316380Y-69635809D01*
X181459238Y-69731047D01*
X181554476Y-69826285D01*
X181602095Y-69921523D01*
D10*
X155477333Y-79082000D02*
X155510666Y-78982000D01*
X155510666Y-78815333D01*
X155477333Y-78748666D01*
X155444000Y-78715333D01*
X155377333Y-78682000D01*
X155310666Y-78682000D01*
X155244000Y-78715333D01*
X155210666Y-78748666D01*
X155177333Y-78815333D01*
X155144000Y-78948666D01*
X155110666Y-79015333D01*
X155077333Y-79048666D01*
X155010666Y-79082000D01*
X154944000Y-79082000D01*
X154877333Y-79048666D01*
X154844000Y-79015333D01*
X154810666Y-78948666D01*
X154810666Y-78782000D01*
X154844000Y-78682000D01*
X155510666Y-78382000D02*
X154810666Y-78382000D01*
X154810666Y-78215333D01*
X154844000Y-78115333D01*
X154910666Y-78048666D01*
X154977333Y-78015333D01*
X155110666Y-77982000D01*
X155210666Y-77982000D01*
X155344000Y-78015333D01*
X155410666Y-78048666D01*
X155477333Y-78115333D01*
X155510666Y-78215333D01*
X155510666Y-78382000D01*
X155310666Y-77715333D02*
X155310666Y-77382000D01*
X155510666Y-77782000D02*
X154810666Y-77548666D01*
X155510666Y-77315333D01*
X155477333Y-81351333D02*
X155510666Y-81251333D01*
X155510666Y-81084666D01*
X155477333Y-81018000D01*
X155444000Y-80984666D01*
X155377333Y-80951333D01*
X155310666Y-80951333D01*
X155244000Y-80984666D01*
X155210666Y-81018000D01*
X155177333Y-81084666D01*
X155144000Y-81218000D01*
X155110666Y-81284666D01*
X155077333Y-81318000D01*
X155010666Y-81351333D01*
X154944000Y-81351333D01*
X154877333Y-81318000D01*
X154844000Y-81284666D01*
X154810666Y-81218000D01*
X154810666Y-81051333D01*
X154844000Y-80951333D01*
X155444000Y-80251333D02*
X155477333Y-80284666D01*
X155510666Y-80384666D01*
X155510666Y-80451333D01*
X155477333Y-80551333D01*
X155410666Y-80618000D01*
X155344000Y-80651333D01*
X155210666Y-80684666D01*
X155110666Y-80684666D01*
X154977333Y-80651333D01*
X154910666Y-80618000D01*
X154844000Y-80551333D01*
X154810666Y-80451333D01*
X154810666Y-80384666D01*
X154844000Y-80284666D01*
X154877333Y-80251333D01*
X155510666Y-79618000D02*
X155510666Y-79951333D01*
X154810666Y-79951333D01*
X154810666Y-83991333D02*
X155510666Y-83758000D01*
X154810666Y-83524666D01*
X155444000Y-82891333D02*
X155477333Y-82924666D01*
X155510666Y-83024666D01*
X155510666Y-83091333D01*
X155477333Y-83191333D01*
X155410666Y-83258000D01*
X155344000Y-83291333D01*
X155210666Y-83324666D01*
X155110666Y-83324666D01*
X154977333Y-83291333D01*
X154910666Y-83258000D01*
X154844000Y-83191333D01*
X154810666Y-83091333D01*
X154810666Y-83024666D01*
X154844000Y-82924666D01*
X154877333Y-82891333D01*
X155444000Y-82191333D02*
X155477333Y-82224666D01*
X155510666Y-82324666D01*
X155510666Y-82391333D01*
X155477333Y-82491333D01*
X155410666Y-82558000D01*
X155344000Y-82591333D01*
X155210666Y-82624666D01*
X155110666Y-82624666D01*
X154977333Y-82591333D01*
X154910666Y-82558000D01*
X154844000Y-82491333D01*
X154810666Y-82391333D01*
X154810666Y-82324666D01*
X154844000Y-82224666D01*
X154877333Y-82191333D01*
X154844000Y-86385333D02*
X154810666Y-86452000D01*
X154810666Y-86552000D01*
X154844000Y-86652000D01*
X154910666Y-86718666D01*
X154977333Y-86752000D01*
X155110666Y-86785333D01*
X155210666Y-86785333D01*
X155344000Y-86752000D01*
X155410666Y-86718666D01*
X155477333Y-86652000D01*
X155510666Y-86552000D01*
X155510666Y-86485333D01*
X155477333Y-86385333D01*
X155444000Y-86352000D01*
X155210666Y-86352000D01*
X155210666Y-86485333D01*
X155510666Y-86052000D02*
X154810666Y-86052000D01*
X155510666Y-85652000D01*
X154810666Y-85652000D01*
X155510666Y-85318666D02*
X154810666Y-85318666D01*
X154810666Y-85152000D01*
X154844000Y-85052000D01*
X154910666Y-84985333D01*
X154977333Y-84952000D01*
X155110666Y-84918666D01*
X155210666Y-84918666D01*
X155344000Y-84952000D01*
X155410666Y-84985333D01*
X155477333Y-85052000D01*
X155510666Y-85152000D01*
X155510666Y-85318666D01*
D11*
X163576380Y-66000380D02*
X163766857Y-66000380D01*
X163862095Y-66048000D01*
X163957333Y-66143238D01*
X164004952Y-66333714D01*
X164004952Y-66667047D01*
X163957333Y-66857523D01*
X163862095Y-66952761D01*
X163766857Y-67000380D01*
X163576380Y-67000380D01*
X163481142Y-66952761D01*
X163385904Y-66857523D01*
X163338285Y-66667047D01*
X163338285Y-66333714D01*
X163385904Y-66143238D01*
X163481142Y-66048000D01*
X163576380Y-66000380D01*
X164909714Y-67000380D02*
X164433523Y-67000380D01*
X164433523Y-66000380D01*
X165243047Y-66476571D02*
X165576380Y-66476571D01*
X165719238Y-67000380D02*
X165243047Y-67000380D01*
X165243047Y-66000380D01*
X165719238Y-66000380D01*
X166147809Y-67000380D02*
X166147809Y-66000380D01*
X166385904Y-66000380D01*
X166528761Y-66048000D01*
X166624000Y-66143238D01*
X166671619Y-66238476D01*
X166719238Y-66428952D01*
X166719238Y-66571809D01*
X166671619Y-66762285D01*
X166624000Y-66857523D01*
X166528761Y-66952761D01*
X166385904Y-67000380D01*
X166147809Y-67000380D01*
X166909714Y-67095619D02*
X167671619Y-67095619D01*
X167909714Y-67000380D02*
X167909714Y-66000380D01*
X168338285Y-66095619D02*
X168385904Y-66048000D01*
X168481142Y-66000380D01*
X168719238Y-66000380D01*
X168814476Y-66048000D01*
X168862095Y-66095619D01*
X168909714Y-66190857D01*
X168909714Y-66286095D01*
X168862095Y-66428952D01*
X168290666Y-67000380D01*
X168909714Y-67000380D01*
X169909714Y-66905142D02*
X169862095Y-66952761D01*
X169719238Y-67000380D01*
X169624000Y-67000380D01*
X169481142Y-66952761D01*
X169385904Y-66857523D01*
X169338285Y-66762285D01*
X169290666Y-66571809D01*
X169290666Y-66428952D01*
X169338285Y-66238476D01*
X169385904Y-66143238D01*
X169481142Y-66048000D01*
X169624000Y-66000380D01*
X169719238Y-66000380D01*
X169862095Y-66048000D01*
X169909714Y-66095619D01*
X179070095Y-60904380D02*
X179070095Y-59904380D01*
X179070095Y-60380571D02*
X179641523Y-60380571D01*
X179641523Y-60904380D02*
X179641523Y-59904380D01*
X180641523Y-60904380D02*
X180070095Y-60904380D01*
X180355809Y-60904380D02*
X180355809Y-59904380D01*
X180260571Y-60047238D01*
X180165333Y-60142476D01*
X180070095Y-60190095D01*
X92202095Y-61158380D02*
X92202095Y-60158380D01*
X92202095Y-60634571D02*
X92773523Y-60634571D01*
X92773523Y-61158380D02*
X92773523Y-60158380D01*
X93202095Y-60253619D02*
X93249714Y-60206000D01*
X93344952Y-60158380D01*
X93583047Y-60158380D01*
X93678285Y-60206000D01*
X93725904Y-60253619D01*
X93773523Y-60348857D01*
X93773523Y-60444095D01*
X93725904Y-60586952D01*
X93154476Y-61158380D01*
X93773523Y-61158380D01*
X179324095Y-128722380D02*
X179324095Y-127722380D01*
X179324095Y-128198571D02*
X179895523Y-128198571D01*
X179895523Y-128722380D02*
X179895523Y-127722380D01*
X180276476Y-127722380D02*
X180895523Y-127722380D01*
X180562190Y-128103333D01*
X180705047Y-128103333D01*
X180800285Y-128150952D01*
X180847904Y-128198571D01*
X180895523Y-128293809D01*
X180895523Y-128531904D01*
X180847904Y-128627142D01*
X180800285Y-128674761D01*
X180705047Y-128722380D01*
X180419333Y-128722380D01*
X180324095Y-128674761D01*
X180276476Y-128627142D01*
X91186095Y-128722380D02*
X91186095Y-127722380D01*
X91186095Y-128198571D02*
X91757523Y-128198571D01*
X91757523Y-128722380D02*
X91757523Y-127722380D01*
X92662285Y-128055714D02*
X92662285Y-128722380D01*
X92424190Y-127674761D02*
X92186095Y-128389047D01*
X92805142Y-128389047D01*
X142063618Y-122414380D02*
X142063618Y-123128666D01*
X142015999Y-123271523D01*
X141920761Y-123366761D01*
X141777904Y-123414380D01*
X141682666Y-123414380D01*
X143063618Y-123414380D02*
X142492190Y-123414380D01*
X142777904Y-123414380D02*
X142777904Y-122414380D01*
X142682666Y-122557238D01*
X142587428Y-122652476D01*
X142492190Y-122700095D01*
X164299238Y-100528380D02*
X164299238Y-99528380D01*
X164632571Y-100242666D01*
X164965904Y-99528380D01*
X164965904Y-100528380D01*
X165442095Y-100528380D02*
X165442095Y-99861714D01*
X165442095Y-99528380D02*
X165394476Y-99576000D01*
X165442095Y-99623619D01*
X165489714Y-99576000D01*
X165442095Y-99528380D01*
X165442095Y-99623619D01*
X166346857Y-100480761D02*
X166251619Y-100528380D01*
X166061142Y-100528380D01*
X165965904Y-100480761D01*
X165918285Y-100433142D01*
X165870666Y-100337904D01*
X165870666Y-100052190D01*
X165918285Y-99956952D01*
X165965904Y-99909333D01*
X166061142Y-99861714D01*
X166251619Y-99861714D01*
X166346857Y-99909333D01*
X166775428Y-100528380D02*
X166775428Y-99861714D01*
X166775428Y-100052190D02*
X166823047Y-99956952D01*
X166870666Y-99909333D01*
X166965904Y-99861714D01*
X167061142Y-99861714D01*
X167537333Y-100528380D02*
X167442095Y-100480761D01*
X167394476Y-100433142D01*
X167346857Y-100337904D01*
X167346857Y-100052190D01*
X167394476Y-99956952D01*
X167442095Y-99909333D01*
X167537333Y-99861714D01*
X167680190Y-99861714D01*
X167775428Y-99909333D01*
X167823047Y-99956952D01*
X167870666Y-100052190D01*
X167870666Y-100337904D01*
X167823047Y-100433142D01*
X167775428Y-100480761D01*
X167680190Y-100528380D01*
X167537333Y-100528380D01*
X168251619Y-100480761D02*
X168394476Y-100528380D01*
X168632571Y-100528380D01*
X168727809Y-100480761D01*
X168775428Y-100433142D01*
X168823047Y-100337904D01*
X168823047Y-100242666D01*
X168775428Y-100147428D01*
X168727809Y-100099809D01*
X168632571Y-100052190D01*
X168442095Y-100004571D01*
X168346857Y-99956952D01*
X168299238Y-99909333D01*
X168251619Y-99814095D01*
X168251619Y-99718857D01*
X168299238Y-99623619D01*
X168346857Y-99576000D01*
X168442095Y-99528380D01*
X168680190Y-99528380D01*
X168823047Y-99576000D01*
X169251619Y-100528380D02*
X169251619Y-99528380D01*
X169489714Y-99528380D01*
X169632571Y-99576000D01*
X169727809Y-99671238D01*
X169775428Y-99766476D01*
X169823047Y-99956952D01*
X169823047Y-100099809D01*
X169775428Y-100290285D01*
X169727809Y-100385523D01*
X169632571Y-100480761D01*
X169489714Y-100528380D01*
X169251619Y-100528380D01*
X170013523Y-100623619D02*
X170775428Y-100623619D01*
X171584952Y-100433142D02*
X171537333Y-100480761D01*
X171394476Y-100528380D01*
X171299238Y-100528380D01*
X171156380Y-100480761D01*
X171061142Y-100385523D01*
X171013523Y-100290285D01*
X170965904Y-100099809D01*
X170965904Y-99956952D01*
X171013523Y-99766476D01*
X171061142Y-99671238D01*
X171156380Y-99576000D01*
X171299238Y-99528380D01*
X171394476Y-99528380D01*
X171537333Y-99576000D01*
X171584952Y-99623619D01*
X172442095Y-100528380D02*
X172442095Y-100004571D01*
X172394476Y-99909333D01*
X172299238Y-99861714D01*
X172108761Y-99861714D01*
X172013523Y-99909333D01*
X172442095Y-100480761D02*
X172346857Y-100528380D01*
X172108761Y-100528380D01*
X172013523Y-100480761D01*
X171965904Y-100385523D01*
X171965904Y-100290285D01*
X172013523Y-100195047D01*
X172108761Y-100147428D01*
X172346857Y-100147428D01*
X172442095Y-100099809D01*
X172918285Y-100528380D02*
X172918285Y-99861714D01*
X172918285Y-100052190D02*
X172965904Y-99956952D01*
X173013523Y-99909333D01*
X173108761Y-99861714D01*
X173204000Y-99861714D01*
X173965904Y-100528380D02*
X173965904Y-99528380D01*
X173965904Y-100480761D02*
X173870666Y-100528380D01*
X173680190Y-100528380D01*
X173584952Y-100480761D01*
X173537333Y-100433142D01*
X173489714Y-100337904D01*
X173489714Y-100052190D01*
X173537333Y-99956952D01*
X173584952Y-99909333D01*
X173680190Y-99861714D01*
X173870666Y-99861714D01*
X173965904Y-99909333D01*
X174204000Y-100623619D02*
X174965904Y-100623619D01*
X175204000Y-100528380D02*
X175204000Y-99528380D01*
X175537333Y-100242666D01*
X175870666Y-99528380D01*
X175870666Y-100528380D01*
X176489714Y-100528380D02*
X176394476Y-100480761D01*
X176346857Y-100433142D01*
X176299238Y-100337904D01*
X176299238Y-100052190D01*
X176346857Y-99956952D01*
X176394476Y-99909333D01*
X176489714Y-99861714D01*
X176632571Y-99861714D01*
X176727809Y-99909333D01*
X176775428Y-99956952D01*
X176823047Y-100052190D01*
X176823047Y-100337904D01*
X176775428Y-100433142D01*
X176727809Y-100480761D01*
X176632571Y-100528380D01*
X176489714Y-100528380D01*
X177680190Y-100528380D02*
X177680190Y-99528380D01*
X177680190Y-100480761D02*
X177584952Y-100528380D01*
X177394476Y-100528380D01*
X177299238Y-100480761D01*
X177251619Y-100433142D01*
X177204000Y-100337904D01*
X177204000Y-100052190D01*
X177251619Y-99956952D01*
X177299238Y-99909333D01*
X177394476Y-99861714D01*
X177584952Y-99861714D01*
X177680190Y-99909333D01*
X178584952Y-99861714D02*
X178584952Y-100528380D01*
X178156380Y-99861714D02*
X178156380Y-100385523D01*
X178204000Y-100480761D01*
X178299238Y-100528380D01*
X178442095Y-100528380D01*
X178537333Y-100480761D01*
X178584952Y-100433142D01*
X179204000Y-100528380D02*
X179108761Y-100480761D01*
X179061142Y-100385523D01*
X179061142Y-99528380D01*
X136906095Y-107196000D02*
X136810857Y-107148380D01*
X136668000Y-107148380D01*
X136525142Y-107196000D01*
X136429904Y-107291238D01*
X136382285Y-107386476D01*
X136334666Y-107576952D01*
X136334666Y-107719809D01*
X136382285Y-107910285D01*
X136429904Y-108005523D01*
X136525142Y-108100761D01*
X136668000Y-108148380D01*
X136763238Y-108148380D01*
X136906095Y-108100761D01*
X136953714Y-108053142D01*
X136953714Y-107719809D01*
X136763238Y-107719809D01*
X137382285Y-108148380D02*
X137382285Y-107148380D01*
X137953714Y-108148380D01*
X137953714Y-107148380D01*
X138429904Y-108148380D02*
X138429904Y-107148380D01*
X138668000Y-107148380D01*
X138810857Y-107196000D01*
X138906095Y-107291238D01*
X138953714Y-107386476D01*
X139001333Y-107576952D01*
X139001333Y-107719809D01*
X138953714Y-107910285D01*
X138906095Y-108005523D01*
X138810857Y-108100761D01*
X138668000Y-108148380D01*
X138429904Y-108148380D01*
X136080666Y-109644380D02*
X136414000Y-110644380D01*
X136747333Y-109644380D01*
X137652095Y-110549142D02*
X137604476Y-110596761D01*
X137461619Y-110644380D01*
X137366380Y-110644380D01*
X137223523Y-110596761D01*
X137128285Y-110501523D01*
X137080666Y-110406285D01*
X137033047Y-110215809D01*
X137033047Y-110072952D01*
X137080666Y-109882476D01*
X137128285Y-109787238D01*
X137223523Y-109692000D01*
X137366380Y-109644380D01*
X137461619Y-109644380D01*
X137604476Y-109692000D01*
X137652095Y-109739619D01*
X138652095Y-110549142D02*
X138604476Y-110596761D01*
X138461619Y-110644380D01*
X138366380Y-110644380D01*
X138223523Y-110596761D01*
X138128285Y-110501523D01*
X138080666Y-110406285D01*
X138033047Y-110215809D01*
X138033047Y-110072952D01*
X138080666Y-109882476D01*
X138128285Y-109787238D01*
X138223523Y-109692000D01*
X138366380Y-109644380D01*
X138461619Y-109644380D01*
X138604476Y-109692000D01*
X138652095Y-109739619D01*
X135588571Y-112974380D02*
X135588571Y-111974380D01*
X135921904Y-112688666D01*
X136255238Y-111974380D01*
X136255238Y-112974380D01*
X136731428Y-112974380D02*
X136731428Y-111974380D01*
X137160000Y-112926761D02*
X137302857Y-112974380D01*
X137540952Y-112974380D01*
X137636190Y-112926761D01*
X137683809Y-112879142D01*
X137731428Y-112783904D01*
X137731428Y-112688666D01*
X137683809Y-112593428D01*
X137636190Y-112545809D01*
X137540952Y-112498190D01*
X137350476Y-112450571D01*
X137255238Y-112402952D01*
X137207619Y-112355333D01*
X137160000Y-112260095D01*
X137160000Y-112164857D01*
X137207619Y-112069619D01*
X137255238Y-112022000D01*
X137350476Y-111974380D01*
X137588571Y-111974380D01*
X137731428Y-112022000D01*
X138350476Y-111974380D02*
X138540952Y-111974380D01*
X138636190Y-112022000D01*
X138731428Y-112117238D01*
X138779047Y-112307714D01*
X138779047Y-112641047D01*
X138731428Y-112831523D01*
X138636190Y-112926761D01*
X138540952Y-112974380D01*
X138350476Y-112974380D01*
X138255238Y-112926761D01*
X138160000Y-112831523D01*
X138112380Y-112641047D01*
X138112380Y-112307714D01*
X138160000Y-112117238D01*
X138255238Y-112022000D01*
X138350476Y-111974380D01*
X135334571Y-115514380D02*
X135334571Y-114514380D01*
X135667904Y-115228666D01*
X136001238Y-114514380D01*
X136001238Y-115514380D01*
X136667904Y-114514380D02*
X136858380Y-114514380D01*
X136953619Y-114562000D01*
X137048857Y-114657238D01*
X137096476Y-114847714D01*
X137096476Y-115181047D01*
X137048857Y-115371523D01*
X136953619Y-115466761D01*
X136858380Y-115514380D01*
X136667904Y-115514380D01*
X136572666Y-115466761D01*
X136477428Y-115371523D01*
X136429809Y-115181047D01*
X136429809Y-114847714D01*
X136477428Y-114657238D01*
X136572666Y-114562000D01*
X136667904Y-114514380D01*
X137477428Y-115466761D02*
X137620285Y-115514380D01*
X137858380Y-115514380D01*
X137953619Y-115466761D01*
X138001238Y-115419142D01*
X138048857Y-115323904D01*
X138048857Y-115228666D01*
X138001238Y-115133428D01*
X137953619Y-115085809D01*
X137858380Y-115038190D01*
X137667904Y-114990571D01*
X137572666Y-114942952D01*
X137525047Y-114895333D01*
X137477428Y-114800095D01*
X137477428Y-114704857D01*
X137525047Y-114609619D01*
X137572666Y-114562000D01*
X137667904Y-114514380D01*
X137906000Y-114514380D01*
X138048857Y-114562000D01*
X138477428Y-115514380D02*
X138477428Y-114514380D01*
X136128285Y-117752761D02*
X136271142Y-117800380D01*
X136509238Y-117800380D01*
X136604476Y-117752761D01*
X136652095Y-117705142D01*
X136699714Y-117609904D01*
X136699714Y-117514666D01*
X136652095Y-117419428D01*
X136604476Y-117371809D01*
X136509238Y-117324190D01*
X136318761Y-117276571D01*
X136223523Y-117228952D01*
X136175904Y-117181333D01*
X136128285Y-117086095D01*
X136128285Y-116990857D01*
X136175904Y-116895619D01*
X136223523Y-116848000D01*
X136318761Y-116800380D01*
X136556857Y-116800380D01*
X136699714Y-116848000D01*
X137699714Y-117705142D02*
X137652095Y-117752761D01*
X137509238Y-117800380D01*
X137414000Y-117800380D01*
X137271142Y-117752761D01*
X137175904Y-117657523D01*
X137128285Y-117562285D01*
X137080666Y-117371809D01*
X137080666Y-117228952D01*
X137128285Y-117038476D01*
X137175904Y-116943238D01*
X137271142Y-116848000D01*
X137414000Y-116800380D01*
X137509238Y-116800380D01*
X137652095Y-116848000D01*
X137699714Y-116895619D01*
X138128285Y-117800380D02*
X138128285Y-116800380D01*
X138699714Y-117800380D02*
X138271142Y-117228952D01*
X138699714Y-116800380D02*
X138128285Y-117371809D01*
X137755333Y-120245142D02*
X137707714Y-120292761D01*
X137564857Y-120340380D01*
X137469619Y-120340380D01*
X137326761Y-120292761D01*
X137231523Y-120197523D01*
X137183904Y-120102285D01*
X137136285Y-119911809D01*
X137136285Y-119768952D01*
X137183904Y-119578476D01*
X137231523Y-119483238D01*
X137326761Y-119388000D01*
X137469619Y-119340380D01*
X137564857Y-119340380D01*
X137707714Y-119388000D01*
X137755333Y-119435619D01*
X138136285Y-120292761D02*
X138279142Y-120340380D01*
X138517238Y-120340380D01*
X138612476Y-120292761D01*
X138660095Y-120245142D01*
X138707714Y-120149904D01*
X138707714Y-120054666D01*
X138660095Y-119959428D01*
X138612476Y-119911809D01*
X138517238Y-119864190D01*
X138326761Y-119816571D01*
X138231523Y-119768952D01*
X138183904Y-119721333D01*
X138136285Y-119626095D01*
X138136285Y-119530857D01*
X138183904Y-119435619D01*
X138231523Y-119388000D01*
X138326761Y-119340380D01*
X138564857Y-119340380D01*
X138707714Y-119388000D01*
X88844380Y-74842666D02*
X88368190Y-75176000D01*
X88844380Y-75414095D02*
X87844380Y-75414095D01*
X87844380Y-75033142D01*
X87892000Y-74937904D01*
X87939619Y-74890285D01*
X88034857Y-74842666D01*
X88177714Y-74842666D01*
X88272952Y-74890285D01*
X88320571Y-74937904D01*
X88368190Y-75033142D01*
X88368190Y-75414095D01*
X88844380Y-73890285D02*
X88844380Y-74461714D01*
X88844380Y-74176000D02*
X87844380Y-74176000D01*
X87987238Y-74271238D01*
X88082476Y-74366476D01*
X88130095Y-74461714D01*
X91130380Y-75620476D02*
X91130380Y-76191904D01*
X91130380Y-75906190D02*
X90130380Y-75906190D01*
X90273238Y-76001428D01*
X90368476Y-76096666D01*
X90416095Y-76191904D01*
X90130380Y-75001428D02*
X90130380Y-74906190D01*
X90178000Y-74810952D01*
X90225619Y-74763333D01*
X90320857Y-74715714D01*
X90511333Y-74668095D01*
X90749428Y-74668095D01*
X90939904Y-74715714D01*
X91035142Y-74763333D01*
X91082761Y-74810952D01*
X91130380Y-74906190D01*
X91130380Y-75001428D01*
X91082761Y-75096666D01*
X91035142Y-75144285D01*
X90939904Y-75191904D01*
X90749428Y-75239523D01*
X90511333Y-75239523D01*
X90320857Y-75191904D01*
X90225619Y-75144285D01*
X90178000Y-75096666D01*
X90130380Y-75001428D01*
X91130380Y-74239523D02*
X90130380Y-74239523D01*
X91130380Y-73668095D02*
X90558952Y-74096666D01*
X90130380Y-73668095D02*
X90701809Y-74239523D01*
X91130380Y-88304666D02*
X90654190Y-88638000D01*
X91130380Y-88876095D02*
X90130380Y-88876095D01*
X90130380Y-88495142D01*
X90178000Y-88399904D01*
X90225619Y-88352285D01*
X90320857Y-88304666D01*
X90463714Y-88304666D01*
X90558952Y-88352285D01*
X90606571Y-88399904D01*
X90654190Y-88495142D01*
X90654190Y-88876095D01*
X90225619Y-87923714D02*
X90178000Y-87876095D01*
X90130380Y-87780857D01*
X90130380Y-87542761D01*
X90178000Y-87447523D01*
X90225619Y-87399904D01*
X90320857Y-87352285D01*
X90416095Y-87352285D01*
X90558952Y-87399904D01*
X91130380Y-87971333D01*
X91130380Y-87352285D01*
X88760380Y-90915809D02*
X88284190Y-91249142D01*
X88760380Y-91487238D02*
X87760380Y-91487238D01*
X87760380Y-91106285D01*
X87808000Y-91011047D01*
X87855619Y-90963428D01*
X87950857Y-90915809D01*
X88093714Y-90915809D01*
X88188952Y-90963428D01*
X88236571Y-91011047D01*
X88284190Y-91106285D01*
X88284190Y-91487238D01*
X88855619Y-90725333D02*
X88855619Y-89963428D01*
X88760380Y-89725333D02*
X87760380Y-89725333D01*
X87760380Y-89344380D01*
X87808000Y-89249142D01*
X87855619Y-89201523D01*
X87950857Y-89153904D01*
X88093714Y-89153904D01*
X88188952Y-89201523D01*
X88236571Y-89249142D01*
X88284190Y-89344380D01*
X88284190Y-89725333D01*
X88760380Y-88725333D02*
X87760380Y-88725333D01*
X88236571Y-88725333D02*
X88236571Y-88153904D01*
X88760380Y-88153904D02*
X87760380Y-88153904D01*
X87760380Y-87487238D02*
X87760380Y-87296761D01*
X87808000Y-87201523D01*
X87903238Y-87106285D01*
X88093714Y-87058666D01*
X88427047Y-87058666D01*
X88617523Y-87106285D01*
X88712761Y-87201523D01*
X88760380Y-87296761D01*
X88760380Y-87487238D01*
X88712761Y-87582476D01*
X88617523Y-87677714D01*
X88427047Y-87725333D01*
X88093714Y-87725333D01*
X87903238Y-87677714D01*
X87808000Y-87582476D01*
X87760380Y-87487238D01*
X87760380Y-86772952D02*
X87760380Y-86201523D01*
X88760380Y-86487238D02*
X87760380Y-86487238D01*
X87760380Y-85677714D02*
X87760380Y-85487238D01*
X87808000Y-85392000D01*
X87903238Y-85296761D01*
X88093714Y-85249142D01*
X88427047Y-85249142D01*
X88617523Y-85296761D01*
X88712761Y-85392000D01*
X88760380Y-85487238D01*
X88760380Y-85677714D01*
X88712761Y-85772952D01*
X88617523Y-85868190D01*
X88427047Y-85915809D01*
X88093714Y-85915809D01*
X87903238Y-85868190D01*
X87808000Y-85772952D01*
X87760380Y-85677714D01*
X88844380Y-115228666D02*
X88368190Y-115562000D01*
X88844380Y-115800095D02*
X87844380Y-115800095D01*
X87844380Y-115419142D01*
X87892000Y-115323904D01*
X87939619Y-115276285D01*
X88034857Y-115228666D01*
X88177714Y-115228666D01*
X88272952Y-115276285D01*
X88320571Y-115323904D01*
X88368190Y-115419142D01*
X88368190Y-115800095D01*
X87844380Y-114895333D02*
X87844380Y-114276285D01*
X88225333Y-114609619D01*
X88225333Y-114466761D01*
X88272952Y-114371523D01*
X88320571Y-114323904D01*
X88415809Y-114276285D01*
X88653904Y-114276285D01*
X88749142Y-114323904D01*
X88796761Y-114371523D01*
X88844380Y-114466761D01*
X88844380Y-114752476D01*
X88796761Y-114847714D01*
X88749142Y-114895333D01*
X104989333Y-61582380D02*
X104656000Y-61106190D01*
X104417904Y-61582380D02*
X104417904Y-60582380D01*
X104798857Y-60582380D01*
X104894095Y-60630000D01*
X104941714Y-60677619D01*
X104989333Y-60772857D01*
X104989333Y-60915714D01*
X104941714Y-61010952D01*
X104894095Y-61058571D01*
X104798857Y-61106190D01*
X104417904Y-61106190D01*
X105846476Y-60915714D02*
X105846476Y-61582380D01*
X105608380Y-60534761D02*
X105370285Y-61249047D01*
X105989333Y-61249047D01*
X99284095Y-74670380D02*
X99284095Y-75479904D01*
X99331714Y-75575142D01*
X99379333Y-75622761D01*
X99474571Y-75670380D01*
X99665047Y-75670380D01*
X99760285Y-75622761D01*
X99807904Y-75575142D01*
X99855523Y-75479904D01*
X99855523Y-74670380D01*
X100855523Y-75670380D02*
X100284095Y-75670380D01*
X100569809Y-75670380D02*
X100569809Y-74670380D01*
X100474571Y-74813238D01*
X100379333Y-74908476D01*
X100284095Y-74956095D01*
X106101428Y-127706380D02*
X106101428Y-126706380D01*
X106672857Y-127706380D01*
X106672857Y-126706380D01*
X107291904Y-127706380D02*
X107196666Y-127658761D01*
X107149047Y-127611142D01*
X107101428Y-127515904D01*
X107101428Y-127230190D01*
X107149047Y-127134952D01*
X107196666Y-127087333D01*
X107291904Y-127039714D01*
X107434761Y-127039714D01*
X107530000Y-127087333D01*
X107577619Y-127134952D01*
X107625238Y-127230190D01*
X107625238Y-127515904D01*
X107577619Y-127611142D01*
X107530000Y-127658761D01*
X107434761Y-127706380D01*
X107291904Y-127706380D01*
X108482380Y-127706380D02*
X108482380Y-126706380D01*
X108482380Y-127658761D02*
X108387142Y-127706380D01*
X108196666Y-127706380D01*
X108101428Y-127658761D01*
X108053809Y-127611142D01*
X108006190Y-127515904D01*
X108006190Y-127230190D01*
X108053809Y-127134952D01*
X108101428Y-127087333D01*
X108196666Y-127039714D01*
X108387142Y-127039714D01*
X108482380Y-127087333D01*
X109339523Y-127658761D02*
X109244285Y-127706380D01*
X109053809Y-127706380D01*
X108958571Y-127658761D01*
X108910952Y-127563523D01*
X108910952Y-127182571D01*
X108958571Y-127087333D01*
X109053809Y-127039714D01*
X109244285Y-127039714D01*
X109339523Y-127087333D01*
X109387142Y-127182571D01*
X109387142Y-127277809D01*
X108910952Y-127373047D01*
X109815714Y-127706380D02*
X109815714Y-126706380D01*
X110149047Y-127420666D01*
X110482380Y-126706380D01*
X110482380Y-127706380D01*
X111530000Y-127611142D02*
X111482380Y-127658761D01*
X111339523Y-127706380D01*
X111244285Y-127706380D01*
X111101428Y-127658761D01*
X111006190Y-127563523D01*
X110958571Y-127468285D01*
X110910952Y-127277809D01*
X110910952Y-127134952D01*
X110958571Y-126944476D01*
X111006190Y-126849238D01*
X111101428Y-126754000D01*
X111244285Y-126706380D01*
X111339523Y-126706380D01*
X111482380Y-126754000D01*
X111530000Y-126801619D01*
X111958571Y-126706380D02*
X111958571Y-127515904D01*
X112006190Y-127611142D01*
X112053809Y-127658761D01*
X112149047Y-127706380D01*
X112339523Y-127706380D01*
X112434761Y-127658761D01*
X112482380Y-127611142D01*
X112530000Y-127515904D01*
X112530000Y-126706380D01*
X113768095Y-127182571D02*
X114101428Y-127182571D01*
X114244285Y-127706380D02*
X113768095Y-127706380D01*
X113768095Y-126706380D01*
X114244285Y-126706380D01*
X114625238Y-127658761D02*
X114768095Y-127706380D01*
X115006190Y-127706380D01*
X115101428Y-127658761D01*
X115149047Y-127611142D01*
X115196666Y-127515904D01*
X115196666Y-127420666D01*
X115149047Y-127325428D01*
X115101428Y-127277809D01*
X115006190Y-127230190D01*
X114815714Y-127182571D01*
X114720476Y-127134952D01*
X114672857Y-127087333D01*
X114625238Y-126992095D01*
X114625238Y-126896857D01*
X114672857Y-126801619D01*
X114720476Y-126754000D01*
X114815714Y-126706380D01*
X115053809Y-126706380D01*
X115196666Y-126754000D01*
X115625238Y-127706380D02*
X115625238Y-126706380D01*
X116006190Y-126706380D01*
X116101428Y-126754000D01*
X116149047Y-126801619D01*
X116196666Y-126896857D01*
X116196666Y-127039714D01*
X116149047Y-127134952D01*
X116101428Y-127182571D01*
X116006190Y-127230190D01*
X115625238Y-127230190D01*
X116768095Y-127134952D02*
X116672857Y-127087333D01*
X116625238Y-127039714D01*
X116577619Y-126944476D01*
X116577619Y-126896857D01*
X116625238Y-126801619D01*
X116672857Y-126754000D01*
X116768095Y-126706380D01*
X116958571Y-126706380D01*
X117053809Y-126754000D01*
X117101428Y-126801619D01*
X117149047Y-126896857D01*
X117149047Y-126944476D01*
X117101428Y-127039714D01*
X117053809Y-127087333D01*
X116958571Y-127134952D01*
X116768095Y-127134952D01*
X116672857Y-127182571D01*
X116625238Y-127230190D01*
X116577619Y-127325428D01*
X116577619Y-127515904D01*
X116625238Y-127611142D01*
X116672857Y-127658761D01*
X116768095Y-127706380D01*
X116958571Y-127706380D01*
X117053809Y-127658761D01*
X117101428Y-127611142D01*
X117149047Y-127515904D01*
X117149047Y-127325428D01*
X117101428Y-127230190D01*
X117053809Y-127182571D01*
X116958571Y-127134952D01*
X117530000Y-126801619D02*
X117577619Y-126754000D01*
X117672857Y-126706380D01*
X117910952Y-126706380D01*
X118006190Y-126754000D01*
X118053809Y-126801619D01*
X118101428Y-126896857D01*
X118101428Y-126992095D01*
X118053809Y-127134952D01*
X117482380Y-127706380D01*
X118101428Y-127706380D01*
X118958571Y-126706380D02*
X118768095Y-126706380D01*
X118672857Y-126754000D01*
X118625238Y-126801619D01*
X118530000Y-126944476D01*
X118482380Y-127134952D01*
X118482380Y-127515904D01*
X118530000Y-127611142D01*
X118577619Y-127658761D01*
X118672857Y-127706380D01*
X118863333Y-127706380D01*
X118958571Y-127658761D01*
X119006190Y-127611142D01*
X119053809Y-127515904D01*
X119053809Y-127277809D01*
X119006190Y-127182571D01*
X118958571Y-127134952D01*
X118863333Y-127087333D01*
X118672857Y-127087333D01*
X118577619Y-127134952D01*
X118530000Y-127182571D01*
X118482380Y-127277809D01*
X119910952Y-126706380D02*
X119720476Y-126706380D01*
X119625238Y-126754000D01*
X119577619Y-126801619D01*
X119482380Y-126944476D01*
X119434761Y-127134952D01*
X119434761Y-127515904D01*
X119482380Y-127611142D01*
X119529999Y-127658761D01*
X119625238Y-127706380D01*
X119815714Y-127706380D01*
X119910952Y-127658761D01*
X119958571Y-127611142D01*
X120006190Y-127515904D01*
X120006190Y-127277809D01*
X119958571Y-127182571D01*
X119910952Y-127134952D01*
X119815714Y-127087333D01*
X119625238Y-127087333D01*
X119529999Y-127134952D01*
X119482380Y-127182571D01*
X119434761Y-127277809D01*
X130607904Y-113070380D02*
X131226952Y-113070380D01*
X130893619Y-113451333D01*
X131036476Y-113451333D01*
X131131714Y-113498952D01*
X131179333Y-113546571D01*
X131226952Y-113641809D01*
X131226952Y-113879904D01*
X131179333Y-113975142D01*
X131131714Y-114022761D01*
X131036476Y-114070380D01*
X130750761Y-114070380D01*
X130655523Y-114022761D01*
X130607904Y-113975142D01*
X131512666Y-113070380D02*
X131846000Y-114070380D01*
X132179333Y-113070380D01*
X132417428Y-113070380D02*
X133036476Y-113070380D01*
X132703142Y-113451333D01*
X132846000Y-113451333D01*
X132941238Y-113498952D01*
X132988857Y-113546571D01*
X133036476Y-113641809D01*
X133036476Y-113879904D01*
X132988857Y-113975142D01*
X132941238Y-114022761D01*
X132846000Y-114070380D01*
X132560285Y-114070380D01*
X132465047Y-114022761D01*
X132417428Y-113975142D01*
X131184095Y-110618000D02*
X131088857Y-110570380D01*
X130946000Y-110570380D01*
X130803142Y-110618000D01*
X130707904Y-110713238D01*
X130660285Y-110808476D01*
X130612666Y-110998952D01*
X130612666Y-111141809D01*
X130660285Y-111332285D01*
X130707904Y-111427523D01*
X130803142Y-111522761D01*
X130946000Y-111570380D01*
X131041238Y-111570380D01*
X131184095Y-111522761D01*
X131231714Y-111475142D01*
X131231714Y-111141809D01*
X131041238Y-111141809D01*
X131660285Y-111570380D02*
X131660285Y-110570380D01*
X132231714Y-111570380D01*
X132231714Y-110570380D01*
X132707904Y-111570380D02*
X132707904Y-110570380D01*
X132946000Y-110570380D01*
X133088857Y-110618000D01*
X133184095Y-110713238D01*
X133231714Y-110808476D01*
X133279333Y-110998952D01*
X133279333Y-111141809D01*
X133231714Y-111332285D01*
X133184095Y-111427523D01*
X133088857Y-111522761D01*
X132946000Y-111570380D01*
X132707904Y-111570380D01*
X131169809Y-108218000D02*
X131074571Y-108170380D01*
X130931714Y-108170380D01*
X130788857Y-108218000D01*
X130693619Y-108313238D01*
X130646000Y-108408476D01*
X130598380Y-108598952D01*
X130598380Y-108741809D01*
X130646000Y-108932285D01*
X130693619Y-109027523D01*
X130788857Y-109122761D01*
X130931714Y-109170380D01*
X131026952Y-109170380D01*
X131169809Y-109122761D01*
X131217428Y-109075142D01*
X131217428Y-108741809D01*
X131026952Y-108741809D01*
X131646000Y-109170380D02*
X131646000Y-108170380D01*
X132026952Y-108170380D01*
X132122190Y-108218000D01*
X132169809Y-108265619D01*
X132217428Y-108360857D01*
X132217428Y-108503714D01*
X132169809Y-108598952D01*
X132122190Y-108646571D01*
X132026952Y-108694190D01*
X131646000Y-108694190D01*
X132646000Y-109170380D02*
X132646000Y-108170380D01*
X133312666Y-108170380D02*
X133503142Y-108170380D01*
X133598380Y-108218000D01*
X133693619Y-108313238D01*
X133741238Y-108503714D01*
X133741238Y-108837047D01*
X133693619Y-109027523D01*
X133598380Y-109122761D01*
X133503142Y-109170380D01*
X133312666Y-109170380D01*
X133217428Y-109122761D01*
X133122190Y-109027523D01*
X133074571Y-108837047D01*
X133074571Y-108503714D01*
X133122190Y-108313238D01*
X133217428Y-108218000D01*
X133312666Y-108170380D01*
X134693619Y-109170380D02*
X134122190Y-109170380D01*
X134407904Y-109170380D02*
X134407904Y-108170380D01*
X134312666Y-108313238D01*
X134217428Y-108408476D01*
X134122190Y-108456095D01*
X131269809Y-105718000D02*
X131174571Y-105670380D01*
X131031714Y-105670380D01*
X130888857Y-105718000D01*
X130793619Y-105813238D01*
X130746000Y-105908476D01*
X130698380Y-106098952D01*
X130698380Y-106241809D01*
X130746000Y-106432285D01*
X130793619Y-106527523D01*
X130888857Y-106622761D01*
X131031714Y-106670380D01*
X131126952Y-106670380D01*
X131269809Y-106622761D01*
X131317428Y-106575142D01*
X131317428Y-106241809D01*
X131126952Y-106241809D01*
X131746000Y-106670380D02*
X131746000Y-105670380D01*
X132126952Y-105670380D01*
X132222190Y-105718000D01*
X132269809Y-105765619D01*
X132317428Y-105860857D01*
X132317428Y-106003714D01*
X132269809Y-106098952D01*
X132222190Y-106146571D01*
X132126952Y-106194190D01*
X131746000Y-106194190D01*
X132746000Y-106670380D02*
X132746000Y-105670380D01*
X133412666Y-105670380D02*
X133603142Y-105670380D01*
X133698380Y-105718000D01*
X133793619Y-105813238D01*
X133841238Y-106003714D01*
X133841238Y-106337047D01*
X133793619Y-106527523D01*
X133698380Y-106622761D01*
X133603142Y-106670380D01*
X133412666Y-106670380D01*
X133317428Y-106622761D01*
X133222190Y-106527523D01*
X133174571Y-106337047D01*
X133174571Y-106003714D01*
X133222190Y-105813238D01*
X133317428Y-105718000D01*
X133412666Y-105670380D01*
X134174571Y-105670380D02*
X134793619Y-105670380D01*
X134460285Y-106051333D01*
X134603142Y-106051333D01*
X134698380Y-106098952D01*
X134746000Y-106146571D01*
X134793619Y-106241809D01*
X134793619Y-106479904D01*
X134746000Y-106575142D01*
X134698380Y-106622761D01*
X134603142Y-106670380D01*
X134317428Y-106670380D01*
X134222190Y-106622761D01*
X134174571Y-106575142D01*
X131293619Y-103118000D02*
X131198380Y-103070380D01*
X131055523Y-103070380D01*
X130912666Y-103118000D01*
X130817428Y-103213238D01*
X130769809Y-103308476D01*
X130722190Y-103498952D01*
X130722190Y-103641809D01*
X130769809Y-103832285D01*
X130817428Y-103927523D01*
X130912666Y-104022761D01*
X131055523Y-104070380D01*
X131150761Y-104070380D01*
X131293619Y-104022761D01*
X131341238Y-103975142D01*
X131341238Y-103641809D01*
X131150761Y-103641809D01*
X131769809Y-104070380D02*
X131769809Y-103070380D01*
X132150761Y-103070380D01*
X132246000Y-103118000D01*
X132293619Y-103165619D01*
X132341238Y-103260857D01*
X132341238Y-103403714D01*
X132293619Y-103498952D01*
X132246000Y-103546571D01*
X132150761Y-103594190D01*
X131769809Y-103594190D01*
X132769809Y-104070380D02*
X132769809Y-103070380D01*
X133436476Y-103070380D02*
X133626952Y-103070380D01*
X133722190Y-103118000D01*
X133817428Y-103213238D01*
X133865047Y-103403714D01*
X133865047Y-103737047D01*
X133817428Y-103927523D01*
X133722190Y-104022761D01*
X133626952Y-104070380D01*
X133436476Y-104070380D01*
X133341238Y-104022761D01*
X133246000Y-103927523D01*
X133198380Y-103737047D01*
X133198380Y-103403714D01*
X133246000Y-103213238D01*
X133341238Y-103118000D01*
X133436476Y-103070380D01*
X134817428Y-104070380D02*
X134246000Y-104070380D01*
X134531714Y-104070380D02*
X134531714Y-103070380D01*
X134436476Y-103213238D01*
X134341238Y-103308476D01*
X134246000Y-103356095D01*
X135722190Y-103070380D02*
X135246000Y-103070380D01*
X135198380Y-103546571D01*
X135246000Y-103498952D01*
X135341238Y-103451333D01*
X135579333Y-103451333D01*
X135674571Y-103498952D01*
X135722190Y-103546571D01*
X135769809Y-103641809D01*
X135769809Y-103879904D01*
X135722190Y-103975142D01*
X135674571Y-104022761D01*
X135579333Y-104070380D01*
X135341238Y-104070380D01*
X135246000Y-104022761D01*
X135198380Y-103975142D01*
X131293619Y-100618000D02*
X131198380Y-100570380D01*
X131055523Y-100570380D01*
X130912666Y-100618000D01*
X130817428Y-100713238D01*
X130769809Y-100808476D01*
X130722190Y-100998952D01*
X130722190Y-101141809D01*
X130769809Y-101332285D01*
X130817428Y-101427523D01*
X130912666Y-101522761D01*
X131055523Y-101570380D01*
X131150761Y-101570380D01*
X131293619Y-101522761D01*
X131341238Y-101475142D01*
X131341238Y-101141809D01*
X131150761Y-101141809D01*
X131769809Y-101570380D02*
X131769809Y-100570380D01*
X132150761Y-100570380D01*
X132246000Y-100618000D01*
X132293619Y-100665619D01*
X132341238Y-100760857D01*
X132341238Y-100903714D01*
X132293619Y-100998952D01*
X132246000Y-101046571D01*
X132150761Y-101094190D01*
X131769809Y-101094190D01*
X132769809Y-101570380D02*
X132769809Y-100570380D01*
X133436476Y-100570380D02*
X133626952Y-100570380D01*
X133722190Y-100618000D01*
X133817428Y-100713238D01*
X133865047Y-100903714D01*
X133865047Y-101237047D01*
X133817428Y-101427523D01*
X133722190Y-101522761D01*
X133626952Y-101570380D01*
X133436476Y-101570380D01*
X133341238Y-101522761D01*
X133246000Y-101427523D01*
X133198380Y-101237047D01*
X133198380Y-100903714D01*
X133246000Y-100713238D01*
X133341238Y-100618000D01*
X133436476Y-100570380D01*
X134817428Y-101570380D02*
X134246000Y-101570380D01*
X134531714Y-101570380D02*
X134531714Y-100570380D01*
X134436476Y-100713238D01*
X134341238Y-100808476D01*
X134246000Y-100856095D01*
X135150761Y-100570380D02*
X135769809Y-100570380D01*
X135436476Y-100951333D01*
X135579333Y-100951333D01*
X135674571Y-100998952D01*
X135722190Y-101046571D01*
X135769809Y-101141809D01*
X135769809Y-101379904D01*
X135722190Y-101475142D01*
X135674571Y-101522761D01*
X135579333Y-101570380D01*
X135293619Y-101570380D01*
X135198380Y-101522761D01*
X135150761Y-101475142D01*
X131193619Y-98118000D02*
X131098380Y-98070380D01*
X130955523Y-98070380D01*
X130812666Y-98118000D01*
X130717428Y-98213238D01*
X130669809Y-98308476D01*
X130622190Y-98498952D01*
X130622190Y-98641809D01*
X130669809Y-98832285D01*
X130717428Y-98927523D01*
X130812666Y-99022761D01*
X130955523Y-99070380D01*
X131050761Y-99070380D01*
X131193619Y-99022761D01*
X131241238Y-98975142D01*
X131241238Y-98641809D01*
X131050761Y-98641809D01*
X131669809Y-99070380D02*
X131669809Y-98070380D01*
X132050761Y-98070380D01*
X132146000Y-98118000D01*
X132193619Y-98165619D01*
X132241238Y-98260857D01*
X132241238Y-98403714D01*
X132193619Y-98498952D01*
X132146000Y-98546571D01*
X132050761Y-98594190D01*
X131669809Y-98594190D01*
X132669809Y-99070380D02*
X132669809Y-98070380D01*
X133336476Y-98070380D02*
X133526952Y-98070380D01*
X133622190Y-98118000D01*
X133717428Y-98213238D01*
X133765047Y-98403714D01*
X133765047Y-98737047D01*
X133717428Y-98927523D01*
X133622190Y-99022761D01*
X133526952Y-99070380D01*
X133336476Y-99070380D01*
X133241238Y-99022761D01*
X133146000Y-98927523D01*
X133098380Y-98737047D01*
X133098380Y-98403714D01*
X133146000Y-98213238D01*
X133241238Y-98118000D01*
X133336476Y-98070380D01*
X134717428Y-99070380D02*
X134146000Y-99070380D01*
X134431714Y-99070380D02*
X134431714Y-98070380D01*
X134336476Y-98213238D01*
X134241238Y-98308476D01*
X134146000Y-98356095D01*
X135098380Y-98165619D02*
X135146000Y-98118000D01*
X135241238Y-98070380D01*
X135479333Y-98070380D01*
X135574571Y-98118000D01*
X135622190Y-98165619D01*
X135669809Y-98260857D01*
X135669809Y-98356095D01*
X135622190Y-98498952D01*
X135050761Y-99070380D01*
X135669809Y-99070380D01*
X131293619Y-95518000D02*
X131198380Y-95470380D01*
X131055523Y-95470380D01*
X130912666Y-95518000D01*
X130817428Y-95613238D01*
X130769809Y-95708476D01*
X130722190Y-95898952D01*
X130722190Y-96041809D01*
X130769809Y-96232285D01*
X130817428Y-96327523D01*
X130912666Y-96422761D01*
X131055523Y-96470380D01*
X131150761Y-96470380D01*
X131293619Y-96422761D01*
X131341238Y-96375142D01*
X131341238Y-96041809D01*
X131150761Y-96041809D01*
X131769809Y-96470380D02*
X131769809Y-95470380D01*
X132150761Y-95470380D01*
X132246000Y-95518000D01*
X132293619Y-95565619D01*
X132341238Y-95660857D01*
X132341238Y-95803714D01*
X132293619Y-95898952D01*
X132246000Y-95946571D01*
X132150761Y-95994190D01*
X131769809Y-95994190D01*
X132769809Y-96470380D02*
X132769809Y-95470380D01*
X133436476Y-95470380D02*
X133626952Y-95470380D01*
X133722190Y-95518000D01*
X133817428Y-95613238D01*
X133865047Y-95803714D01*
X133865047Y-96137047D01*
X133817428Y-96327523D01*
X133722190Y-96422761D01*
X133626952Y-96470380D01*
X133436476Y-96470380D01*
X133341238Y-96422761D01*
X133246000Y-96327523D01*
X133198380Y-96137047D01*
X133198380Y-95803714D01*
X133246000Y-95613238D01*
X133341238Y-95518000D01*
X133436476Y-95470380D01*
X134817428Y-96470380D02*
X134246000Y-96470380D01*
X134531714Y-96470380D02*
X134531714Y-95470380D01*
X134436476Y-95613238D01*
X134341238Y-95708476D01*
X134246000Y-95756095D01*
X135674571Y-95803714D02*
X135674571Y-96470380D01*
X135436476Y-95422761D02*
X135198380Y-96137047D01*
X135817428Y-96137047D01*
X131384095Y-92918000D02*
X131288857Y-92870380D01*
X131146000Y-92870380D01*
X131003142Y-92918000D01*
X130907904Y-93013238D01*
X130860285Y-93108476D01*
X130812666Y-93298952D01*
X130812666Y-93441809D01*
X130860285Y-93632285D01*
X130907904Y-93727523D01*
X131003142Y-93822761D01*
X131146000Y-93870380D01*
X131241238Y-93870380D01*
X131384095Y-93822761D01*
X131431714Y-93775142D01*
X131431714Y-93441809D01*
X131241238Y-93441809D01*
X131860285Y-93870380D02*
X131860285Y-92870380D01*
X132431714Y-93870380D01*
X132431714Y-92870380D01*
X132907904Y-93870380D02*
X132907904Y-92870380D01*
X133146000Y-92870380D01*
X133288857Y-92918000D01*
X133384095Y-93013238D01*
X133431714Y-93108476D01*
X133479333Y-93298952D01*
X133479333Y-93441809D01*
X133431714Y-93632285D01*
X133384095Y-93727523D01*
X133288857Y-93822761D01*
X133146000Y-93870380D01*
X132907904Y-93870380D01*
X130807904Y-90270380D02*
X131426952Y-90270380D01*
X131093619Y-90651333D01*
X131236476Y-90651333D01*
X131331714Y-90698952D01*
X131379333Y-90746571D01*
X131426952Y-90841809D01*
X131426952Y-91079904D01*
X131379333Y-91175142D01*
X131331714Y-91222761D01*
X131236476Y-91270380D01*
X130950761Y-91270380D01*
X130855523Y-91222761D01*
X130807904Y-91175142D01*
X131712666Y-90270380D02*
X132046000Y-91270380D01*
X132379333Y-90270380D01*
X132617428Y-90270380D02*
X133236476Y-90270380D01*
X132903142Y-90651333D01*
X133046000Y-90651333D01*
X133141238Y-90698952D01*
X133188857Y-90746571D01*
X133236476Y-90841809D01*
X133236476Y-91079904D01*
X133188857Y-91175142D01*
X133141238Y-91222761D01*
X133046000Y-91270380D01*
X132760285Y-91270380D01*
X132665047Y-91222761D01*
X132617428Y-91175142D01*
X131169809Y-87718000D02*
X131074571Y-87670380D01*
X130931714Y-87670380D01*
X130788857Y-87718000D01*
X130693619Y-87813238D01*
X130646000Y-87908476D01*
X130598380Y-88098952D01*
X130598380Y-88241809D01*
X130646000Y-88432285D01*
X130693619Y-88527523D01*
X130788857Y-88622761D01*
X130931714Y-88670380D01*
X131026952Y-88670380D01*
X131169809Y-88622761D01*
X131217428Y-88575142D01*
X131217428Y-88241809D01*
X131026952Y-88241809D01*
X131646000Y-88670380D02*
X131646000Y-87670380D01*
X132026952Y-87670380D01*
X132122190Y-87718000D01*
X132169809Y-87765619D01*
X132217428Y-87860857D01*
X132217428Y-88003714D01*
X132169809Y-88098952D01*
X132122190Y-88146571D01*
X132026952Y-88194190D01*
X131646000Y-88194190D01*
X132646000Y-88670380D02*
X132646000Y-87670380D01*
X133312666Y-87670380D02*
X133503142Y-87670380D01*
X133598380Y-87718000D01*
X133693619Y-87813238D01*
X133741238Y-88003714D01*
X133741238Y-88337047D01*
X133693619Y-88527523D01*
X133598380Y-88622761D01*
X133503142Y-88670380D01*
X133312666Y-88670380D01*
X133217428Y-88622761D01*
X133122190Y-88527523D01*
X133074571Y-88337047D01*
X133074571Y-88003714D01*
X133122190Y-87813238D01*
X133217428Y-87718000D01*
X133312666Y-87670380D01*
X134122190Y-87765619D02*
X134169809Y-87718000D01*
X134265047Y-87670380D01*
X134503142Y-87670380D01*
X134598380Y-87718000D01*
X134646000Y-87765619D01*
X134693619Y-87860857D01*
X134693619Y-87956095D01*
X134646000Y-88098952D01*
X134074571Y-88670380D01*
X134693619Y-88670380D01*
X131069809Y-85218000D02*
X130974571Y-85170380D01*
X130831714Y-85170380D01*
X130688857Y-85218000D01*
X130593619Y-85313238D01*
X130546000Y-85408476D01*
X130498380Y-85598952D01*
X130498380Y-85741809D01*
X130546000Y-85932285D01*
X130593619Y-86027523D01*
X130688857Y-86122761D01*
X130831714Y-86170380D01*
X130926952Y-86170380D01*
X131069809Y-86122761D01*
X131117428Y-86075142D01*
X131117428Y-85741809D01*
X130926952Y-85741809D01*
X131546000Y-86170380D02*
X131546000Y-85170380D01*
X131926952Y-85170380D01*
X132022190Y-85218000D01*
X132069809Y-85265619D01*
X132117428Y-85360857D01*
X132117428Y-85503714D01*
X132069809Y-85598952D01*
X132022190Y-85646571D01*
X131926952Y-85694190D01*
X131546000Y-85694190D01*
X132546000Y-86170380D02*
X132546000Y-85170380D01*
X133212666Y-85170380D02*
X133403142Y-85170380D01*
X133498380Y-85218000D01*
X133593619Y-85313238D01*
X133641238Y-85503714D01*
X133641238Y-85837047D01*
X133593619Y-86027523D01*
X133498380Y-86122761D01*
X133403142Y-86170380D01*
X133212666Y-86170380D01*
X133117428Y-86122761D01*
X133022190Y-86027523D01*
X132974571Y-85837047D01*
X132974571Y-85503714D01*
X133022190Y-85313238D01*
X133117428Y-85218000D01*
X133212666Y-85170380D01*
X134260285Y-85170380D02*
X134355523Y-85170380D01*
X134450761Y-85218000D01*
X134498380Y-85265619D01*
X134546000Y-85360857D01*
X134593619Y-85551333D01*
X134593619Y-85789428D01*
X134546000Y-85979904D01*
X134498380Y-86075142D01*
X134450761Y-86122761D01*
X134355523Y-86170380D01*
X134260285Y-86170380D01*
X134165047Y-86122761D01*
X134117428Y-86075142D01*
X134069809Y-85979904D01*
X134022190Y-85789428D01*
X134022190Y-85551333D01*
X134069809Y-85360857D01*
X134117428Y-85265619D01*
X134165047Y-85218000D01*
X134260285Y-85170380D01*
X131069809Y-82618000D02*
X130974571Y-82570380D01*
X130831714Y-82570380D01*
X130688857Y-82618000D01*
X130593619Y-82713238D01*
X130546000Y-82808476D01*
X130498380Y-82998952D01*
X130498380Y-83141809D01*
X130546000Y-83332285D01*
X130593619Y-83427523D01*
X130688857Y-83522761D01*
X130831714Y-83570380D01*
X130926952Y-83570380D01*
X131069809Y-83522761D01*
X131117428Y-83475142D01*
X131117428Y-83141809D01*
X130926952Y-83141809D01*
X131546000Y-83570380D02*
X131546000Y-82570380D01*
X131926952Y-82570380D01*
X132022190Y-82618000D01*
X132069809Y-82665619D01*
X132117428Y-82760857D01*
X132117428Y-82903714D01*
X132069809Y-82998952D01*
X132022190Y-83046571D01*
X131926952Y-83094190D01*
X131546000Y-83094190D01*
X132546000Y-83570380D02*
X132546000Y-82570380D01*
X133212666Y-82570380D02*
X133403142Y-82570380D01*
X133498380Y-82618000D01*
X133593619Y-82713238D01*
X133641238Y-82903714D01*
X133641238Y-83237047D01*
X133593619Y-83427523D01*
X133498380Y-83522761D01*
X133403142Y-83570380D01*
X133212666Y-83570380D01*
X133117428Y-83522761D01*
X133022190Y-83427523D01*
X132974571Y-83237047D01*
X132974571Y-82903714D01*
X133022190Y-82713238D01*
X133117428Y-82618000D01*
X133212666Y-82570380D01*
X134498380Y-82903714D02*
X134498380Y-83570380D01*
X134260285Y-82522761D02*
X134022190Y-83237047D01*
X134641238Y-83237047D01*
X131069809Y-80018000D02*
X130974571Y-79970380D01*
X130831714Y-79970380D01*
X130688857Y-80018000D01*
X130593619Y-80113238D01*
X130546000Y-80208476D01*
X130498380Y-80398952D01*
X130498380Y-80541809D01*
X130546000Y-80732285D01*
X130593619Y-80827523D01*
X130688857Y-80922761D01*
X130831714Y-80970380D01*
X130926952Y-80970380D01*
X131069809Y-80922761D01*
X131117428Y-80875142D01*
X131117428Y-80541809D01*
X130926952Y-80541809D01*
X131546000Y-80970380D02*
X131546000Y-79970380D01*
X131926952Y-79970380D01*
X132022190Y-80018000D01*
X132069809Y-80065619D01*
X132117428Y-80160857D01*
X132117428Y-80303714D01*
X132069809Y-80398952D01*
X132022190Y-80446571D01*
X131926952Y-80494190D01*
X131546000Y-80494190D01*
X132546000Y-80970380D02*
X132546000Y-79970380D01*
X133212666Y-79970380D02*
X133403142Y-79970380D01*
X133498380Y-80018000D01*
X133593619Y-80113238D01*
X133641238Y-80303714D01*
X133641238Y-80637047D01*
X133593619Y-80827523D01*
X133498380Y-80922761D01*
X133403142Y-80970380D01*
X133212666Y-80970380D01*
X133117428Y-80922761D01*
X133022190Y-80827523D01*
X132974571Y-80637047D01*
X132974571Y-80303714D01*
X133022190Y-80113238D01*
X133117428Y-80018000D01*
X133212666Y-79970380D01*
X134546000Y-79970380D02*
X134069809Y-79970380D01*
X134022190Y-80446571D01*
X134069809Y-80398952D01*
X134165047Y-80351333D01*
X134403142Y-80351333D01*
X134498380Y-80398952D01*
X134546000Y-80446571D01*
X134593619Y-80541809D01*
X134593619Y-80779904D01*
X134546000Y-80875142D01*
X134498380Y-80922761D01*
X134403142Y-80970380D01*
X134165047Y-80970380D01*
X134069809Y-80922761D01*
X134022190Y-80875142D01*
X131093619Y-77718000D02*
X130998380Y-77670380D01*
X130855523Y-77670380D01*
X130712666Y-77718000D01*
X130617428Y-77813238D01*
X130569809Y-77908476D01*
X130522190Y-78098952D01*
X130522190Y-78241809D01*
X130569809Y-78432285D01*
X130617428Y-78527523D01*
X130712666Y-78622761D01*
X130855523Y-78670380D01*
X130950761Y-78670380D01*
X131093619Y-78622761D01*
X131141238Y-78575142D01*
X131141238Y-78241809D01*
X130950761Y-78241809D01*
X131569809Y-78670380D02*
X131569809Y-77670380D01*
X131950761Y-77670380D01*
X132046000Y-77718000D01*
X132093619Y-77765619D01*
X132141238Y-77860857D01*
X132141238Y-78003714D01*
X132093619Y-78098952D01*
X132046000Y-78146571D01*
X131950761Y-78194190D01*
X131569809Y-78194190D01*
X132569809Y-78670380D02*
X132569809Y-77670380D01*
X133236476Y-77670380D02*
X133426952Y-77670380D01*
X133522190Y-77718000D01*
X133617428Y-77813238D01*
X133665047Y-78003714D01*
X133665047Y-78337047D01*
X133617428Y-78527523D01*
X133522190Y-78622761D01*
X133426952Y-78670380D01*
X133236476Y-78670380D01*
X133141238Y-78622761D01*
X133046000Y-78527523D01*
X132998380Y-78337047D01*
X132998380Y-78003714D01*
X133046000Y-77813238D01*
X133141238Y-77718000D01*
X133236476Y-77670380D01*
X134617428Y-78670380D02*
X134046000Y-78670380D01*
X134331714Y-78670380D02*
X134331714Y-77670380D01*
X134236476Y-77813238D01*
X134141238Y-77908476D01*
X134046000Y-77956095D01*
X135474571Y-77670380D02*
X135284095Y-77670380D01*
X135188857Y-77718000D01*
X135141238Y-77765619D01*
X135046000Y-77908476D01*
X134998380Y-78098952D01*
X134998380Y-78479904D01*
X135046000Y-78575142D01*
X135093619Y-78622761D01*
X135188857Y-78670380D01*
X135379333Y-78670380D01*
X135474571Y-78622761D01*
X135522190Y-78575142D01*
X135569809Y-78479904D01*
X135569809Y-78241809D01*
X135522190Y-78146571D01*
X135474571Y-78098952D01*
X135379333Y-78051333D01*
X135188857Y-78051333D01*
X135093619Y-78098952D01*
X135046000Y-78146571D01*
X134998380Y-78241809D01*
X95400761Y-113070380D02*
X95734095Y-114070380D01*
X96067428Y-113070380D01*
X96400761Y-114070380D02*
X96400761Y-113070380D01*
X96876952Y-114070380D02*
X96876952Y-113070380D01*
X97448380Y-114070380D01*
X97448380Y-113070380D01*
X95484095Y-110468000D02*
X95388857Y-110420380D01*
X95246000Y-110420380D01*
X95103142Y-110468000D01*
X95007904Y-110563238D01*
X94960285Y-110658476D01*
X94912666Y-110848952D01*
X94912666Y-110991809D01*
X94960285Y-111182285D01*
X95007904Y-111277523D01*
X95103142Y-111372761D01*
X95246000Y-111420380D01*
X95341238Y-111420380D01*
X95484095Y-111372761D01*
X95531714Y-111325142D01*
X95531714Y-110991809D01*
X95341238Y-110991809D01*
X95960285Y-111420380D02*
X95960285Y-110420380D01*
X96531714Y-111420380D01*
X96531714Y-110420380D01*
X97007904Y-111420380D02*
X97007904Y-110420380D01*
X97246000Y-110420380D01*
X97388857Y-110468000D01*
X97484095Y-110563238D01*
X97531714Y-110658476D01*
X97579333Y-110848952D01*
X97579333Y-110991809D01*
X97531714Y-111182285D01*
X97484095Y-111277523D01*
X97388857Y-111372761D01*
X97246000Y-111420380D01*
X97007904Y-111420380D01*
X95798380Y-109070380D02*
X95465047Y-108594190D01*
X95226952Y-109070380D02*
X95226952Y-108070380D01*
X95607904Y-108070380D01*
X95703142Y-108118000D01*
X95750761Y-108165619D01*
X95798380Y-108260857D01*
X95798380Y-108403714D01*
X95750761Y-108498952D01*
X95703142Y-108546571D01*
X95607904Y-108594190D01*
X95226952Y-108594190D01*
X96179333Y-109022761D02*
X96322190Y-109070380D01*
X96560285Y-109070380D01*
X96655523Y-109022761D01*
X96703142Y-108975142D01*
X96750761Y-108879904D01*
X96750761Y-108784666D01*
X96703142Y-108689428D01*
X96655523Y-108641809D01*
X96560285Y-108594190D01*
X96369809Y-108546571D01*
X96274571Y-108498952D01*
X96226952Y-108451333D01*
X96179333Y-108356095D01*
X96179333Y-108260857D01*
X96226952Y-108165619D01*
X96274571Y-108118000D01*
X96369809Y-108070380D01*
X96607904Y-108070380D01*
X96750761Y-108118000D01*
X97036476Y-108070380D02*
X97607904Y-108070380D01*
X97322190Y-109070380D02*
X97322190Y-108070380D01*
X96007904Y-105796571D02*
X96341238Y-105796571D01*
X96484095Y-106320380D02*
X96007904Y-106320380D01*
X96007904Y-105320380D01*
X96484095Y-105320380D01*
X96912666Y-106320380D02*
X96912666Y-105320380D01*
X97484095Y-106320380D01*
X97484095Y-105320380D01*
X94619809Y-102870380D02*
X95238857Y-102870380D01*
X94905523Y-103251333D01*
X95048380Y-103251333D01*
X95143619Y-103298952D01*
X95191238Y-103346571D01*
X95238857Y-103441809D01*
X95238857Y-103679904D01*
X95191238Y-103775142D01*
X95143619Y-103822761D01*
X95048380Y-103870380D01*
X94762666Y-103870380D01*
X94667428Y-103822761D01*
X94619809Y-103775142D01*
X95667428Y-103775142D02*
X95715047Y-103822761D01*
X95667428Y-103870380D01*
X95619809Y-103822761D01*
X95667428Y-103775142D01*
X95667428Y-103870380D01*
X96048380Y-102870380D02*
X96667428Y-102870380D01*
X96334095Y-103251333D01*
X96476952Y-103251333D01*
X96572190Y-103298952D01*
X96619809Y-103346571D01*
X96667428Y-103441809D01*
X96667428Y-103679904D01*
X96619809Y-103775142D01*
X96572190Y-103822761D01*
X96476952Y-103870380D01*
X96191238Y-103870380D01*
X96096000Y-103822761D01*
X96048380Y-103775142D01*
X96953142Y-102870380D02*
X97286476Y-103870380D01*
X97619809Y-102870380D01*
X95484095Y-100418000D02*
X95388857Y-100370380D01*
X95246000Y-100370380D01*
X95103142Y-100418000D01*
X95007904Y-100513238D01*
X94960285Y-100608476D01*
X94912666Y-100798952D01*
X94912666Y-100941809D01*
X94960285Y-101132285D01*
X95007904Y-101227523D01*
X95103142Y-101322761D01*
X95246000Y-101370380D01*
X95341238Y-101370380D01*
X95484095Y-101322761D01*
X95531714Y-101275142D01*
X95531714Y-100941809D01*
X95341238Y-100941809D01*
X95960285Y-101370380D02*
X95960285Y-100370380D01*
X96531714Y-101370380D01*
X96531714Y-100370380D01*
X97007904Y-101370380D02*
X97007904Y-100370380D01*
X97246000Y-100370380D01*
X97388857Y-100418000D01*
X97484095Y-100513238D01*
X97531714Y-100608476D01*
X97579333Y-100798952D01*
X97579333Y-100941809D01*
X97531714Y-101132285D01*
X97484095Y-101227523D01*
X97388857Y-101322761D01*
X97246000Y-101370380D01*
X97007904Y-101370380D01*
X94155523Y-98772761D02*
X94298380Y-98820380D01*
X94536476Y-98820380D01*
X94631714Y-98772761D01*
X94679333Y-98725142D01*
X94726952Y-98629904D01*
X94726952Y-98534666D01*
X94679333Y-98439428D01*
X94631714Y-98391809D01*
X94536476Y-98344190D01*
X94346000Y-98296571D01*
X94250761Y-98248952D01*
X94203142Y-98201333D01*
X94155523Y-98106095D01*
X94155523Y-98010857D01*
X94203142Y-97915619D01*
X94250761Y-97868000D01*
X94346000Y-97820380D01*
X94584095Y-97820380D01*
X94726952Y-97868000D01*
X95726952Y-98725142D02*
X95679333Y-98772761D01*
X95536476Y-98820380D01*
X95441238Y-98820380D01*
X95298380Y-98772761D01*
X95203142Y-98677523D01*
X95155523Y-98582285D01*
X95107904Y-98391809D01*
X95107904Y-98248952D01*
X95155523Y-98058476D01*
X95203142Y-97963238D01*
X95298380Y-97868000D01*
X95441238Y-97820380D01*
X95536476Y-97820380D01*
X95679333Y-97868000D01*
X95726952Y-97915619D01*
X96631714Y-98820380D02*
X96155523Y-98820380D01*
X96155523Y-97820380D01*
X96965047Y-98820380D02*
X96965047Y-97820380D01*
X97536476Y-98820380D02*
X97107904Y-98248952D01*
X97536476Y-97820380D02*
X96965047Y-98391809D01*
X94374571Y-96270380D02*
X94374571Y-95270380D01*
X94707904Y-95984666D01*
X95041238Y-95270380D01*
X95041238Y-96270380D01*
X95517428Y-96270380D02*
X95517428Y-95270380D01*
X95946000Y-96222761D02*
X96088857Y-96270380D01*
X96326952Y-96270380D01*
X96422190Y-96222761D01*
X96469809Y-96175142D01*
X96517428Y-96079904D01*
X96517428Y-95984666D01*
X96469809Y-95889428D01*
X96422190Y-95841809D01*
X96326952Y-95794190D01*
X96136476Y-95746571D01*
X96041238Y-95698952D01*
X95993619Y-95651333D01*
X95946000Y-95556095D01*
X95946000Y-95460857D01*
X95993619Y-95365619D01*
X96041238Y-95318000D01*
X96136476Y-95270380D01*
X96374571Y-95270380D01*
X96517428Y-95318000D01*
X97136476Y-95270380D02*
X97326952Y-95270380D01*
X97422190Y-95318000D01*
X97517428Y-95413238D01*
X97565047Y-95603714D01*
X97565047Y-95937047D01*
X97517428Y-96127523D01*
X97422190Y-96222761D01*
X97326952Y-96270380D01*
X97136476Y-96270380D01*
X97041238Y-96222761D01*
X96946000Y-96127523D01*
X96898380Y-95937047D01*
X96898380Y-95603714D01*
X96946000Y-95413238D01*
X97041238Y-95318000D01*
X97136476Y-95270380D01*
X96579333Y-93625142D02*
X96531714Y-93672761D01*
X96388857Y-93720380D01*
X96293619Y-93720380D01*
X96150761Y-93672761D01*
X96055523Y-93577523D01*
X96007904Y-93482285D01*
X95960285Y-93291809D01*
X95960285Y-93148952D01*
X96007904Y-92958476D01*
X96055523Y-92863238D01*
X96150761Y-92768000D01*
X96293619Y-92720380D01*
X96388857Y-92720380D01*
X96531714Y-92768000D01*
X96579333Y-92815619D01*
X96960285Y-93672761D02*
X97103142Y-93720380D01*
X97341238Y-93720380D01*
X97436476Y-93672761D01*
X97484095Y-93625142D01*
X97531714Y-93529904D01*
X97531714Y-93434666D01*
X97484095Y-93339428D01*
X97436476Y-93291809D01*
X97341238Y-93244190D01*
X97150761Y-93196571D01*
X97055523Y-93148952D01*
X97007904Y-93101333D01*
X96960285Y-93006095D01*
X96960285Y-92910857D01*
X97007904Y-92815619D01*
X97055523Y-92768000D01*
X97150761Y-92720380D01*
X97388857Y-92720380D01*
X97531714Y-92768000D01*
X94374571Y-91170380D02*
X94374571Y-90170380D01*
X94707904Y-90884666D01*
X95041238Y-90170380D01*
X95041238Y-91170380D01*
X95707904Y-90170380D02*
X95898380Y-90170380D01*
X95993619Y-90218000D01*
X96088857Y-90313238D01*
X96136476Y-90503714D01*
X96136476Y-90837047D01*
X96088857Y-91027523D01*
X95993619Y-91122761D01*
X95898380Y-91170380D01*
X95707904Y-91170380D01*
X95612666Y-91122761D01*
X95517428Y-91027523D01*
X95469809Y-90837047D01*
X95469809Y-90503714D01*
X95517428Y-90313238D01*
X95612666Y-90218000D01*
X95707904Y-90170380D01*
X96517428Y-91122761D02*
X96660285Y-91170380D01*
X96898380Y-91170380D01*
X96993619Y-91122761D01*
X97041238Y-91075142D01*
X97088857Y-90979904D01*
X97088857Y-90884666D01*
X97041238Y-90789428D01*
X96993619Y-90741809D01*
X96898380Y-90694190D01*
X96707904Y-90646571D01*
X96612666Y-90598952D01*
X96565047Y-90551333D01*
X96517428Y-90456095D01*
X96517428Y-90360857D01*
X96565047Y-90265619D01*
X96612666Y-90218000D01*
X96707904Y-90170380D01*
X96946000Y-90170380D01*
X97088857Y-90218000D01*
X97517428Y-91170380D02*
X97517428Y-90170380D01*
X94119809Y-87668000D02*
X94024571Y-87620380D01*
X93881714Y-87620380D01*
X93738857Y-87668000D01*
X93643619Y-87763238D01*
X93596000Y-87858476D01*
X93548380Y-88048952D01*
X93548380Y-88191809D01*
X93596000Y-88382285D01*
X93643619Y-88477523D01*
X93738857Y-88572761D01*
X93881714Y-88620380D01*
X93976952Y-88620380D01*
X94119809Y-88572761D01*
X94167428Y-88525142D01*
X94167428Y-88191809D01*
X93976952Y-88191809D01*
X94596000Y-88620380D02*
X94596000Y-87620380D01*
X94976952Y-87620380D01*
X95072190Y-87668000D01*
X95119809Y-87715619D01*
X95167428Y-87810857D01*
X95167428Y-87953714D01*
X95119809Y-88048952D01*
X95072190Y-88096571D01*
X94976952Y-88144190D01*
X94596000Y-88144190D01*
X95596000Y-88620380D02*
X95596000Y-87620380D01*
X96262666Y-87620380D02*
X96453142Y-87620380D01*
X96548380Y-87668000D01*
X96643619Y-87763238D01*
X96691238Y-87953714D01*
X96691238Y-88287047D01*
X96643619Y-88477523D01*
X96548380Y-88572761D01*
X96453142Y-88620380D01*
X96262666Y-88620380D01*
X96167428Y-88572761D01*
X96072190Y-88477523D01*
X96024571Y-88287047D01*
X96024571Y-87953714D01*
X96072190Y-87763238D01*
X96167428Y-87668000D01*
X96262666Y-87620380D01*
X97167428Y-88620380D02*
X97357904Y-88620380D01*
X97453142Y-88572761D01*
X97500761Y-88525142D01*
X97596000Y-88382285D01*
X97643619Y-88191809D01*
X97643619Y-87810857D01*
X97596000Y-87715619D01*
X97548380Y-87668000D01*
X97453142Y-87620380D01*
X97262666Y-87620380D01*
X97167428Y-87668000D01*
X97119809Y-87715619D01*
X97072190Y-87810857D01*
X97072190Y-88048952D01*
X97119809Y-88144190D01*
X97167428Y-88191809D01*
X97262666Y-88239428D01*
X97453142Y-88239428D01*
X97548380Y-88191809D01*
X97596000Y-88144190D01*
X97643619Y-88048952D01*
X93193619Y-85118000D02*
X93098380Y-85070380D01*
X92955523Y-85070380D01*
X92812666Y-85118000D01*
X92717428Y-85213238D01*
X92669809Y-85308476D01*
X92622190Y-85498952D01*
X92622190Y-85641809D01*
X92669809Y-85832285D01*
X92717428Y-85927523D01*
X92812666Y-86022761D01*
X92955523Y-86070380D01*
X93050761Y-86070380D01*
X93193619Y-86022761D01*
X93241238Y-85975142D01*
X93241238Y-85641809D01*
X93050761Y-85641809D01*
X93669809Y-86070380D02*
X93669809Y-85070380D01*
X94050761Y-85070380D01*
X94146000Y-85118000D01*
X94193619Y-85165619D01*
X94241238Y-85260857D01*
X94241238Y-85403714D01*
X94193619Y-85498952D01*
X94146000Y-85546571D01*
X94050761Y-85594190D01*
X93669809Y-85594190D01*
X94669809Y-86070380D02*
X94669809Y-85070380D01*
X95336476Y-85070380D02*
X95526952Y-85070380D01*
X95622190Y-85118000D01*
X95717428Y-85213238D01*
X95765047Y-85403714D01*
X95765047Y-85737047D01*
X95717428Y-85927523D01*
X95622190Y-86022761D01*
X95526952Y-86070380D01*
X95336476Y-86070380D01*
X95241238Y-86022761D01*
X95146000Y-85927523D01*
X95098380Y-85737047D01*
X95098380Y-85403714D01*
X95146000Y-85213238D01*
X95241238Y-85118000D01*
X95336476Y-85070380D01*
X96717428Y-86070380D02*
X96146000Y-86070380D01*
X96431714Y-86070380D02*
X96431714Y-85070380D01*
X96336476Y-85213238D01*
X96241238Y-85308476D01*
X96146000Y-85356095D01*
X97336476Y-85070380D02*
X97431714Y-85070380D01*
X97526952Y-85118000D01*
X97574571Y-85165619D01*
X97622190Y-85260857D01*
X97669809Y-85451333D01*
X97669809Y-85689428D01*
X97622190Y-85879904D01*
X97574571Y-85975142D01*
X97526952Y-86022761D01*
X97431714Y-86070380D01*
X97336476Y-86070380D01*
X97241238Y-86022761D01*
X97193619Y-85975142D01*
X97146000Y-85879904D01*
X97098380Y-85689428D01*
X97098380Y-85451333D01*
X97146000Y-85260857D01*
X97193619Y-85165619D01*
X97241238Y-85118000D01*
X97336476Y-85070380D01*
X96084095Y-82620380D02*
X96417428Y-83620380D01*
X96750761Y-82620380D01*
X96941238Y-82620380D02*
X97274571Y-83620380D01*
X97607904Y-82620380D01*
X95484095Y-80118000D02*
X95388857Y-80070380D01*
X95246000Y-80070380D01*
X95103142Y-80118000D01*
X95007904Y-80213238D01*
X94960285Y-80308476D01*
X94912666Y-80498952D01*
X94912666Y-80641809D01*
X94960285Y-80832285D01*
X95007904Y-80927523D01*
X95103142Y-81022761D01*
X95246000Y-81070380D01*
X95341238Y-81070380D01*
X95484095Y-81022761D01*
X95531714Y-80975142D01*
X95531714Y-80641809D01*
X95341238Y-80641809D01*
X95960285Y-81070380D02*
X95960285Y-80070380D01*
X96531714Y-81070380D01*
X96531714Y-80070380D01*
X97007904Y-81070380D02*
X97007904Y-80070380D01*
X97246000Y-80070380D01*
X97388857Y-80118000D01*
X97484095Y-80213238D01*
X97531714Y-80308476D01*
X97579333Y-80498952D01*
X97579333Y-80641809D01*
X97531714Y-80832285D01*
X97484095Y-80927523D01*
X97388857Y-81022761D01*
X97246000Y-81070380D01*
X97007904Y-81070380D01*
X94281714Y-78234666D02*
X94757904Y-78234666D01*
X94186476Y-78520380D02*
X94519809Y-77520380D01*
X94853142Y-78520380D01*
X95186476Y-78520380D02*
X95186476Y-77520380D01*
X95424571Y-77520380D01*
X95567428Y-77568000D01*
X95662666Y-77663238D01*
X95710285Y-77758476D01*
X95757904Y-77948952D01*
X95757904Y-78091809D01*
X95710285Y-78282285D01*
X95662666Y-78377523D01*
X95567428Y-78472761D01*
X95424571Y-78520380D01*
X95186476Y-78520380D01*
X96757904Y-78425142D02*
X96710285Y-78472761D01*
X96567428Y-78520380D01*
X96472190Y-78520380D01*
X96329333Y-78472761D01*
X96234095Y-78377523D01*
X96186476Y-78282285D01*
X96138857Y-78091809D01*
X96138857Y-77948952D01*
X96186476Y-77758476D01*
X96234095Y-77663238D01*
X96329333Y-77568000D01*
X96472190Y-77520380D01*
X96567428Y-77520380D01*
X96710285Y-77568000D01*
X96757904Y-77615619D01*
X97376952Y-77520380D02*
X97472190Y-77520380D01*
X97567428Y-77568000D01*
X97615047Y-77615619D01*
X97662666Y-77710857D01*
X97710285Y-77901333D01*
X97710285Y-78139428D01*
X97662666Y-78329904D01*
X97615047Y-78425142D01*
X97567428Y-78472761D01*
X97472190Y-78520380D01*
X97376952Y-78520380D01*
X97281714Y-78472761D01*
X97234095Y-78425142D01*
X97186476Y-78329904D01*
X97138857Y-78139428D01*
X97138857Y-77901333D01*
X97186476Y-77710857D01*
X97234095Y-77615619D01*
X97281714Y-77568000D01*
X97376952Y-77520380D01*
X148018095Y-68430380D02*
X148018095Y-69239904D01*
X148065714Y-69335142D01*
X148113333Y-69382761D01*
X148208571Y-69430380D01*
X148399047Y-69430380D01*
X148494285Y-69382761D01*
X148541904Y-69335142D01*
X148589523Y-69239904D01*
X148589523Y-68430380D01*
X149018095Y-68525619D02*
X149065714Y-68478000D01*
X149160952Y-68430380D01*
X149399047Y-68430380D01*
X149494285Y-68478000D01*
X149541904Y-68525619D01*
X149589523Y-68620857D01*
X149589523Y-68716095D01*
X149541904Y-68858952D01*
X148970476Y-69430380D01*
X149589523Y-69430380D01*
D10*
X147280000Y-98551904D02*
X147232380Y-98647142D01*
X147232380Y-98790000D01*
X147280000Y-98932857D01*
X147375238Y-99028095D01*
X147470476Y-99075714D01*
X147660952Y-99123333D01*
X147803809Y-99123333D01*
X147994285Y-99075714D01*
X148089523Y-99028095D01*
X148184761Y-98932857D01*
X148232380Y-98790000D01*
X148232380Y-98694761D01*
X148184761Y-98551904D01*
X148137142Y-98504285D01*
X147803809Y-98504285D01*
X147803809Y-98694761D01*
X148232380Y-98075714D02*
X147232380Y-98075714D01*
X148232380Y-97504285D01*
X147232380Y-97504285D01*
X148232380Y-97028095D02*
X147232380Y-97028095D01*
X147232380Y-96790000D01*
X147280000Y-96647142D01*
X147375238Y-96551904D01*
X147470476Y-96504285D01*
X147660952Y-96456666D01*
X147803809Y-96456666D01*
X147994285Y-96504285D01*
X148089523Y-96551904D01*
X148184761Y-96647142D01*
X148232380Y-96790000D01*
X148232380Y-97028095D01*
X145232380Y-99544000D02*
X144232380Y-99544000D01*
X144232380Y-99305904D01*
X144280000Y-99163047D01*
X144375238Y-99067809D01*
X144470476Y-99020190D01*
X144660952Y-98972571D01*
X144803809Y-98972571D01*
X144994285Y-99020190D01*
X145089523Y-99067809D01*
X145184761Y-99163047D01*
X145232380Y-99305904D01*
X145232380Y-99544000D01*
X144946666Y-98591619D02*
X144946666Y-98115428D01*
X145232380Y-98686857D02*
X144232380Y-98353523D01*
X145232380Y-98020190D01*
X144232380Y-97829714D02*
X144232380Y-97258285D01*
X145232380Y-97544000D02*
X144232380Y-97544000D01*
X144946666Y-96972571D02*
X144946666Y-96496380D01*
X145232380Y-97067809D02*
X144232380Y-96734476D01*
X145232380Y-96401142D01*
X141692380Y-99377333D02*
X142692380Y-99044000D01*
X141692380Y-98710666D01*
X142597142Y-97805904D02*
X142644761Y-97853523D01*
X142692380Y-97996380D01*
X142692380Y-98091619D01*
X142644761Y-98234476D01*
X142549523Y-98329714D01*
X142454285Y-98377333D01*
X142263809Y-98424952D01*
X142120952Y-98424952D01*
X141930476Y-98377333D01*
X141835238Y-98329714D01*
X141740000Y-98234476D01*
X141692380Y-98091619D01*
X141692380Y-97996380D01*
X141740000Y-97853523D01*
X141787619Y-97805904D01*
X142597142Y-96805904D02*
X142644761Y-96853523D01*
X142692380Y-96996380D01*
X142692380Y-97091619D01*
X142644761Y-97234476D01*
X142549523Y-97329714D01*
X142454285Y-97377333D01*
X142263809Y-97424952D01*
X142120952Y-97424952D01*
X141930476Y-97377333D01*
X141835238Y-97329714D01*
X141740000Y-97234476D01*
X141692380Y-97091619D01*
X141692380Y-96996380D01*
X141740000Y-96853523D01*
X141787619Y-96805904D01*
D11*
X143168952Y-67508380D02*
X143168952Y-66508380D01*
X143407047Y-66508380D01*
X143549904Y-66556000D01*
X143645142Y-66651238D01*
X143692761Y-66746476D01*
X143740380Y-66936952D01*
X143740380Y-67079809D01*
X143692761Y-67270285D01*
X143645142Y-67365523D01*
X143549904Y-67460761D01*
X143407047Y-67508380D01*
X143168952Y-67508380D01*
X144168952Y-67508380D02*
X144168952Y-66508380D01*
X144168952Y-66984571D02*
X144740380Y-66984571D01*
X144740380Y-67508380D02*
X144740380Y-66508380D01*
X145073714Y-66508380D02*
X145645142Y-66508380D01*
X145359428Y-67508380D02*
X145359428Y-66508380D01*
X145930857Y-66603619D02*
X145978476Y-66556000D01*
X146073714Y-66508380D01*
X146311809Y-66508380D01*
X146407047Y-66556000D01*
X146454666Y-66603619D01*
X146502285Y-66698857D01*
X146502285Y-66794095D01*
X146454666Y-66936952D01*
X145883238Y-67508380D01*
X146502285Y-67508380D01*
X146883238Y-66603619D02*
X146930857Y-66556000D01*
X147026095Y-66508380D01*
X147264190Y-66508380D01*
X147359428Y-66556000D01*
X147407047Y-66603619D01*
X147454666Y-66698857D01*
X147454666Y-66794095D01*
X147407047Y-66936952D01*
X146835619Y-67508380D01*
X147454666Y-67508380D01*
X90170095Y-96504380D02*
X90170095Y-97313904D01*
X90217714Y-97409142D01*
X90265333Y-97456761D01*
X90360571Y-97504380D01*
X90551047Y-97504380D01*
X90646285Y-97456761D01*
X90693904Y-97409142D01*
X90741523Y-97313904D01*
X90741523Y-96504380D01*
X91122476Y-96504380D02*
X91741523Y-96504380D01*
X91408190Y-96885333D01*
X91551047Y-96885333D01*
X91646285Y-96932952D01*
X91693904Y-96980571D01*
X91741523Y-97075809D01*
X91741523Y-97313904D01*
X91693904Y-97409142D01*
X91646285Y-97456761D01*
X91551047Y-97504380D01*
X91265333Y-97504380D01*
X91170095Y-97456761D01*
X91122476Y-97409142D01*
X87336380Y-106108000D02*
X87336380Y-106584190D01*
X87812571Y-106631809D01*
X87764952Y-106584190D01*
X87717333Y-106488952D01*
X87717333Y-106250857D01*
X87764952Y-106155619D01*
X87812571Y-106108000D01*
X87907809Y-106060380D01*
X88145904Y-106060380D01*
X88241142Y-106108000D01*
X88288761Y-106155619D01*
X88336380Y-106250857D01*
X88336380Y-106488952D01*
X88288761Y-106584190D01*
X88241142Y-106631809D01*
X87336380Y-105774666D02*
X88336380Y-105441333D01*
X87336380Y-105108000D01*
X88431619Y-105012761D02*
X88431619Y-104250857D01*
X87336380Y-104155619D02*
X87336380Y-103584190D01*
X88336380Y-103869904D02*
X87336380Y-103869904D01*
X88288761Y-102869904D02*
X88336380Y-102965142D01*
X88336380Y-103155619D01*
X88288761Y-103250857D01*
X88193523Y-103298476D01*
X87812571Y-103298476D01*
X87717333Y-103250857D01*
X87669714Y-103155619D01*
X87669714Y-102965142D01*
X87717333Y-102869904D01*
X87812571Y-102822285D01*
X87907809Y-102822285D01*
X88003047Y-103298476D01*
X88288761Y-102441333D02*
X88336380Y-102346095D01*
X88336380Y-102155619D01*
X88288761Y-102060380D01*
X88193523Y-102012761D01*
X88145904Y-102012761D01*
X88050666Y-102060380D01*
X88003047Y-102155619D01*
X88003047Y-102298476D01*
X87955428Y-102393714D01*
X87860190Y-102441333D01*
X87812571Y-102441333D01*
X87717333Y-102393714D01*
X87669714Y-102298476D01*
X87669714Y-102155619D01*
X87717333Y-102060380D01*
X87669714Y-101727047D02*
X87669714Y-101346095D01*
X87336380Y-101584190D02*
X88193523Y-101584190D01*
X88288761Y-101536571D01*
X88336380Y-101441333D01*
X88336380Y-101346095D01*
X88336380Y-101012761D02*
X87336380Y-101012761D01*
X87336380Y-100631809D01*
X87384000Y-100536571D01*
X87431619Y-100488952D01*
X87526857Y-100441333D01*
X87669714Y-100441333D01*
X87764952Y-100488952D01*
X87812571Y-100536571D01*
X87860190Y-100631809D01*
X87860190Y-101012761D01*
X88336380Y-99869904D02*
X88288761Y-99965142D01*
X88241142Y-100012761D01*
X88145904Y-100060380D01*
X87860190Y-100060380D01*
X87764952Y-100012761D01*
X87717333Y-99965142D01*
X87669714Y-99869904D01*
X87669714Y-99727047D01*
X87717333Y-99631809D01*
X87764952Y-99584190D01*
X87860190Y-99536571D01*
X88145904Y-99536571D01*
X88241142Y-99584190D01*
X88288761Y-99631809D01*
X88336380Y-99727047D01*
X88336380Y-99869904D01*
X88336380Y-99108000D02*
X87669714Y-99108000D01*
X87336380Y-99108000D02*
X87384000Y-99155619D01*
X87431619Y-99108000D01*
X87384000Y-99060380D01*
X87336380Y-99108000D01*
X87431619Y-99108000D01*
X87669714Y-98631809D02*
X88336380Y-98631809D01*
X87764952Y-98631809D02*
X87717333Y-98584190D01*
X87669714Y-98488952D01*
X87669714Y-98346095D01*
X87717333Y-98250857D01*
X87812571Y-98203238D01*
X88336380Y-98203238D01*
X87669714Y-97869904D02*
X87669714Y-97488952D01*
X87336380Y-97727047D02*
X88193523Y-97727047D01*
X88288761Y-97679428D01*
X88336380Y-97584190D01*
X88336380Y-97488952D01*
X114578095Y-62952380D02*
X114578095Y-63761904D01*
X114625714Y-63857142D01*
X114673333Y-63904761D01*
X114768571Y-63952380D01*
X114959047Y-63952380D01*
X115054285Y-63904761D01*
X115101904Y-63857142D01*
X115149523Y-63761904D01*
X115149523Y-62952380D01*
X116054285Y-63285714D02*
X116054285Y-63952380D01*
X115816190Y-62904761D02*
X115578095Y-63619047D01*
X116197142Y-63619047D01*
X115856380Y-60158380D02*
X116475428Y-60158380D01*
X116142095Y-60539333D01*
X116284952Y-60539333D01*
X116380190Y-60586952D01*
X116427809Y-60634571D01*
X116475428Y-60729809D01*
X116475428Y-60967904D01*
X116427809Y-61063142D01*
X116380190Y-61110761D01*
X116284952Y-61158380D01*
X115999238Y-61158380D01*
X115904000Y-61110761D01*
X115856380Y-61063142D01*
X116761142Y-60158380D02*
X117094476Y-61158380D01*
X117427809Y-60158380D01*
X117665904Y-60158380D02*
X118284952Y-60158380D01*
X117951619Y-60539333D01*
X118094476Y-60539333D01*
X118189714Y-60586952D01*
X118237333Y-60634571D01*
X118284952Y-60729809D01*
X118284952Y-60967904D01*
X118237333Y-61063142D01*
X118189714Y-61110761D01*
X118094476Y-61158380D01*
X117808761Y-61158380D01*
X117713523Y-61110761D01*
X117665904Y-61063142D01*
X118475428Y-61253619D02*
X119237333Y-61253619D01*
X119332571Y-60158380D02*
X119904000Y-60158380D01*
X119618285Y-61158380D02*
X119618285Y-60158380D01*
X120618285Y-61110761D02*
X120523047Y-61158380D01*
X120332571Y-61158380D01*
X120237333Y-61110761D01*
X120189714Y-61015523D01*
X120189714Y-60634571D01*
X120237333Y-60539333D01*
X120332571Y-60491714D01*
X120523047Y-60491714D01*
X120618285Y-60539333D01*
X120665904Y-60634571D01*
X120665904Y-60729809D01*
X120189714Y-60825047D01*
X121046857Y-61110761D02*
X121142095Y-61158380D01*
X121332571Y-61158380D01*
X121427809Y-61110761D01*
X121475428Y-61015523D01*
X121475428Y-60967904D01*
X121427809Y-60872666D01*
X121332571Y-60825047D01*
X121189714Y-60825047D01*
X121094476Y-60777428D01*
X121046857Y-60682190D01*
X121046857Y-60634571D01*
X121094476Y-60539333D01*
X121189714Y-60491714D01*
X121332571Y-60491714D01*
X121427809Y-60539333D01*
X121761142Y-60491714D02*
X122142095Y-60491714D01*
X121904000Y-60158380D02*
X121904000Y-61015523D01*
X121951619Y-61110761D01*
X122046857Y-61158380D01*
X122142095Y-61158380D01*
X122475428Y-61158380D02*
X122475428Y-60158380D01*
X122856380Y-60158380D01*
X122951619Y-60206000D01*
X122999238Y-60253619D01*
X123046857Y-60348857D01*
X123046857Y-60491714D01*
X122999238Y-60586952D01*
X122951619Y-60634571D01*
X122856380Y-60682190D01*
X122475428Y-60682190D01*
X123618285Y-61158380D02*
X123523047Y-61110761D01*
X123475428Y-61063142D01*
X123427809Y-60967904D01*
X123427809Y-60682190D01*
X123475428Y-60586952D01*
X123523047Y-60539333D01*
X123618285Y-60491714D01*
X123761142Y-60491714D01*
X123856380Y-60539333D01*
X123904000Y-60586952D01*
X123951619Y-60682190D01*
X123951619Y-60967904D01*
X123904000Y-61063142D01*
X123856380Y-61110761D01*
X123761142Y-61158380D01*
X123618285Y-61158380D01*
X124380190Y-61158380D02*
X124380190Y-60491714D01*
X124380190Y-60158380D02*
X124332571Y-60206000D01*
X124380190Y-60253619D01*
X124427809Y-60206000D01*
X124380190Y-60158380D01*
X124380190Y-60253619D01*
X124856380Y-60491714D02*
X124856380Y-61158380D01*
X124856380Y-60586952D02*
X124904000Y-60539333D01*
X124999238Y-60491714D01*
X125142095Y-60491714D01*
X125237333Y-60539333D01*
X125284952Y-60634571D01*
X125284952Y-61158380D01*
X125618285Y-60491714D02*
X125999238Y-60491714D01*
X125761142Y-60158380D02*
X125761142Y-61015523D01*
X125808761Y-61110761D01*
X125904000Y-61158380D01*
X125999238Y-61158380D01*
M02*
