M48
; DRILL file {KiCad (5.1.2)-2} date 7/2/2019 12:50:50 PM
; FORMAT={-:-/ absolute / inch / decimal}
; #@! TF.CreationDate,2019-07-02T12:50:50+07:00
; #@! TF.GenerationSoftware,Kicad,Pcbnew,(5.1.2)-2
FMAT,2
INCH
T1C0.0315
T2C0.0394
T3C0.1260
%
G90
G05
T1
X3.62Y-2.42
X3.62Y-2.72
T2
X6.51Y-3.24
X6.51Y-3.34
X6.51Y-3.44
X6.51Y-3.54
X2.882Y-4.4538
X2.982Y-4.4538
X3.082Y-4.4538
X3.182Y-4.4538
X3.282Y-4.4538
X3.382Y-4.4538
X5.55Y-4.19
X5.55Y-4.29
X5.55Y-4.39
X3.34Y-2.48
X3.34Y-2.58
X3.34Y-2.68
X3.9338Y-2.8763
X3.9338Y-2.9763
X3.9338Y-3.0763
X3.9338Y-3.1763
X3.9338Y-3.2763
X3.9338Y-3.3763
X3.9338Y-3.4763
X3.9338Y-3.5763
X3.9338Y-3.6763
X3.9338Y-3.7763
X3.9338Y-3.8763
X3.9338Y-3.9763
X3.9338Y-4.0763
X3.9338Y-4.1763
X3.9338Y-4.2763
X5.0362Y-3.4763
X5.0385Y-2.8756
X5.0385Y-2.9756
X5.0385Y-3.0756
X5.0385Y-3.1756
X5.0385Y-3.2756
X5.0385Y-3.3756
X5.0385Y-3.5756
X5.0385Y-3.6756
X5.0385Y-3.7756
X5.0385Y-3.8756
X5.0385Y-3.9756
X5.0385Y-4.0756
X5.0385Y-4.1756
X5.0385Y-4.2756
X3.06Y-2.49
X3.06Y-2.59
X3.06Y-2.69
T3
X2.71Y-4.75
X6.55Y-2.35
X6.5Y-4.73
X2.68Y-2.34
T0
M30
