G04 #@! TF.GenerationSoftware,KiCad,Pcbnew,(5.1.2)-2*
G04 #@! TF.CreationDate,2019-07-02T12:48:51+07:00*
G04 #@! TF.ProjectId,weather,77656174-6865-4722-9e6b-696361645f70,rev?*
G04 #@! TF.SameCoordinates,Original*
G04 #@! TF.FileFunction,Legend,Bot*
G04 #@! TF.FilePolarity,Positive*
%FSLAX46Y46*%
G04 Gerber Fmt 4.6, Leading zero omitted, Abs format (unit mm)*
G04 Created by KiCad (PCBNEW (5.1.2)-2) date 2019-07-02 12:48:51*
%MOMM*%
%LPD*%
G04 APERTURE LIST*
%ADD10C,0.120000*%
%ADD11C,0.150000*%
G04 APERTURE END LIST*
D10*
X109272000Y-73401422D02*
X109272000Y-73918578D01*
X110692000Y-73401422D02*
X110692000Y-73918578D01*
X75687422Y-90984000D02*
X76204578Y-90984000D01*
X75687422Y-92404000D02*
X76204578Y-92404000D01*
X119178000Y-73401422D02*
X119178000Y-73918578D01*
X120598000Y-73401422D02*
X120598000Y-73918578D01*
D11*
X108784380Y-73493333D02*
X108308190Y-73160000D01*
X108784380Y-72921904D02*
X107784380Y-72921904D01*
X107784380Y-73302857D01*
X107832000Y-73398095D01*
X107879619Y-73445714D01*
X107974857Y-73493333D01*
X108117714Y-73493333D01*
X108212952Y-73445714D01*
X108260571Y-73398095D01*
X108308190Y-73302857D01*
X108308190Y-72921904D01*
X108784380Y-74445714D02*
X108784380Y-73874285D01*
X108784380Y-74160000D02*
X107784380Y-74160000D01*
X107927238Y-74064761D01*
X108022476Y-73969523D01*
X108070095Y-73874285D01*
X76112666Y-93796380D02*
X76446000Y-93320190D01*
X76684095Y-93796380D02*
X76684095Y-92796380D01*
X76303142Y-92796380D01*
X76207904Y-92844000D01*
X76160285Y-92891619D01*
X76112666Y-92986857D01*
X76112666Y-93129714D01*
X76160285Y-93224952D01*
X76207904Y-93272571D01*
X76303142Y-93320190D01*
X76684095Y-93320190D01*
X75779333Y-92796380D02*
X75160285Y-92796380D01*
X75493619Y-93177333D01*
X75350761Y-93177333D01*
X75255523Y-93224952D01*
X75207904Y-93272571D01*
X75160285Y-93367809D01*
X75160285Y-93605904D01*
X75207904Y-93701142D01*
X75255523Y-93748761D01*
X75350761Y-93796380D01*
X75636476Y-93796380D01*
X75731714Y-93748761D01*
X75779333Y-93701142D01*
X118690380Y-73493333D02*
X118214190Y-73160000D01*
X118690380Y-72921904D02*
X117690380Y-72921904D01*
X117690380Y-73302857D01*
X117738000Y-73398095D01*
X117785619Y-73445714D01*
X117880857Y-73493333D01*
X118023714Y-73493333D01*
X118118952Y-73445714D01*
X118166571Y-73398095D01*
X118214190Y-73302857D01*
X118214190Y-72921904D01*
X118023714Y-74350476D02*
X118690380Y-74350476D01*
X117642761Y-74112380D02*
X118357047Y-73874285D01*
X118357047Y-74493333D01*
M02*
