G04 #@! TF.GenerationSoftware,KiCad,Pcbnew,(5.1.2)-2*
G04 #@! TF.CreationDate,2019-07-02T12:48:51+07:00*
G04 #@! TF.ProjectId,weather,77656174-6865-4722-9e6b-696361645f70,rev?*
G04 #@! TF.SameCoordinates,Original*
G04 #@! TF.FileFunction,Legend,Top*
G04 #@! TF.FilePolarity,Positive*
%FSLAX46Y46*%
G04 Gerber Fmt 4.6, Leading zero omitted, Abs format (unit mm)*
G04 Created by KiCad (PCBNEW (5.1.2)-2) date 2019-07-02 12:48:51*
%MOMM*%
%LPD*%
G04 APERTURE LIST*
%ADD10C,0.400000*%
%ADD11C,0.500000*%
%ADD12C,0.150000*%
%ADD13C,0.120000*%
%ADD14C,0.100000*%
G04 APERTURE END LIST*
D10*
X133509523Y-66659142D02*
X134176190Y-66659142D01*
X134461904Y-67706761D02*
X133509523Y-67706761D01*
X133509523Y-65706761D01*
X134461904Y-65706761D01*
X135223809Y-67611523D02*
X135509523Y-67706761D01*
X135985714Y-67706761D01*
X136176190Y-67611523D01*
X136271428Y-67516285D01*
X136366666Y-67325809D01*
X136366666Y-67135333D01*
X136271428Y-66944857D01*
X136176190Y-66849619D01*
X135985714Y-66754380D01*
X135604761Y-66659142D01*
X135414285Y-66563904D01*
X135319047Y-66468666D01*
X135223809Y-66278190D01*
X135223809Y-66087714D01*
X135319047Y-65897238D01*
X135414285Y-65802000D01*
X135604761Y-65706761D01*
X136080952Y-65706761D01*
X136366666Y-65802000D01*
X137223809Y-67706761D02*
X137223809Y-65706761D01*
X137985714Y-65706761D01*
X138176190Y-65802000D01*
X138271428Y-65897238D01*
X138366666Y-66087714D01*
X138366666Y-66373428D01*
X138271428Y-66563904D01*
X138176190Y-66659142D01*
X137985714Y-66754380D01*
X137223809Y-66754380D01*
X139509523Y-66563904D02*
X139319047Y-66468666D01*
X139223809Y-66373428D01*
X139128571Y-66182952D01*
X139128571Y-66087714D01*
X139223809Y-65897238D01*
X139319047Y-65802000D01*
X139509523Y-65706761D01*
X139890476Y-65706761D01*
X140080952Y-65802000D01*
X140176190Y-65897238D01*
X140271428Y-66087714D01*
X140271428Y-66182952D01*
X140176190Y-66373428D01*
X140080952Y-66468666D01*
X139890476Y-66563904D01*
X139509523Y-66563904D01*
X139319047Y-66659142D01*
X139223809Y-66754380D01*
X139128571Y-66944857D01*
X139128571Y-67325809D01*
X139223809Y-67516285D01*
X139319047Y-67611523D01*
X139509523Y-67706761D01*
X139890476Y-67706761D01*
X140080952Y-67611523D01*
X140176190Y-67516285D01*
X140271428Y-67325809D01*
X140271428Y-66944857D01*
X140176190Y-66754380D01*
X140080952Y-66659142D01*
X139890476Y-66563904D01*
X141033333Y-65897238D02*
X141128571Y-65802000D01*
X141319047Y-65706761D01*
X141795238Y-65706761D01*
X141985714Y-65802000D01*
X142080952Y-65897238D01*
X142176190Y-66087714D01*
X142176190Y-66278190D01*
X142080952Y-66563904D01*
X140938095Y-67706761D01*
X142176190Y-67706761D01*
X143890476Y-65706761D02*
X143509523Y-65706761D01*
X143319047Y-65802000D01*
X143223809Y-65897238D01*
X143033333Y-66182952D01*
X142938095Y-66563904D01*
X142938095Y-67325809D01*
X143033333Y-67516285D01*
X143128571Y-67611523D01*
X143319047Y-67706761D01*
X143700000Y-67706761D01*
X143890476Y-67611523D01*
X143985714Y-67516285D01*
X144080952Y-67325809D01*
X144080952Y-66849619D01*
X143985714Y-66659142D01*
X143890476Y-66563904D01*
X143700000Y-66468666D01*
X143319047Y-66468666D01*
X143128571Y-66563904D01*
X143033333Y-66659142D01*
X142938095Y-66849619D01*
X145795238Y-65706761D02*
X145414285Y-65706761D01*
X145223809Y-65802000D01*
X145128571Y-65897238D01*
X144938095Y-66182952D01*
X144842857Y-66563904D01*
X144842857Y-67325809D01*
X144938095Y-67516285D01*
X145033333Y-67611523D01*
X145223809Y-67706761D01*
X145604761Y-67706761D01*
X145795238Y-67611523D01*
X145890476Y-67516285D01*
X145985714Y-67325809D01*
X145985714Y-66849619D01*
X145890476Y-66659142D01*
X145795238Y-66563904D01*
X145604761Y-66468666D01*
X145223809Y-66468666D01*
X145033333Y-66563904D01*
X144938095Y-66659142D01*
X144842857Y-66849619D01*
D11*
X133414952Y-61388761D02*
X133891142Y-63388761D01*
X134272095Y-61960190D01*
X134653047Y-63388761D01*
X135129238Y-61388761D01*
X136653047Y-63293523D02*
X136462571Y-63388761D01*
X136081619Y-63388761D01*
X135891142Y-63293523D01*
X135795904Y-63103047D01*
X135795904Y-62341142D01*
X135891142Y-62150666D01*
X136081619Y-62055428D01*
X136462571Y-62055428D01*
X136653047Y-62150666D01*
X136748285Y-62341142D01*
X136748285Y-62531619D01*
X135795904Y-62722095D01*
X138462571Y-63388761D02*
X138462571Y-62341142D01*
X138367333Y-62150666D01*
X138176857Y-62055428D01*
X137795904Y-62055428D01*
X137605428Y-62150666D01*
X138462571Y-63293523D02*
X138272095Y-63388761D01*
X137795904Y-63388761D01*
X137605428Y-63293523D01*
X137510190Y-63103047D01*
X137510190Y-62912571D01*
X137605428Y-62722095D01*
X137795904Y-62626857D01*
X138272095Y-62626857D01*
X138462571Y-62531619D01*
X139129238Y-62055428D02*
X139891142Y-62055428D01*
X139414952Y-61388761D02*
X139414952Y-63103047D01*
X139510190Y-63293523D01*
X139700666Y-63388761D01*
X139891142Y-63388761D01*
X140557809Y-63388761D02*
X140557809Y-61388761D01*
X141414952Y-63388761D02*
X141414952Y-62341142D01*
X141319714Y-62150666D01*
X141129238Y-62055428D01*
X140843523Y-62055428D01*
X140653047Y-62150666D01*
X140557809Y-62245904D01*
X143129238Y-63293523D02*
X142938761Y-63388761D01*
X142557809Y-63388761D01*
X142367333Y-63293523D01*
X142272095Y-63103047D01*
X142272095Y-62341142D01*
X142367333Y-62150666D01*
X142557809Y-62055428D01*
X142938761Y-62055428D01*
X143129238Y-62150666D01*
X143224476Y-62341142D01*
X143224476Y-62531619D01*
X142272095Y-62722095D01*
X144081619Y-63388761D02*
X144081619Y-62055428D01*
X144081619Y-62436380D02*
X144176857Y-62245904D01*
X144272095Y-62150666D01*
X144462571Y-62055428D01*
X144653047Y-62055428D01*
X146748285Y-63293523D02*
X147034000Y-63388761D01*
X147510190Y-63388761D01*
X147700666Y-63293523D01*
X147795904Y-63198285D01*
X147891142Y-63007809D01*
X147891142Y-62817333D01*
X147795904Y-62626857D01*
X147700666Y-62531619D01*
X147510190Y-62436380D01*
X147129238Y-62341142D01*
X146938761Y-62245904D01*
X146843523Y-62150666D01*
X146748285Y-61960190D01*
X146748285Y-61769714D01*
X146843523Y-61579238D01*
X146938761Y-61484000D01*
X147129238Y-61388761D01*
X147605428Y-61388761D01*
X147891142Y-61484000D01*
X148462571Y-62055428D02*
X149224476Y-62055428D01*
X148748285Y-61388761D02*
X148748285Y-63103047D01*
X148843523Y-63293523D01*
X149034000Y-63388761D01*
X149224476Y-63388761D01*
X150748285Y-63388761D02*
X150748285Y-62341142D01*
X150653047Y-62150666D01*
X150462571Y-62055428D01*
X150081619Y-62055428D01*
X149891142Y-62150666D01*
X150748285Y-63293523D02*
X150557809Y-63388761D01*
X150081619Y-63388761D01*
X149891142Y-63293523D01*
X149795904Y-63103047D01*
X149795904Y-62912571D01*
X149891142Y-62722095D01*
X150081619Y-62626857D01*
X150557809Y-62626857D01*
X150748285Y-62531619D01*
X151414952Y-62055428D02*
X152176857Y-62055428D01*
X151700666Y-61388761D02*
X151700666Y-63103047D01*
X151795904Y-63293523D01*
X151986380Y-63388761D01*
X152176857Y-63388761D01*
X152843523Y-63388761D02*
X152843523Y-62055428D01*
X152843523Y-61388761D02*
X152748285Y-61484000D01*
X152843523Y-61579238D01*
X152938761Y-61484000D01*
X152843523Y-61388761D01*
X152843523Y-61579238D01*
X154081619Y-63388761D02*
X153891142Y-63293523D01*
X153795904Y-63198285D01*
X153700666Y-63007809D01*
X153700666Y-62436380D01*
X153795904Y-62245904D01*
X153891142Y-62150666D01*
X154081619Y-62055428D01*
X154367333Y-62055428D01*
X154557809Y-62150666D01*
X154653047Y-62245904D01*
X154748285Y-62436380D01*
X154748285Y-63007809D01*
X154653047Y-63198285D01*
X154557809Y-63293523D01*
X154367333Y-63388761D01*
X154081619Y-63388761D01*
X155605428Y-62055428D02*
X155605428Y-63388761D01*
X155605428Y-62245904D02*
X155700666Y-62150666D01*
X155891142Y-62055428D01*
X156176857Y-62055428D01*
X156367333Y-62150666D01*
X156462571Y-62341142D01*
X156462571Y-63388761D01*
D12*
X142494000Y-72136000D02*
X142494000Y-100076000D01*
X161544000Y-72136000D02*
X161544000Y-100076000D01*
X166624000Y-72136000D02*
X138684000Y-72136000D01*
X138684000Y-100076000D02*
X138684000Y-72136000D01*
X166624000Y-100076000D02*
X138684000Y-100076000D01*
X166624000Y-72136000D02*
X166624000Y-100076000D01*
D13*
X165354000Y-91246000D02*
X164024000Y-91246000D01*
X164024000Y-91246000D02*
X164024000Y-89916000D01*
X164024000Y-88646000D02*
X164024000Y-80966000D01*
X166684000Y-80966000D02*
X164024000Y-80966000D01*
X166684000Y-88646000D02*
X166684000Y-80966000D01*
X166684000Y-88646000D02*
X164024000Y-88646000D01*
D12*
X67402000Y-74127048D02*
X67402000Y-116127048D01*
X91402000Y-74127048D02*
X67402000Y-74127048D01*
X91402000Y-116127048D02*
X91402000Y-74127048D01*
X67402000Y-116127048D02*
X91402000Y-116127048D01*
D13*
X87232000Y-113127048D02*
X87232000Y-111797048D01*
X87232000Y-111797048D02*
X85902000Y-111797048D01*
X84632000Y-111797048D02*
X71872000Y-111797048D01*
X71872000Y-114457048D02*
X71872000Y-111797048D01*
X84632000Y-114457048D02*
X71872000Y-114457048D01*
X84632000Y-114457048D02*
X84632000Y-111797048D01*
X93318000Y-62008000D02*
X92988000Y-62008000D01*
X93318000Y-68548000D02*
X93318000Y-62008000D01*
X92988000Y-68548000D02*
X93318000Y-68548000D01*
X90578000Y-62008000D02*
X90908000Y-62008000D01*
X90578000Y-68548000D02*
X90578000Y-62008000D01*
X90908000Y-68548000D02*
X90578000Y-68548000D01*
D12*
X129719001Y-120389001D02*
X98119001Y-120389001D01*
X129719001Y-110389001D02*
X129719001Y-120389001D01*
X98119001Y-110389001D02*
X98119001Y-120389001D01*
X129719001Y-61289001D02*
X129719001Y-71289001D01*
X98119001Y-61289001D02*
X129719001Y-61289001D01*
X98119001Y-71289001D02*
X98119001Y-61289001D01*
X103169001Y-71509001D02*
X103179001Y-70909001D01*
D13*
X129309001Y-74309001D02*
X129309001Y-109929001D01*
X126649001Y-74309001D02*
X129309001Y-74309001D01*
X126649001Y-74309001D02*
X126649001Y-109929001D01*
X126649001Y-109929001D02*
X129309001Y-109929001D01*
X127979001Y-71709001D02*
X129309001Y-71709001D01*
X129309001Y-71709001D02*
X129309001Y-73039001D01*
X99919001Y-71729001D02*
X101249001Y-71729001D01*
X101249001Y-71729001D02*
X101249001Y-73059001D01*
X101249001Y-74329001D02*
X101249001Y-109949001D01*
X98589001Y-109949001D02*
X101249001Y-109949001D01*
X98589001Y-74329001D02*
X98589001Y-109949001D01*
X98589001Y-74329001D02*
X101249001Y-74329001D01*
D12*
X166210000Y-102966000D02*
X138210000Y-102966000D01*
X166210000Y-115966000D02*
X166210000Y-102966000D01*
X138210000Y-115966000D02*
X166210000Y-115966000D01*
X138210000Y-115966000D02*
X138210000Y-102966000D01*
D13*
X140970000Y-105096000D02*
X142300000Y-105096000D01*
X142300000Y-105096000D02*
X142300000Y-106426000D01*
X142300000Y-107696000D02*
X142300000Y-112836000D01*
X139640000Y-112836000D02*
X142300000Y-112836000D01*
X139640000Y-107696000D02*
X139640000Y-112836000D01*
X139640000Y-107696000D02*
X142300000Y-107696000D01*
X77724000Y-69656000D02*
X76394000Y-69656000D01*
X76394000Y-69656000D02*
X76394000Y-68326000D01*
X76394000Y-67056000D02*
X76394000Y-61916000D01*
X79054000Y-61916000D02*
X76394000Y-61916000D01*
X79054000Y-67056000D02*
X79054000Y-61916000D01*
X79054000Y-67056000D02*
X76394000Y-67056000D01*
X83506000Y-64262000D02*
X86166000Y-64262000D01*
X83506000Y-64262000D02*
X83506000Y-69402000D01*
X83506000Y-69402000D02*
X86166000Y-69402000D01*
X86166000Y-64262000D02*
X86166000Y-69402000D01*
X86166000Y-61662000D02*
X86166000Y-62992000D01*
X84836000Y-61662000D02*
X86166000Y-61662000D01*
D12*
X72898095Y-121102380D02*
X72898095Y-120102380D01*
X72898095Y-120578571D02*
X73469523Y-120578571D01*
X73469523Y-121102380D02*
X73469523Y-120102380D01*
X74469523Y-121102380D02*
X73898095Y-121102380D01*
X74183809Y-121102380D02*
X74183809Y-120102380D01*
X74088571Y-120245238D01*
X73993333Y-120340476D01*
X73898095Y-120388095D01*
X159766095Y-120594380D02*
X159766095Y-119594380D01*
X159766095Y-120070571D02*
X160337523Y-120070571D01*
X160337523Y-120594380D02*
X160337523Y-119594380D01*
X160766095Y-119689619D02*
X160813714Y-119642000D01*
X160908952Y-119594380D01*
X161147047Y-119594380D01*
X161242285Y-119642000D01*
X161289904Y-119689619D01*
X161337523Y-119784857D01*
X161337523Y-119880095D01*
X161289904Y-120022952D01*
X160718476Y-120594380D01*
X161337523Y-120594380D01*
X71628095Y-59888380D02*
X71628095Y-58888380D01*
X71628095Y-59364571D02*
X72199523Y-59364571D01*
X72199523Y-59888380D02*
X72199523Y-58888380D01*
X72580476Y-58888380D02*
X73199523Y-58888380D01*
X72866190Y-59269333D01*
X73009047Y-59269333D01*
X73104285Y-59316952D01*
X73151904Y-59364571D01*
X73199523Y-59459809D01*
X73199523Y-59697904D01*
X73151904Y-59793142D01*
X73104285Y-59840761D01*
X73009047Y-59888380D01*
X72723333Y-59888380D01*
X72628095Y-59840761D01*
X72580476Y-59793142D01*
X161036095Y-60142380D02*
X161036095Y-59142380D01*
X161036095Y-59618571D02*
X161607523Y-59618571D01*
X161607523Y-60142380D02*
X161607523Y-59142380D01*
X162512285Y-59475714D02*
X162512285Y-60142380D01*
X162274190Y-59094761D02*
X162036095Y-59809047D01*
X162655142Y-59809047D01*
X141676380Y-98750285D02*
X140676380Y-98750285D01*
X140676380Y-98512190D01*
X140724000Y-98369333D01*
X140819238Y-98274095D01*
X140914476Y-98226476D01*
X141104952Y-98178857D01*
X141247809Y-98178857D01*
X141438285Y-98226476D01*
X141533523Y-98274095D01*
X141628761Y-98369333D01*
X141676380Y-98512190D01*
X141676380Y-98750285D01*
X141628761Y-97797904D02*
X141676380Y-97655047D01*
X141676380Y-97416952D01*
X141628761Y-97321714D01*
X141581142Y-97274095D01*
X141485904Y-97226476D01*
X141390666Y-97226476D01*
X141295428Y-97274095D01*
X141247809Y-97321714D01*
X141200190Y-97416952D01*
X141152571Y-97607428D01*
X141104952Y-97702666D01*
X141057333Y-97750285D01*
X140962095Y-97797904D01*
X140866857Y-97797904D01*
X140771619Y-97750285D01*
X140724000Y-97702666D01*
X140676380Y-97607428D01*
X140676380Y-97369333D01*
X140724000Y-97226476D01*
X141676380Y-96274095D02*
X141676380Y-96845523D01*
X141676380Y-96559809D02*
X140676380Y-96559809D01*
X140819238Y-96655047D01*
X140914476Y-96750285D01*
X140962095Y-96845523D01*
D14*
X168177333Y-90512000D02*
X168210666Y-90412000D01*
X168210666Y-90245333D01*
X168177333Y-90178666D01*
X168144000Y-90145333D01*
X168077333Y-90112000D01*
X168010666Y-90112000D01*
X167944000Y-90145333D01*
X167910666Y-90178666D01*
X167877333Y-90245333D01*
X167844000Y-90378666D01*
X167810666Y-90445333D01*
X167777333Y-90478666D01*
X167710666Y-90512000D01*
X167644000Y-90512000D01*
X167577333Y-90478666D01*
X167544000Y-90445333D01*
X167510666Y-90378666D01*
X167510666Y-90212000D01*
X167544000Y-90112000D01*
X168210666Y-89812000D02*
X167510666Y-89812000D01*
X167510666Y-89645333D01*
X167544000Y-89545333D01*
X167610666Y-89478666D01*
X167677333Y-89445333D01*
X167810666Y-89412000D01*
X167910666Y-89412000D01*
X168044000Y-89445333D01*
X168110666Y-89478666D01*
X168177333Y-89545333D01*
X168210666Y-89645333D01*
X168210666Y-89812000D01*
X168010666Y-89145333D02*
X168010666Y-88812000D01*
X168210666Y-89212000D02*
X167510666Y-88978666D01*
X168210666Y-88745333D01*
X168177333Y-87955333D02*
X168210666Y-87855333D01*
X168210666Y-87688666D01*
X168177333Y-87622000D01*
X168144000Y-87588666D01*
X168077333Y-87555333D01*
X168010666Y-87555333D01*
X167944000Y-87588666D01*
X167910666Y-87622000D01*
X167877333Y-87688666D01*
X167844000Y-87822000D01*
X167810666Y-87888666D01*
X167777333Y-87922000D01*
X167710666Y-87955333D01*
X167644000Y-87955333D01*
X167577333Y-87922000D01*
X167544000Y-87888666D01*
X167510666Y-87822000D01*
X167510666Y-87655333D01*
X167544000Y-87555333D01*
X168144000Y-86855333D02*
X168177333Y-86888666D01*
X168210666Y-86988666D01*
X168210666Y-87055333D01*
X168177333Y-87155333D01*
X168110666Y-87222000D01*
X168044000Y-87255333D01*
X167910666Y-87288666D01*
X167810666Y-87288666D01*
X167677333Y-87255333D01*
X167610666Y-87222000D01*
X167544000Y-87155333D01*
X167510666Y-87055333D01*
X167510666Y-86988666D01*
X167544000Y-86888666D01*
X167577333Y-86855333D01*
X168210666Y-86222000D02*
X168210666Y-86555333D01*
X167510666Y-86555333D01*
X167510666Y-85769333D02*
X168210666Y-85536000D01*
X167510666Y-85302666D01*
X168144000Y-84669333D02*
X168177333Y-84702666D01*
X168210666Y-84802666D01*
X168210666Y-84869333D01*
X168177333Y-84969333D01*
X168110666Y-85036000D01*
X168044000Y-85069333D01*
X167910666Y-85102666D01*
X167810666Y-85102666D01*
X167677333Y-85069333D01*
X167610666Y-85036000D01*
X167544000Y-84969333D01*
X167510666Y-84869333D01*
X167510666Y-84802666D01*
X167544000Y-84702666D01*
X167577333Y-84669333D01*
X168144000Y-83969333D02*
X168177333Y-84002666D01*
X168210666Y-84102666D01*
X168210666Y-84169333D01*
X168177333Y-84269333D01*
X168110666Y-84336000D01*
X168044000Y-84369333D01*
X167910666Y-84402666D01*
X167810666Y-84402666D01*
X167677333Y-84369333D01*
X167610666Y-84336000D01*
X167544000Y-84269333D01*
X167510666Y-84169333D01*
X167510666Y-84102666D01*
X167544000Y-84002666D01*
X167577333Y-83969333D01*
X167544000Y-82829333D02*
X167510666Y-82896000D01*
X167510666Y-82996000D01*
X167544000Y-83096000D01*
X167610666Y-83162666D01*
X167677333Y-83196000D01*
X167810666Y-83229333D01*
X167910666Y-83229333D01*
X168044000Y-83196000D01*
X168110666Y-83162666D01*
X168177333Y-83096000D01*
X168210666Y-82996000D01*
X168210666Y-82929333D01*
X168177333Y-82829333D01*
X168144000Y-82796000D01*
X167910666Y-82796000D01*
X167910666Y-82929333D01*
X168210666Y-82496000D02*
X167510666Y-82496000D01*
X168210666Y-82096000D01*
X167510666Y-82096000D01*
X168210666Y-81762666D02*
X167510666Y-81762666D01*
X167510666Y-81596000D01*
X167544000Y-81496000D01*
X167610666Y-81429333D01*
X167677333Y-81396000D01*
X167810666Y-81362666D01*
X167910666Y-81362666D01*
X168044000Y-81396000D01*
X168110666Y-81429333D01*
X168177333Y-81496000D01*
X168210666Y-81596000D01*
X168210666Y-81762666D01*
D12*
X159766380Y-100798380D02*
X159956857Y-100798380D01*
X160052095Y-100846000D01*
X160147333Y-100941238D01*
X160194952Y-101131714D01*
X160194952Y-101465047D01*
X160147333Y-101655523D01*
X160052095Y-101750761D01*
X159956857Y-101798380D01*
X159766380Y-101798380D01*
X159671142Y-101750761D01*
X159575904Y-101655523D01*
X159528285Y-101465047D01*
X159528285Y-101131714D01*
X159575904Y-100941238D01*
X159671142Y-100846000D01*
X159766380Y-100798380D01*
X161099714Y-101798380D02*
X160623523Y-101798380D01*
X160623523Y-100798380D01*
X161433047Y-101274571D02*
X161766380Y-101274571D01*
X161909238Y-101798380D02*
X161433047Y-101798380D01*
X161433047Y-100798380D01*
X161909238Y-100798380D01*
X162337809Y-101798380D02*
X162337809Y-100798380D01*
X162575904Y-100798380D01*
X162718761Y-100846000D01*
X162814000Y-100941238D01*
X162861619Y-101036476D01*
X162909238Y-101226952D01*
X162909238Y-101369809D01*
X162861619Y-101560285D01*
X162814000Y-101655523D01*
X162718761Y-101750761D01*
X162575904Y-101798380D01*
X162337809Y-101798380D01*
X163099714Y-101893619D02*
X163861619Y-101893619D01*
X164099714Y-101798380D02*
X164099714Y-100798380D01*
X164528285Y-100893619D02*
X164575904Y-100846000D01*
X164671142Y-100798380D01*
X164909238Y-100798380D01*
X165004476Y-100846000D01*
X165052095Y-100893619D01*
X165099714Y-100988857D01*
X165099714Y-101084095D01*
X165052095Y-101226952D01*
X164480666Y-101798380D01*
X165099714Y-101798380D01*
X166099714Y-101703142D02*
X166052095Y-101750761D01*
X165909238Y-101798380D01*
X165814000Y-101798380D01*
X165671142Y-101750761D01*
X165575904Y-101655523D01*
X165528285Y-101560285D01*
X165480666Y-101369809D01*
X165480666Y-101226952D01*
X165528285Y-101036476D01*
X165575904Y-100941238D01*
X165671142Y-100846000D01*
X165814000Y-100798380D01*
X165909238Y-100798380D01*
X166052095Y-100846000D01*
X166099714Y-100893619D01*
X88124380Y-113460381D02*
X88838666Y-113460381D01*
X88981523Y-113508000D01*
X89076761Y-113603238D01*
X89124380Y-113746095D01*
X89124380Y-113841333D01*
X89124380Y-112460381D02*
X89124380Y-113031809D01*
X89124380Y-112746095D02*
X88124380Y-112746095D01*
X88267238Y-112841333D01*
X88362476Y-112936571D01*
X88410095Y-113031809D01*
X66492380Y-89700761D02*
X65492380Y-89700761D01*
X66206666Y-89367428D01*
X65492380Y-89034095D01*
X66492380Y-89034095D01*
X66492380Y-88557904D02*
X65825714Y-88557904D01*
X65492380Y-88557904D02*
X65540000Y-88605523D01*
X65587619Y-88557904D01*
X65540000Y-88510285D01*
X65492380Y-88557904D01*
X65587619Y-88557904D01*
X66444761Y-87653142D02*
X66492380Y-87748380D01*
X66492380Y-87938857D01*
X66444761Y-88034095D01*
X66397142Y-88081714D01*
X66301904Y-88129333D01*
X66016190Y-88129333D01*
X65920952Y-88081714D01*
X65873333Y-88034095D01*
X65825714Y-87938857D01*
X65825714Y-87748380D01*
X65873333Y-87653142D01*
X66492380Y-87224571D02*
X65825714Y-87224571D01*
X66016190Y-87224571D02*
X65920952Y-87176952D01*
X65873333Y-87129333D01*
X65825714Y-87034095D01*
X65825714Y-86938857D01*
X66492380Y-86462666D02*
X66444761Y-86557904D01*
X66397142Y-86605523D01*
X66301904Y-86653142D01*
X66016190Y-86653142D01*
X65920952Y-86605523D01*
X65873333Y-86557904D01*
X65825714Y-86462666D01*
X65825714Y-86319809D01*
X65873333Y-86224571D01*
X65920952Y-86176952D01*
X66016190Y-86129333D01*
X66301904Y-86129333D01*
X66397142Y-86176952D01*
X66444761Y-86224571D01*
X66492380Y-86319809D01*
X66492380Y-86462666D01*
X66444761Y-85748380D02*
X66492380Y-85605523D01*
X66492380Y-85367428D01*
X66444761Y-85272190D01*
X66397142Y-85224571D01*
X66301904Y-85176952D01*
X66206666Y-85176952D01*
X66111428Y-85224571D01*
X66063809Y-85272190D01*
X66016190Y-85367428D01*
X65968571Y-85557904D01*
X65920952Y-85653142D01*
X65873333Y-85700761D01*
X65778095Y-85748380D01*
X65682857Y-85748380D01*
X65587619Y-85700761D01*
X65540000Y-85653142D01*
X65492380Y-85557904D01*
X65492380Y-85319809D01*
X65540000Y-85176952D01*
X66492380Y-84748380D02*
X65492380Y-84748380D01*
X65492380Y-84510285D01*
X65540000Y-84367428D01*
X65635238Y-84272190D01*
X65730476Y-84224571D01*
X65920952Y-84176952D01*
X66063809Y-84176952D01*
X66254285Y-84224571D01*
X66349523Y-84272190D01*
X66444761Y-84367428D01*
X66492380Y-84510285D01*
X66492380Y-84748380D01*
X66587619Y-83986476D02*
X66587619Y-83224571D01*
X66397142Y-82415047D02*
X66444761Y-82462666D01*
X66492380Y-82605523D01*
X66492380Y-82700761D01*
X66444761Y-82843619D01*
X66349523Y-82938857D01*
X66254285Y-82986476D01*
X66063809Y-83034095D01*
X65920952Y-83034095D01*
X65730476Y-82986476D01*
X65635238Y-82938857D01*
X65540000Y-82843619D01*
X65492380Y-82700761D01*
X65492380Y-82605523D01*
X65540000Y-82462666D01*
X65587619Y-82415047D01*
X66492380Y-81557904D02*
X65968571Y-81557904D01*
X65873333Y-81605523D01*
X65825714Y-81700761D01*
X65825714Y-81891238D01*
X65873333Y-81986476D01*
X66444761Y-81557904D02*
X66492380Y-81653142D01*
X66492380Y-81891238D01*
X66444761Y-81986476D01*
X66349523Y-82034095D01*
X66254285Y-82034095D01*
X66159047Y-81986476D01*
X66111428Y-81891238D01*
X66111428Y-81653142D01*
X66063809Y-81557904D01*
X66492380Y-81081714D02*
X65825714Y-81081714D01*
X66016190Y-81081714D02*
X65920952Y-81034095D01*
X65873333Y-80986476D01*
X65825714Y-80891238D01*
X65825714Y-80796000D01*
X66492380Y-80034095D02*
X65492380Y-80034095D01*
X66444761Y-80034095D02*
X66492380Y-80129333D01*
X66492380Y-80319809D01*
X66444761Y-80415047D01*
X66397142Y-80462666D01*
X66301904Y-80510285D01*
X66016190Y-80510285D01*
X65920952Y-80462666D01*
X65873333Y-80415047D01*
X65825714Y-80319809D01*
X65825714Y-80129333D01*
X65873333Y-80034095D01*
X66587619Y-79796000D02*
X66587619Y-79034095D01*
X66492380Y-78796000D02*
X65492380Y-78796000D01*
X66206666Y-78462666D01*
X65492380Y-78129333D01*
X66492380Y-78129333D01*
X66492380Y-77510285D02*
X66444761Y-77605523D01*
X66397142Y-77653142D01*
X66301904Y-77700761D01*
X66016190Y-77700761D01*
X65920952Y-77653142D01*
X65873333Y-77605523D01*
X65825714Y-77510285D01*
X65825714Y-77367428D01*
X65873333Y-77272190D01*
X65920952Y-77224571D01*
X66016190Y-77176952D01*
X66301904Y-77176952D01*
X66397142Y-77224571D01*
X66444761Y-77272190D01*
X66492380Y-77367428D01*
X66492380Y-77510285D01*
X66492380Y-76319809D02*
X65492380Y-76319809D01*
X66444761Y-76319809D02*
X66492380Y-76415047D01*
X66492380Y-76605523D01*
X66444761Y-76700761D01*
X66397142Y-76748380D01*
X66301904Y-76796000D01*
X66016190Y-76796000D01*
X65920952Y-76748380D01*
X65873333Y-76700761D01*
X65825714Y-76605523D01*
X65825714Y-76415047D01*
X65873333Y-76319809D01*
X65825714Y-75415047D02*
X66492380Y-75415047D01*
X65825714Y-75843619D02*
X66349523Y-75843619D01*
X66444761Y-75796000D01*
X66492380Y-75700761D01*
X66492380Y-75557904D01*
X66444761Y-75462666D01*
X66397142Y-75415047D01*
X66492380Y-74796000D02*
X66444761Y-74891238D01*
X66349523Y-74938857D01*
X65492380Y-74938857D01*
X72602000Y-109839904D02*
X72554380Y-109935142D01*
X72554380Y-110078000D01*
X72602000Y-110220857D01*
X72697238Y-110316095D01*
X72792476Y-110363714D01*
X72982952Y-110411333D01*
X73125809Y-110411333D01*
X73316285Y-110363714D01*
X73411523Y-110316095D01*
X73506761Y-110220857D01*
X73554380Y-110078000D01*
X73554380Y-109982761D01*
X73506761Y-109839904D01*
X73459142Y-109792285D01*
X73125809Y-109792285D01*
X73125809Y-109982761D01*
X73554380Y-109363714D02*
X72554380Y-109363714D01*
X73554380Y-108792285D01*
X72554380Y-108792285D01*
X73554380Y-108316095D02*
X72554380Y-108316095D01*
X72554380Y-108078000D01*
X72602000Y-107935142D01*
X72697238Y-107839904D01*
X72792476Y-107792285D01*
X72982952Y-107744666D01*
X73125809Y-107744666D01*
X73316285Y-107792285D01*
X73411523Y-107839904D01*
X73506761Y-107935142D01*
X73554380Y-108078000D01*
X73554380Y-108316095D01*
X75354380Y-110611333D02*
X76354380Y-110278000D01*
X75354380Y-109944666D01*
X76259142Y-109039904D02*
X76306761Y-109087523D01*
X76354380Y-109230380D01*
X76354380Y-109325619D01*
X76306761Y-109468476D01*
X76211523Y-109563714D01*
X76116285Y-109611333D01*
X75925809Y-109658952D01*
X75782952Y-109658952D01*
X75592476Y-109611333D01*
X75497238Y-109563714D01*
X75402000Y-109468476D01*
X75354380Y-109325619D01*
X75354380Y-109230380D01*
X75402000Y-109087523D01*
X75449619Y-109039904D01*
X76259142Y-108039904D02*
X76306761Y-108087523D01*
X76354380Y-108230380D01*
X76354380Y-108325619D01*
X76306761Y-108468476D01*
X76211523Y-108563714D01*
X76116285Y-108611333D01*
X75925809Y-108658952D01*
X75782952Y-108658952D01*
X75592476Y-108611333D01*
X75497238Y-108563714D01*
X75402000Y-108468476D01*
X75354380Y-108325619D01*
X75354380Y-108230380D01*
X75402000Y-108087523D01*
X75449619Y-108039904D01*
X78654380Y-110649428D02*
X77654380Y-110649428D01*
X78368666Y-110316095D01*
X77654380Y-109982761D01*
X78654380Y-109982761D01*
X78654380Y-109506571D02*
X77654380Y-109506571D01*
X78606761Y-109078000D02*
X78654380Y-108935142D01*
X78654380Y-108697047D01*
X78606761Y-108601809D01*
X78559142Y-108554190D01*
X78463904Y-108506571D01*
X78368666Y-108506571D01*
X78273428Y-108554190D01*
X78225809Y-108601809D01*
X78178190Y-108697047D01*
X78130571Y-108887523D01*
X78082952Y-108982761D01*
X78035333Y-109030380D01*
X77940095Y-109078000D01*
X77844857Y-109078000D01*
X77749619Y-109030380D01*
X77702000Y-108982761D01*
X77654380Y-108887523D01*
X77654380Y-108649428D01*
X77702000Y-108506571D01*
X77654380Y-107887523D02*
X77654380Y-107697047D01*
X77702000Y-107601809D01*
X77797238Y-107506571D01*
X77987714Y-107458952D01*
X78321047Y-107458952D01*
X78511523Y-107506571D01*
X78606761Y-107601809D01*
X78654380Y-107697047D01*
X78654380Y-107887523D01*
X78606761Y-107982761D01*
X78511523Y-108078000D01*
X78321047Y-108125619D01*
X77987714Y-108125619D01*
X77797238Y-108078000D01*
X77702000Y-107982761D01*
X77654380Y-107887523D01*
X81354380Y-110449428D02*
X80354380Y-110449428D01*
X81068666Y-110116095D01*
X80354380Y-109782761D01*
X81354380Y-109782761D01*
X80354380Y-109116095D02*
X80354380Y-108925619D01*
X80402000Y-108830380D01*
X80497238Y-108735142D01*
X80687714Y-108687523D01*
X81021047Y-108687523D01*
X81211523Y-108735142D01*
X81306761Y-108830380D01*
X81354380Y-108925619D01*
X81354380Y-109116095D01*
X81306761Y-109211333D01*
X81211523Y-109306571D01*
X81021047Y-109354190D01*
X80687714Y-109354190D01*
X80497238Y-109306571D01*
X80402000Y-109211333D01*
X80354380Y-109116095D01*
X81306761Y-108306571D02*
X81354380Y-108163714D01*
X81354380Y-107925619D01*
X81306761Y-107830380D01*
X81259142Y-107782761D01*
X81163904Y-107735142D01*
X81068666Y-107735142D01*
X80973428Y-107782761D01*
X80925809Y-107830380D01*
X80878190Y-107925619D01*
X80830571Y-108116095D01*
X80782952Y-108211333D01*
X80735333Y-108258952D01*
X80640095Y-108306571D01*
X80544857Y-108306571D01*
X80449619Y-108258952D01*
X80402000Y-108211333D01*
X80354380Y-108116095D01*
X80354380Y-107878000D01*
X80402000Y-107735142D01*
X81354380Y-107306571D02*
X80354380Y-107306571D01*
X83706761Y-110563714D02*
X83754380Y-110420857D01*
X83754380Y-110182761D01*
X83706761Y-110087523D01*
X83659142Y-110039904D01*
X83563904Y-109992285D01*
X83468666Y-109992285D01*
X83373428Y-110039904D01*
X83325809Y-110087523D01*
X83278190Y-110182761D01*
X83230571Y-110373238D01*
X83182952Y-110468476D01*
X83135333Y-110516095D01*
X83040095Y-110563714D01*
X82944857Y-110563714D01*
X82849619Y-110516095D01*
X82802000Y-110468476D01*
X82754380Y-110373238D01*
X82754380Y-110135142D01*
X82802000Y-109992285D01*
X83659142Y-108992285D02*
X83706761Y-109039904D01*
X83754380Y-109182761D01*
X83754380Y-109278000D01*
X83706761Y-109420857D01*
X83611523Y-109516095D01*
X83516285Y-109563714D01*
X83325809Y-109611333D01*
X83182952Y-109611333D01*
X82992476Y-109563714D01*
X82897238Y-109516095D01*
X82802000Y-109420857D01*
X82754380Y-109278000D01*
X82754380Y-109182761D01*
X82802000Y-109039904D01*
X82849619Y-108992285D01*
X83754380Y-108563714D02*
X82754380Y-108563714D01*
X83754380Y-107992285D02*
X83182952Y-108420857D01*
X82754380Y-107992285D02*
X83325809Y-108563714D01*
X86359142Y-109844666D02*
X86406761Y-109892285D01*
X86454380Y-110035142D01*
X86454380Y-110130380D01*
X86406761Y-110273238D01*
X86311523Y-110368476D01*
X86216285Y-110416095D01*
X86025809Y-110463714D01*
X85882952Y-110463714D01*
X85692476Y-110416095D01*
X85597238Y-110368476D01*
X85502000Y-110273238D01*
X85454380Y-110130380D01*
X85454380Y-110035142D01*
X85502000Y-109892285D01*
X85549619Y-109844666D01*
X86406761Y-109463714D02*
X86454380Y-109320857D01*
X86454380Y-109082761D01*
X86406761Y-108987523D01*
X86359142Y-108939904D01*
X86263904Y-108892285D01*
X86168666Y-108892285D01*
X86073428Y-108939904D01*
X86025809Y-108987523D01*
X85978190Y-109082761D01*
X85930571Y-109273238D01*
X85882952Y-109368476D01*
X85835333Y-109416095D01*
X85740095Y-109463714D01*
X85644857Y-109463714D01*
X85549619Y-109416095D01*
X85502000Y-109368476D01*
X85454380Y-109273238D01*
X85454380Y-109035142D01*
X85502000Y-108892285D01*
X91781333Y-71826380D02*
X91448000Y-71350190D01*
X91209904Y-71826380D02*
X91209904Y-70826380D01*
X91590857Y-70826380D01*
X91686095Y-70874000D01*
X91733714Y-70921619D01*
X91781333Y-71016857D01*
X91781333Y-71159714D01*
X91733714Y-71254952D01*
X91686095Y-71302571D01*
X91590857Y-71350190D01*
X91209904Y-71350190D01*
X92162285Y-70921619D02*
X92209904Y-70874000D01*
X92305142Y-70826380D01*
X92543238Y-70826380D01*
X92638476Y-70874000D01*
X92686095Y-70921619D01*
X92733714Y-71016857D01*
X92733714Y-71112095D01*
X92686095Y-71254952D01*
X92114666Y-71826380D01*
X92733714Y-71826380D01*
X89860380Y-67039809D02*
X89384190Y-67373142D01*
X89860380Y-67611238D02*
X88860380Y-67611238D01*
X88860380Y-67230285D01*
X88908000Y-67135047D01*
X88955619Y-67087428D01*
X89050857Y-67039809D01*
X89193714Y-67039809D01*
X89288952Y-67087428D01*
X89336571Y-67135047D01*
X89384190Y-67230285D01*
X89384190Y-67611238D01*
X89955619Y-66849333D02*
X89955619Y-66087428D01*
X89860380Y-65849333D02*
X88860380Y-65849333D01*
X88860380Y-65468380D01*
X88908000Y-65373142D01*
X88955619Y-65325523D01*
X89050857Y-65277904D01*
X89193714Y-65277904D01*
X89288952Y-65325523D01*
X89336571Y-65373142D01*
X89384190Y-65468380D01*
X89384190Y-65849333D01*
X89860380Y-64849333D02*
X88860380Y-64849333D01*
X89336571Y-64849333D02*
X89336571Y-64277904D01*
X89860380Y-64277904D02*
X88860380Y-64277904D01*
X88860380Y-63611238D02*
X88860380Y-63420761D01*
X88908000Y-63325523D01*
X89003238Y-63230285D01*
X89193714Y-63182666D01*
X89527047Y-63182666D01*
X89717523Y-63230285D01*
X89812761Y-63325523D01*
X89860380Y-63420761D01*
X89860380Y-63611238D01*
X89812761Y-63706476D01*
X89717523Y-63801714D01*
X89527047Y-63849333D01*
X89193714Y-63849333D01*
X89003238Y-63801714D01*
X88908000Y-63706476D01*
X88860380Y-63611238D01*
X88860380Y-62896952D02*
X88860380Y-62325523D01*
X89860380Y-62611238D02*
X88860380Y-62611238D01*
X88860380Y-61801714D02*
X88860380Y-61611238D01*
X88908000Y-61516000D01*
X89003238Y-61420761D01*
X89193714Y-61373142D01*
X89527047Y-61373142D01*
X89717523Y-61420761D01*
X89812761Y-61516000D01*
X89860380Y-61611238D01*
X89860380Y-61801714D01*
X89812761Y-61896952D01*
X89717523Y-61992190D01*
X89527047Y-62039809D01*
X89193714Y-62039809D01*
X89003238Y-61992190D01*
X88908000Y-61896952D01*
X88860380Y-61801714D01*
X99157096Y-69741381D02*
X99157096Y-70550905D01*
X99204715Y-70646143D01*
X99252334Y-70693762D01*
X99347572Y-70741381D01*
X99538048Y-70741381D01*
X99633286Y-70693762D01*
X99680905Y-70646143D01*
X99728524Y-70550905D01*
X99728524Y-69741381D01*
X100728524Y-70741381D02*
X100157096Y-70741381D01*
X100442810Y-70741381D02*
X100442810Y-69741381D01*
X100347572Y-69884239D01*
X100252334Y-69979477D01*
X100157096Y-70027096D01*
X108641428Y-60142380D02*
X108641428Y-59142380D01*
X109212857Y-60142380D01*
X109212857Y-59142380D01*
X109831904Y-60142380D02*
X109736666Y-60094761D01*
X109689047Y-60047142D01*
X109641428Y-59951904D01*
X109641428Y-59666190D01*
X109689047Y-59570952D01*
X109736666Y-59523333D01*
X109831904Y-59475714D01*
X109974761Y-59475714D01*
X110070000Y-59523333D01*
X110117619Y-59570952D01*
X110165238Y-59666190D01*
X110165238Y-59951904D01*
X110117619Y-60047142D01*
X110070000Y-60094761D01*
X109974761Y-60142380D01*
X109831904Y-60142380D01*
X111022380Y-60142380D02*
X111022380Y-59142380D01*
X111022380Y-60094761D02*
X110927142Y-60142380D01*
X110736666Y-60142380D01*
X110641428Y-60094761D01*
X110593809Y-60047142D01*
X110546190Y-59951904D01*
X110546190Y-59666190D01*
X110593809Y-59570952D01*
X110641428Y-59523333D01*
X110736666Y-59475714D01*
X110927142Y-59475714D01*
X111022380Y-59523333D01*
X111879523Y-60094761D02*
X111784285Y-60142380D01*
X111593809Y-60142380D01*
X111498571Y-60094761D01*
X111450952Y-59999523D01*
X111450952Y-59618571D01*
X111498571Y-59523333D01*
X111593809Y-59475714D01*
X111784285Y-59475714D01*
X111879523Y-59523333D01*
X111927142Y-59618571D01*
X111927142Y-59713809D01*
X111450952Y-59809047D01*
X112355714Y-60142380D02*
X112355714Y-59142380D01*
X112689047Y-59856666D01*
X113022380Y-59142380D01*
X113022380Y-60142380D01*
X114070000Y-60047142D02*
X114022380Y-60094761D01*
X113879523Y-60142380D01*
X113784285Y-60142380D01*
X113641428Y-60094761D01*
X113546190Y-59999523D01*
X113498571Y-59904285D01*
X113450952Y-59713809D01*
X113450952Y-59570952D01*
X113498571Y-59380476D01*
X113546190Y-59285238D01*
X113641428Y-59190000D01*
X113784285Y-59142380D01*
X113879523Y-59142380D01*
X114022380Y-59190000D01*
X114070000Y-59237619D01*
X114498571Y-59142380D02*
X114498571Y-59951904D01*
X114546190Y-60047142D01*
X114593809Y-60094761D01*
X114689047Y-60142380D01*
X114879523Y-60142380D01*
X114974761Y-60094761D01*
X115022380Y-60047142D01*
X115070000Y-59951904D01*
X115070000Y-59142380D01*
X116308095Y-59618571D02*
X116641428Y-59618571D01*
X116784285Y-60142380D02*
X116308095Y-60142380D01*
X116308095Y-59142380D01*
X116784285Y-59142380D01*
X117165238Y-60094761D02*
X117308095Y-60142380D01*
X117546190Y-60142380D01*
X117641428Y-60094761D01*
X117689047Y-60047142D01*
X117736666Y-59951904D01*
X117736666Y-59856666D01*
X117689047Y-59761428D01*
X117641428Y-59713809D01*
X117546190Y-59666190D01*
X117355714Y-59618571D01*
X117260476Y-59570952D01*
X117212857Y-59523333D01*
X117165238Y-59428095D01*
X117165238Y-59332857D01*
X117212857Y-59237619D01*
X117260476Y-59190000D01*
X117355714Y-59142380D01*
X117593809Y-59142380D01*
X117736666Y-59190000D01*
X118165238Y-60142380D02*
X118165238Y-59142380D01*
X118546190Y-59142380D01*
X118641428Y-59190000D01*
X118689047Y-59237619D01*
X118736666Y-59332857D01*
X118736666Y-59475714D01*
X118689047Y-59570952D01*
X118641428Y-59618571D01*
X118546190Y-59666190D01*
X118165238Y-59666190D01*
X119308095Y-59570952D02*
X119212857Y-59523333D01*
X119165238Y-59475714D01*
X119117619Y-59380476D01*
X119117619Y-59332857D01*
X119165238Y-59237619D01*
X119212857Y-59190000D01*
X119308095Y-59142380D01*
X119498571Y-59142380D01*
X119593809Y-59190000D01*
X119641428Y-59237619D01*
X119689047Y-59332857D01*
X119689047Y-59380476D01*
X119641428Y-59475714D01*
X119593809Y-59523333D01*
X119498571Y-59570952D01*
X119308095Y-59570952D01*
X119212857Y-59618571D01*
X119165238Y-59666190D01*
X119117619Y-59761428D01*
X119117619Y-59951904D01*
X119165238Y-60047142D01*
X119212857Y-60094761D01*
X119308095Y-60142380D01*
X119498571Y-60142380D01*
X119593809Y-60094761D01*
X119641428Y-60047142D01*
X119689047Y-59951904D01*
X119689047Y-59761428D01*
X119641428Y-59666190D01*
X119593809Y-59618571D01*
X119498571Y-59570952D01*
X120070000Y-59237619D02*
X120117619Y-59190000D01*
X120212857Y-59142380D01*
X120450952Y-59142380D01*
X120546190Y-59190000D01*
X120593809Y-59237619D01*
X120641428Y-59332857D01*
X120641428Y-59428095D01*
X120593809Y-59570952D01*
X120022380Y-60142380D01*
X120641428Y-60142380D01*
X121498571Y-59142380D02*
X121308095Y-59142380D01*
X121212857Y-59190000D01*
X121165238Y-59237619D01*
X121070000Y-59380476D01*
X121022380Y-59570952D01*
X121022380Y-59951904D01*
X121070000Y-60047142D01*
X121117619Y-60094761D01*
X121212857Y-60142380D01*
X121403333Y-60142380D01*
X121498571Y-60094761D01*
X121546190Y-60047142D01*
X121593809Y-59951904D01*
X121593809Y-59713809D01*
X121546190Y-59618571D01*
X121498571Y-59570952D01*
X121403333Y-59523333D01*
X121212857Y-59523333D01*
X121117619Y-59570952D01*
X121070000Y-59618571D01*
X121022380Y-59713809D01*
X122450952Y-59142380D02*
X122260476Y-59142380D01*
X122165238Y-59190000D01*
X122117619Y-59237619D01*
X122022380Y-59380476D01*
X121974761Y-59570952D01*
X121974761Y-59951904D01*
X122022380Y-60047142D01*
X122069999Y-60094761D01*
X122165238Y-60142380D01*
X122355714Y-60142380D01*
X122450952Y-60094761D01*
X122498571Y-60047142D01*
X122546190Y-59951904D01*
X122546190Y-59713809D01*
X122498571Y-59618571D01*
X122450952Y-59570952D01*
X122355714Y-59523333D01*
X122165238Y-59523333D01*
X122069999Y-59570952D01*
X122022380Y-59618571D01*
X121974761Y-59713809D01*
X130480905Y-108141381D02*
X131099953Y-108141381D01*
X130766620Y-108522334D01*
X130909477Y-108522334D01*
X131004715Y-108569953D01*
X131052334Y-108617572D01*
X131099953Y-108712810D01*
X131099953Y-108950905D01*
X131052334Y-109046143D01*
X131004715Y-109093762D01*
X130909477Y-109141381D01*
X130623762Y-109141381D01*
X130528524Y-109093762D01*
X130480905Y-109046143D01*
X131385667Y-108141381D02*
X131719001Y-109141381D01*
X132052334Y-108141381D01*
X132290429Y-108141381D02*
X132909477Y-108141381D01*
X132576143Y-108522334D01*
X132719001Y-108522334D01*
X132814239Y-108569953D01*
X132861858Y-108617572D01*
X132909477Y-108712810D01*
X132909477Y-108950905D01*
X132861858Y-109046143D01*
X132814239Y-109093762D01*
X132719001Y-109141381D01*
X132433286Y-109141381D01*
X132338048Y-109093762D01*
X132290429Y-109046143D01*
X131057096Y-105689001D02*
X130961858Y-105641381D01*
X130819001Y-105641381D01*
X130676143Y-105689001D01*
X130580905Y-105784239D01*
X130533286Y-105879477D01*
X130485667Y-106069953D01*
X130485667Y-106212810D01*
X130533286Y-106403286D01*
X130580905Y-106498524D01*
X130676143Y-106593762D01*
X130819001Y-106641381D01*
X130914239Y-106641381D01*
X131057096Y-106593762D01*
X131104715Y-106546143D01*
X131104715Y-106212810D01*
X130914239Y-106212810D01*
X131533286Y-106641381D02*
X131533286Y-105641381D01*
X132104715Y-106641381D01*
X132104715Y-105641381D01*
X132580905Y-106641381D02*
X132580905Y-105641381D01*
X132819001Y-105641381D01*
X132961858Y-105689001D01*
X133057096Y-105784239D01*
X133104715Y-105879477D01*
X133152334Y-106069953D01*
X133152334Y-106212810D01*
X133104715Y-106403286D01*
X133057096Y-106498524D01*
X132961858Y-106593762D01*
X132819001Y-106641381D01*
X132580905Y-106641381D01*
X131042810Y-103289001D02*
X130947572Y-103241381D01*
X130804715Y-103241381D01*
X130661858Y-103289001D01*
X130566620Y-103384239D01*
X130519001Y-103479477D01*
X130471381Y-103669953D01*
X130471381Y-103812810D01*
X130519001Y-104003286D01*
X130566620Y-104098524D01*
X130661858Y-104193762D01*
X130804715Y-104241381D01*
X130899953Y-104241381D01*
X131042810Y-104193762D01*
X131090429Y-104146143D01*
X131090429Y-103812810D01*
X130899953Y-103812810D01*
X131519001Y-104241381D02*
X131519001Y-103241381D01*
X131899953Y-103241381D01*
X131995191Y-103289001D01*
X132042810Y-103336620D01*
X132090429Y-103431858D01*
X132090429Y-103574715D01*
X132042810Y-103669953D01*
X131995191Y-103717572D01*
X131899953Y-103765191D01*
X131519001Y-103765191D01*
X132519001Y-104241381D02*
X132519001Y-103241381D01*
X133185667Y-103241381D02*
X133376143Y-103241381D01*
X133471381Y-103289001D01*
X133566620Y-103384239D01*
X133614239Y-103574715D01*
X133614239Y-103908048D01*
X133566620Y-104098524D01*
X133471381Y-104193762D01*
X133376143Y-104241381D01*
X133185667Y-104241381D01*
X133090429Y-104193762D01*
X132995191Y-104098524D01*
X132947572Y-103908048D01*
X132947572Y-103574715D01*
X132995191Y-103384239D01*
X133090429Y-103289001D01*
X133185667Y-103241381D01*
X134566620Y-104241381D02*
X133995191Y-104241381D01*
X134280905Y-104241381D02*
X134280905Y-103241381D01*
X134185667Y-103384239D01*
X134090429Y-103479477D01*
X133995191Y-103527096D01*
X131142810Y-100789001D02*
X131047572Y-100741381D01*
X130904715Y-100741381D01*
X130761858Y-100789001D01*
X130666620Y-100884239D01*
X130619001Y-100979477D01*
X130571381Y-101169953D01*
X130571381Y-101312810D01*
X130619001Y-101503286D01*
X130666620Y-101598524D01*
X130761858Y-101693762D01*
X130904715Y-101741381D01*
X130999953Y-101741381D01*
X131142810Y-101693762D01*
X131190429Y-101646143D01*
X131190429Y-101312810D01*
X130999953Y-101312810D01*
X131619001Y-101741381D02*
X131619001Y-100741381D01*
X131999953Y-100741381D01*
X132095191Y-100789001D01*
X132142810Y-100836620D01*
X132190429Y-100931858D01*
X132190429Y-101074715D01*
X132142810Y-101169953D01*
X132095191Y-101217572D01*
X131999953Y-101265191D01*
X131619001Y-101265191D01*
X132619001Y-101741381D02*
X132619001Y-100741381D01*
X133285667Y-100741381D02*
X133476143Y-100741381D01*
X133571381Y-100789001D01*
X133666620Y-100884239D01*
X133714239Y-101074715D01*
X133714239Y-101408048D01*
X133666620Y-101598524D01*
X133571381Y-101693762D01*
X133476143Y-101741381D01*
X133285667Y-101741381D01*
X133190429Y-101693762D01*
X133095191Y-101598524D01*
X133047572Y-101408048D01*
X133047572Y-101074715D01*
X133095191Y-100884239D01*
X133190429Y-100789001D01*
X133285667Y-100741381D01*
X134047572Y-100741381D02*
X134666620Y-100741381D01*
X134333286Y-101122334D01*
X134476143Y-101122334D01*
X134571381Y-101169953D01*
X134619001Y-101217572D01*
X134666620Y-101312810D01*
X134666620Y-101550905D01*
X134619001Y-101646143D01*
X134571381Y-101693762D01*
X134476143Y-101741381D01*
X134190429Y-101741381D01*
X134095191Y-101693762D01*
X134047572Y-101646143D01*
X131166620Y-98189001D02*
X131071381Y-98141381D01*
X130928524Y-98141381D01*
X130785667Y-98189001D01*
X130690429Y-98284239D01*
X130642810Y-98379477D01*
X130595191Y-98569953D01*
X130595191Y-98712810D01*
X130642810Y-98903286D01*
X130690429Y-98998524D01*
X130785667Y-99093762D01*
X130928524Y-99141381D01*
X131023762Y-99141381D01*
X131166620Y-99093762D01*
X131214239Y-99046143D01*
X131214239Y-98712810D01*
X131023762Y-98712810D01*
X131642810Y-99141381D02*
X131642810Y-98141381D01*
X132023762Y-98141381D01*
X132119001Y-98189001D01*
X132166620Y-98236620D01*
X132214239Y-98331858D01*
X132214239Y-98474715D01*
X132166620Y-98569953D01*
X132119001Y-98617572D01*
X132023762Y-98665191D01*
X131642810Y-98665191D01*
X132642810Y-99141381D02*
X132642810Y-98141381D01*
X133309477Y-98141381D02*
X133499953Y-98141381D01*
X133595191Y-98189001D01*
X133690429Y-98284239D01*
X133738048Y-98474715D01*
X133738048Y-98808048D01*
X133690429Y-98998524D01*
X133595191Y-99093762D01*
X133499953Y-99141381D01*
X133309477Y-99141381D01*
X133214239Y-99093762D01*
X133119001Y-98998524D01*
X133071381Y-98808048D01*
X133071381Y-98474715D01*
X133119001Y-98284239D01*
X133214239Y-98189001D01*
X133309477Y-98141381D01*
X134690429Y-99141381D02*
X134119001Y-99141381D01*
X134404715Y-99141381D02*
X134404715Y-98141381D01*
X134309477Y-98284239D01*
X134214239Y-98379477D01*
X134119001Y-98427096D01*
X135595191Y-98141381D02*
X135119001Y-98141381D01*
X135071381Y-98617572D01*
X135119001Y-98569953D01*
X135214239Y-98522334D01*
X135452334Y-98522334D01*
X135547572Y-98569953D01*
X135595191Y-98617572D01*
X135642810Y-98712810D01*
X135642810Y-98950905D01*
X135595191Y-99046143D01*
X135547572Y-99093762D01*
X135452334Y-99141381D01*
X135214239Y-99141381D01*
X135119001Y-99093762D01*
X135071381Y-99046143D01*
X131166620Y-95689001D02*
X131071381Y-95641381D01*
X130928524Y-95641381D01*
X130785667Y-95689001D01*
X130690429Y-95784239D01*
X130642810Y-95879477D01*
X130595191Y-96069953D01*
X130595191Y-96212810D01*
X130642810Y-96403286D01*
X130690429Y-96498524D01*
X130785667Y-96593762D01*
X130928524Y-96641381D01*
X131023762Y-96641381D01*
X131166620Y-96593762D01*
X131214239Y-96546143D01*
X131214239Y-96212810D01*
X131023762Y-96212810D01*
X131642810Y-96641381D02*
X131642810Y-95641381D01*
X132023762Y-95641381D01*
X132119001Y-95689001D01*
X132166620Y-95736620D01*
X132214239Y-95831858D01*
X132214239Y-95974715D01*
X132166620Y-96069953D01*
X132119001Y-96117572D01*
X132023762Y-96165191D01*
X131642810Y-96165191D01*
X132642810Y-96641381D02*
X132642810Y-95641381D01*
X133309477Y-95641381D02*
X133499953Y-95641381D01*
X133595191Y-95689001D01*
X133690429Y-95784239D01*
X133738048Y-95974715D01*
X133738048Y-96308048D01*
X133690429Y-96498524D01*
X133595191Y-96593762D01*
X133499953Y-96641381D01*
X133309477Y-96641381D01*
X133214239Y-96593762D01*
X133119001Y-96498524D01*
X133071381Y-96308048D01*
X133071381Y-95974715D01*
X133119001Y-95784239D01*
X133214239Y-95689001D01*
X133309477Y-95641381D01*
X134690429Y-96641381D02*
X134119001Y-96641381D01*
X134404715Y-96641381D02*
X134404715Y-95641381D01*
X134309477Y-95784239D01*
X134214239Y-95879477D01*
X134119001Y-95927096D01*
X135023762Y-95641381D02*
X135642810Y-95641381D01*
X135309477Y-96022334D01*
X135452334Y-96022334D01*
X135547572Y-96069953D01*
X135595191Y-96117572D01*
X135642810Y-96212810D01*
X135642810Y-96450905D01*
X135595191Y-96546143D01*
X135547572Y-96593762D01*
X135452334Y-96641381D01*
X135166620Y-96641381D01*
X135071381Y-96593762D01*
X135023762Y-96546143D01*
X131066620Y-93189001D02*
X130971381Y-93141381D01*
X130828524Y-93141381D01*
X130685667Y-93189001D01*
X130590429Y-93284239D01*
X130542810Y-93379477D01*
X130495191Y-93569953D01*
X130495191Y-93712810D01*
X130542810Y-93903286D01*
X130590429Y-93998524D01*
X130685667Y-94093762D01*
X130828524Y-94141381D01*
X130923762Y-94141381D01*
X131066620Y-94093762D01*
X131114239Y-94046143D01*
X131114239Y-93712810D01*
X130923762Y-93712810D01*
X131542810Y-94141381D02*
X131542810Y-93141381D01*
X131923762Y-93141381D01*
X132019001Y-93189001D01*
X132066620Y-93236620D01*
X132114239Y-93331858D01*
X132114239Y-93474715D01*
X132066620Y-93569953D01*
X132019001Y-93617572D01*
X131923762Y-93665191D01*
X131542810Y-93665191D01*
X132542810Y-94141381D02*
X132542810Y-93141381D01*
X133209477Y-93141381D02*
X133399953Y-93141381D01*
X133495191Y-93189001D01*
X133590429Y-93284239D01*
X133638048Y-93474715D01*
X133638048Y-93808048D01*
X133590429Y-93998524D01*
X133495191Y-94093762D01*
X133399953Y-94141381D01*
X133209477Y-94141381D01*
X133114239Y-94093762D01*
X133019001Y-93998524D01*
X132971381Y-93808048D01*
X132971381Y-93474715D01*
X133019001Y-93284239D01*
X133114239Y-93189001D01*
X133209477Y-93141381D01*
X134590429Y-94141381D02*
X134019001Y-94141381D01*
X134304715Y-94141381D02*
X134304715Y-93141381D01*
X134209477Y-93284239D01*
X134114239Y-93379477D01*
X134019001Y-93427096D01*
X134971381Y-93236620D02*
X135019001Y-93189001D01*
X135114239Y-93141381D01*
X135352334Y-93141381D01*
X135447572Y-93189001D01*
X135495191Y-93236620D01*
X135542810Y-93331858D01*
X135542810Y-93427096D01*
X135495191Y-93569953D01*
X134923762Y-94141381D01*
X135542810Y-94141381D01*
X131166620Y-90589001D02*
X131071381Y-90541381D01*
X130928524Y-90541381D01*
X130785667Y-90589001D01*
X130690429Y-90684239D01*
X130642810Y-90779477D01*
X130595191Y-90969953D01*
X130595191Y-91112810D01*
X130642810Y-91303286D01*
X130690429Y-91398524D01*
X130785667Y-91493762D01*
X130928524Y-91541381D01*
X131023762Y-91541381D01*
X131166620Y-91493762D01*
X131214239Y-91446143D01*
X131214239Y-91112810D01*
X131023762Y-91112810D01*
X131642810Y-91541381D02*
X131642810Y-90541381D01*
X132023762Y-90541381D01*
X132119001Y-90589001D01*
X132166620Y-90636620D01*
X132214239Y-90731858D01*
X132214239Y-90874715D01*
X132166620Y-90969953D01*
X132119001Y-91017572D01*
X132023762Y-91065191D01*
X131642810Y-91065191D01*
X132642810Y-91541381D02*
X132642810Y-90541381D01*
X133309477Y-90541381D02*
X133499953Y-90541381D01*
X133595191Y-90589001D01*
X133690429Y-90684239D01*
X133738048Y-90874715D01*
X133738048Y-91208048D01*
X133690429Y-91398524D01*
X133595191Y-91493762D01*
X133499953Y-91541381D01*
X133309477Y-91541381D01*
X133214239Y-91493762D01*
X133119001Y-91398524D01*
X133071381Y-91208048D01*
X133071381Y-90874715D01*
X133119001Y-90684239D01*
X133214239Y-90589001D01*
X133309477Y-90541381D01*
X134690429Y-91541381D02*
X134119001Y-91541381D01*
X134404715Y-91541381D02*
X134404715Y-90541381D01*
X134309477Y-90684239D01*
X134214239Y-90779477D01*
X134119001Y-90827096D01*
X135547572Y-90874715D02*
X135547572Y-91541381D01*
X135309477Y-90493762D02*
X135071381Y-91208048D01*
X135690429Y-91208048D01*
X131257096Y-87989001D02*
X131161858Y-87941381D01*
X131019001Y-87941381D01*
X130876143Y-87989001D01*
X130780905Y-88084239D01*
X130733286Y-88179477D01*
X130685667Y-88369953D01*
X130685667Y-88512810D01*
X130733286Y-88703286D01*
X130780905Y-88798524D01*
X130876143Y-88893762D01*
X131019001Y-88941381D01*
X131114239Y-88941381D01*
X131257096Y-88893762D01*
X131304715Y-88846143D01*
X131304715Y-88512810D01*
X131114239Y-88512810D01*
X131733286Y-88941381D02*
X131733286Y-87941381D01*
X132304715Y-88941381D01*
X132304715Y-87941381D01*
X132780905Y-88941381D02*
X132780905Y-87941381D01*
X133019001Y-87941381D01*
X133161858Y-87989001D01*
X133257096Y-88084239D01*
X133304715Y-88179477D01*
X133352334Y-88369953D01*
X133352334Y-88512810D01*
X133304715Y-88703286D01*
X133257096Y-88798524D01*
X133161858Y-88893762D01*
X133019001Y-88941381D01*
X132780905Y-88941381D01*
X130680905Y-85341381D02*
X131299953Y-85341381D01*
X130966620Y-85722334D01*
X131109477Y-85722334D01*
X131204715Y-85769953D01*
X131252334Y-85817572D01*
X131299953Y-85912810D01*
X131299953Y-86150905D01*
X131252334Y-86246143D01*
X131204715Y-86293762D01*
X131109477Y-86341381D01*
X130823762Y-86341381D01*
X130728524Y-86293762D01*
X130680905Y-86246143D01*
X131585667Y-85341381D02*
X131919001Y-86341381D01*
X132252334Y-85341381D01*
X132490429Y-85341381D02*
X133109477Y-85341381D01*
X132776143Y-85722334D01*
X132919001Y-85722334D01*
X133014239Y-85769953D01*
X133061858Y-85817572D01*
X133109477Y-85912810D01*
X133109477Y-86150905D01*
X133061858Y-86246143D01*
X133014239Y-86293762D01*
X132919001Y-86341381D01*
X132633286Y-86341381D01*
X132538048Y-86293762D01*
X132490429Y-86246143D01*
X131042810Y-82789001D02*
X130947572Y-82741381D01*
X130804715Y-82741381D01*
X130661858Y-82789001D01*
X130566620Y-82884239D01*
X130519001Y-82979477D01*
X130471381Y-83169953D01*
X130471381Y-83312810D01*
X130519001Y-83503286D01*
X130566620Y-83598524D01*
X130661858Y-83693762D01*
X130804715Y-83741381D01*
X130899953Y-83741381D01*
X131042810Y-83693762D01*
X131090429Y-83646143D01*
X131090429Y-83312810D01*
X130899953Y-83312810D01*
X131519001Y-83741381D02*
X131519001Y-82741381D01*
X131899953Y-82741381D01*
X131995191Y-82789001D01*
X132042810Y-82836620D01*
X132090429Y-82931858D01*
X132090429Y-83074715D01*
X132042810Y-83169953D01*
X131995191Y-83217572D01*
X131899953Y-83265191D01*
X131519001Y-83265191D01*
X132519001Y-83741381D02*
X132519001Y-82741381D01*
X133185667Y-82741381D02*
X133376143Y-82741381D01*
X133471381Y-82789001D01*
X133566620Y-82884239D01*
X133614239Y-83074715D01*
X133614239Y-83408048D01*
X133566620Y-83598524D01*
X133471381Y-83693762D01*
X133376143Y-83741381D01*
X133185667Y-83741381D01*
X133090429Y-83693762D01*
X132995191Y-83598524D01*
X132947572Y-83408048D01*
X132947572Y-83074715D01*
X132995191Y-82884239D01*
X133090429Y-82789001D01*
X133185667Y-82741381D01*
X133995191Y-82836620D02*
X134042810Y-82789001D01*
X134138048Y-82741381D01*
X134376143Y-82741381D01*
X134471381Y-82789001D01*
X134519001Y-82836620D01*
X134566620Y-82931858D01*
X134566620Y-83027096D01*
X134519001Y-83169953D01*
X133947572Y-83741381D01*
X134566620Y-83741381D01*
X130942810Y-80289001D02*
X130847572Y-80241381D01*
X130704715Y-80241381D01*
X130561858Y-80289001D01*
X130466620Y-80384239D01*
X130419001Y-80479477D01*
X130371381Y-80669953D01*
X130371381Y-80812810D01*
X130419001Y-81003286D01*
X130466620Y-81098524D01*
X130561858Y-81193762D01*
X130704715Y-81241381D01*
X130799953Y-81241381D01*
X130942810Y-81193762D01*
X130990429Y-81146143D01*
X130990429Y-80812810D01*
X130799953Y-80812810D01*
X131419001Y-81241381D02*
X131419001Y-80241381D01*
X131799953Y-80241381D01*
X131895191Y-80289001D01*
X131942810Y-80336620D01*
X131990429Y-80431858D01*
X131990429Y-80574715D01*
X131942810Y-80669953D01*
X131895191Y-80717572D01*
X131799953Y-80765191D01*
X131419001Y-80765191D01*
X132419001Y-81241381D02*
X132419001Y-80241381D01*
X133085667Y-80241381D02*
X133276143Y-80241381D01*
X133371381Y-80289001D01*
X133466620Y-80384239D01*
X133514239Y-80574715D01*
X133514239Y-80908048D01*
X133466620Y-81098524D01*
X133371381Y-81193762D01*
X133276143Y-81241381D01*
X133085667Y-81241381D01*
X132990429Y-81193762D01*
X132895191Y-81098524D01*
X132847572Y-80908048D01*
X132847572Y-80574715D01*
X132895191Y-80384239D01*
X132990429Y-80289001D01*
X133085667Y-80241381D01*
X134133286Y-80241381D02*
X134228524Y-80241381D01*
X134323762Y-80289001D01*
X134371381Y-80336620D01*
X134419001Y-80431858D01*
X134466620Y-80622334D01*
X134466620Y-80860429D01*
X134419001Y-81050905D01*
X134371381Y-81146143D01*
X134323762Y-81193762D01*
X134228524Y-81241381D01*
X134133286Y-81241381D01*
X134038048Y-81193762D01*
X133990429Y-81146143D01*
X133942810Y-81050905D01*
X133895191Y-80860429D01*
X133895191Y-80622334D01*
X133942810Y-80431858D01*
X133990429Y-80336620D01*
X134038048Y-80289001D01*
X134133286Y-80241381D01*
X130942810Y-77689001D02*
X130847572Y-77641381D01*
X130704715Y-77641381D01*
X130561858Y-77689001D01*
X130466620Y-77784239D01*
X130419001Y-77879477D01*
X130371381Y-78069953D01*
X130371381Y-78212810D01*
X130419001Y-78403286D01*
X130466620Y-78498524D01*
X130561858Y-78593762D01*
X130704715Y-78641381D01*
X130799953Y-78641381D01*
X130942810Y-78593762D01*
X130990429Y-78546143D01*
X130990429Y-78212810D01*
X130799953Y-78212810D01*
X131419001Y-78641381D02*
X131419001Y-77641381D01*
X131799953Y-77641381D01*
X131895191Y-77689001D01*
X131942810Y-77736620D01*
X131990429Y-77831858D01*
X131990429Y-77974715D01*
X131942810Y-78069953D01*
X131895191Y-78117572D01*
X131799953Y-78165191D01*
X131419001Y-78165191D01*
X132419001Y-78641381D02*
X132419001Y-77641381D01*
X133085667Y-77641381D02*
X133276143Y-77641381D01*
X133371381Y-77689001D01*
X133466620Y-77784239D01*
X133514239Y-77974715D01*
X133514239Y-78308048D01*
X133466620Y-78498524D01*
X133371381Y-78593762D01*
X133276143Y-78641381D01*
X133085667Y-78641381D01*
X132990429Y-78593762D01*
X132895191Y-78498524D01*
X132847572Y-78308048D01*
X132847572Y-77974715D01*
X132895191Y-77784239D01*
X132990429Y-77689001D01*
X133085667Y-77641381D01*
X134371381Y-77974715D02*
X134371381Y-78641381D01*
X134133286Y-77593762D02*
X133895191Y-78308048D01*
X134514239Y-78308048D01*
X130942810Y-75089001D02*
X130847572Y-75041381D01*
X130704715Y-75041381D01*
X130561858Y-75089001D01*
X130466620Y-75184239D01*
X130419001Y-75279477D01*
X130371381Y-75469953D01*
X130371381Y-75612810D01*
X130419001Y-75803286D01*
X130466620Y-75898524D01*
X130561858Y-75993762D01*
X130704715Y-76041381D01*
X130799953Y-76041381D01*
X130942810Y-75993762D01*
X130990429Y-75946143D01*
X130990429Y-75612810D01*
X130799953Y-75612810D01*
X131419001Y-76041381D02*
X131419001Y-75041381D01*
X131799953Y-75041381D01*
X131895191Y-75089001D01*
X131942810Y-75136620D01*
X131990429Y-75231858D01*
X131990429Y-75374715D01*
X131942810Y-75469953D01*
X131895191Y-75517572D01*
X131799953Y-75565191D01*
X131419001Y-75565191D01*
X132419001Y-76041381D02*
X132419001Y-75041381D01*
X133085667Y-75041381D02*
X133276143Y-75041381D01*
X133371381Y-75089001D01*
X133466620Y-75184239D01*
X133514239Y-75374715D01*
X133514239Y-75708048D01*
X133466620Y-75898524D01*
X133371381Y-75993762D01*
X133276143Y-76041381D01*
X133085667Y-76041381D01*
X132990429Y-75993762D01*
X132895191Y-75898524D01*
X132847572Y-75708048D01*
X132847572Y-75374715D01*
X132895191Y-75184239D01*
X132990429Y-75089001D01*
X133085667Y-75041381D01*
X134419001Y-75041381D02*
X133942810Y-75041381D01*
X133895191Y-75517572D01*
X133942810Y-75469953D01*
X134038048Y-75422334D01*
X134276143Y-75422334D01*
X134371381Y-75469953D01*
X134419001Y-75517572D01*
X134466620Y-75612810D01*
X134466620Y-75850905D01*
X134419001Y-75946143D01*
X134371381Y-75993762D01*
X134276143Y-76041381D01*
X134038048Y-76041381D01*
X133942810Y-75993762D01*
X133895191Y-75946143D01*
X130966620Y-72789001D02*
X130871381Y-72741381D01*
X130728524Y-72741381D01*
X130585667Y-72789001D01*
X130490429Y-72884239D01*
X130442810Y-72979477D01*
X130395191Y-73169953D01*
X130395191Y-73312810D01*
X130442810Y-73503286D01*
X130490429Y-73598524D01*
X130585667Y-73693762D01*
X130728524Y-73741381D01*
X130823762Y-73741381D01*
X130966620Y-73693762D01*
X131014239Y-73646143D01*
X131014239Y-73312810D01*
X130823762Y-73312810D01*
X131442810Y-73741381D02*
X131442810Y-72741381D01*
X131823762Y-72741381D01*
X131919001Y-72789001D01*
X131966620Y-72836620D01*
X132014239Y-72931858D01*
X132014239Y-73074715D01*
X131966620Y-73169953D01*
X131919001Y-73217572D01*
X131823762Y-73265191D01*
X131442810Y-73265191D01*
X132442810Y-73741381D02*
X132442810Y-72741381D01*
X133109477Y-72741381D02*
X133299953Y-72741381D01*
X133395191Y-72789001D01*
X133490429Y-72884239D01*
X133538048Y-73074715D01*
X133538048Y-73408048D01*
X133490429Y-73598524D01*
X133395191Y-73693762D01*
X133299953Y-73741381D01*
X133109477Y-73741381D01*
X133014239Y-73693762D01*
X132919001Y-73598524D01*
X132871381Y-73408048D01*
X132871381Y-73074715D01*
X132919001Y-72884239D01*
X133014239Y-72789001D01*
X133109477Y-72741381D01*
X134490429Y-73741381D02*
X133919001Y-73741381D01*
X134204715Y-73741381D02*
X134204715Y-72741381D01*
X134109477Y-72884239D01*
X134014239Y-72979477D01*
X133919001Y-73027096D01*
X135347572Y-72741381D02*
X135157096Y-72741381D01*
X135061858Y-72789001D01*
X135014239Y-72836620D01*
X134919001Y-72979477D01*
X134871381Y-73169953D01*
X134871381Y-73550905D01*
X134919001Y-73646143D01*
X134966620Y-73693762D01*
X135061858Y-73741381D01*
X135252334Y-73741381D01*
X135347572Y-73693762D01*
X135395191Y-73646143D01*
X135442810Y-73550905D01*
X135442810Y-73312810D01*
X135395191Y-73217572D01*
X135347572Y-73169953D01*
X135252334Y-73122334D01*
X135061858Y-73122334D01*
X134966620Y-73169953D01*
X134919001Y-73217572D01*
X134871381Y-73312810D01*
X95273762Y-108141381D02*
X95607096Y-109141381D01*
X95940429Y-108141381D01*
X96273762Y-109141381D02*
X96273762Y-108141381D01*
X96749953Y-109141381D02*
X96749953Y-108141381D01*
X97321381Y-109141381D01*
X97321381Y-108141381D01*
X95357096Y-105539001D02*
X95261858Y-105491381D01*
X95119001Y-105491381D01*
X94976143Y-105539001D01*
X94880905Y-105634239D01*
X94833286Y-105729477D01*
X94785667Y-105919953D01*
X94785667Y-106062810D01*
X94833286Y-106253286D01*
X94880905Y-106348524D01*
X94976143Y-106443762D01*
X95119001Y-106491381D01*
X95214239Y-106491381D01*
X95357096Y-106443762D01*
X95404715Y-106396143D01*
X95404715Y-106062810D01*
X95214239Y-106062810D01*
X95833286Y-106491381D02*
X95833286Y-105491381D01*
X96404715Y-106491381D01*
X96404715Y-105491381D01*
X96880905Y-106491381D02*
X96880905Y-105491381D01*
X97119001Y-105491381D01*
X97261858Y-105539001D01*
X97357096Y-105634239D01*
X97404715Y-105729477D01*
X97452334Y-105919953D01*
X97452334Y-106062810D01*
X97404715Y-106253286D01*
X97357096Y-106348524D01*
X97261858Y-106443762D01*
X97119001Y-106491381D01*
X96880905Y-106491381D01*
X95671381Y-104141381D02*
X95338048Y-103665191D01*
X95099953Y-104141381D02*
X95099953Y-103141381D01*
X95480905Y-103141381D01*
X95576143Y-103189001D01*
X95623762Y-103236620D01*
X95671381Y-103331858D01*
X95671381Y-103474715D01*
X95623762Y-103569953D01*
X95576143Y-103617572D01*
X95480905Y-103665191D01*
X95099953Y-103665191D01*
X96052334Y-104093762D02*
X96195191Y-104141381D01*
X96433286Y-104141381D01*
X96528524Y-104093762D01*
X96576143Y-104046143D01*
X96623762Y-103950905D01*
X96623762Y-103855667D01*
X96576143Y-103760429D01*
X96528524Y-103712810D01*
X96433286Y-103665191D01*
X96242810Y-103617572D01*
X96147572Y-103569953D01*
X96099953Y-103522334D01*
X96052334Y-103427096D01*
X96052334Y-103331858D01*
X96099953Y-103236620D01*
X96147572Y-103189001D01*
X96242810Y-103141381D01*
X96480905Y-103141381D01*
X96623762Y-103189001D01*
X96909477Y-103141381D02*
X97480905Y-103141381D01*
X97195191Y-104141381D02*
X97195191Y-103141381D01*
X95880905Y-100867572D02*
X96214239Y-100867572D01*
X96357096Y-101391381D02*
X95880905Y-101391381D01*
X95880905Y-100391381D01*
X96357096Y-100391381D01*
X96785667Y-101391381D02*
X96785667Y-100391381D01*
X97357096Y-101391381D01*
X97357096Y-100391381D01*
X94492810Y-97941381D02*
X95111858Y-97941381D01*
X94778524Y-98322334D01*
X94921381Y-98322334D01*
X95016620Y-98369953D01*
X95064239Y-98417572D01*
X95111858Y-98512810D01*
X95111858Y-98750905D01*
X95064239Y-98846143D01*
X95016620Y-98893762D01*
X94921381Y-98941381D01*
X94635667Y-98941381D01*
X94540429Y-98893762D01*
X94492810Y-98846143D01*
X95540429Y-98846143D02*
X95588048Y-98893762D01*
X95540429Y-98941381D01*
X95492810Y-98893762D01*
X95540429Y-98846143D01*
X95540429Y-98941381D01*
X95921381Y-97941381D02*
X96540429Y-97941381D01*
X96207096Y-98322334D01*
X96349953Y-98322334D01*
X96445191Y-98369953D01*
X96492810Y-98417572D01*
X96540429Y-98512810D01*
X96540429Y-98750905D01*
X96492810Y-98846143D01*
X96445191Y-98893762D01*
X96349953Y-98941381D01*
X96064239Y-98941381D01*
X95969001Y-98893762D01*
X95921381Y-98846143D01*
X96826143Y-97941381D02*
X97159477Y-98941381D01*
X97492810Y-97941381D01*
X95357096Y-95489001D02*
X95261858Y-95441381D01*
X95119001Y-95441381D01*
X94976143Y-95489001D01*
X94880905Y-95584239D01*
X94833286Y-95679477D01*
X94785667Y-95869953D01*
X94785667Y-96012810D01*
X94833286Y-96203286D01*
X94880905Y-96298524D01*
X94976143Y-96393762D01*
X95119001Y-96441381D01*
X95214239Y-96441381D01*
X95357096Y-96393762D01*
X95404715Y-96346143D01*
X95404715Y-96012810D01*
X95214239Y-96012810D01*
X95833286Y-96441381D02*
X95833286Y-95441381D01*
X96404715Y-96441381D01*
X96404715Y-95441381D01*
X96880905Y-96441381D02*
X96880905Y-95441381D01*
X97119001Y-95441381D01*
X97261858Y-95489001D01*
X97357096Y-95584239D01*
X97404715Y-95679477D01*
X97452334Y-95869953D01*
X97452334Y-96012810D01*
X97404715Y-96203286D01*
X97357096Y-96298524D01*
X97261858Y-96393762D01*
X97119001Y-96441381D01*
X96880905Y-96441381D01*
X94028524Y-93843762D02*
X94171381Y-93891381D01*
X94409477Y-93891381D01*
X94504715Y-93843762D01*
X94552334Y-93796143D01*
X94599953Y-93700905D01*
X94599953Y-93605667D01*
X94552334Y-93510429D01*
X94504715Y-93462810D01*
X94409477Y-93415191D01*
X94219001Y-93367572D01*
X94123762Y-93319953D01*
X94076143Y-93272334D01*
X94028524Y-93177096D01*
X94028524Y-93081858D01*
X94076143Y-92986620D01*
X94123762Y-92939001D01*
X94219001Y-92891381D01*
X94457096Y-92891381D01*
X94599953Y-92939001D01*
X95599953Y-93796143D02*
X95552334Y-93843762D01*
X95409477Y-93891381D01*
X95314239Y-93891381D01*
X95171381Y-93843762D01*
X95076143Y-93748524D01*
X95028524Y-93653286D01*
X94980905Y-93462810D01*
X94980905Y-93319953D01*
X95028524Y-93129477D01*
X95076143Y-93034239D01*
X95171381Y-92939001D01*
X95314239Y-92891381D01*
X95409477Y-92891381D01*
X95552334Y-92939001D01*
X95599953Y-92986620D01*
X96504715Y-93891381D02*
X96028524Y-93891381D01*
X96028524Y-92891381D01*
X96838048Y-93891381D02*
X96838048Y-92891381D01*
X97409477Y-93891381D02*
X96980905Y-93319953D01*
X97409477Y-92891381D02*
X96838048Y-93462810D01*
X94247572Y-91341381D02*
X94247572Y-90341381D01*
X94580905Y-91055667D01*
X94914239Y-90341381D01*
X94914239Y-91341381D01*
X95390429Y-91341381D02*
X95390429Y-90341381D01*
X95819001Y-91293762D02*
X95961858Y-91341381D01*
X96199953Y-91341381D01*
X96295191Y-91293762D01*
X96342810Y-91246143D01*
X96390429Y-91150905D01*
X96390429Y-91055667D01*
X96342810Y-90960429D01*
X96295191Y-90912810D01*
X96199953Y-90865191D01*
X96009477Y-90817572D01*
X95914239Y-90769953D01*
X95866620Y-90722334D01*
X95819001Y-90627096D01*
X95819001Y-90531858D01*
X95866620Y-90436620D01*
X95914239Y-90389001D01*
X96009477Y-90341381D01*
X96247572Y-90341381D01*
X96390429Y-90389001D01*
X97009477Y-90341381D02*
X97199953Y-90341381D01*
X97295191Y-90389001D01*
X97390429Y-90484239D01*
X97438048Y-90674715D01*
X97438048Y-91008048D01*
X97390429Y-91198524D01*
X97295191Y-91293762D01*
X97199953Y-91341381D01*
X97009477Y-91341381D01*
X96914239Y-91293762D01*
X96819001Y-91198524D01*
X96771381Y-91008048D01*
X96771381Y-90674715D01*
X96819001Y-90484239D01*
X96914239Y-90389001D01*
X97009477Y-90341381D01*
X96452334Y-88696143D02*
X96404715Y-88743762D01*
X96261858Y-88791381D01*
X96166620Y-88791381D01*
X96023762Y-88743762D01*
X95928524Y-88648524D01*
X95880905Y-88553286D01*
X95833286Y-88362810D01*
X95833286Y-88219953D01*
X95880905Y-88029477D01*
X95928524Y-87934239D01*
X96023762Y-87839001D01*
X96166620Y-87791381D01*
X96261858Y-87791381D01*
X96404715Y-87839001D01*
X96452334Y-87886620D01*
X96833286Y-88743762D02*
X96976143Y-88791381D01*
X97214239Y-88791381D01*
X97309477Y-88743762D01*
X97357096Y-88696143D01*
X97404715Y-88600905D01*
X97404715Y-88505667D01*
X97357096Y-88410429D01*
X97309477Y-88362810D01*
X97214239Y-88315191D01*
X97023762Y-88267572D01*
X96928524Y-88219953D01*
X96880905Y-88172334D01*
X96833286Y-88077096D01*
X96833286Y-87981858D01*
X96880905Y-87886620D01*
X96928524Y-87839001D01*
X97023762Y-87791381D01*
X97261858Y-87791381D01*
X97404715Y-87839001D01*
X94247572Y-86241381D02*
X94247572Y-85241381D01*
X94580905Y-85955667D01*
X94914239Y-85241381D01*
X94914239Y-86241381D01*
X95580905Y-85241381D02*
X95771381Y-85241381D01*
X95866620Y-85289001D01*
X95961858Y-85384239D01*
X96009477Y-85574715D01*
X96009477Y-85908048D01*
X95961858Y-86098524D01*
X95866620Y-86193762D01*
X95771381Y-86241381D01*
X95580905Y-86241381D01*
X95485667Y-86193762D01*
X95390429Y-86098524D01*
X95342810Y-85908048D01*
X95342810Y-85574715D01*
X95390429Y-85384239D01*
X95485667Y-85289001D01*
X95580905Y-85241381D01*
X96390429Y-86193762D02*
X96533286Y-86241381D01*
X96771381Y-86241381D01*
X96866620Y-86193762D01*
X96914239Y-86146143D01*
X96961858Y-86050905D01*
X96961858Y-85955667D01*
X96914239Y-85860429D01*
X96866620Y-85812810D01*
X96771381Y-85765191D01*
X96580905Y-85717572D01*
X96485667Y-85669953D01*
X96438048Y-85622334D01*
X96390429Y-85527096D01*
X96390429Y-85431858D01*
X96438048Y-85336620D01*
X96485667Y-85289001D01*
X96580905Y-85241381D01*
X96819001Y-85241381D01*
X96961858Y-85289001D01*
X97390429Y-86241381D02*
X97390429Y-85241381D01*
X93992810Y-82739001D02*
X93897572Y-82691381D01*
X93754715Y-82691381D01*
X93611858Y-82739001D01*
X93516620Y-82834239D01*
X93469001Y-82929477D01*
X93421381Y-83119953D01*
X93421381Y-83262810D01*
X93469001Y-83453286D01*
X93516620Y-83548524D01*
X93611858Y-83643762D01*
X93754715Y-83691381D01*
X93849953Y-83691381D01*
X93992810Y-83643762D01*
X94040429Y-83596143D01*
X94040429Y-83262810D01*
X93849953Y-83262810D01*
X94469001Y-83691381D02*
X94469001Y-82691381D01*
X94849953Y-82691381D01*
X94945191Y-82739001D01*
X94992810Y-82786620D01*
X95040429Y-82881858D01*
X95040429Y-83024715D01*
X94992810Y-83119953D01*
X94945191Y-83167572D01*
X94849953Y-83215191D01*
X94469001Y-83215191D01*
X95469001Y-83691381D02*
X95469001Y-82691381D01*
X96135667Y-82691381D02*
X96326143Y-82691381D01*
X96421381Y-82739001D01*
X96516620Y-82834239D01*
X96564239Y-83024715D01*
X96564239Y-83358048D01*
X96516620Y-83548524D01*
X96421381Y-83643762D01*
X96326143Y-83691381D01*
X96135667Y-83691381D01*
X96040429Y-83643762D01*
X95945191Y-83548524D01*
X95897572Y-83358048D01*
X95897572Y-83024715D01*
X95945191Y-82834239D01*
X96040429Y-82739001D01*
X96135667Y-82691381D01*
X97040429Y-83691381D02*
X97230905Y-83691381D01*
X97326143Y-83643762D01*
X97373762Y-83596143D01*
X97469001Y-83453286D01*
X97516620Y-83262810D01*
X97516620Y-82881858D01*
X97469001Y-82786620D01*
X97421381Y-82739001D01*
X97326143Y-82691381D01*
X97135667Y-82691381D01*
X97040429Y-82739001D01*
X96992810Y-82786620D01*
X96945191Y-82881858D01*
X96945191Y-83119953D01*
X96992810Y-83215191D01*
X97040429Y-83262810D01*
X97135667Y-83310429D01*
X97326143Y-83310429D01*
X97421381Y-83262810D01*
X97469001Y-83215191D01*
X97516620Y-83119953D01*
X93066620Y-80189001D02*
X92971381Y-80141381D01*
X92828524Y-80141381D01*
X92685667Y-80189001D01*
X92590429Y-80284239D01*
X92542810Y-80379477D01*
X92495191Y-80569953D01*
X92495191Y-80712810D01*
X92542810Y-80903286D01*
X92590429Y-80998524D01*
X92685667Y-81093762D01*
X92828524Y-81141381D01*
X92923762Y-81141381D01*
X93066620Y-81093762D01*
X93114239Y-81046143D01*
X93114239Y-80712810D01*
X92923762Y-80712810D01*
X93542810Y-81141381D02*
X93542810Y-80141381D01*
X93923762Y-80141381D01*
X94019001Y-80189001D01*
X94066620Y-80236620D01*
X94114239Y-80331858D01*
X94114239Y-80474715D01*
X94066620Y-80569953D01*
X94019001Y-80617572D01*
X93923762Y-80665191D01*
X93542810Y-80665191D01*
X94542810Y-81141381D02*
X94542810Y-80141381D01*
X95209477Y-80141381D02*
X95399953Y-80141381D01*
X95495191Y-80189001D01*
X95590429Y-80284239D01*
X95638048Y-80474715D01*
X95638048Y-80808048D01*
X95590429Y-80998524D01*
X95495191Y-81093762D01*
X95399953Y-81141381D01*
X95209477Y-81141381D01*
X95114239Y-81093762D01*
X95019001Y-80998524D01*
X94971381Y-80808048D01*
X94971381Y-80474715D01*
X95019001Y-80284239D01*
X95114239Y-80189001D01*
X95209477Y-80141381D01*
X96590429Y-81141381D02*
X96019001Y-81141381D01*
X96304715Y-81141381D02*
X96304715Y-80141381D01*
X96209477Y-80284239D01*
X96114239Y-80379477D01*
X96019001Y-80427096D01*
X97209477Y-80141381D02*
X97304715Y-80141381D01*
X97399953Y-80189001D01*
X97447572Y-80236620D01*
X97495191Y-80331858D01*
X97542810Y-80522334D01*
X97542810Y-80760429D01*
X97495191Y-80950905D01*
X97447572Y-81046143D01*
X97399953Y-81093762D01*
X97304715Y-81141381D01*
X97209477Y-81141381D01*
X97114239Y-81093762D01*
X97066620Y-81046143D01*
X97019001Y-80950905D01*
X96971381Y-80760429D01*
X96971381Y-80522334D01*
X97019001Y-80331858D01*
X97066620Y-80236620D01*
X97114239Y-80189001D01*
X97209477Y-80141381D01*
X95957096Y-77691381D02*
X96290429Y-78691381D01*
X96623762Y-77691381D01*
X96814239Y-77691381D02*
X97147572Y-78691381D01*
X97480905Y-77691381D01*
X95357096Y-75189001D02*
X95261858Y-75141381D01*
X95119001Y-75141381D01*
X94976143Y-75189001D01*
X94880905Y-75284239D01*
X94833286Y-75379477D01*
X94785667Y-75569953D01*
X94785667Y-75712810D01*
X94833286Y-75903286D01*
X94880905Y-75998524D01*
X94976143Y-76093762D01*
X95119001Y-76141381D01*
X95214239Y-76141381D01*
X95357096Y-76093762D01*
X95404715Y-76046143D01*
X95404715Y-75712810D01*
X95214239Y-75712810D01*
X95833286Y-76141381D02*
X95833286Y-75141381D01*
X96404715Y-76141381D01*
X96404715Y-75141381D01*
X96880905Y-76141381D02*
X96880905Y-75141381D01*
X97119001Y-75141381D01*
X97261858Y-75189001D01*
X97357096Y-75284239D01*
X97404715Y-75379477D01*
X97452334Y-75569953D01*
X97452334Y-75712810D01*
X97404715Y-75903286D01*
X97357096Y-75998524D01*
X97261858Y-76093762D01*
X97119001Y-76141381D01*
X96880905Y-76141381D01*
X94154715Y-73305667D02*
X94630905Y-73305667D01*
X94059477Y-73591381D02*
X94392810Y-72591381D01*
X94726143Y-73591381D01*
X95059477Y-73591381D02*
X95059477Y-72591381D01*
X95297572Y-72591381D01*
X95440429Y-72639001D01*
X95535667Y-72734239D01*
X95583286Y-72829477D01*
X95630905Y-73019953D01*
X95630905Y-73162810D01*
X95583286Y-73353286D01*
X95535667Y-73448524D01*
X95440429Y-73543762D01*
X95297572Y-73591381D01*
X95059477Y-73591381D01*
X96630905Y-73496143D02*
X96583286Y-73543762D01*
X96440429Y-73591381D01*
X96345191Y-73591381D01*
X96202334Y-73543762D01*
X96107096Y-73448524D01*
X96059477Y-73353286D01*
X96011858Y-73162810D01*
X96011858Y-73019953D01*
X96059477Y-72829477D01*
X96107096Y-72734239D01*
X96202334Y-72639001D01*
X96345191Y-72591381D01*
X96440429Y-72591381D01*
X96583286Y-72639001D01*
X96630905Y-72686620D01*
X97249953Y-72591381D02*
X97345191Y-72591381D01*
X97440429Y-72639001D01*
X97488048Y-72686620D01*
X97535667Y-72781858D01*
X97583286Y-72972334D01*
X97583286Y-73210429D01*
X97535667Y-73400905D01*
X97488048Y-73496143D01*
X97440429Y-73543762D01*
X97345191Y-73591381D01*
X97249953Y-73591381D01*
X97154715Y-73543762D01*
X97107096Y-73496143D01*
X97059477Y-73400905D01*
X97011858Y-73210429D01*
X97011858Y-72972334D01*
X97059477Y-72781858D01*
X97107096Y-72686620D01*
X97154715Y-72639001D01*
X97249953Y-72591381D01*
X164662380Y-113727904D02*
X165471904Y-113727904D01*
X165567142Y-113680285D01*
X165614761Y-113632666D01*
X165662380Y-113537428D01*
X165662380Y-113346952D01*
X165614761Y-113251714D01*
X165567142Y-113204095D01*
X165471904Y-113156476D01*
X164662380Y-113156476D01*
X164757619Y-112727904D02*
X164710000Y-112680285D01*
X164662380Y-112585047D01*
X164662380Y-112346952D01*
X164710000Y-112251714D01*
X164757619Y-112204095D01*
X164852857Y-112156476D01*
X164948095Y-112156476D01*
X165090952Y-112204095D01*
X165662380Y-112775523D01*
X165662380Y-112156476D01*
D14*
X135382095Y-111466000D02*
X135286857Y-111418380D01*
X135144000Y-111418380D01*
X135001142Y-111466000D01*
X134905904Y-111561238D01*
X134858285Y-111656476D01*
X134810666Y-111846952D01*
X134810666Y-111989809D01*
X134858285Y-112180285D01*
X134905904Y-112275523D01*
X135001142Y-112370761D01*
X135144000Y-112418380D01*
X135239238Y-112418380D01*
X135382095Y-112370761D01*
X135429714Y-112323142D01*
X135429714Y-111989809D01*
X135239238Y-111989809D01*
X135858285Y-112418380D02*
X135858285Y-111418380D01*
X136429714Y-112418380D01*
X136429714Y-111418380D01*
X136905904Y-112418380D02*
X136905904Y-111418380D01*
X137144000Y-111418380D01*
X137286857Y-111466000D01*
X137382095Y-111561238D01*
X137429714Y-111656476D01*
X137477333Y-111846952D01*
X137477333Y-111989809D01*
X137429714Y-112180285D01*
X137382095Y-112275523D01*
X137286857Y-112370761D01*
X137144000Y-112418380D01*
X136905904Y-112418380D01*
X134644000Y-109418380D02*
X134644000Y-108418380D01*
X134882095Y-108418380D01*
X135024952Y-108466000D01*
X135120190Y-108561238D01*
X135167809Y-108656476D01*
X135215428Y-108846952D01*
X135215428Y-108989809D01*
X135167809Y-109180285D01*
X135120190Y-109275523D01*
X135024952Y-109370761D01*
X134882095Y-109418380D01*
X134644000Y-109418380D01*
X135596380Y-109132666D02*
X136072571Y-109132666D01*
X135501142Y-109418380D02*
X135834476Y-108418380D01*
X136167809Y-109418380D01*
X136358285Y-108418380D02*
X136929714Y-108418380D01*
X136644000Y-109418380D02*
X136644000Y-108418380D01*
X137215428Y-109132666D02*
X137691619Y-109132666D01*
X137120190Y-109418380D02*
X137453523Y-108418380D01*
X137786857Y-109418380D01*
X135064666Y-105878380D02*
X135398000Y-106878380D01*
X135731333Y-105878380D01*
X136636095Y-106783142D02*
X136588476Y-106830761D01*
X136445619Y-106878380D01*
X136350380Y-106878380D01*
X136207523Y-106830761D01*
X136112285Y-106735523D01*
X136064666Y-106640285D01*
X136017047Y-106449809D01*
X136017047Y-106306952D01*
X136064666Y-106116476D01*
X136112285Y-106021238D01*
X136207523Y-105926000D01*
X136350380Y-105878380D01*
X136445619Y-105878380D01*
X136588476Y-105926000D01*
X136636095Y-105973619D01*
X137636095Y-106783142D02*
X137588476Y-106830761D01*
X137445619Y-106878380D01*
X137350380Y-106878380D01*
X137207523Y-106830761D01*
X137112285Y-106735523D01*
X137064666Y-106640285D01*
X137017047Y-106449809D01*
X137017047Y-106306952D01*
X137064666Y-106116476D01*
X137112285Y-106021238D01*
X137207523Y-105926000D01*
X137350380Y-105878380D01*
X137445619Y-105878380D01*
X137588476Y-105926000D01*
X137636095Y-105973619D01*
D12*
X138342952Y-118054380D02*
X138342952Y-117054380D01*
X138581047Y-117054380D01*
X138723904Y-117102000D01*
X138819142Y-117197238D01*
X138866761Y-117292476D01*
X138914380Y-117482952D01*
X138914380Y-117625809D01*
X138866761Y-117816285D01*
X138819142Y-117911523D01*
X138723904Y-118006761D01*
X138581047Y-118054380D01*
X138342952Y-118054380D01*
X139342952Y-118054380D02*
X139342952Y-117054380D01*
X139342952Y-117530571D02*
X139914380Y-117530571D01*
X139914380Y-118054380D02*
X139914380Y-117054380D01*
X140247714Y-117054380D02*
X140819142Y-117054380D01*
X140533428Y-118054380D02*
X140533428Y-117054380D01*
X141104857Y-117149619D02*
X141152476Y-117102000D01*
X141247714Y-117054380D01*
X141485809Y-117054380D01*
X141581047Y-117102000D01*
X141628666Y-117149619D01*
X141676285Y-117244857D01*
X141676285Y-117340095D01*
X141628666Y-117482952D01*
X141057238Y-118054380D01*
X141676285Y-118054380D01*
X142057238Y-117149619D02*
X142104857Y-117102000D01*
X142200095Y-117054380D01*
X142438190Y-117054380D01*
X142533428Y-117102000D01*
X142581047Y-117149619D01*
X142628666Y-117244857D01*
X142628666Y-117340095D01*
X142581047Y-117482952D01*
X142009619Y-118054380D01*
X142628666Y-118054380D01*
X76962095Y-70548380D02*
X76962095Y-71357904D01*
X77009714Y-71453142D01*
X77057333Y-71500761D01*
X77152571Y-71548380D01*
X77343047Y-71548380D01*
X77438285Y-71500761D01*
X77485904Y-71453142D01*
X77533523Y-71357904D01*
X77533523Y-70548380D01*
X77914476Y-70548380D02*
X78533523Y-70548380D01*
X78200190Y-70929333D01*
X78343047Y-70929333D01*
X78438285Y-70976952D01*
X78485904Y-71024571D01*
X78533523Y-71119809D01*
X78533523Y-71357904D01*
X78485904Y-71453142D01*
X78438285Y-71500761D01*
X78343047Y-71548380D01*
X78057333Y-71548380D01*
X77962095Y-71500761D01*
X77914476Y-71453142D01*
X74382380Y-69532000D02*
X74382380Y-70008190D01*
X74858571Y-70055809D01*
X74810952Y-70008190D01*
X74763333Y-69912952D01*
X74763333Y-69674857D01*
X74810952Y-69579619D01*
X74858571Y-69532000D01*
X74953809Y-69484380D01*
X75191904Y-69484380D01*
X75287142Y-69532000D01*
X75334761Y-69579619D01*
X75382380Y-69674857D01*
X75382380Y-69912952D01*
X75334761Y-70008190D01*
X75287142Y-70055809D01*
X74382380Y-69198666D02*
X75382380Y-68865333D01*
X74382380Y-68532000D01*
X75477619Y-68436761D02*
X75477619Y-67674857D01*
X74382380Y-67579619D02*
X74382380Y-67008190D01*
X75382380Y-67293904D02*
X74382380Y-67293904D01*
X75334761Y-66293904D02*
X75382380Y-66389142D01*
X75382380Y-66579619D01*
X75334761Y-66674857D01*
X75239523Y-66722476D01*
X74858571Y-66722476D01*
X74763333Y-66674857D01*
X74715714Y-66579619D01*
X74715714Y-66389142D01*
X74763333Y-66293904D01*
X74858571Y-66246285D01*
X74953809Y-66246285D01*
X75049047Y-66722476D01*
X75334761Y-65865333D02*
X75382380Y-65770095D01*
X75382380Y-65579619D01*
X75334761Y-65484380D01*
X75239523Y-65436761D01*
X75191904Y-65436761D01*
X75096666Y-65484380D01*
X75049047Y-65579619D01*
X75049047Y-65722476D01*
X75001428Y-65817714D01*
X74906190Y-65865333D01*
X74858571Y-65865333D01*
X74763333Y-65817714D01*
X74715714Y-65722476D01*
X74715714Y-65579619D01*
X74763333Y-65484380D01*
X74715714Y-65151047D02*
X74715714Y-64770095D01*
X74382380Y-65008190D02*
X75239523Y-65008190D01*
X75334761Y-64960571D01*
X75382380Y-64865333D01*
X75382380Y-64770095D01*
X75382380Y-64436761D02*
X74382380Y-64436761D01*
X74382380Y-64055809D01*
X74430000Y-63960571D01*
X74477619Y-63912952D01*
X74572857Y-63865333D01*
X74715714Y-63865333D01*
X74810952Y-63912952D01*
X74858571Y-63960571D01*
X74906190Y-64055809D01*
X74906190Y-64436761D01*
X75382380Y-63293904D02*
X75334761Y-63389142D01*
X75287142Y-63436761D01*
X75191904Y-63484380D01*
X74906190Y-63484380D01*
X74810952Y-63436761D01*
X74763333Y-63389142D01*
X74715714Y-63293904D01*
X74715714Y-63151047D01*
X74763333Y-63055809D01*
X74810952Y-63008190D01*
X74906190Y-62960571D01*
X75191904Y-62960571D01*
X75287142Y-63008190D01*
X75334761Y-63055809D01*
X75382380Y-63151047D01*
X75382380Y-63293904D01*
X75382380Y-62532000D02*
X74715714Y-62532000D01*
X74382380Y-62532000D02*
X74430000Y-62579619D01*
X74477619Y-62532000D01*
X74430000Y-62484380D01*
X74382380Y-62532000D01*
X74477619Y-62532000D01*
X74715714Y-62055809D02*
X75382380Y-62055809D01*
X74810952Y-62055809D02*
X74763333Y-62008190D01*
X74715714Y-61912952D01*
X74715714Y-61770095D01*
X74763333Y-61674857D01*
X74858571Y-61627238D01*
X75382380Y-61627238D01*
X74715714Y-61293904D02*
X74715714Y-60912952D01*
X74382380Y-61151047D02*
X75239523Y-61151047D01*
X75334761Y-61103428D01*
X75382380Y-61008190D01*
X75382380Y-60912952D01*
X84328095Y-70572380D02*
X84328095Y-71381904D01*
X84375714Y-71477142D01*
X84423333Y-71524761D01*
X84518571Y-71572380D01*
X84709047Y-71572380D01*
X84804285Y-71524761D01*
X84851904Y-71477142D01*
X84899523Y-71381904D01*
X84899523Y-70572380D01*
X85804285Y-70905714D02*
X85804285Y-71572380D01*
X85566190Y-70524761D02*
X85328095Y-71239047D01*
X85947142Y-71239047D01*
X81494380Y-70325619D02*
X81494380Y-69706571D01*
X81875333Y-70039904D01*
X81875333Y-69897047D01*
X81922952Y-69801809D01*
X81970571Y-69754190D01*
X82065809Y-69706571D01*
X82303904Y-69706571D01*
X82399142Y-69754190D01*
X82446761Y-69801809D01*
X82494380Y-69897047D01*
X82494380Y-70182761D01*
X82446761Y-70278000D01*
X82399142Y-70325619D01*
X81494380Y-69420857D02*
X82494380Y-69087523D01*
X81494380Y-68754190D01*
X81494380Y-68516095D02*
X81494380Y-67897047D01*
X81875333Y-68230380D01*
X81875333Y-68087523D01*
X81922952Y-67992285D01*
X81970571Y-67944666D01*
X82065809Y-67897047D01*
X82303904Y-67897047D01*
X82399142Y-67944666D01*
X82446761Y-67992285D01*
X82494380Y-68087523D01*
X82494380Y-68373238D01*
X82446761Y-68468476D01*
X82399142Y-68516095D01*
X82589619Y-67706571D02*
X82589619Y-66944666D01*
X81494380Y-66849428D02*
X81494380Y-66278000D01*
X82494380Y-66563714D02*
X81494380Y-66563714D01*
X82446761Y-65563714D02*
X82494380Y-65658952D01*
X82494380Y-65849428D01*
X82446761Y-65944666D01*
X82351523Y-65992285D01*
X81970571Y-65992285D01*
X81875333Y-65944666D01*
X81827714Y-65849428D01*
X81827714Y-65658952D01*
X81875333Y-65563714D01*
X81970571Y-65516095D01*
X82065809Y-65516095D01*
X82161047Y-65992285D01*
X82446761Y-65135142D02*
X82494380Y-65039904D01*
X82494380Y-64849428D01*
X82446761Y-64754190D01*
X82351523Y-64706571D01*
X82303904Y-64706571D01*
X82208666Y-64754190D01*
X82161047Y-64849428D01*
X82161047Y-64992285D01*
X82113428Y-65087523D01*
X82018190Y-65135142D01*
X81970571Y-65135142D01*
X81875333Y-65087523D01*
X81827714Y-64992285D01*
X81827714Y-64849428D01*
X81875333Y-64754190D01*
X81827714Y-64420857D02*
X81827714Y-64039904D01*
X81494380Y-64278000D02*
X82351523Y-64278000D01*
X82446761Y-64230380D01*
X82494380Y-64135142D01*
X82494380Y-64039904D01*
X82494380Y-63706571D02*
X81494380Y-63706571D01*
X81494380Y-63325619D01*
X81542000Y-63230380D01*
X81589619Y-63182761D01*
X81684857Y-63135142D01*
X81827714Y-63135142D01*
X81922952Y-63182761D01*
X81970571Y-63230380D01*
X82018190Y-63325619D01*
X82018190Y-63706571D01*
X82494380Y-62563714D02*
X82446761Y-62658952D01*
X82399142Y-62706571D01*
X82303904Y-62754190D01*
X82018190Y-62754190D01*
X81922952Y-62706571D01*
X81875333Y-62658952D01*
X81827714Y-62563714D01*
X81827714Y-62420857D01*
X81875333Y-62325619D01*
X81922952Y-62278000D01*
X82018190Y-62230380D01*
X82303904Y-62230380D01*
X82399142Y-62278000D01*
X82446761Y-62325619D01*
X82494380Y-62420857D01*
X82494380Y-62563714D01*
X82494380Y-61801809D02*
X81827714Y-61801809D01*
X81494380Y-61801809D02*
X81542000Y-61849428D01*
X81589619Y-61801809D01*
X81542000Y-61754190D01*
X81494380Y-61801809D01*
X81589619Y-61801809D01*
X81827714Y-61325619D02*
X82494380Y-61325619D01*
X81922952Y-61325619D02*
X81875333Y-61278000D01*
X81827714Y-61182761D01*
X81827714Y-61039904D01*
X81875333Y-60944666D01*
X81970571Y-60897047D01*
X82494380Y-60897047D01*
X81827714Y-60563714D02*
X81827714Y-60182761D01*
X81494380Y-60420857D02*
X82351523Y-60420857D01*
X82446761Y-60373238D01*
X82494380Y-60278000D01*
X82494380Y-60182761D01*
M02*
