G04 #@! TF.GenerationSoftware,KiCad,Pcbnew,(5.1.2)-2*
G04 #@! TF.CreationDate,2019-07-02T12:48:51+07:00*
G04 #@! TF.ProjectId,weather,77656174-6865-4722-9e6b-696361645f70,rev?*
G04 #@! TF.SameCoordinates,Original*
G04 #@! TF.FileFunction,Copper,L2,Bot*
G04 #@! TF.FilePolarity,Positive*
%FSLAX46Y46*%
G04 Gerber Fmt 4.6, Leading zero omitted, Abs format (unit mm)*
G04 Created by KiCad (PCBNEW (5.1.2)-2) date 2019-07-02 12:48:51*
%MOMM*%
%LPD*%
G04 APERTURE LIST*
%ADD10O,1.700000X1.700000*%
%ADD11R,1.700000X1.700000*%
%ADD12C,0.100000*%
%ADD13C,0.975000*%
%ADD14O,1.600000X1.600000*%
%ADD15C,1.600000*%
%ADD16C,0.800000*%
%ADD17C,0.600000*%
%ADD18C,0.300000*%
G04 APERTURE END LIST*
D10*
X165354000Y-82296000D03*
X165354000Y-84836000D03*
X165354000Y-87376000D03*
D11*
X165354000Y-89916000D03*
D10*
X73202000Y-113127048D03*
X75742000Y-113127048D03*
X78282000Y-113127048D03*
X80822000Y-113127048D03*
X83362000Y-113127048D03*
D11*
X85902000Y-113127048D03*
D12*
G36*
X110462142Y-72236174D02*
G01*
X110485803Y-72239684D01*
X110509007Y-72245496D01*
X110531529Y-72253554D01*
X110553153Y-72263782D01*
X110573670Y-72276079D01*
X110592883Y-72290329D01*
X110610607Y-72306393D01*
X110626671Y-72324117D01*
X110640921Y-72343330D01*
X110653218Y-72363847D01*
X110663446Y-72385471D01*
X110671504Y-72407993D01*
X110677316Y-72431197D01*
X110680826Y-72454858D01*
X110682000Y-72478750D01*
X110682000Y-72966250D01*
X110680826Y-72990142D01*
X110677316Y-73013803D01*
X110671504Y-73037007D01*
X110663446Y-73059529D01*
X110653218Y-73081153D01*
X110640921Y-73101670D01*
X110626671Y-73120883D01*
X110610607Y-73138607D01*
X110592883Y-73154671D01*
X110573670Y-73168921D01*
X110553153Y-73181218D01*
X110531529Y-73191446D01*
X110509007Y-73199504D01*
X110485803Y-73205316D01*
X110462142Y-73208826D01*
X110438250Y-73210000D01*
X109525750Y-73210000D01*
X109501858Y-73208826D01*
X109478197Y-73205316D01*
X109454993Y-73199504D01*
X109432471Y-73191446D01*
X109410847Y-73181218D01*
X109390330Y-73168921D01*
X109371117Y-73154671D01*
X109353393Y-73138607D01*
X109337329Y-73120883D01*
X109323079Y-73101670D01*
X109310782Y-73081153D01*
X109300554Y-73059529D01*
X109292496Y-73037007D01*
X109286684Y-73013803D01*
X109283174Y-72990142D01*
X109282000Y-72966250D01*
X109282000Y-72478750D01*
X109283174Y-72454858D01*
X109286684Y-72431197D01*
X109292496Y-72407993D01*
X109300554Y-72385471D01*
X109310782Y-72363847D01*
X109323079Y-72343330D01*
X109337329Y-72324117D01*
X109353393Y-72306393D01*
X109371117Y-72290329D01*
X109390330Y-72276079D01*
X109410847Y-72263782D01*
X109432471Y-72253554D01*
X109454993Y-72245496D01*
X109478197Y-72239684D01*
X109501858Y-72236174D01*
X109525750Y-72235000D01*
X110438250Y-72235000D01*
X110462142Y-72236174D01*
X110462142Y-72236174D01*
G37*
D13*
X109982000Y-72722500D03*
D12*
G36*
X110462142Y-74111174D02*
G01*
X110485803Y-74114684D01*
X110509007Y-74120496D01*
X110531529Y-74128554D01*
X110553153Y-74138782D01*
X110573670Y-74151079D01*
X110592883Y-74165329D01*
X110610607Y-74181393D01*
X110626671Y-74199117D01*
X110640921Y-74218330D01*
X110653218Y-74238847D01*
X110663446Y-74260471D01*
X110671504Y-74282993D01*
X110677316Y-74306197D01*
X110680826Y-74329858D01*
X110682000Y-74353750D01*
X110682000Y-74841250D01*
X110680826Y-74865142D01*
X110677316Y-74888803D01*
X110671504Y-74912007D01*
X110663446Y-74934529D01*
X110653218Y-74956153D01*
X110640921Y-74976670D01*
X110626671Y-74995883D01*
X110610607Y-75013607D01*
X110592883Y-75029671D01*
X110573670Y-75043921D01*
X110553153Y-75056218D01*
X110531529Y-75066446D01*
X110509007Y-75074504D01*
X110485803Y-75080316D01*
X110462142Y-75083826D01*
X110438250Y-75085000D01*
X109525750Y-75085000D01*
X109501858Y-75083826D01*
X109478197Y-75080316D01*
X109454993Y-75074504D01*
X109432471Y-75066446D01*
X109410847Y-75056218D01*
X109390330Y-75043921D01*
X109371117Y-75029671D01*
X109353393Y-75013607D01*
X109337329Y-74995883D01*
X109323079Y-74976670D01*
X109310782Y-74956153D01*
X109300554Y-74934529D01*
X109292496Y-74912007D01*
X109286684Y-74888803D01*
X109283174Y-74865142D01*
X109282000Y-74841250D01*
X109282000Y-74353750D01*
X109283174Y-74329858D01*
X109286684Y-74306197D01*
X109292496Y-74282993D01*
X109300554Y-74260471D01*
X109310782Y-74238847D01*
X109323079Y-74218330D01*
X109337329Y-74199117D01*
X109353393Y-74181393D01*
X109371117Y-74165329D01*
X109390330Y-74151079D01*
X109410847Y-74138782D01*
X109432471Y-74128554D01*
X109454993Y-74120496D01*
X109478197Y-74114684D01*
X109501858Y-74111174D01*
X109525750Y-74110000D01*
X110438250Y-74110000D01*
X110462142Y-74111174D01*
X110462142Y-74111174D01*
G37*
D13*
X109982000Y-74597500D03*
D14*
X91948000Y-61468000D03*
D15*
X91948000Y-69088000D03*
D12*
G36*
X77151142Y-90995174D02*
G01*
X77174803Y-90998684D01*
X77198007Y-91004496D01*
X77220529Y-91012554D01*
X77242153Y-91022782D01*
X77262670Y-91035079D01*
X77281883Y-91049329D01*
X77299607Y-91065393D01*
X77315671Y-91083117D01*
X77329921Y-91102330D01*
X77342218Y-91122847D01*
X77352446Y-91144471D01*
X77360504Y-91166993D01*
X77366316Y-91190197D01*
X77369826Y-91213858D01*
X77371000Y-91237750D01*
X77371000Y-92150250D01*
X77369826Y-92174142D01*
X77366316Y-92197803D01*
X77360504Y-92221007D01*
X77352446Y-92243529D01*
X77342218Y-92265153D01*
X77329921Y-92285670D01*
X77315671Y-92304883D01*
X77299607Y-92322607D01*
X77281883Y-92338671D01*
X77262670Y-92352921D01*
X77242153Y-92365218D01*
X77220529Y-92375446D01*
X77198007Y-92383504D01*
X77174803Y-92389316D01*
X77151142Y-92392826D01*
X77127250Y-92394000D01*
X76639750Y-92394000D01*
X76615858Y-92392826D01*
X76592197Y-92389316D01*
X76568993Y-92383504D01*
X76546471Y-92375446D01*
X76524847Y-92365218D01*
X76504330Y-92352921D01*
X76485117Y-92338671D01*
X76467393Y-92322607D01*
X76451329Y-92304883D01*
X76437079Y-92285670D01*
X76424782Y-92265153D01*
X76414554Y-92243529D01*
X76406496Y-92221007D01*
X76400684Y-92197803D01*
X76397174Y-92174142D01*
X76396000Y-92150250D01*
X76396000Y-91237750D01*
X76397174Y-91213858D01*
X76400684Y-91190197D01*
X76406496Y-91166993D01*
X76414554Y-91144471D01*
X76424782Y-91122847D01*
X76437079Y-91102330D01*
X76451329Y-91083117D01*
X76467393Y-91065393D01*
X76485117Y-91049329D01*
X76504330Y-91035079D01*
X76524847Y-91022782D01*
X76546471Y-91012554D01*
X76568993Y-91004496D01*
X76592197Y-90998684D01*
X76615858Y-90995174D01*
X76639750Y-90994000D01*
X77127250Y-90994000D01*
X77151142Y-90995174D01*
X77151142Y-90995174D01*
G37*
D13*
X76883500Y-91694000D03*
D12*
G36*
X75276142Y-90995174D02*
G01*
X75299803Y-90998684D01*
X75323007Y-91004496D01*
X75345529Y-91012554D01*
X75367153Y-91022782D01*
X75387670Y-91035079D01*
X75406883Y-91049329D01*
X75424607Y-91065393D01*
X75440671Y-91083117D01*
X75454921Y-91102330D01*
X75467218Y-91122847D01*
X75477446Y-91144471D01*
X75485504Y-91166993D01*
X75491316Y-91190197D01*
X75494826Y-91213858D01*
X75496000Y-91237750D01*
X75496000Y-92150250D01*
X75494826Y-92174142D01*
X75491316Y-92197803D01*
X75485504Y-92221007D01*
X75477446Y-92243529D01*
X75467218Y-92265153D01*
X75454921Y-92285670D01*
X75440671Y-92304883D01*
X75424607Y-92322607D01*
X75406883Y-92338671D01*
X75387670Y-92352921D01*
X75367153Y-92365218D01*
X75345529Y-92375446D01*
X75323007Y-92383504D01*
X75299803Y-92389316D01*
X75276142Y-92392826D01*
X75252250Y-92394000D01*
X74764750Y-92394000D01*
X74740858Y-92392826D01*
X74717197Y-92389316D01*
X74693993Y-92383504D01*
X74671471Y-92375446D01*
X74649847Y-92365218D01*
X74629330Y-92352921D01*
X74610117Y-92338671D01*
X74592393Y-92322607D01*
X74576329Y-92304883D01*
X74562079Y-92285670D01*
X74549782Y-92265153D01*
X74539554Y-92243529D01*
X74531496Y-92221007D01*
X74525684Y-92197803D01*
X74522174Y-92174142D01*
X74521000Y-92150250D01*
X74521000Y-91237750D01*
X74522174Y-91213858D01*
X74525684Y-91190197D01*
X74531496Y-91166993D01*
X74539554Y-91144471D01*
X74549782Y-91122847D01*
X74562079Y-91102330D01*
X74576329Y-91083117D01*
X74592393Y-91065393D01*
X74610117Y-91049329D01*
X74629330Y-91035079D01*
X74649847Y-91022782D01*
X74671471Y-91012554D01*
X74693993Y-91004496D01*
X74717197Y-90998684D01*
X74740858Y-90995174D01*
X74764750Y-90994000D01*
X75252250Y-90994000D01*
X75276142Y-90995174D01*
X75276142Y-90995174D01*
G37*
D13*
X75008500Y-91694000D03*
D12*
G36*
X120368142Y-72236174D02*
G01*
X120391803Y-72239684D01*
X120415007Y-72245496D01*
X120437529Y-72253554D01*
X120459153Y-72263782D01*
X120479670Y-72276079D01*
X120498883Y-72290329D01*
X120516607Y-72306393D01*
X120532671Y-72324117D01*
X120546921Y-72343330D01*
X120559218Y-72363847D01*
X120569446Y-72385471D01*
X120577504Y-72407993D01*
X120583316Y-72431197D01*
X120586826Y-72454858D01*
X120588000Y-72478750D01*
X120588000Y-72966250D01*
X120586826Y-72990142D01*
X120583316Y-73013803D01*
X120577504Y-73037007D01*
X120569446Y-73059529D01*
X120559218Y-73081153D01*
X120546921Y-73101670D01*
X120532671Y-73120883D01*
X120516607Y-73138607D01*
X120498883Y-73154671D01*
X120479670Y-73168921D01*
X120459153Y-73181218D01*
X120437529Y-73191446D01*
X120415007Y-73199504D01*
X120391803Y-73205316D01*
X120368142Y-73208826D01*
X120344250Y-73210000D01*
X119431750Y-73210000D01*
X119407858Y-73208826D01*
X119384197Y-73205316D01*
X119360993Y-73199504D01*
X119338471Y-73191446D01*
X119316847Y-73181218D01*
X119296330Y-73168921D01*
X119277117Y-73154671D01*
X119259393Y-73138607D01*
X119243329Y-73120883D01*
X119229079Y-73101670D01*
X119216782Y-73081153D01*
X119206554Y-73059529D01*
X119198496Y-73037007D01*
X119192684Y-73013803D01*
X119189174Y-72990142D01*
X119188000Y-72966250D01*
X119188000Y-72478750D01*
X119189174Y-72454858D01*
X119192684Y-72431197D01*
X119198496Y-72407993D01*
X119206554Y-72385471D01*
X119216782Y-72363847D01*
X119229079Y-72343330D01*
X119243329Y-72324117D01*
X119259393Y-72306393D01*
X119277117Y-72290329D01*
X119296330Y-72276079D01*
X119316847Y-72263782D01*
X119338471Y-72253554D01*
X119360993Y-72245496D01*
X119384197Y-72239684D01*
X119407858Y-72236174D01*
X119431750Y-72235000D01*
X120344250Y-72235000D01*
X120368142Y-72236174D01*
X120368142Y-72236174D01*
G37*
D13*
X119888000Y-72722500D03*
D12*
G36*
X120368142Y-74111174D02*
G01*
X120391803Y-74114684D01*
X120415007Y-74120496D01*
X120437529Y-74128554D01*
X120459153Y-74138782D01*
X120479670Y-74151079D01*
X120498883Y-74165329D01*
X120516607Y-74181393D01*
X120532671Y-74199117D01*
X120546921Y-74218330D01*
X120559218Y-74238847D01*
X120569446Y-74260471D01*
X120577504Y-74282993D01*
X120583316Y-74306197D01*
X120586826Y-74329858D01*
X120588000Y-74353750D01*
X120588000Y-74841250D01*
X120586826Y-74865142D01*
X120583316Y-74888803D01*
X120577504Y-74912007D01*
X120569446Y-74934529D01*
X120559218Y-74956153D01*
X120546921Y-74976670D01*
X120532671Y-74995883D01*
X120516607Y-75013607D01*
X120498883Y-75029671D01*
X120479670Y-75043921D01*
X120459153Y-75056218D01*
X120437529Y-75066446D01*
X120415007Y-75074504D01*
X120391803Y-75080316D01*
X120368142Y-75083826D01*
X120344250Y-75085000D01*
X119431750Y-75085000D01*
X119407858Y-75083826D01*
X119384197Y-75080316D01*
X119360993Y-75074504D01*
X119338471Y-75066446D01*
X119316847Y-75056218D01*
X119296330Y-75043921D01*
X119277117Y-75029671D01*
X119259393Y-75013607D01*
X119243329Y-74995883D01*
X119229079Y-74976670D01*
X119216782Y-74956153D01*
X119206554Y-74934529D01*
X119198496Y-74912007D01*
X119192684Y-74888803D01*
X119189174Y-74865142D01*
X119188000Y-74841250D01*
X119188000Y-74353750D01*
X119189174Y-74329858D01*
X119192684Y-74306197D01*
X119198496Y-74282993D01*
X119206554Y-74260471D01*
X119216782Y-74238847D01*
X119229079Y-74218330D01*
X119243329Y-74199117D01*
X119259393Y-74181393D01*
X119277117Y-74165329D01*
X119296330Y-74151079D01*
X119316847Y-74138782D01*
X119338471Y-74128554D01*
X119360993Y-74120496D01*
X119384197Y-74114684D01*
X119407858Y-74111174D01*
X119431750Y-74110000D01*
X120344250Y-74110000D01*
X120368142Y-74111174D01*
X120368142Y-74111174D01*
G37*
D13*
X119888000Y-74597500D03*
D10*
X127979001Y-85739001D03*
X127979001Y-75579001D03*
X127979001Y-90819001D03*
X127979001Y-93359001D03*
X127979001Y-78119001D03*
X127979001Y-108599001D03*
X127979001Y-106059001D03*
X127979001Y-98439001D03*
X127979001Y-103519001D03*
X127979001Y-100979001D03*
X127979001Y-95899001D03*
X127919001Y-88299001D03*
X127979001Y-83199001D03*
X127979001Y-80659001D03*
D11*
X127979001Y-73039001D03*
D10*
X99919001Y-108619001D03*
X99919001Y-106079001D03*
X99919001Y-103539001D03*
X99919001Y-100999001D03*
X99919001Y-98459001D03*
X99919001Y-95919001D03*
X99919001Y-93379001D03*
X99919001Y-90839001D03*
X99919001Y-88299001D03*
X99919001Y-85759001D03*
X99919001Y-83219001D03*
X99919001Y-80679001D03*
X99919001Y-78139001D03*
X99919001Y-75599001D03*
D11*
X99919001Y-73059001D03*
D10*
X140970000Y-111506000D03*
X140970000Y-108966000D03*
D11*
X140970000Y-106426000D03*
D10*
X77724000Y-63246000D03*
X77724000Y-65786000D03*
D11*
X77724000Y-68326000D03*
X84836000Y-62992000D03*
D10*
X84836000Y-65532000D03*
X84836000Y-68072000D03*
D16*
X78232000Y-63246000D02*
X77724000Y-63246000D01*
X119888000Y-74597500D02*
X124460000Y-79169500D01*
X124460000Y-82220000D02*
X127979001Y-85739001D01*
X124460000Y-79169500D02*
X124460000Y-82220000D01*
X115237500Y-74597500D02*
X119888000Y-74597500D01*
X86486000Y-62992000D02*
X90550000Y-67056000D01*
X84836000Y-62992000D02*
X86486000Y-62992000D01*
X90550000Y-67056000D02*
X93218000Y-67056000D01*
X93218000Y-67056000D02*
X96774000Y-70612000D01*
X96774000Y-70612000D02*
X111252000Y-70612000D01*
X111252000Y-70612000D02*
X115237500Y-74597500D01*
D17*
X139776000Y-87376000D02*
X127979001Y-75579001D01*
X165354000Y-87376000D02*
X139776000Y-87376000D01*
X139776000Y-89916000D02*
X127979001Y-78119001D01*
X165354000Y-89916000D02*
X139776000Y-89916000D01*
D16*
X99919001Y-78139001D02*
X85633001Y-78139001D01*
X76883500Y-85930500D02*
X76883500Y-91694000D01*
X85633001Y-78139001D02*
X84674999Y-78139001D01*
X84674999Y-78139001D02*
X76883500Y-85930500D01*
X77724000Y-71188002D02*
X77724000Y-69596000D01*
X84674999Y-78139001D02*
X77724000Y-71188002D01*
X77724000Y-69596000D02*
X77724000Y-68326000D01*
D17*
X127129002Y-94209000D02*
X127025000Y-94209000D01*
X127979001Y-93359001D02*
X127129002Y-94209000D01*
X127025000Y-94209000D02*
X108712000Y-112522000D01*
X108712000Y-112522000D02*
X90678000Y-112522000D01*
X90678000Y-112522000D02*
X87376000Y-109220000D01*
X82189048Y-109220000D02*
X78282000Y-113127048D01*
X87376000Y-109220000D02*
X82189048Y-109220000D01*
X109832002Y-114046000D02*
X127979001Y-95899001D01*
X90170000Y-114046000D02*
X109832002Y-114046000D01*
X86360000Y-110236000D02*
X90170000Y-114046000D01*
X80822000Y-113127048D02*
X83713048Y-110236000D01*
X83713048Y-110236000D02*
X86360000Y-110236000D01*
X83362000Y-113127048D02*
X83362000Y-114604000D01*
X83362000Y-114604000D02*
X85852000Y-117094000D01*
X85852000Y-117094000D02*
X112268000Y-117094000D01*
X112268000Y-117094000D02*
X117856000Y-111506000D01*
X117856000Y-111506000D02*
X129794000Y-111506000D01*
X129794000Y-111506000D02*
X131064000Y-110236000D01*
X131064000Y-93904000D02*
X127979001Y-90819001D01*
X131064000Y-110236000D02*
X131064000Y-93904000D01*
X85902000Y-113127048D02*
X87352000Y-113127048D01*
X87352000Y-113127048D02*
X89794952Y-115570000D01*
X89794952Y-115570000D02*
X110848002Y-115570000D01*
X127129002Y-99289000D02*
X127979001Y-98439001D01*
X110848002Y-115570000D02*
X127129002Y-99289000D01*
X95919001Y-73059001D02*
X91948000Y-69088000D01*
X99919001Y-73059001D02*
X95919001Y-73059001D01*
X109645499Y-73059001D02*
X109982000Y-72722500D01*
X99919001Y-73059001D02*
X109645499Y-73059001D01*
X132588000Y-87808000D02*
X128270000Y-83490000D01*
X128270000Y-83490000D02*
X127979001Y-83199001D01*
X140970000Y-108966000D02*
X133858000Y-108966000D01*
X132588000Y-107696000D02*
X132588000Y-87808000D01*
X133858000Y-108966000D02*
X132588000Y-107696000D01*
D16*
X140970000Y-97790000D02*
X140970000Y-106426000D01*
X145288000Y-93472000D02*
X140970000Y-97790000D01*
X164578002Y-93472000D02*
X145288000Y-93472000D01*
X167132000Y-90918002D02*
X164578002Y-93472000D01*
X165354000Y-84836000D02*
X167132000Y-86614000D01*
X167132000Y-86614000D02*
X167132000Y-90918002D01*
X119888000Y-72722500D02*
X123268500Y-69342000D01*
X123268500Y-69342000D02*
X129286000Y-69342000D01*
X129286000Y-69342000D02*
X131318000Y-71374000D01*
X131318000Y-71374000D02*
X131318000Y-76200000D01*
X139954000Y-84836000D02*
X165354000Y-84836000D01*
X131318000Y-76200000D02*
X139954000Y-84836000D01*
X116253500Y-69088000D02*
X119888000Y-72722500D01*
X99314000Y-69088000D02*
X116253500Y-69088000D01*
X92747999Y-62521999D02*
X99314000Y-69088000D01*
X91948000Y-61468000D02*
X92747999Y-62267999D01*
X92747999Y-62267999D02*
X92747999Y-62521999D01*
X75742000Y-92427500D02*
X75008500Y-91694000D01*
X75742000Y-113127048D02*
X75742000Y-92427500D01*
D18*
G36*
X169447001Y-123219000D02*
G01*
X65249000Y-123219000D01*
X65249000Y-120427606D01*
X66576000Y-120427606D01*
X66576000Y-120872394D01*
X66662774Y-121308634D01*
X66832987Y-121719564D01*
X67080097Y-122089391D01*
X67394609Y-122403903D01*
X67764436Y-122651013D01*
X68175366Y-122821226D01*
X68611606Y-122908000D01*
X69056394Y-122908000D01*
X69492634Y-122821226D01*
X69903564Y-122651013D01*
X70273391Y-122403903D01*
X70587903Y-122089391D01*
X70835013Y-121719564D01*
X71005226Y-121308634D01*
X71092000Y-120872394D01*
X71092000Y-120427606D01*
X71005226Y-119991366D01*
X70975502Y-119919606D01*
X162842000Y-119919606D01*
X162842000Y-120364394D01*
X162928774Y-120800634D01*
X163098987Y-121211564D01*
X163346097Y-121581391D01*
X163660609Y-121895903D01*
X164030436Y-122143013D01*
X164441366Y-122313226D01*
X164877606Y-122400000D01*
X165322394Y-122400000D01*
X165758634Y-122313226D01*
X166169564Y-122143013D01*
X166539391Y-121895903D01*
X166853903Y-121581391D01*
X167101013Y-121211564D01*
X167271226Y-120800634D01*
X167358000Y-120364394D01*
X167358000Y-119919606D01*
X167271226Y-119483366D01*
X167101013Y-119072436D01*
X166853903Y-118702609D01*
X166539391Y-118388097D01*
X166169564Y-118140987D01*
X165758634Y-117970774D01*
X165322394Y-117884000D01*
X164877606Y-117884000D01*
X164441366Y-117970774D01*
X164030436Y-118140987D01*
X163660609Y-118388097D01*
X163346097Y-118702609D01*
X163098987Y-119072436D01*
X162928774Y-119483366D01*
X162842000Y-119919606D01*
X70975502Y-119919606D01*
X70835013Y-119580436D01*
X70587903Y-119210609D01*
X70273391Y-118896097D01*
X69903564Y-118648987D01*
X69492634Y-118478774D01*
X69056394Y-118392000D01*
X68611606Y-118392000D01*
X68175366Y-118478774D01*
X67764436Y-118648987D01*
X67394609Y-118896097D01*
X67080097Y-119210609D01*
X66832987Y-119580436D01*
X66662774Y-119991366D01*
X66576000Y-120427606D01*
X65249000Y-120427606D01*
X65249000Y-113465110D01*
X71732378Y-113465110D01*
X71826569Y-113745323D01*
X71973617Y-114001776D01*
X72167871Y-114224614D01*
X72401866Y-114405273D01*
X72666610Y-114536811D01*
X72863939Y-114596667D01*
X73098000Y-114466517D01*
X73098000Y-113231048D01*
X71862087Y-113231048D01*
X71732378Y-113465110D01*
X65249000Y-113465110D01*
X65249000Y-112788986D01*
X71732378Y-112788986D01*
X71862087Y-113023048D01*
X73098000Y-113023048D01*
X73098000Y-111787579D01*
X73306000Y-111787579D01*
X73306000Y-113023048D01*
X73326000Y-113023048D01*
X73326000Y-113231048D01*
X73306000Y-113231048D01*
X73306000Y-114466517D01*
X73540061Y-114596667D01*
X73737390Y-114536811D01*
X74002134Y-114405273D01*
X74236129Y-114224614D01*
X74430383Y-114001776D01*
X74466231Y-113939256D01*
X74482077Y-113968901D01*
X74670524Y-114198524D01*
X74900147Y-114386971D01*
X75162121Y-114526999D01*
X75446380Y-114613228D01*
X75667922Y-114635048D01*
X75816078Y-114635048D01*
X76037620Y-114613228D01*
X76321879Y-114526999D01*
X76583853Y-114386971D01*
X76813476Y-114198524D01*
X77001923Y-113968901D01*
X77012000Y-113950048D01*
X77022077Y-113968901D01*
X77210524Y-114198524D01*
X77440147Y-114386971D01*
X77702121Y-114526999D01*
X77986380Y-114613228D01*
X78207922Y-114635048D01*
X78356078Y-114635048D01*
X78577620Y-114613228D01*
X78861879Y-114526999D01*
X79123853Y-114386971D01*
X79353476Y-114198524D01*
X79541923Y-113968901D01*
X79552000Y-113950048D01*
X79562077Y-113968901D01*
X79750524Y-114198524D01*
X79980147Y-114386971D01*
X80242121Y-114526999D01*
X80526380Y-114613228D01*
X80747922Y-114635048D01*
X80896078Y-114635048D01*
X81117620Y-114613228D01*
X81401879Y-114526999D01*
X81663853Y-114386971D01*
X81893476Y-114198524D01*
X82081923Y-113968901D01*
X82092000Y-113950048D01*
X82102077Y-113968901D01*
X82290524Y-114198524D01*
X82404001Y-114291652D01*
X82404001Y-114556931D01*
X82399365Y-114604000D01*
X82417862Y-114791801D01*
X82472642Y-114972384D01*
X82561599Y-115138811D01*
X82613142Y-115201616D01*
X82681315Y-115284686D01*
X82717869Y-115314685D01*
X85141315Y-117738132D01*
X85171314Y-117774686D01*
X85317189Y-117894402D01*
X85483616Y-117983359D01*
X85609419Y-118021521D01*
X85664198Y-118038138D01*
X85852000Y-118056635D01*
X85899059Y-118052000D01*
X112220941Y-118052000D01*
X112268000Y-118056635D01*
X112315059Y-118052000D01*
X112455801Y-118038138D01*
X112636384Y-117983359D01*
X112802811Y-117894402D01*
X112948686Y-117774686D01*
X112978689Y-117738127D01*
X118252816Y-112464000D01*
X129746941Y-112464000D01*
X129794000Y-112468635D01*
X129841059Y-112464000D01*
X129981801Y-112450138D01*
X130162384Y-112395359D01*
X130328811Y-112306402D01*
X130474686Y-112186686D01*
X130504689Y-112150127D01*
X130810755Y-111844061D01*
X139500381Y-111844061D01*
X139560237Y-112041390D01*
X139691775Y-112306134D01*
X139872434Y-112540129D01*
X140095272Y-112734383D01*
X140351725Y-112881431D01*
X140631938Y-112975622D01*
X140866000Y-112845913D01*
X140866000Y-111610000D01*
X141074000Y-111610000D01*
X141074000Y-112845913D01*
X141308062Y-112975622D01*
X141588275Y-112881431D01*
X141844728Y-112734383D01*
X142067566Y-112540129D01*
X142248225Y-112306134D01*
X142379763Y-112041390D01*
X142439619Y-111844061D01*
X142309469Y-111610000D01*
X141074000Y-111610000D01*
X140866000Y-111610000D01*
X139630531Y-111610000D01*
X139500381Y-111844061D01*
X130810755Y-111844061D01*
X131708127Y-110946689D01*
X131744686Y-110916686D01*
X131864402Y-110770811D01*
X131953359Y-110604384D01*
X131993556Y-110471871D01*
X132008138Y-110423802D01*
X132026635Y-110236001D01*
X132022000Y-110188941D01*
X132022000Y-108484816D01*
X133147311Y-109610127D01*
X133177314Y-109646686D01*
X133323189Y-109766402D01*
X133489616Y-109855359D01*
X133567300Y-109878924D01*
X133670198Y-109910138D01*
X133857999Y-109928635D01*
X133905059Y-109924000D01*
X139805397Y-109924000D01*
X139898524Y-110037476D01*
X140128147Y-110225923D01*
X140157792Y-110241769D01*
X140095272Y-110277617D01*
X139872434Y-110471871D01*
X139691775Y-110705866D01*
X139560237Y-110970610D01*
X139500381Y-111167939D01*
X139630531Y-111402000D01*
X140866000Y-111402000D01*
X140866000Y-111382000D01*
X141074000Y-111382000D01*
X141074000Y-111402000D01*
X142309469Y-111402000D01*
X142439619Y-111167939D01*
X142379763Y-110970610D01*
X142248225Y-110705866D01*
X142067566Y-110471871D01*
X141844728Y-110277617D01*
X141782208Y-110241769D01*
X141811853Y-110225923D01*
X142041476Y-110037476D01*
X142229923Y-109807853D01*
X142369951Y-109545879D01*
X142456180Y-109261620D01*
X142485296Y-108966000D01*
X142456180Y-108670380D01*
X142369951Y-108386121D01*
X142229923Y-108124147D01*
X142042724Y-107896045D01*
X142073024Y-107886853D01*
X142187334Y-107825754D01*
X142287527Y-107743527D01*
X142369754Y-107643334D01*
X142430853Y-107529024D01*
X142468479Y-107404990D01*
X142481183Y-107276000D01*
X142481183Y-105576000D01*
X142468479Y-105447010D01*
X142430853Y-105322976D01*
X142369754Y-105208666D01*
X142287527Y-105108473D01*
X142187334Y-105026246D01*
X142073024Y-104965147D01*
X142028000Y-104951489D01*
X142028000Y-98228237D01*
X145726238Y-94530000D01*
X164526029Y-94530000D01*
X164578002Y-94535119D01*
X164785406Y-94514691D01*
X164984840Y-94454194D01*
X165168639Y-94355951D01*
X165329741Y-94223739D01*
X165362879Y-94183360D01*
X167843366Y-91702874D01*
X167883739Y-91669741D01*
X168015951Y-91508639D01*
X168114194Y-91324840D01*
X168174691Y-91125406D01*
X168190000Y-90969975D01*
X168195119Y-90918002D01*
X168190000Y-90866029D01*
X168190000Y-86665973D01*
X168195119Y-86614000D01*
X168174691Y-86406595D01*
X168114194Y-86207162D01*
X168081416Y-86145839D01*
X168015951Y-86023363D01*
X167883739Y-85862261D01*
X167843366Y-85829128D01*
X166867587Y-84853350D01*
X166869296Y-84836000D01*
X166840180Y-84540380D01*
X166753951Y-84256121D01*
X166613923Y-83994147D01*
X166425476Y-83764524D01*
X166195853Y-83576077D01*
X166166208Y-83560231D01*
X166228728Y-83524383D01*
X166451566Y-83330129D01*
X166632225Y-83096134D01*
X166763763Y-82831390D01*
X166823619Y-82634061D01*
X166693469Y-82400000D01*
X165458000Y-82400000D01*
X165458000Y-82420000D01*
X165250000Y-82420000D01*
X165250000Y-82400000D01*
X164014531Y-82400000D01*
X163884381Y-82634061D01*
X163944237Y-82831390D01*
X164075775Y-83096134D01*
X164256434Y-83330129D01*
X164479272Y-83524383D01*
X164541792Y-83560231D01*
X164512147Y-83576077D01*
X164282524Y-83764524D01*
X164271465Y-83778000D01*
X140392238Y-83778000D01*
X138572177Y-81957939D01*
X163884381Y-81957939D01*
X164014531Y-82192000D01*
X165250000Y-82192000D01*
X165250000Y-80956087D01*
X165458000Y-80956087D01*
X165458000Y-82192000D01*
X166693469Y-82192000D01*
X166823619Y-81957939D01*
X166763763Y-81760610D01*
X166632225Y-81495866D01*
X166451566Y-81261871D01*
X166228728Y-81067617D01*
X165972275Y-80920569D01*
X165692062Y-80826378D01*
X165458000Y-80956087D01*
X165250000Y-80956087D01*
X165015938Y-80826378D01*
X164735725Y-80920569D01*
X164479272Y-81067617D01*
X164256434Y-81261871D01*
X164075775Y-81495866D01*
X163944237Y-81760610D01*
X163884381Y-81957939D01*
X138572177Y-81957939D01*
X132376000Y-75761763D01*
X132376000Y-71425973D01*
X132381119Y-71374000D01*
X132360691Y-71166595D01*
X132342339Y-71106098D01*
X132300194Y-70967162D01*
X132201951Y-70783363D01*
X132069739Y-70622261D01*
X132029366Y-70589128D01*
X130070877Y-68630639D01*
X130037739Y-68590261D01*
X129876637Y-68458049D01*
X129692838Y-68359806D01*
X129493404Y-68299309D01*
X129337973Y-68284000D01*
X129286000Y-68278881D01*
X129234027Y-68284000D01*
X123320473Y-68284000D01*
X123268500Y-68278881D01*
X123061095Y-68299309D01*
X123048496Y-68303131D01*
X122861662Y-68359806D01*
X122677863Y-68458049D01*
X122516761Y-68590261D01*
X122483628Y-68630634D01*
X119888000Y-71226262D01*
X117038377Y-68376640D01*
X117005239Y-68336261D01*
X116844137Y-68204049D01*
X116660338Y-68105806D01*
X116460904Y-68045309D01*
X116305473Y-68030000D01*
X116253500Y-68024881D01*
X116201527Y-68030000D01*
X99752238Y-68030000D01*
X93791549Y-62069311D01*
X93790690Y-62060595D01*
X93730193Y-61861161D01*
X93631950Y-61677362D01*
X93499738Y-61516260D01*
X93459364Y-61483127D01*
X93409647Y-61433409D01*
X93384903Y-61182182D01*
X93301533Y-60907348D01*
X93166148Y-60654060D01*
X92983950Y-60432050D01*
X92761940Y-60249852D01*
X92508652Y-60114467D01*
X92233818Y-60031097D01*
X92019619Y-60010000D01*
X91876381Y-60010000D01*
X91662182Y-60031097D01*
X91387348Y-60114467D01*
X91134060Y-60249852D01*
X90912050Y-60432050D01*
X90729852Y-60654060D01*
X90594467Y-60907348D01*
X90511097Y-61182182D01*
X90482946Y-61468000D01*
X90511097Y-61753818D01*
X90594467Y-62028652D01*
X90729852Y-62281940D01*
X90912050Y-62503950D01*
X91134060Y-62686148D01*
X91387348Y-62821533D01*
X91662182Y-62904903D01*
X91761512Y-62914686D01*
X91765805Y-62928837D01*
X91864048Y-63112636D01*
X91996261Y-63273738D01*
X92036634Y-63306871D01*
X98283762Y-69554000D01*
X97212238Y-69554000D01*
X94002877Y-66344640D01*
X93969739Y-66304261D01*
X93808637Y-66172049D01*
X93624838Y-66073806D01*
X93425404Y-66013309D01*
X93269973Y-65998000D01*
X93218000Y-65992881D01*
X93166027Y-65998000D01*
X90988238Y-65998000D01*
X87270877Y-62280640D01*
X87237739Y-62240261D01*
X87076637Y-62108049D01*
X86892838Y-62009806D01*
X86693404Y-61949309D01*
X86537973Y-61934000D01*
X86486000Y-61928881D01*
X86434027Y-61934000D01*
X86310511Y-61934000D01*
X86296853Y-61888976D01*
X86235754Y-61774666D01*
X86153527Y-61674473D01*
X86053334Y-61592246D01*
X85939024Y-61531147D01*
X85814990Y-61493521D01*
X85686000Y-61480817D01*
X83986000Y-61480817D01*
X83857010Y-61493521D01*
X83732976Y-61531147D01*
X83618666Y-61592246D01*
X83518473Y-61674473D01*
X83436246Y-61774666D01*
X83375147Y-61888976D01*
X83337521Y-62013010D01*
X83324817Y-62142000D01*
X83324817Y-63842000D01*
X83337521Y-63970990D01*
X83375147Y-64095024D01*
X83436246Y-64209334D01*
X83518473Y-64309527D01*
X83618666Y-64391754D01*
X83732976Y-64452853D01*
X83763276Y-64462045D01*
X83576077Y-64690147D01*
X83436049Y-64952121D01*
X83349820Y-65236380D01*
X83320704Y-65532000D01*
X83349820Y-65827620D01*
X83436049Y-66111879D01*
X83576077Y-66373853D01*
X83764524Y-66603476D01*
X83994147Y-66791923D01*
X84023792Y-66807769D01*
X83961272Y-66843617D01*
X83738434Y-67037871D01*
X83557775Y-67271866D01*
X83426237Y-67536610D01*
X83366381Y-67733939D01*
X83496531Y-67968000D01*
X84732000Y-67968000D01*
X84732000Y-67948000D01*
X84940000Y-67948000D01*
X84940000Y-67968000D01*
X86175469Y-67968000D01*
X86305619Y-67733939D01*
X86245763Y-67536610D01*
X86114225Y-67271866D01*
X85933566Y-67037871D01*
X85710728Y-66843617D01*
X85648208Y-66807769D01*
X85677853Y-66791923D01*
X85907476Y-66603476D01*
X86095923Y-66373853D01*
X86235951Y-66111879D01*
X86322180Y-65827620D01*
X86351296Y-65532000D01*
X86322180Y-65236380D01*
X86235951Y-64952121D01*
X86095923Y-64690147D01*
X85908724Y-64462045D01*
X85939024Y-64452853D01*
X86053334Y-64391754D01*
X86153527Y-64309527D01*
X86222837Y-64225074D01*
X89765128Y-67767366D01*
X89798261Y-67807739D01*
X89959363Y-67939951D01*
X90011839Y-67968000D01*
X90143161Y-68038194D01*
X90342595Y-68098691D01*
X90550000Y-68119119D01*
X90601973Y-68114000D01*
X90860076Y-68114000D01*
X90815497Y-68158579D01*
X90655937Y-68397378D01*
X90546030Y-68662717D01*
X90490000Y-68944399D01*
X90490000Y-69231601D01*
X90546030Y-69513283D01*
X90655937Y-69778622D01*
X90815497Y-70017421D01*
X91018579Y-70220503D01*
X91257378Y-70380063D01*
X91522717Y-70489970D01*
X91804399Y-70546000D01*
X92051184Y-70546000D01*
X95208312Y-73703128D01*
X95238315Y-73739687D01*
X95384190Y-73859403D01*
X95550617Y-73948360D01*
X95731200Y-74003139D01*
X95871942Y-74017001D01*
X95871943Y-74017001D01*
X95919000Y-74021636D01*
X95966057Y-74017001D01*
X98418455Y-74017001D01*
X98420522Y-74037991D01*
X98458148Y-74162025D01*
X98519247Y-74276335D01*
X98601474Y-74376528D01*
X98701667Y-74458755D01*
X98815977Y-74519854D01*
X98858337Y-74532704D01*
X98821435Y-74564872D01*
X98640776Y-74798867D01*
X98509238Y-75063611D01*
X98449382Y-75260940D01*
X98579532Y-75495001D01*
X99815001Y-75495001D01*
X99815001Y-75475001D01*
X100023001Y-75475001D01*
X100023001Y-75495001D01*
X101258470Y-75495001D01*
X101388620Y-75260940D01*
X101335252Y-75085000D01*
X108620816Y-75085000D01*
X108633520Y-75213991D01*
X108671146Y-75338024D01*
X108732246Y-75452334D01*
X108814472Y-75552528D01*
X108914666Y-75634754D01*
X109028976Y-75695854D01*
X109153009Y-75733480D01*
X109282000Y-75746184D01*
X109713500Y-75743000D01*
X109878000Y-75578500D01*
X109878000Y-74701500D01*
X110086000Y-74701500D01*
X110086000Y-75578500D01*
X110250500Y-75743000D01*
X110682000Y-75746184D01*
X110810991Y-75733480D01*
X110935024Y-75695854D01*
X111049334Y-75634754D01*
X111149528Y-75552528D01*
X111231754Y-75452334D01*
X111292854Y-75338024D01*
X111330480Y-75213991D01*
X111343184Y-75085000D01*
X111340000Y-74866000D01*
X111175500Y-74701500D01*
X110086000Y-74701500D01*
X109878000Y-74701500D01*
X108788500Y-74701500D01*
X108624000Y-74866000D01*
X108620816Y-75085000D01*
X101335252Y-75085000D01*
X101328764Y-75063611D01*
X101197226Y-74798867D01*
X101016567Y-74564872D01*
X100979665Y-74532704D01*
X101022025Y-74519854D01*
X101136335Y-74458755D01*
X101236528Y-74376528D01*
X101318755Y-74276335D01*
X101379854Y-74162025D01*
X101417480Y-74037991D01*
X101419547Y-74017001D01*
X108629975Y-74017001D01*
X108620816Y-74110000D01*
X108624000Y-74329000D01*
X108788500Y-74493500D01*
X109878000Y-74493500D01*
X109878000Y-74473500D01*
X110086000Y-74473500D01*
X110086000Y-74493500D01*
X111175500Y-74493500D01*
X111340000Y-74329000D01*
X111343184Y-74110000D01*
X111330480Y-73981009D01*
X111292854Y-73856976D01*
X111231754Y-73742666D01*
X111149528Y-73642472D01*
X111089047Y-73592837D01*
X111190674Y-73469004D01*
X111274299Y-73312553D01*
X111325795Y-73142794D01*
X111343183Y-72966250D01*
X111343183Y-72478750D01*
X111325795Y-72302206D01*
X111274299Y-72132447D01*
X111272105Y-72128342D01*
X114452628Y-75308866D01*
X114485761Y-75349239D01*
X114646863Y-75481451D01*
X114830662Y-75579694D01*
X114928469Y-75609363D01*
X115030095Y-75640191D01*
X115237499Y-75660619D01*
X115289472Y-75655500D01*
X119044664Y-75655500D01*
X119085447Y-75677299D01*
X119255206Y-75728795D01*
X119431750Y-75746183D01*
X119540446Y-75746183D01*
X123402000Y-79607738D01*
X123402001Y-82168017D01*
X123396881Y-82220000D01*
X123417309Y-82427404D01*
X123475466Y-82619122D01*
X123477807Y-82626838D01*
X123576050Y-82810637D01*
X123708262Y-82971739D01*
X123748635Y-83004872D01*
X126465414Y-85721652D01*
X126463705Y-85739001D01*
X126492821Y-86034621D01*
X126579050Y-86318880D01*
X126719078Y-86580854D01*
X126907525Y-86810477D01*
X127137148Y-86998924D01*
X127153792Y-87007821D01*
X127044273Y-87070618D01*
X126821435Y-87264872D01*
X126640776Y-87498867D01*
X126509238Y-87763611D01*
X126449382Y-87960940D01*
X126579532Y-88195001D01*
X127815001Y-88195001D01*
X127815001Y-88175001D01*
X128023001Y-88175001D01*
X128023001Y-88195001D01*
X129258470Y-88195001D01*
X129388620Y-87960940D01*
X129328764Y-87763611D01*
X129197226Y-87498867D01*
X129016567Y-87264872D01*
X128793729Y-87070618D01*
X128742104Y-87041017D01*
X128820854Y-86998924D01*
X129050477Y-86810477D01*
X129238924Y-86580854D01*
X129378952Y-86318880D01*
X129463930Y-86038746D01*
X131630001Y-88204817D01*
X131630001Y-93115185D01*
X129479908Y-90965092D01*
X129494297Y-90819001D01*
X129465181Y-90523381D01*
X129378952Y-90239122D01*
X129238924Y-89977148D01*
X129050477Y-89747525D01*
X128820854Y-89559078D01*
X128778208Y-89536283D01*
X128793729Y-89527384D01*
X129016567Y-89333130D01*
X129197226Y-89099135D01*
X129328764Y-88834391D01*
X129388620Y-88637062D01*
X129258470Y-88403001D01*
X128023001Y-88403001D01*
X128023001Y-88423001D01*
X127815001Y-88423001D01*
X127815001Y-88403001D01*
X126579532Y-88403001D01*
X126449382Y-88637062D01*
X126509238Y-88834391D01*
X126640776Y-89099135D01*
X126821435Y-89333130D01*
X127044273Y-89527384D01*
X127121683Y-89571770D01*
X126907525Y-89747525D01*
X126719078Y-89977148D01*
X126579050Y-90239122D01*
X126492821Y-90523381D01*
X126463705Y-90819001D01*
X126492821Y-91114621D01*
X126579050Y-91398880D01*
X126719078Y-91660854D01*
X126907525Y-91890477D01*
X127137148Y-92078924D01*
X127156001Y-92089001D01*
X127137148Y-92099078D01*
X126907525Y-92287525D01*
X126719078Y-92517148D01*
X126579050Y-92779122D01*
X126492821Y-93063381D01*
X126463705Y-93359001D01*
X126470205Y-93424998D01*
X126344314Y-93528314D01*
X126314315Y-93564868D01*
X108315184Y-111564000D01*
X91074816Y-111564000D01*
X88129817Y-108619001D01*
X98403705Y-108619001D01*
X98432821Y-108914621D01*
X98519050Y-109198880D01*
X98659078Y-109460854D01*
X98847525Y-109690477D01*
X99077148Y-109878924D01*
X99339122Y-110018952D01*
X99623381Y-110105181D01*
X99844923Y-110127001D01*
X99993079Y-110127001D01*
X100214621Y-110105181D01*
X100498880Y-110018952D01*
X100760854Y-109878924D01*
X100990477Y-109690477D01*
X101178924Y-109460854D01*
X101318952Y-109198880D01*
X101405181Y-108914621D01*
X101434297Y-108619001D01*
X101405181Y-108323381D01*
X101318952Y-108039122D01*
X101178924Y-107777148D01*
X100990477Y-107547525D01*
X100760854Y-107359078D01*
X100731209Y-107343232D01*
X100793729Y-107307384D01*
X101016567Y-107113130D01*
X101197226Y-106879135D01*
X101328764Y-106614391D01*
X101388620Y-106417062D01*
X101258470Y-106183001D01*
X100023001Y-106183001D01*
X100023001Y-106203001D01*
X99815001Y-106203001D01*
X99815001Y-106183001D01*
X98579532Y-106183001D01*
X98449382Y-106417062D01*
X98509238Y-106614391D01*
X98640776Y-106879135D01*
X98821435Y-107113130D01*
X99044273Y-107307384D01*
X99106793Y-107343232D01*
X99077148Y-107359078D01*
X98847525Y-107547525D01*
X98659078Y-107777148D01*
X98519050Y-108039122D01*
X98432821Y-108323381D01*
X98403705Y-108619001D01*
X88129817Y-108619001D01*
X88086689Y-108575873D01*
X88056686Y-108539314D01*
X87910811Y-108419598D01*
X87744384Y-108330641D01*
X87563801Y-108275862D01*
X87423059Y-108262000D01*
X87376000Y-108257365D01*
X87328941Y-108262000D01*
X82236104Y-108262000D01*
X82189047Y-108257365D01*
X82141990Y-108262000D01*
X82141989Y-108262000D01*
X82001247Y-108275862D01*
X81820664Y-108330641D01*
X81654237Y-108419598D01*
X81508362Y-108539314D01*
X81478359Y-108575873D01*
X78428091Y-111626141D01*
X78356078Y-111619048D01*
X78207922Y-111619048D01*
X77986380Y-111640868D01*
X77702121Y-111727097D01*
X77440147Y-111867125D01*
X77210524Y-112055572D01*
X77022077Y-112285195D01*
X77012000Y-112304048D01*
X77001923Y-112285195D01*
X76813476Y-112055572D01*
X76800000Y-112044513D01*
X76800000Y-98459001D01*
X98403705Y-98459001D01*
X98432821Y-98754621D01*
X98519050Y-99038880D01*
X98659078Y-99300854D01*
X98847525Y-99530477D01*
X99077148Y-99718924D01*
X99096001Y-99729001D01*
X99077148Y-99739078D01*
X98847525Y-99927525D01*
X98659078Y-100157148D01*
X98519050Y-100419122D01*
X98432821Y-100703381D01*
X98403705Y-100999001D01*
X98432821Y-101294621D01*
X98519050Y-101578880D01*
X98659078Y-101840854D01*
X98847525Y-102070477D01*
X99077148Y-102258924D01*
X99096001Y-102269001D01*
X99077148Y-102279078D01*
X98847525Y-102467525D01*
X98659078Y-102697148D01*
X98519050Y-102959122D01*
X98432821Y-103243381D01*
X98403705Y-103539001D01*
X98432821Y-103834621D01*
X98519050Y-104118880D01*
X98659078Y-104380854D01*
X98847525Y-104610477D01*
X99077148Y-104798924D01*
X99106793Y-104814770D01*
X99044273Y-104850618D01*
X98821435Y-105044872D01*
X98640776Y-105278867D01*
X98509238Y-105543611D01*
X98449382Y-105740940D01*
X98579532Y-105975001D01*
X99815001Y-105975001D01*
X99815001Y-105955001D01*
X100023001Y-105955001D01*
X100023001Y-105975001D01*
X101258470Y-105975001D01*
X101388620Y-105740940D01*
X101328764Y-105543611D01*
X101197226Y-105278867D01*
X101016567Y-105044872D01*
X100793729Y-104850618D01*
X100731209Y-104814770D01*
X100760854Y-104798924D01*
X100990477Y-104610477D01*
X101178924Y-104380854D01*
X101318952Y-104118880D01*
X101405181Y-103834621D01*
X101434297Y-103539001D01*
X101405181Y-103243381D01*
X101318952Y-102959122D01*
X101178924Y-102697148D01*
X100990477Y-102467525D01*
X100760854Y-102279078D01*
X100742001Y-102269001D01*
X100760854Y-102258924D01*
X100990477Y-102070477D01*
X101178924Y-101840854D01*
X101318952Y-101578880D01*
X101405181Y-101294621D01*
X101434297Y-100999001D01*
X101405181Y-100703381D01*
X101318952Y-100419122D01*
X101178924Y-100157148D01*
X100990477Y-99927525D01*
X100760854Y-99739078D01*
X100742001Y-99729001D01*
X100760854Y-99718924D01*
X100990477Y-99530477D01*
X101178924Y-99300854D01*
X101318952Y-99038880D01*
X101405181Y-98754621D01*
X101434297Y-98459001D01*
X101405181Y-98163381D01*
X101318952Y-97879122D01*
X101178924Y-97617148D01*
X100990477Y-97387525D01*
X100760854Y-97199078D01*
X100731209Y-97183232D01*
X100793729Y-97147384D01*
X101016567Y-96953130D01*
X101197226Y-96719135D01*
X101328764Y-96454391D01*
X101388620Y-96257062D01*
X101258470Y-96023001D01*
X100023001Y-96023001D01*
X100023001Y-96043001D01*
X99815001Y-96043001D01*
X99815001Y-96023001D01*
X98579532Y-96023001D01*
X98449382Y-96257062D01*
X98509238Y-96454391D01*
X98640776Y-96719135D01*
X98821435Y-96953130D01*
X99044273Y-97147384D01*
X99106793Y-97183232D01*
X99077148Y-97199078D01*
X98847525Y-97387525D01*
X98659078Y-97617148D01*
X98519050Y-97879122D01*
X98432821Y-98163381D01*
X98403705Y-98459001D01*
X76800000Y-98459001D01*
X76800000Y-93055183D01*
X77127250Y-93055183D01*
X77303794Y-93037795D01*
X77473553Y-92986299D01*
X77630004Y-92902674D01*
X77767134Y-92790134D01*
X77879674Y-92653004D01*
X77963299Y-92496553D01*
X78014795Y-92326794D01*
X78032183Y-92150250D01*
X78032183Y-91237750D01*
X78014795Y-91061206D01*
X77963299Y-90891447D01*
X77941500Y-90850664D01*
X77941500Y-86368737D01*
X85113237Y-79197001D01*
X98836466Y-79197001D01*
X98847525Y-79210477D01*
X99077148Y-79398924D01*
X99096001Y-79409001D01*
X99077148Y-79419078D01*
X98847525Y-79607525D01*
X98659078Y-79837148D01*
X98519050Y-80099122D01*
X98432821Y-80383381D01*
X98403705Y-80679001D01*
X98432821Y-80974621D01*
X98519050Y-81258880D01*
X98659078Y-81520854D01*
X98847525Y-81750477D01*
X99077148Y-81938924D01*
X99096001Y-81949001D01*
X99077148Y-81959078D01*
X98847525Y-82147525D01*
X98659078Y-82377148D01*
X98519050Y-82639122D01*
X98432821Y-82923381D01*
X98403705Y-83219001D01*
X98432821Y-83514621D01*
X98519050Y-83798880D01*
X98659078Y-84060854D01*
X98847525Y-84290477D01*
X99077148Y-84478924D01*
X99096001Y-84489001D01*
X99077148Y-84499078D01*
X98847525Y-84687525D01*
X98659078Y-84917148D01*
X98519050Y-85179122D01*
X98432821Y-85463381D01*
X98403705Y-85759001D01*
X98432821Y-86054621D01*
X98519050Y-86338880D01*
X98659078Y-86600854D01*
X98847525Y-86830477D01*
X99077148Y-87018924D01*
X99096001Y-87029001D01*
X99077148Y-87039078D01*
X98847525Y-87227525D01*
X98659078Y-87457148D01*
X98519050Y-87719122D01*
X98432821Y-88003381D01*
X98403705Y-88299001D01*
X98432821Y-88594621D01*
X98519050Y-88878880D01*
X98659078Y-89140854D01*
X98847525Y-89370477D01*
X99077148Y-89558924D01*
X99096001Y-89569001D01*
X99077148Y-89579078D01*
X98847525Y-89767525D01*
X98659078Y-89997148D01*
X98519050Y-90259122D01*
X98432821Y-90543381D01*
X98403705Y-90839001D01*
X98432821Y-91134621D01*
X98519050Y-91418880D01*
X98659078Y-91680854D01*
X98847525Y-91910477D01*
X99077148Y-92098924D01*
X99096001Y-92109001D01*
X99077148Y-92119078D01*
X98847525Y-92307525D01*
X98659078Y-92537148D01*
X98519050Y-92799122D01*
X98432821Y-93083381D01*
X98403705Y-93379001D01*
X98432821Y-93674621D01*
X98519050Y-93958880D01*
X98659078Y-94220854D01*
X98847525Y-94450477D01*
X99077148Y-94638924D01*
X99106793Y-94654770D01*
X99044273Y-94690618D01*
X98821435Y-94884872D01*
X98640776Y-95118867D01*
X98509238Y-95383611D01*
X98449382Y-95580940D01*
X98579532Y-95815001D01*
X99815001Y-95815001D01*
X99815001Y-95795001D01*
X100023001Y-95795001D01*
X100023001Y-95815001D01*
X101258470Y-95815001D01*
X101388620Y-95580940D01*
X101328764Y-95383611D01*
X101197226Y-95118867D01*
X101016567Y-94884872D01*
X100793729Y-94690618D01*
X100731209Y-94654770D01*
X100760854Y-94638924D01*
X100990477Y-94450477D01*
X101178924Y-94220854D01*
X101318952Y-93958880D01*
X101405181Y-93674621D01*
X101434297Y-93379001D01*
X101405181Y-93083381D01*
X101318952Y-92799122D01*
X101178924Y-92537148D01*
X100990477Y-92307525D01*
X100760854Y-92119078D01*
X100742001Y-92109001D01*
X100760854Y-92098924D01*
X100990477Y-91910477D01*
X101178924Y-91680854D01*
X101318952Y-91418880D01*
X101405181Y-91134621D01*
X101434297Y-90839001D01*
X101405181Y-90543381D01*
X101318952Y-90259122D01*
X101178924Y-89997148D01*
X100990477Y-89767525D01*
X100760854Y-89579078D01*
X100742001Y-89569001D01*
X100760854Y-89558924D01*
X100990477Y-89370477D01*
X101178924Y-89140854D01*
X101318952Y-88878880D01*
X101405181Y-88594621D01*
X101434297Y-88299001D01*
X101405181Y-88003381D01*
X101318952Y-87719122D01*
X101178924Y-87457148D01*
X100990477Y-87227525D01*
X100760854Y-87039078D01*
X100742001Y-87029001D01*
X100760854Y-87018924D01*
X100990477Y-86830477D01*
X101178924Y-86600854D01*
X101318952Y-86338880D01*
X101405181Y-86054621D01*
X101434297Y-85759001D01*
X101405181Y-85463381D01*
X101318952Y-85179122D01*
X101178924Y-84917148D01*
X100990477Y-84687525D01*
X100760854Y-84499078D01*
X100742001Y-84489001D01*
X100760854Y-84478924D01*
X100990477Y-84290477D01*
X101178924Y-84060854D01*
X101318952Y-83798880D01*
X101405181Y-83514621D01*
X101434297Y-83219001D01*
X101405181Y-82923381D01*
X101318952Y-82639122D01*
X101178924Y-82377148D01*
X100990477Y-82147525D01*
X100760854Y-81959078D01*
X100742001Y-81949001D01*
X100760854Y-81938924D01*
X100990477Y-81750477D01*
X101178924Y-81520854D01*
X101318952Y-81258880D01*
X101405181Y-80974621D01*
X101434297Y-80679001D01*
X101405181Y-80383381D01*
X101318952Y-80099122D01*
X101178924Y-79837148D01*
X100990477Y-79607525D01*
X100760854Y-79419078D01*
X100742001Y-79409001D01*
X100760854Y-79398924D01*
X100990477Y-79210477D01*
X101178924Y-78980854D01*
X101318952Y-78718880D01*
X101405181Y-78434621D01*
X101434297Y-78139001D01*
X101405181Y-77843381D01*
X101318952Y-77559122D01*
X101178924Y-77297148D01*
X100990477Y-77067525D01*
X100760854Y-76879078D01*
X100731209Y-76863232D01*
X100793729Y-76827384D01*
X101016567Y-76633130D01*
X101197226Y-76399135D01*
X101328764Y-76134391D01*
X101388620Y-75937062D01*
X101258470Y-75703001D01*
X100023001Y-75703001D01*
X100023001Y-75723001D01*
X99815001Y-75723001D01*
X99815001Y-75703001D01*
X98579532Y-75703001D01*
X98449382Y-75937062D01*
X98509238Y-76134391D01*
X98640776Y-76399135D01*
X98821435Y-76633130D01*
X99044273Y-76827384D01*
X99106793Y-76863232D01*
X99077148Y-76879078D01*
X98847525Y-77067525D01*
X98836466Y-77081001D01*
X85113237Y-77081001D01*
X78782000Y-70749765D01*
X78782000Y-69800511D01*
X78827024Y-69786853D01*
X78941334Y-69725754D01*
X79041527Y-69643527D01*
X79123754Y-69543334D01*
X79184853Y-69429024D01*
X79222479Y-69304990D01*
X79235183Y-69176000D01*
X79235183Y-68410061D01*
X83366381Y-68410061D01*
X83426237Y-68607390D01*
X83557775Y-68872134D01*
X83738434Y-69106129D01*
X83961272Y-69300383D01*
X84217725Y-69447431D01*
X84497938Y-69541622D01*
X84732000Y-69411913D01*
X84732000Y-68176000D01*
X84940000Y-68176000D01*
X84940000Y-69411913D01*
X85174062Y-69541622D01*
X85454275Y-69447431D01*
X85710728Y-69300383D01*
X85933566Y-69106129D01*
X86114225Y-68872134D01*
X86245763Y-68607390D01*
X86305619Y-68410061D01*
X86175469Y-68176000D01*
X84940000Y-68176000D01*
X84732000Y-68176000D01*
X83496531Y-68176000D01*
X83366381Y-68410061D01*
X79235183Y-68410061D01*
X79235183Y-67476000D01*
X79222479Y-67347010D01*
X79184853Y-67222976D01*
X79123754Y-67108666D01*
X79041527Y-67008473D01*
X78941334Y-66926246D01*
X78827024Y-66865147D01*
X78796724Y-66855955D01*
X78983923Y-66627853D01*
X79123951Y-66365879D01*
X79210180Y-66081620D01*
X79239296Y-65786000D01*
X79210180Y-65490380D01*
X79123951Y-65206121D01*
X78983923Y-64944147D01*
X78795476Y-64714524D01*
X78565853Y-64526077D01*
X78536208Y-64510231D01*
X78598728Y-64474383D01*
X78821566Y-64280129D01*
X79002225Y-64046134D01*
X79133763Y-63781390D01*
X79193619Y-63584061D01*
X79063469Y-63350000D01*
X77828000Y-63350000D01*
X77828000Y-63370000D01*
X77620000Y-63370000D01*
X77620000Y-63350000D01*
X76384531Y-63350000D01*
X76254381Y-63584061D01*
X76314237Y-63781390D01*
X76445775Y-64046134D01*
X76626434Y-64280129D01*
X76849272Y-64474383D01*
X76911792Y-64510231D01*
X76882147Y-64526077D01*
X76652524Y-64714524D01*
X76464077Y-64944147D01*
X76324049Y-65206121D01*
X76237820Y-65490380D01*
X76208704Y-65786000D01*
X76237820Y-66081620D01*
X76324049Y-66365879D01*
X76464077Y-66627853D01*
X76651276Y-66855955D01*
X76620976Y-66865147D01*
X76506666Y-66926246D01*
X76406473Y-67008473D01*
X76324246Y-67108666D01*
X76263147Y-67222976D01*
X76225521Y-67347010D01*
X76212817Y-67476000D01*
X76212817Y-69176000D01*
X76225521Y-69304990D01*
X76263147Y-69429024D01*
X76324246Y-69543334D01*
X76406473Y-69643527D01*
X76506666Y-69725754D01*
X76620976Y-69786853D01*
X76666000Y-69800511D01*
X76666000Y-71136029D01*
X76660881Y-71188002D01*
X76666000Y-71239974D01*
X76681309Y-71395405D01*
X76741806Y-71594839D01*
X76840049Y-71778639D01*
X76972261Y-71939741D01*
X77012640Y-71972879D01*
X83178761Y-78139001D01*
X76172140Y-85145623D01*
X76131761Y-85178761D01*
X75999549Y-85339863D01*
X75901306Y-85523663D01*
X75881869Y-85587739D01*
X75840809Y-85723096D01*
X75820381Y-85930500D01*
X75825500Y-85982473D01*
X75825501Y-90543181D01*
X75755004Y-90485326D01*
X75598553Y-90401701D01*
X75428794Y-90350205D01*
X75252250Y-90332817D01*
X74764750Y-90332817D01*
X74588206Y-90350205D01*
X74418447Y-90401701D01*
X74261996Y-90485326D01*
X74124866Y-90597866D01*
X74012326Y-90734996D01*
X73928701Y-90891447D01*
X73877205Y-91061206D01*
X73859817Y-91237750D01*
X73859817Y-92150250D01*
X73877205Y-92326794D01*
X73928701Y-92496553D01*
X74012326Y-92653004D01*
X74124866Y-92790134D01*
X74261996Y-92902674D01*
X74418447Y-92986299D01*
X74588206Y-93037795D01*
X74684001Y-93047230D01*
X74684000Y-112044512D01*
X74670524Y-112055572D01*
X74482077Y-112285195D01*
X74466231Y-112314840D01*
X74430383Y-112252320D01*
X74236129Y-112029482D01*
X74002134Y-111848823D01*
X73737390Y-111717285D01*
X73540061Y-111657429D01*
X73306000Y-111787579D01*
X73098000Y-111787579D01*
X72863939Y-111657429D01*
X72666610Y-111717285D01*
X72401866Y-111848823D01*
X72167871Y-112029482D01*
X71973617Y-112252320D01*
X71826569Y-112508773D01*
X71732378Y-112788986D01*
X65249000Y-112788986D01*
X65249000Y-62907939D01*
X76254381Y-62907939D01*
X76384531Y-63142000D01*
X77620000Y-63142000D01*
X77620000Y-61906087D01*
X77828000Y-61906087D01*
X77828000Y-63142000D01*
X79063469Y-63142000D01*
X79193619Y-62907939D01*
X79133763Y-62710610D01*
X79002225Y-62445866D01*
X78821566Y-62211871D01*
X78598728Y-62017617D01*
X78342275Y-61870569D01*
X78062062Y-61776378D01*
X77828000Y-61906087D01*
X77620000Y-61906087D01*
X77385938Y-61776378D01*
X77105725Y-61870569D01*
X76849272Y-62017617D01*
X76626434Y-62211871D01*
X76445775Y-62445866D01*
X76314237Y-62710610D01*
X76254381Y-62907939D01*
X65249000Y-62907939D01*
X65249000Y-59213606D01*
X65814000Y-59213606D01*
X65814000Y-59658394D01*
X65900774Y-60094634D01*
X66070987Y-60505564D01*
X66318097Y-60875391D01*
X66632609Y-61189903D01*
X67002436Y-61437013D01*
X67413366Y-61607226D01*
X67849606Y-61694000D01*
X68294394Y-61694000D01*
X68730634Y-61607226D01*
X69141564Y-61437013D01*
X69511391Y-61189903D01*
X69825903Y-60875391D01*
X70073013Y-60505564D01*
X70243226Y-60094634D01*
X70330000Y-59658394D01*
X70330000Y-59467606D01*
X164112000Y-59467606D01*
X164112000Y-59912394D01*
X164198774Y-60348634D01*
X164368987Y-60759564D01*
X164616097Y-61129391D01*
X164930609Y-61443903D01*
X165300436Y-61691013D01*
X165711366Y-61861226D01*
X166147606Y-61948000D01*
X166592394Y-61948000D01*
X167028634Y-61861226D01*
X167439564Y-61691013D01*
X167809391Y-61443903D01*
X168123903Y-61129391D01*
X168371013Y-60759564D01*
X168541226Y-60348634D01*
X168628000Y-59912394D01*
X168628000Y-59467606D01*
X168541226Y-59031366D01*
X168371013Y-58620436D01*
X168123903Y-58250609D01*
X167809391Y-57936097D01*
X167439564Y-57688987D01*
X167028634Y-57518774D01*
X166592394Y-57432000D01*
X166147606Y-57432000D01*
X165711366Y-57518774D01*
X165300436Y-57688987D01*
X164930609Y-57936097D01*
X164616097Y-58250609D01*
X164368987Y-58620436D01*
X164198774Y-59031366D01*
X164112000Y-59467606D01*
X70330000Y-59467606D01*
X70330000Y-59213606D01*
X70243226Y-58777366D01*
X70073013Y-58366436D01*
X69825903Y-57996609D01*
X69511391Y-57682097D01*
X69141564Y-57434987D01*
X68730634Y-57264774D01*
X68294394Y-57178000D01*
X67849606Y-57178000D01*
X67413366Y-57264774D01*
X67002436Y-57434987D01*
X66632609Y-57682097D01*
X66318097Y-57996609D01*
X66070987Y-58366436D01*
X65900774Y-58777366D01*
X65814000Y-59213606D01*
X65249000Y-59213606D01*
X65249000Y-56613000D01*
X169447000Y-56613000D01*
X169447001Y-123219000D01*
X169447001Y-123219000D01*
G37*
X169447001Y-123219000D02*
X65249000Y-123219000D01*
X65249000Y-120427606D01*
X66576000Y-120427606D01*
X66576000Y-120872394D01*
X66662774Y-121308634D01*
X66832987Y-121719564D01*
X67080097Y-122089391D01*
X67394609Y-122403903D01*
X67764436Y-122651013D01*
X68175366Y-122821226D01*
X68611606Y-122908000D01*
X69056394Y-122908000D01*
X69492634Y-122821226D01*
X69903564Y-122651013D01*
X70273391Y-122403903D01*
X70587903Y-122089391D01*
X70835013Y-121719564D01*
X71005226Y-121308634D01*
X71092000Y-120872394D01*
X71092000Y-120427606D01*
X71005226Y-119991366D01*
X70975502Y-119919606D01*
X162842000Y-119919606D01*
X162842000Y-120364394D01*
X162928774Y-120800634D01*
X163098987Y-121211564D01*
X163346097Y-121581391D01*
X163660609Y-121895903D01*
X164030436Y-122143013D01*
X164441366Y-122313226D01*
X164877606Y-122400000D01*
X165322394Y-122400000D01*
X165758634Y-122313226D01*
X166169564Y-122143013D01*
X166539391Y-121895903D01*
X166853903Y-121581391D01*
X167101013Y-121211564D01*
X167271226Y-120800634D01*
X167358000Y-120364394D01*
X167358000Y-119919606D01*
X167271226Y-119483366D01*
X167101013Y-119072436D01*
X166853903Y-118702609D01*
X166539391Y-118388097D01*
X166169564Y-118140987D01*
X165758634Y-117970774D01*
X165322394Y-117884000D01*
X164877606Y-117884000D01*
X164441366Y-117970774D01*
X164030436Y-118140987D01*
X163660609Y-118388097D01*
X163346097Y-118702609D01*
X163098987Y-119072436D01*
X162928774Y-119483366D01*
X162842000Y-119919606D01*
X70975502Y-119919606D01*
X70835013Y-119580436D01*
X70587903Y-119210609D01*
X70273391Y-118896097D01*
X69903564Y-118648987D01*
X69492634Y-118478774D01*
X69056394Y-118392000D01*
X68611606Y-118392000D01*
X68175366Y-118478774D01*
X67764436Y-118648987D01*
X67394609Y-118896097D01*
X67080097Y-119210609D01*
X66832987Y-119580436D01*
X66662774Y-119991366D01*
X66576000Y-120427606D01*
X65249000Y-120427606D01*
X65249000Y-113465110D01*
X71732378Y-113465110D01*
X71826569Y-113745323D01*
X71973617Y-114001776D01*
X72167871Y-114224614D01*
X72401866Y-114405273D01*
X72666610Y-114536811D01*
X72863939Y-114596667D01*
X73098000Y-114466517D01*
X73098000Y-113231048D01*
X71862087Y-113231048D01*
X71732378Y-113465110D01*
X65249000Y-113465110D01*
X65249000Y-112788986D01*
X71732378Y-112788986D01*
X71862087Y-113023048D01*
X73098000Y-113023048D01*
X73098000Y-111787579D01*
X73306000Y-111787579D01*
X73306000Y-113023048D01*
X73326000Y-113023048D01*
X73326000Y-113231048D01*
X73306000Y-113231048D01*
X73306000Y-114466517D01*
X73540061Y-114596667D01*
X73737390Y-114536811D01*
X74002134Y-114405273D01*
X74236129Y-114224614D01*
X74430383Y-114001776D01*
X74466231Y-113939256D01*
X74482077Y-113968901D01*
X74670524Y-114198524D01*
X74900147Y-114386971D01*
X75162121Y-114526999D01*
X75446380Y-114613228D01*
X75667922Y-114635048D01*
X75816078Y-114635048D01*
X76037620Y-114613228D01*
X76321879Y-114526999D01*
X76583853Y-114386971D01*
X76813476Y-114198524D01*
X77001923Y-113968901D01*
X77012000Y-113950048D01*
X77022077Y-113968901D01*
X77210524Y-114198524D01*
X77440147Y-114386971D01*
X77702121Y-114526999D01*
X77986380Y-114613228D01*
X78207922Y-114635048D01*
X78356078Y-114635048D01*
X78577620Y-114613228D01*
X78861879Y-114526999D01*
X79123853Y-114386971D01*
X79353476Y-114198524D01*
X79541923Y-113968901D01*
X79552000Y-113950048D01*
X79562077Y-113968901D01*
X79750524Y-114198524D01*
X79980147Y-114386971D01*
X80242121Y-114526999D01*
X80526380Y-114613228D01*
X80747922Y-114635048D01*
X80896078Y-114635048D01*
X81117620Y-114613228D01*
X81401879Y-114526999D01*
X81663853Y-114386971D01*
X81893476Y-114198524D01*
X82081923Y-113968901D01*
X82092000Y-113950048D01*
X82102077Y-113968901D01*
X82290524Y-114198524D01*
X82404001Y-114291652D01*
X82404001Y-114556931D01*
X82399365Y-114604000D01*
X82417862Y-114791801D01*
X82472642Y-114972384D01*
X82561599Y-115138811D01*
X82613142Y-115201616D01*
X82681315Y-115284686D01*
X82717869Y-115314685D01*
X85141315Y-117738132D01*
X85171314Y-117774686D01*
X85317189Y-117894402D01*
X85483616Y-117983359D01*
X85609419Y-118021521D01*
X85664198Y-118038138D01*
X85852000Y-118056635D01*
X85899059Y-118052000D01*
X112220941Y-118052000D01*
X112268000Y-118056635D01*
X112315059Y-118052000D01*
X112455801Y-118038138D01*
X112636384Y-117983359D01*
X112802811Y-117894402D01*
X112948686Y-117774686D01*
X112978689Y-117738127D01*
X118252816Y-112464000D01*
X129746941Y-112464000D01*
X129794000Y-112468635D01*
X129841059Y-112464000D01*
X129981801Y-112450138D01*
X130162384Y-112395359D01*
X130328811Y-112306402D01*
X130474686Y-112186686D01*
X130504689Y-112150127D01*
X130810755Y-111844061D01*
X139500381Y-111844061D01*
X139560237Y-112041390D01*
X139691775Y-112306134D01*
X139872434Y-112540129D01*
X140095272Y-112734383D01*
X140351725Y-112881431D01*
X140631938Y-112975622D01*
X140866000Y-112845913D01*
X140866000Y-111610000D01*
X141074000Y-111610000D01*
X141074000Y-112845913D01*
X141308062Y-112975622D01*
X141588275Y-112881431D01*
X141844728Y-112734383D01*
X142067566Y-112540129D01*
X142248225Y-112306134D01*
X142379763Y-112041390D01*
X142439619Y-111844061D01*
X142309469Y-111610000D01*
X141074000Y-111610000D01*
X140866000Y-111610000D01*
X139630531Y-111610000D01*
X139500381Y-111844061D01*
X130810755Y-111844061D01*
X131708127Y-110946689D01*
X131744686Y-110916686D01*
X131864402Y-110770811D01*
X131953359Y-110604384D01*
X131993556Y-110471871D01*
X132008138Y-110423802D01*
X132026635Y-110236001D01*
X132022000Y-110188941D01*
X132022000Y-108484816D01*
X133147311Y-109610127D01*
X133177314Y-109646686D01*
X133323189Y-109766402D01*
X133489616Y-109855359D01*
X133567300Y-109878924D01*
X133670198Y-109910138D01*
X133857999Y-109928635D01*
X133905059Y-109924000D01*
X139805397Y-109924000D01*
X139898524Y-110037476D01*
X140128147Y-110225923D01*
X140157792Y-110241769D01*
X140095272Y-110277617D01*
X139872434Y-110471871D01*
X139691775Y-110705866D01*
X139560237Y-110970610D01*
X139500381Y-111167939D01*
X139630531Y-111402000D01*
X140866000Y-111402000D01*
X140866000Y-111382000D01*
X141074000Y-111382000D01*
X141074000Y-111402000D01*
X142309469Y-111402000D01*
X142439619Y-111167939D01*
X142379763Y-110970610D01*
X142248225Y-110705866D01*
X142067566Y-110471871D01*
X141844728Y-110277617D01*
X141782208Y-110241769D01*
X141811853Y-110225923D01*
X142041476Y-110037476D01*
X142229923Y-109807853D01*
X142369951Y-109545879D01*
X142456180Y-109261620D01*
X142485296Y-108966000D01*
X142456180Y-108670380D01*
X142369951Y-108386121D01*
X142229923Y-108124147D01*
X142042724Y-107896045D01*
X142073024Y-107886853D01*
X142187334Y-107825754D01*
X142287527Y-107743527D01*
X142369754Y-107643334D01*
X142430853Y-107529024D01*
X142468479Y-107404990D01*
X142481183Y-107276000D01*
X142481183Y-105576000D01*
X142468479Y-105447010D01*
X142430853Y-105322976D01*
X142369754Y-105208666D01*
X142287527Y-105108473D01*
X142187334Y-105026246D01*
X142073024Y-104965147D01*
X142028000Y-104951489D01*
X142028000Y-98228237D01*
X145726238Y-94530000D01*
X164526029Y-94530000D01*
X164578002Y-94535119D01*
X164785406Y-94514691D01*
X164984840Y-94454194D01*
X165168639Y-94355951D01*
X165329741Y-94223739D01*
X165362879Y-94183360D01*
X167843366Y-91702874D01*
X167883739Y-91669741D01*
X168015951Y-91508639D01*
X168114194Y-91324840D01*
X168174691Y-91125406D01*
X168190000Y-90969975D01*
X168195119Y-90918002D01*
X168190000Y-90866029D01*
X168190000Y-86665973D01*
X168195119Y-86614000D01*
X168174691Y-86406595D01*
X168114194Y-86207162D01*
X168081416Y-86145839D01*
X168015951Y-86023363D01*
X167883739Y-85862261D01*
X167843366Y-85829128D01*
X166867587Y-84853350D01*
X166869296Y-84836000D01*
X166840180Y-84540380D01*
X166753951Y-84256121D01*
X166613923Y-83994147D01*
X166425476Y-83764524D01*
X166195853Y-83576077D01*
X166166208Y-83560231D01*
X166228728Y-83524383D01*
X166451566Y-83330129D01*
X166632225Y-83096134D01*
X166763763Y-82831390D01*
X166823619Y-82634061D01*
X166693469Y-82400000D01*
X165458000Y-82400000D01*
X165458000Y-82420000D01*
X165250000Y-82420000D01*
X165250000Y-82400000D01*
X164014531Y-82400000D01*
X163884381Y-82634061D01*
X163944237Y-82831390D01*
X164075775Y-83096134D01*
X164256434Y-83330129D01*
X164479272Y-83524383D01*
X164541792Y-83560231D01*
X164512147Y-83576077D01*
X164282524Y-83764524D01*
X164271465Y-83778000D01*
X140392238Y-83778000D01*
X138572177Y-81957939D01*
X163884381Y-81957939D01*
X164014531Y-82192000D01*
X165250000Y-82192000D01*
X165250000Y-80956087D01*
X165458000Y-80956087D01*
X165458000Y-82192000D01*
X166693469Y-82192000D01*
X166823619Y-81957939D01*
X166763763Y-81760610D01*
X166632225Y-81495866D01*
X166451566Y-81261871D01*
X166228728Y-81067617D01*
X165972275Y-80920569D01*
X165692062Y-80826378D01*
X165458000Y-80956087D01*
X165250000Y-80956087D01*
X165015938Y-80826378D01*
X164735725Y-80920569D01*
X164479272Y-81067617D01*
X164256434Y-81261871D01*
X164075775Y-81495866D01*
X163944237Y-81760610D01*
X163884381Y-81957939D01*
X138572177Y-81957939D01*
X132376000Y-75761763D01*
X132376000Y-71425973D01*
X132381119Y-71374000D01*
X132360691Y-71166595D01*
X132342339Y-71106098D01*
X132300194Y-70967162D01*
X132201951Y-70783363D01*
X132069739Y-70622261D01*
X132029366Y-70589128D01*
X130070877Y-68630639D01*
X130037739Y-68590261D01*
X129876637Y-68458049D01*
X129692838Y-68359806D01*
X129493404Y-68299309D01*
X129337973Y-68284000D01*
X129286000Y-68278881D01*
X129234027Y-68284000D01*
X123320473Y-68284000D01*
X123268500Y-68278881D01*
X123061095Y-68299309D01*
X123048496Y-68303131D01*
X122861662Y-68359806D01*
X122677863Y-68458049D01*
X122516761Y-68590261D01*
X122483628Y-68630634D01*
X119888000Y-71226262D01*
X117038377Y-68376640D01*
X117005239Y-68336261D01*
X116844137Y-68204049D01*
X116660338Y-68105806D01*
X116460904Y-68045309D01*
X116305473Y-68030000D01*
X116253500Y-68024881D01*
X116201527Y-68030000D01*
X99752238Y-68030000D01*
X93791549Y-62069311D01*
X93790690Y-62060595D01*
X93730193Y-61861161D01*
X93631950Y-61677362D01*
X93499738Y-61516260D01*
X93459364Y-61483127D01*
X93409647Y-61433409D01*
X93384903Y-61182182D01*
X93301533Y-60907348D01*
X93166148Y-60654060D01*
X92983950Y-60432050D01*
X92761940Y-60249852D01*
X92508652Y-60114467D01*
X92233818Y-60031097D01*
X92019619Y-60010000D01*
X91876381Y-60010000D01*
X91662182Y-60031097D01*
X91387348Y-60114467D01*
X91134060Y-60249852D01*
X90912050Y-60432050D01*
X90729852Y-60654060D01*
X90594467Y-60907348D01*
X90511097Y-61182182D01*
X90482946Y-61468000D01*
X90511097Y-61753818D01*
X90594467Y-62028652D01*
X90729852Y-62281940D01*
X90912050Y-62503950D01*
X91134060Y-62686148D01*
X91387348Y-62821533D01*
X91662182Y-62904903D01*
X91761512Y-62914686D01*
X91765805Y-62928837D01*
X91864048Y-63112636D01*
X91996261Y-63273738D01*
X92036634Y-63306871D01*
X98283762Y-69554000D01*
X97212238Y-69554000D01*
X94002877Y-66344640D01*
X93969739Y-66304261D01*
X93808637Y-66172049D01*
X93624838Y-66073806D01*
X93425404Y-66013309D01*
X93269973Y-65998000D01*
X93218000Y-65992881D01*
X93166027Y-65998000D01*
X90988238Y-65998000D01*
X87270877Y-62280640D01*
X87237739Y-62240261D01*
X87076637Y-62108049D01*
X86892838Y-62009806D01*
X86693404Y-61949309D01*
X86537973Y-61934000D01*
X86486000Y-61928881D01*
X86434027Y-61934000D01*
X86310511Y-61934000D01*
X86296853Y-61888976D01*
X86235754Y-61774666D01*
X86153527Y-61674473D01*
X86053334Y-61592246D01*
X85939024Y-61531147D01*
X85814990Y-61493521D01*
X85686000Y-61480817D01*
X83986000Y-61480817D01*
X83857010Y-61493521D01*
X83732976Y-61531147D01*
X83618666Y-61592246D01*
X83518473Y-61674473D01*
X83436246Y-61774666D01*
X83375147Y-61888976D01*
X83337521Y-62013010D01*
X83324817Y-62142000D01*
X83324817Y-63842000D01*
X83337521Y-63970990D01*
X83375147Y-64095024D01*
X83436246Y-64209334D01*
X83518473Y-64309527D01*
X83618666Y-64391754D01*
X83732976Y-64452853D01*
X83763276Y-64462045D01*
X83576077Y-64690147D01*
X83436049Y-64952121D01*
X83349820Y-65236380D01*
X83320704Y-65532000D01*
X83349820Y-65827620D01*
X83436049Y-66111879D01*
X83576077Y-66373853D01*
X83764524Y-66603476D01*
X83994147Y-66791923D01*
X84023792Y-66807769D01*
X83961272Y-66843617D01*
X83738434Y-67037871D01*
X83557775Y-67271866D01*
X83426237Y-67536610D01*
X83366381Y-67733939D01*
X83496531Y-67968000D01*
X84732000Y-67968000D01*
X84732000Y-67948000D01*
X84940000Y-67948000D01*
X84940000Y-67968000D01*
X86175469Y-67968000D01*
X86305619Y-67733939D01*
X86245763Y-67536610D01*
X86114225Y-67271866D01*
X85933566Y-67037871D01*
X85710728Y-66843617D01*
X85648208Y-66807769D01*
X85677853Y-66791923D01*
X85907476Y-66603476D01*
X86095923Y-66373853D01*
X86235951Y-66111879D01*
X86322180Y-65827620D01*
X86351296Y-65532000D01*
X86322180Y-65236380D01*
X86235951Y-64952121D01*
X86095923Y-64690147D01*
X85908724Y-64462045D01*
X85939024Y-64452853D01*
X86053334Y-64391754D01*
X86153527Y-64309527D01*
X86222837Y-64225074D01*
X89765128Y-67767366D01*
X89798261Y-67807739D01*
X89959363Y-67939951D01*
X90011839Y-67968000D01*
X90143161Y-68038194D01*
X90342595Y-68098691D01*
X90550000Y-68119119D01*
X90601973Y-68114000D01*
X90860076Y-68114000D01*
X90815497Y-68158579D01*
X90655937Y-68397378D01*
X90546030Y-68662717D01*
X90490000Y-68944399D01*
X90490000Y-69231601D01*
X90546030Y-69513283D01*
X90655937Y-69778622D01*
X90815497Y-70017421D01*
X91018579Y-70220503D01*
X91257378Y-70380063D01*
X91522717Y-70489970D01*
X91804399Y-70546000D01*
X92051184Y-70546000D01*
X95208312Y-73703128D01*
X95238315Y-73739687D01*
X95384190Y-73859403D01*
X95550617Y-73948360D01*
X95731200Y-74003139D01*
X95871942Y-74017001D01*
X95871943Y-74017001D01*
X95919000Y-74021636D01*
X95966057Y-74017001D01*
X98418455Y-74017001D01*
X98420522Y-74037991D01*
X98458148Y-74162025D01*
X98519247Y-74276335D01*
X98601474Y-74376528D01*
X98701667Y-74458755D01*
X98815977Y-74519854D01*
X98858337Y-74532704D01*
X98821435Y-74564872D01*
X98640776Y-74798867D01*
X98509238Y-75063611D01*
X98449382Y-75260940D01*
X98579532Y-75495001D01*
X99815001Y-75495001D01*
X99815001Y-75475001D01*
X100023001Y-75475001D01*
X100023001Y-75495001D01*
X101258470Y-75495001D01*
X101388620Y-75260940D01*
X101335252Y-75085000D01*
X108620816Y-75085000D01*
X108633520Y-75213991D01*
X108671146Y-75338024D01*
X108732246Y-75452334D01*
X108814472Y-75552528D01*
X108914666Y-75634754D01*
X109028976Y-75695854D01*
X109153009Y-75733480D01*
X109282000Y-75746184D01*
X109713500Y-75743000D01*
X109878000Y-75578500D01*
X109878000Y-74701500D01*
X110086000Y-74701500D01*
X110086000Y-75578500D01*
X110250500Y-75743000D01*
X110682000Y-75746184D01*
X110810991Y-75733480D01*
X110935024Y-75695854D01*
X111049334Y-75634754D01*
X111149528Y-75552528D01*
X111231754Y-75452334D01*
X111292854Y-75338024D01*
X111330480Y-75213991D01*
X111343184Y-75085000D01*
X111340000Y-74866000D01*
X111175500Y-74701500D01*
X110086000Y-74701500D01*
X109878000Y-74701500D01*
X108788500Y-74701500D01*
X108624000Y-74866000D01*
X108620816Y-75085000D01*
X101335252Y-75085000D01*
X101328764Y-75063611D01*
X101197226Y-74798867D01*
X101016567Y-74564872D01*
X100979665Y-74532704D01*
X101022025Y-74519854D01*
X101136335Y-74458755D01*
X101236528Y-74376528D01*
X101318755Y-74276335D01*
X101379854Y-74162025D01*
X101417480Y-74037991D01*
X101419547Y-74017001D01*
X108629975Y-74017001D01*
X108620816Y-74110000D01*
X108624000Y-74329000D01*
X108788500Y-74493500D01*
X109878000Y-74493500D01*
X109878000Y-74473500D01*
X110086000Y-74473500D01*
X110086000Y-74493500D01*
X111175500Y-74493500D01*
X111340000Y-74329000D01*
X111343184Y-74110000D01*
X111330480Y-73981009D01*
X111292854Y-73856976D01*
X111231754Y-73742666D01*
X111149528Y-73642472D01*
X111089047Y-73592837D01*
X111190674Y-73469004D01*
X111274299Y-73312553D01*
X111325795Y-73142794D01*
X111343183Y-72966250D01*
X111343183Y-72478750D01*
X111325795Y-72302206D01*
X111274299Y-72132447D01*
X111272105Y-72128342D01*
X114452628Y-75308866D01*
X114485761Y-75349239D01*
X114646863Y-75481451D01*
X114830662Y-75579694D01*
X114928469Y-75609363D01*
X115030095Y-75640191D01*
X115237499Y-75660619D01*
X115289472Y-75655500D01*
X119044664Y-75655500D01*
X119085447Y-75677299D01*
X119255206Y-75728795D01*
X119431750Y-75746183D01*
X119540446Y-75746183D01*
X123402000Y-79607738D01*
X123402001Y-82168017D01*
X123396881Y-82220000D01*
X123417309Y-82427404D01*
X123475466Y-82619122D01*
X123477807Y-82626838D01*
X123576050Y-82810637D01*
X123708262Y-82971739D01*
X123748635Y-83004872D01*
X126465414Y-85721652D01*
X126463705Y-85739001D01*
X126492821Y-86034621D01*
X126579050Y-86318880D01*
X126719078Y-86580854D01*
X126907525Y-86810477D01*
X127137148Y-86998924D01*
X127153792Y-87007821D01*
X127044273Y-87070618D01*
X126821435Y-87264872D01*
X126640776Y-87498867D01*
X126509238Y-87763611D01*
X126449382Y-87960940D01*
X126579532Y-88195001D01*
X127815001Y-88195001D01*
X127815001Y-88175001D01*
X128023001Y-88175001D01*
X128023001Y-88195001D01*
X129258470Y-88195001D01*
X129388620Y-87960940D01*
X129328764Y-87763611D01*
X129197226Y-87498867D01*
X129016567Y-87264872D01*
X128793729Y-87070618D01*
X128742104Y-87041017D01*
X128820854Y-86998924D01*
X129050477Y-86810477D01*
X129238924Y-86580854D01*
X129378952Y-86318880D01*
X129463930Y-86038746D01*
X131630001Y-88204817D01*
X131630001Y-93115185D01*
X129479908Y-90965092D01*
X129494297Y-90819001D01*
X129465181Y-90523381D01*
X129378952Y-90239122D01*
X129238924Y-89977148D01*
X129050477Y-89747525D01*
X128820854Y-89559078D01*
X128778208Y-89536283D01*
X128793729Y-89527384D01*
X129016567Y-89333130D01*
X129197226Y-89099135D01*
X129328764Y-88834391D01*
X129388620Y-88637062D01*
X129258470Y-88403001D01*
X128023001Y-88403001D01*
X128023001Y-88423001D01*
X127815001Y-88423001D01*
X127815001Y-88403001D01*
X126579532Y-88403001D01*
X126449382Y-88637062D01*
X126509238Y-88834391D01*
X126640776Y-89099135D01*
X126821435Y-89333130D01*
X127044273Y-89527384D01*
X127121683Y-89571770D01*
X126907525Y-89747525D01*
X126719078Y-89977148D01*
X126579050Y-90239122D01*
X126492821Y-90523381D01*
X126463705Y-90819001D01*
X126492821Y-91114621D01*
X126579050Y-91398880D01*
X126719078Y-91660854D01*
X126907525Y-91890477D01*
X127137148Y-92078924D01*
X127156001Y-92089001D01*
X127137148Y-92099078D01*
X126907525Y-92287525D01*
X126719078Y-92517148D01*
X126579050Y-92779122D01*
X126492821Y-93063381D01*
X126463705Y-93359001D01*
X126470205Y-93424998D01*
X126344314Y-93528314D01*
X126314315Y-93564868D01*
X108315184Y-111564000D01*
X91074816Y-111564000D01*
X88129817Y-108619001D01*
X98403705Y-108619001D01*
X98432821Y-108914621D01*
X98519050Y-109198880D01*
X98659078Y-109460854D01*
X98847525Y-109690477D01*
X99077148Y-109878924D01*
X99339122Y-110018952D01*
X99623381Y-110105181D01*
X99844923Y-110127001D01*
X99993079Y-110127001D01*
X100214621Y-110105181D01*
X100498880Y-110018952D01*
X100760854Y-109878924D01*
X100990477Y-109690477D01*
X101178924Y-109460854D01*
X101318952Y-109198880D01*
X101405181Y-108914621D01*
X101434297Y-108619001D01*
X101405181Y-108323381D01*
X101318952Y-108039122D01*
X101178924Y-107777148D01*
X100990477Y-107547525D01*
X100760854Y-107359078D01*
X100731209Y-107343232D01*
X100793729Y-107307384D01*
X101016567Y-107113130D01*
X101197226Y-106879135D01*
X101328764Y-106614391D01*
X101388620Y-106417062D01*
X101258470Y-106183001D01*
X100023001Y-106183001D01*
X100023001Y-106203001D01*
X99815001Y-106203001D01*
X99815001Y-106183001D01*
X98579532Y-106183001D01*
X98449382Y-106417062D01*
X98509238Y-106614391D01*
X98640776Y-106879135D01*
X98821435Y-107113130D01*
X99044273Y-107307384D01*
X99106793Y-107343232D01*
X99077148Y-107359078D01*
X98847525Y-107547525D01*
X98659078Y-107777148D01*
X98519050Y-108039122D01*
X98432821Y-108323381D01*
X98403705Y-108619001D01*
X88129817Y-108619001D01*
X88086689Y-108575873D01*
X88056686Y-108539314D01*
X87910811Y-108419598D01*
X87744384Y-108330641D01*
X87563801Y-108275862D01*
X87423059Y-108262000D01*
X87376000Y-108257365D01*
X87328941Y-108262000D01*
X82236104Y-108262000D01*
X82189047Y-108257365D01*
X82141990Y-108262000D01*
X82141989Y-108262000D01*
X82001247Y-108275862D01*
X81820664Y-108330641D01*
X81654237Y-108419598D01*
X81508362Y-108539314D01*
X81478359Y-108575873D01*
X78428091Y-111626141D01*
X78356078Y-111619048D01*
X78207922Y-111619048D01*
X77986380Y-111640868D01*
X77702121Y-111727097D01*
X77440147Y-111867125D01*
X77210524Y-112055572D01*
X77022077Y-112285195D01*
X77012000Y-112304048D01*
X77001923Y-112285195D01*
X76813476Y-112055572D01*
X76800000Y-112044513D01*
X76800000Y-98459001D01*
X98403705Y-98459001D01*
X98432821Y-98754621D01*
X98519050Y-99038880D01*
X98659078Y-99300854D01*
X98847525Y-99530477D01*
X99077148Y-99718924D01*
X99096001Y-99729001D01*
X99077148Y-99739078D01*
X98847525Y-99927525D01*
X98659078Y-100157148D01*
X98519050Y-100419122D01*
X98432821Y-100703381D01*
X98403705Y-100999001D01*
X98432821Y-101294621D01*
X98519050Y-101578880D01*
X98659078Y-101840854D01*
X98847525Y-102070477D01*
X99077148Y-102258924D01*
X99096001Y-102269001D01*
X99077148Y-102279078D01*
X98847525Y-102467525D01*
X98659078Y-102697148D01*
X98519050Y-102959122D01*
X98432821Y-103243381D01*
X98403705Y-103539001D01*
X98432821Y-103834621D01*
X98519050Y-104118880D01*
X98659078Y-104380854D01*
X98847525Y-104610477D01*
X99077148Y-104798924D01*
X99106793Y-104814770D01*
X99044273Y-104850618D01*
X98821435Y-105044872D01*
X98640776Y-105278867D01*
X98509238Y-105543611D01*
X98449382Y-105740940D01*
X98579532Y-105975001D01*
X99815001Y-105975001D01*
X99815001Y-105955001D01*
X100023001Y-105955001D01*
X100023001Y-105975001D01*
X101258470Y-105975001D01*
X101388620Y-105740940D01*
X101328764Y-105543611D01*
X101197226Y-105278867D01*
X101016567Y-105044872D01*
X100793729Y-104850618D01*
X100731209Y-104814770D01*
X100760854Y-104798924D01*
X100990477Y-104610477D01*
X101178924Y-104380854D01*
X101318952Y-104118880D01*
X101405181Y-103834621D01*
X101434297Y-103539001D01*
X101405181Y-103243381D01*
X101318952Y-102959122D01*
X101178924Y-102697148D01*
X100990477Y-102467525D01*
X100760854Y-102279078D01*
X100742001Y-102269001D01*
X100760854Y-102258924D01*
X100990477Y-102070477D01*
X101178924Y-101840854D01*
X101318952Y-101578880D01*
X101405181Y-101294621D01*
X101434297Y-100999001D01*
X101405181Y-100703381D01*
X101318952Y-100419122D01*
X101178924Y-100157148D01*
X100990477Y-99927525D01*
X100760854Y-99739078D01*
X100742001Y-99729001D01*
X100760854Y-99718924D01*
X100990477Y-99530477D01*
X101178924Y-99300854D01*
X101318952Y-99038880D01*
X101405181Y-98754621D01*
X101434297Y-98459001D01*
X101405181Y-98163381D01*
X101318952Y-97879122D01*
X101178924Y-97617148D01*
X100990477Y-97387525D01*
X100760854Y-97199078D01*
X100731209Y-97183232D01*
X100793729Y-97147384D01*
X101016567Y-96953130D01*
X101197226Y-96719135D01*
X101328764Y-96454391D01*
X101388620Y-96257062D01*
X101258470Y-96023001D01*
X100023001Y-96023001D01*
X100023001Y-96043001D01*
X99815001Y-96043001D01*
X99815001Y-96023001D01*
X98579532Y-96023001D01*
X98449382Y-96257062D01*
X98509238Y-96454391D01*
X98640776Y-96719135D01*
X98821435Y-96953130D01*
X99044273Y-97147384D01*
X99106793Y-97183232D01*
X99077148Y-97199078D01*
X98847525Y-97387525D01*
X98659078Y-97617148D01*
X98519050Y-97879122D01*
X98432821Y-98163381D01*
X98403705Y-98459001D01*
X76800000Y-98459001D01*
X76800000Y-93055183D01*
X77127250Y-93055183D01*
X77303794Y-93037795D01*
X77473553Y-92986299D01*
X77630004Y-92902674D01*
X77767134Y-92790134D01*
X77879674Y-92653004D01*
X77963299Y-92496553D01*
X78014795Y-92326794D01*
X78032183Y-92150250D01*
X78032183Y-91237750D01*
X78014795Y-91061206D01*
X77963299Y-90891447D01*
X77941500Y-90850664D01*
X77941500Y-86368737D01*
X85113237Y-79197001D01*
X98836466Y-79197001D01*
X98847525Y-79210477D01*
X99077148Y-79398924D01*
X99096001Y-79409001D01*
X99077148Y-79419078D01*
X98847525Y-79607525D01*
X98659078Y-79837148D01*
X98519050Y-80099122D01*
X98432821Y-80383381D01*
X98403705Y-80679001D01*
X98432821Y-80974621D01*
X98519050Y-81258880D01*
X98659078Y-81520854D01*
X98847525Y-81750477D01*
X99077148Y-81938924D01*
X99096001Y-81949001D01*
X99077148Y-81959078D01*
X98847525Y-82147525D01*
X98659078Y-82377148D01*
X98519050Y-82639122D01*
X98432821Y-82923381D01*
X98403705Y-83219001D01*
X98432821Y-83514621D01*
X98519050Y-83798880D01*
X98659078Y-84060854D01*
X98847525Y-84290477D01*
X99077148Y-84478924D01*
X99096001Y-84489001D01*
X99077148Y-84499078D01*
X98847525Y-84687525D01*
X98659078Y-84917148D01*
X98519050Y-85179122D01*
X98432821Y-85463381D01*
X98403705Y-85759001D01*
X98432821Y-86054621D01*
X98519050Y-86338880D01*
X98659078Y-86600854D01*
X98847525Y-86830477D01*
X99077148Y-87018924D01*
X99096001Y-87029001D01*
X99077148Y-87039078D01*
X98847525Y-87227525D01*
X98659078Y-87457148D01*
X98519050Y-87719122D01*
X98432821Y-88003381D01*
X98403705Y-88299001D01*
X98432821Y-88594621D01*
X98519050Y-88878880D01*
X98659078Y-89140854D01*
X98847525Y-89370477D01*
X99077148Y-89558924D01*
X99096001Y-89569001D01*
X99077148Y-89579078D01*
X98847525Y-89767525D01*
X98659078Y-89997148D01*
X98519050Y-90259122D01*
X98432821Y-90543381D01*
X98403705Y-90839001D01*
X98432821Y-91134621D01*
X98519050Y-91418880D01*
X98659078Y-91680854D01*
X98847525Y-91910477D01*
X99077148Y-92098924D01*
X99096001Y-92109001D01*
X99077148Y-92119078D01*
X98847525Y-92307525D01*
X98659078Y-92537148D01*
X98519050Y-92799122D01*
X98432821Y-93083381D01*
X98403705Y-93379001D01*
X98432821Y-93674621D01*
X98519050Y-93958880D01*
X98659078Y-94220854D01*
X98847525Y-94450477D01*
X99077148Y-94638924D01*
X99106793Y-94654770D01*
X99044273Y-94690618D01*
X98821435Y-94884872D01*
X98640776Y-95118867D01*
X98509238Y-95383611D01*
X98449382Y-95580940D01*
X98579532Y-95815001D01*
X99815001Y-95815001D01*
X99815001Y-95795001D01*
X100023001Y-95795001D01*
X100023001Y-95815001D01*
X101258470Y-95815001D01*
X101388620Y-95580940D01*
X101328764Y-95383611D01*
X101197226Y-95118867D01*
X101016567Y-94884872D01*
X100793729Y-94690618D01*
X100731209Y-94654770D01*
X100760854Y-94638924D01*
X100990477Y-94450477D01*
X101178924Y-94220854D01*
X101318952Y-93958880D01*
X101405181Y-93674621D01*
X101434297Y-93379001D01*
X101405181Y-93083381D01*
X101318952Y-92799122D01*
X101178924Y-92537148D01*
X100990477Y-92307525D01*
X100760854Y-92119078D01*
X100742001Y-92109001D01*
X100760854Y-92098924D01*
X100990477Y-91910477D01*
X101178924Y-91680854D01*
X101318952Y-91418880D01*
X101405181Y-91134621D01*
X101434297Y-90839001D01*
X101405181Y-90543381D01*
X101318952Y-90259122D01*
X101178924Y-89997148D01*
X100990477Y-89767525D01*
X100760854Y-89579078D01*
X100742001Y-89569001D01*
X100760854Y-89558924D01*
X100990477Y-89370477D01*
X101178924Y-89140854D01*
X101318952Y-88878880D01*
X101405181Y-88594621D01*
X101434297Y-88299001D01*
X101405181Y-88003381D01*
X101318952Y-87719122D01*
X101178924Y-87457148D01*
X100990477Y-87227525D01*
X100760854Y-87039078D01*
X100742001Y-87029001D01*
X100760854Y-87018924D01*
X100990477Y-86830477D01*
X101178924Y-86600854D01*
X101318952Y-86338880D01*
X101405181Y-86054621D01*
X101434297Y-85759001D01*
X101405181Y-85463381D01*
X101318952Y-85179122D01*
X101178924Y-84917148D01*
X100990477Y-84687525D01*
X100760854Y-84499078D01*
X100742001Y-84489001D01*
X100760854Y-84478924D01*
X100990477Y-84290477D01*
X101178924Y-84060854D01*
X101318952Y-83798880D01*
X101405181Y-83514621D01*
X101434297Y-83219001D01*
X101405181Y-82923381D01*
X101318952Y-82639122D01*
X101178924Y-82377148D01*
X100990477Y-82147525D01*
X100760854Y-81959078D01*
X100742001Y-81949001D01*
X100760854Y-81938924D01*
X100990477Y-81750477D01*
X101178924Y-81520854D01*
X101318952Y-81258880D01*
X101405181Y-80974621D01*
X101434297Y-80679001D01*
X101405181Y-80383381D01*
X101318952Y-80099122D01*
X101178924Y-79837148D01*
X100990477Y-79607525D01*
X100760854Y-79419078D01*
X100742001Y-79409001D01*
X100760854Y-79398924D01*
X100990477Y-79210477D01*
X101178924Y-78980854D01*
X101318952Y-78718880D01*
X101405181Y-78434621D01*
X101434297Y-78139001D01*
X101405181Y-77843381D01*
X101318952Y-77559122D01*
X101178924Y-77297148D01*
X100990477Y-77067525D01*
X100760854Y-76879078D01*
X100731209Y-76863232D01*
X100793729Y-76827384D01*
X101016567Y-76633130D01*
X101197226Y-76399135D01*
X101328764Y-76134391D01*
X101388620Y-75937062D01*
X101258470Y-75703001D01*
X100023001Y-75703001D01*
X100023001Y-75723001D01*
X99815001Y-75723001D01*
X99815001Y-75703001D01*
X98579532Y-75703001D01*
X98449382Y-75937062D01*
X98509238Y-76134391D01*
X98640776Y-76399135D01*
X98821435Y-76633130D01*
X99044273Y-76827384D01*
X99106793Y-76863232D01*
X99077148Y-76879078D01*
X98847525Y-77067525D01*
X98836466Y-77081001D01*
X85113237Y-77081001D01*
X78782000Y-70749765D01*
X78782000Y-69800511D01*
X78827024Y-69786853D01*
X78941334Y-69725754D01*
X79041527Y-69643527D01*
X79123754Y-69543334D01*
X79184853Y-69429024D01*
X79222479Y-69304990D01*
X79235183Y-69176000D01*
X79235183Y-68410061D01*
X83366381Y-68410061D01*
X83426237Y-68607390D01*
X83557775Y-68872134D01*
X83738434Y-69106129D01*
X83961272Y-69300383D01*
X84217725Y-69447431D01*
X84497938Y-69541622D01*
X84732000Y-69411913D01*
X84732000Y-68176000D01*
X84940000Y-68176000D01*
X84940000Y-69411913D01*
X85174062Y-69541622D01*
X85454275Y-69447431D01*
X85710728Y-69300383D01*
X85933566Y-69106129D01*
X86114225Y-68872134D01*
X86245763Y-68607390D01*
X86305619Y-68410061D01*
X86175469Y-68176000D01*
X84940000Y-68176000D01*
X84732000Y-68176000D01*
X83496531Y-68176000D01*
X83366381Y-68410061D01*
X79235183Y-68410061D01*
X79235183Y-67476000D01*
X79222479Y-67347010D01*
X79184853Y-67222976D01*
X79123754Y-67108666D01*
X79041527Y-67008473D01*
X78941334Y-66926246D01*
X78827024Y-66865147D01*
X78796724Y-66855955D01*
X78983923Y-66627853D01*
X79123951Y-66365879D01*
X79210180Y-66081620D01*
X79239296Y-65786000D01*
X79210180Y-65490380D01*
X79123951Y-65206121D01*
X78983923Y-64944147D01*
X78795476Y-64714524D01*
X78565853Y-64526077D01*
X78536208Y-64510231D01*
X78598728Y-64474383D01*
X78821566Y-64280129D01*
X79002225Y-64046134D01*
X79133763Y-63781390D01*
X79193619Y-63584061D01*
X79063469Y-63350000D01*
X77828000Y-63350000D01*
X77828000Y-63370000D01*
X77620000Y-63370000D01*
X77620000Y-63350000D01*
X76384531Y-63350000D01*
X76254381Y-63584061D01*
X76314237Y-63781390D01*
X76445775Y-64046134D01*
X76626434Y-64280129D01*
X76849272Y-64474383D01*
X76911792Y-64510231D01*
X76882147Y-64526077D01*
X76652524Y-64714524D01*
X76464077Y-64944147D01*
X76324049Y-65206121D01*
X76237820Y-65490380D01*
X76208704Y-65786000D01*
X76237820Y-66081620D01*
X76324049Y-66365879D01*
X76464077Y-66627853D01*
X76651276Y-66855955D01*
X76620976Y-66865147D01*
X76506666Y-66926246D01*
X76406473Y-67008473D01*
X76324246Y-67108666D01*
X76263147Y-67222976D01*
X76225521Y-67347010D01*
X76212817Y-67476000D01*
X76212817Y-69176000D01*
X76225521Y-69304990D01*
X76263147Y-69429024D01*
X76324246Y-69543334D01*
X76406473Y-69643527D01*
X76506666Y-69725754D01*
X76620976Y-69786853D01*
X76666000Y-69800511D01*
X76666000Y-71136029D01*
X76660881Y-71188002D01*
X76666000Y-71239974D01*
X76681309Y-71395405D01*
X76741806Y-71594839D01*
X76840049Y-71778639D01*
X76972261Y-71939741D01*
X77012640Y-71972879D01*
X83178761Y-78139001D01*
X76172140Y-85145623D01*
X76131761Y-85178761D01*
X75999549Y-85339863D01*
X75901306Y-85523663D01*
X75881869Y-85587739D01*
X75840809Y-85723096D01*
X75820381Y-85930500D01*
X75825500Y-85982473D01*
X75825501Y-90543181D01*
X75755004Y-90485326D01*
X75598553Y-90401701D01*
X75428794Y-90350205D01*
X75252250Y-90332817D01*
X74764750Y-90332817D01*
X74588206Y-90350205D01*
X74418447Y-90401701D01*
X74261996Y-90485326D01*
X74124866Y-90597866D01*
X74012326Y-90734996D01*
X73928701Y-90891447D01*
X73877205Y-91061206D01*
X73859817Y-91237750D01*
X73859817Y-92150250D01*
X73877205Y-92326794D01*
X73928701Y-92496553D01*
X74012326Y-92653004D01*
X74124866Y-92790134D01*
X74261996Y-92902674D01*
X74418447Y-92986299D01*
X74588206Y-93037795D01*
X74684001Y-93047230D01*
X74684000Y-112044512D01*
X74670524Y-112055572D01*
X74482077Y-112285195D01*
X74466231Y-112314840D01*
X74430383Y-112252320D01*
X74236129Y-112029482D01*
X74002134Y-111848823D01*
X73737390Y-111717285D01*
X73540061Y-111657429D01*
X73306000Y-111787579D01*
X73098000Y-111787579D01*
X72863939Y-111657429D01*
X72666610Y-111717285D01*
X72401866Y-111848823D01*
X72167871Y-112029482D01*
X71973617Y-112252320D01*
X71826569Y-112508773D01*
X71732378Y-112788986D01*
X65249000Y-112788986D01*
X65249000Y-62907939D01*
X76254381Y-62907939D01*
X76384531Y-63142000D01*
X77620000Y-63142000D01*
X77620000Y-61906087D01*
X77828000Y-61906087D01*
X77828000Y-63142000D01*
X79063469Y-63142000D01*
X79193619Y-62907939D01*
X79133763Y-62710610D01*
X79002225Y-62445866D01*
X78821566Y-62211871D01*
X78598728Y-62017617D01*
X78342275Y-61870569D01*
X78062062Y-61776378D01*
X77828000Y-61906087D01*
X77620000Y-61906087D01*
X77385938Y-61776378D01*
X77105725Y-61870569D01*
X76849272Y-62017617D01*
X76626434Y-62211871D01*
X76445775Y-62445866D01*
X76314237Y-62710610D01*
X76254381Y-62907939D01*
X65249000Y-62907939D01*
X65249000Y-59213606D01*
X65814000Y-59213606D01*
X65814000Y-59658394D01*
X65900774Y-60094634D01*
X66070987Y-60505564D01*
X66318097Y-60875391D01*
X66632609Y-61189903D01*
X67002436Y-61437013D01*
X67413366Y-61607226D01*
X67849606Y-61694000D01*
X68294394Y-61694000D01*
X68730634Y-61607226D01*
X69141564Y-61437013D01*
X69511391Y-61189903D01*
X69825903Y-60875391D01*
X70073013Y-60505564D01*
X70243226Y-60094634D01*
X70330000Y-59658394D01*
X70330000Y-59467606D01*
X164112000Y-59467606D01*
X164112000Y-59912394D01*
X164198774Y-60348634D01*
X164368987Y-60759564D01*
X164616097Y-61129391D01*
X164930609Y-61443903D01*
X165300436Y-61691013D01*
X165711366Y-61861226D01*
X166147606Y-61948000D01*
X166592394Y-61948000D01*
X167028634Y-61861226D01*
X167439564Y-61691013D01*
X167809391Y-61443903D01*
X168123903Y-61129391D01*
X168371013Y-60759564D01*
X168541226Y-60348634D01*
X168628000Y-59912394D01*
X168628000Y-59467606D01*
X168541226Y-59031366D01*
X168371013Y-58620436D01*
X168123903Y-58250609D01*
X167809391Y-57936097D01*
X167439564Y-57688987D01*
X167028634Y-57518774D01*
X166592394Y-57432000D01*
X166147606Y-57432000D01*
X165711366Y-57518774D01*
X165300436Y-57688987D01*
X164930609Y-57936097D01*
X164616097Y-58250609D01*
X164368987Y-58620436D01*
X164198774Y-59031366D01*
X164112000Y-59467606D01*
X70330000Y-59467606D01*
X70330000Y-59213606D01*
X70243226Y-58777366D01*
X70073013Y-58366436D01*
X69825903Y-57996609D01*
X69511391Y-57682097D01*
X69141564Y-57434987D01*
X68730634Y-57264774D01*
X68294394Y-57178000D01*
X67849606Y-57178000D01*
X67413366Y-57264774D01*
X67002436Y-57434987D01*
X66632609Y-57682097D01*
X66318097Y-57996609D01*
X66070987Y-58366436D01*
X65900774Y-58777366D01*
X65814000Y-59213606D01*
X65249000Y-59213606D01*
X65249000Y-56613000D01*
X169447000Y-56613000D01*
X169447001Y-123219000D01*
M02*
