G04 #@! TF.GenerationSoftware,KiCad,Pcbnew,(5.1.2)-2*
G04 #@! TF.CreationDate,2019-07-02T12:48:51+07:00*
G04 #@! TF.ProjectId,weather,77656174-6865-4722-9e6b-696361645f70,rev?*
G04 #@! TF.SameCoordinates,Original*
G04 #@! TF.FileFunction,Copper,L1,Top*
G04 #@! TF.FilePolarity,Positive*
%FSLAX46Y46*%
G04 Gerber Fmt 4.6, Leading zero omitted, Abs format (unit mm)*
G04 Created by KiCad (PCBNEW (5.1.2)-2) date 2019-07-02 12:48:51*
%MOMM*%
%LPD*%
G04 APERTURE LIST*
%ADD10O,1.700000X1.700000*%
%ADD11R,1.700000X1.700000*%
%ADD12O,1.600000X1.600000*%
%ADD13C,1.600000*%
G04 APERTURE END LIST*
D10*
X165354000Y-82296000D03*
X165354000Y-84836000D03*
X165354000Y-87376000D03*
D11*
X165354000Y-89916000D03*
D10*
X73202000Y-113127048D03*
X75742000Y-113127048D03*
X78282000Y-113127048D03*
X80822000Y-113127048D03*
X83362000Y-113127048D03*
D11*
X85902000Y-113127048D03*
D12*
X91948000Y-61468000D03*
D13*
X91948000Y-69088000D03*
D10*
X127979001Y-85739001D03*
X127979001Y-75579001D03*
X127979001Y-90819001D03*
X127979001Y-93359001D03*
X127979001Y-78119001D03*
X127979001Y-108599001D03*
X127979001Y-106059001D03*
X127979001Y-98439001D03*
X127979001Y-103519001D03*
X127979001Y-100979001D03*
X127979001Y-95899001D03*
X127919001Y-88299001D03*
X127979001Y-83199001D03*
X127979001Y-80659001D03*
D11*
X127979001Y-73039001D03*
D10*
X99919001Y-108619001D03*
X99919001Y-106079001D03*
X99919001Y-103539001D03*
X99919001Y-100999001D03*
X99919001Y-98459001D03*
X99919001Y-95919001D03*
X99919001Y-93379001D03*
X99919001Y-90839001D03*
X99919001Y-88299001D03*
X99919001Y-85759001D03*
X99919001Y-83219001D03*
X99919001Y-80679001D03*
X99919001Y-78139001D03*
X99919001Y-75599001D03*
D11*
X99919001Y-73059001D03*
D10*
X140970000Y-111506000D03*
X140970000Y-108966000D03*
D11*
X140970000Y-106426000D03*
D10*
X77724000Y-63246000D03*
X77724000Y-65786000D03*
D11*
X77724000Y-68326000D03*
X84836000Y-62992000D03*
D10*
X84836000Y-65532000D03*
X84836000Y-68072000D03*
M02*
