M48
; DRILL file {KiCad (5.1.2)-2} date 7/1/2019 11:59:31 PM
; FORMAT={3:3/ absolute / metric / suppress leading zeros}
; #@! TF.CreationDate,2019-07-01T23:59:31+07:00
; #@! TF.GenerationSoftware,Kicad,Pcbnew,(5.1.2)-2
FMAT,2
METRIC,TZ
T1C0.800
T2C1.000
T3C3.200
%
G90
G05
T1
X90678Y-84582
X90678Y-92202
X90932Y-110236
X90932Y-120396
X90678Y-69596
X90678Y-79756
X100076Y-63500
X110236Y-63500
T2
X90932Y-99822
X90932Y-102362
X90932Y-104902
X118110Y-63500
X120650Y-63500
X123190Y-63500
X100046Y-77988
X100046Y-80528
X100046Y-83068
X100046Y-85608
X100046Y-88148
X100046Y-90688
X100046Y-93228
X100046Y-95768
X100046Y-98308
X100046Y-100848
X100046Y-103388
X100046Y-105928
X100046Y-108468
X100046Y-111008
X100046Y-113548
X128046Y-93228
X128106Y-77968
X128106Y-80508
X128106Y-83048
X128106Y-85588
X128106Y-88128
X128106Y-90668
X128106Y-95748
X128106Y-98288
X128106Y-100828
X128106Y-103368
X128106Y-105908
X128106Y-108448
X128106Y-110988
X128106Y-113528
X157734Y-78232
X157734Y-80772
X157734Y-83312
X157734Y-85852
X142397Y-107492
X142397Y-110032
X142397Y-112572
X142397Y-115112
X142397Y-117652
X142397Y-120192
X142240Y-93218
X144780Y-93218
X147320Y-93218
T3
X184658Y-128270
X87630Y-128270
X88646Y-60706
X184404Y-60452
T0
M30
